<?xml version="1.0" encoding="UTF-8"?>
<svg version="1.1" xmlns="http://www.w3.org/2000/svg" width="512" height="512">
<path d="M0 0 C1.59464289 0.46833359 3.18451807 0.95316949 4.76953125 1.453125 C6.30481977 1.82291771 7.84263428 2.18238248 9.3828125 2.53125 C35.01144489 8.81599546 35.01144489 8.81599546 40.76953125 17.453125 C41.40172854 23.34520375 40.51941515 26.53266615 37.56762695 31.58886719 C30.22469226 44.25567121 30.78414575 56.21600344 31.76953125 70.453125 C31.86234375 72.02707031 31.86234375 72.02707031 31.95703125 73.6328125 C32.5943366 84.17490524 33.70416669 94.33890212 36.16796875 104.6171875 C36.96263063 108.36345067 37.06837106 111.64291747 36.76953125 115.453125 C36.43953125 115.783125 36.10953125 116.113125 35.76953125 116.453125 C35.64798887 117.9720284 35.58983348 119.49609298 35.55859375 121.01953125 C35.53240967 121.97263184 35.50622559 122.92573242 35.47924805 123.90771484 C35.43731323 125.44613037 35.43731323 125.44613037 35.39453125 127.015625 C34.22222194 159.45369984 18.22821503 185.41857753 -4.23046875 208.453125 C-4.75253906 209.00484375 -5.27460938 209.5565625 -5.8125 210.125 C-16.24717951 221.14854404 -26.23836815 227.6228573 -39.97241211 233.98193359 C-46.26769318 236.91704246 -52.22430751 240.21045282 -58.15234375 243.82421875 C-61.23046875 245.453125 -61.23046875 245.453125 -64.99609375 246.42578125 C-68.28908844 247.09581828 -68.28908844 247.09581828 -69.4921875 249.390625 C-69.73582031 250.07125 -69.97945313 250.751875 -70.23046875 251.453125 C-85.78374861 270.59562329 -138.70354078 273.91671591 -162.04196167 276.4246521 C-176.38056294 277.87529275 -190.60546701 278.044012 -204.96484375 276.95703125 C-210.96615446 276.50859682 -216.94576597 276.29423312 -222.96142578 276.16259766 C-235.14013085 275.88964572 -247.23044628 275.26652365 -259.35546875 274.078125 C-260.55623047 273.9642041 -261.75699219 273.8502832 -262.99414062 273.73291016 C-282.80140815 271.65973473 -282.80140815 271.65973473 -291.23046875 266.453125 C-293.52398466 265.57910118 -293.52398466 265.57910118 -295.890625 264.953125 C-296.76074219 264.70755859 -297.63085938 264.46199219 -298.52734375 264.20898438 C-299.44 263.95955078 -300.35265625 263.71011719 -301.29296875 263.453125 C-302.70642578 263.05577148 -302.70642578 263.05577148 -304.1484375 262.65039062 C-308.98744047 261.30066872 -313.82908253 260.05840404 -318.73046875 258.953125 C-325.32241933 257.34238001 -331.17056895 254.45233133 -337.23046875 251.453125 C-338.4782243 250.86907624 -339.72695348 250.2871038 -340.9765625 249.70703125 C-350.28036035 245.3135065 -358.6976606 240.01637638 -367.171875 234.1953125 C-370.2170291 232.10852115 -373.30322851 230.22789356 -376.54296875 228.453125 C-382.09568236 225.22927914 -386.54574606 220.77549743 -391.15234375 216.35546875 C-393.17240767 214.4174509 -395.23754399 212.59023797 -397.40625 210.8203125 C-399.75033048 208.85556454 -401.70418512 206.96680261 -403.66796875 204.640625 C-404.55162109 203.60228516 -404.55162109 203.60228516 -405.453125 202.54296875 C-406.03964844 201.85332031 -406.62617188 201.16367187 -407.23046875 200.453125 C-408.35532455 199.20299524 -409.48032519 197.95299579 -410.60546875 196.703125 C-414.21433445 192.58213645 -417.44149607 188.21212919 -420.6953125 183.80859375 C-423.9913586 179.39493041 -427.48003134 175.13248327 -430.98120117 170.88061523 C-440.43870438 159.245136 -443.80485014 150.59977486 -443.23046875 135.453125 C-445.21046875 134.793125 -447.19046875 134.133125 -449.23046875 133.453125 C-449.23046875 132.463125 -449.23046875 131.473125 -449.23046875 130.453125 C-448.48796875 130.80375 -447.74546875 131.154375 -446.98046875 131.515625 C-443.9673748 132.54281612 -443.12699535 132.56373925 -440.23046875 131.453125 C-438.55201456 129.91958936 -438.55201456 129.91958936 -437.04296875 127.953125 C-432.32959845 122.31336874 -427.37280862 116.54801825 -421.23046875 112.453125 C-417.76628486 112.79954339 -416.18116994 113.48599087 -413.23046875 115.453125 C-411.38760476 115.45099698 -409.54448771 115.44197417 -407.70214844 115.39794922 C-402.52401148 115.51354177 -397.44032385 116.59410468 -392.35546875 117.515625 C-391.12747559 117.73750488 -389.89948242 117.95938477 -388.63427734 118.18798828 C-375.95937518 120.56443091 -363.593382 123.80739277 -351.23046875 127.453125 C-350.32232422 127.71818848 -349.41417969 127.98325195 -348.47851562 128.25634766 C-337.19112753 131.58783989 -326.19536141 135.56815218 -315.20996094 139.77362061 C-302.72986626 144.54450599 -290.41109445 149.01878001 -277.23046875 151.453125 C-276.38468262 151.61103516 -275.53889648 151.76894531 -274.66748047 151.93164062 C-244.488659 157.3169563 -213.77069678 153.93733184 -183.60546875 150.078125 C-182.81475983 149.97915924 -182.0240509 149.88019348 -181.2093811 149.77822876 C-166.91765733 147.97086148 -152.45446625 145.67274594 -139.04296875 140.203125 C-138.29144531 139.90067871 -137.53992188 139.59823242 -136.765625 139.28662109 C-118.33605018 131.65856366 -101.79221074 119.19943235 -85.28125 108.140625 C-82.1412932 106.04256458 -78.95756652 104.04028013 -75.73046875 102.078125 C-71.18468707 99.20610394 -67.28294544 95.9979439 -63.33984375 92.35546875 C-60.78056549 90.04737891 -58.07806189 88.0261969 -55.296875 85.99609375 C-53.04940197 84.31792391 -50.89610439 82.54802628 -48.73046875 80.765625 C-43.69637582 76.68519564 -38.38049388 73.08477997 -32.93945312 69.57348633 C-23.76455545 63.47844117 -18.60155073 55.83047816 -16.10546875 45.078125 C-15.80223931 43.53869086 -15.5110444 41.9968487 -15.23046875 40.453125 C-15.06732178 39.61515381 -14.9041748 38.77718262 -14.73608398 37.91381836 C-13.78061521 32.88192701 -12.98239533 27.84077228 -12.265625 22.76953125 C-12.10255859 21.64740234 -11.93949219 20.52527344 -11.77148438 19.36914062 C-11.45787186 17.17129294 -11.16290121 14.97068628 -10.88867188 12.76757812 C-10.24178225 8.22194562 -9.59763718 5.04795174 -7.1640625 1.10546875 C-3.9389557 -0.71106943 -3.43565576 -0.72030663 0 0 Z " fill="#B44FF8" transform="translate(467.23046875,67.546875)"/>
<path d="M0 0 C2.53489266 2.53489266 5.05798305 5.06233177 7.5 7.6875 C9.96992246 9.97217828 11.82133822 11.00099201 15 12 C14.5359375 12.5259375 14.071875 13.051875 13.59375 13.59375 C11.64500481 16.53597313 11.1658899 19.04371435 10.5 22.5 C9.33209228 28.56199721 9.33209228 28.56199721 7.5546875 30.90625 C5.29202944 33.95344779 4.58418795 37.38610192 3.625 41 C1.86139388 47.33724266 -0.24228539 53.30419259 -2.90234375 59.33203125 C-3.90443649 61.76772285 -4.56771682 64.07218677 -5.1875 66.625 C-6.88356265 72.81360955 -10.3254298 78.19883211 -13.59643555 83.66845703 C-15.95847924 87.70308774 -17.33881741 90.22267456 -17 95 C-17.98828125 97.02734375 -17.98828125 97.02734375 -19.3125 98.9375 C-21.48423917 102.18893904 -23.31901241 105.46107876 -25 109 C-25.66 109 -26.32 109 -27 109 C-27 110.32 -27 111.64 -27 113 C-27.66 113 -28.32 113 -29 113 C-29.33 113.99 -29.66 114.98 -30 116 C-30.99 116 -31.98 116 -33 116 C-33.268125 116.71929687 -33.53625 117.43859375 -33.8125 118.1796875 C-37.50816397 126.95688942 -43.48150701 133.96315768 -49.9609375 140.78515625 C-52.02802646 142.82539478 -52.02802646 142.82539478 -53 145 C-53.66 145 -54.32 145 -55 145 C-55 145.66 -55 146.32 -55 147 C-58.465 148.98 -58.465 148.98 -62 151 C-63.66015625 149.76302083 -65.3203125 148.52604167 -66.98046875 147.2890625 C-74.7428049 142.33437985 -83.83215816 143.02884299 -92.53125 144.875 C-107.32142935 148.448633 -118.98802059 155.36395595 -128 167.875 C-130.70472321 172.4160403 -130.4736291 176.86375556 -130 182 C-135.41599 184.00726173 -140.90460646 185.06488115 -146.5625 186.125 C-147.49513672 186.30675781 -148.42777344 186.48851562 -149.38867188 186.67578125 C-150.29294922 186.84722656 -151.19722656 187.01867187 -152.12890625 187.1953125 C-152.94431885 187.35016113 -153.75973145 187.50500977 -154.59985352 187.66455078 C-157.0972007 188.01358496 -159.48171309 188.05768566 -162 188 C-162 188.66 -162 189.32 -162 190 C-196.06381585 193.15405702 -232.55925724 190.63117426 -266 184 C-267.10263184 183.78327637 -268.20526367 183.56655273 -269.34130859 183.34326172 C-283.5192833 180.50525999 -297.14719467 177.03241628 -310.66015625 171.87792969 C-313.01116404 170.99581115 -315.37528656 170.16750468 -317.75 169.3515625 C-334.15125245 163.65658963 -349.35919157 156.22117189 -363.6171875 146.30078125 C-366.68713796 144.17375658 -369.86140848 142.31926054 -373.125 140.5 C-379.92216999 136.617208 -385.90018675 131.87522953 -392 127 C-393.31484375 125.97712891 -393.31484375 125.97712891 -394.65625 124.93359375 C-397.13602465 122.99136519 -399.57435486 121.00938779 -402 119 C-402.49902832 118.59217285 -402.99805664 118.1843457 -403.51220703 117.76416016 C-405.08739222 116.46549346 -406.6391084 115.14294053 -408.1875 113.8125 C-409.60095703 112.61560547 -409.60095703 112.61560547 -411.04296875 111.39453125 C-413 109 -413 109 -412.80078125 106.19921875 C-412.53652344 105.47347656 -412.27226562 104.74773437 -412 104 C-407.19043387 103.13294358 -403.3491977 103.01835638 -398.5546875 103.93359375 C-397.32709717 104.16626953 -396.09950684 104.39894531 -394.8347168 104.63867188 C-393.51456105 104.90370494 -392.1946608 105.1700134 -390.875 105.4375 C-390.19925934 105.57115967 -389.52351868 105.70481934 -388.82730103 105.8425293 C-364.62568086 110.64730706 -341.08115826 117.73538641 -317.98350525 126.35844421 C-271.4314584 143.72100907 -227.89680481 144.06653695 -178.875 137.625 C-178.10766541 137.52603424 -177.34033081 137.42706848 -176.54974365 137.32510376 C-162.29570101 135.4654065 -148.00604449 132.94833651 -134.5 127.875 C-133.31712402 127.43124023 -133.31712402 127.43124023 -132.11035156 126.97851562 C-123.48176407 123.59895673 -115.77354535 118.99896822 -108 114 C-107.07010254 113.40525879 -106.14020508 112.81051758 -105.18212891 112.19775391 C-95.6473527 106.082303 -86.16653951 99.92440496 -76.99389648 93.27416992 C-75 92 -75 92 -73 92 C-72.74734375 91.41734375 -72.4946875 90.8346875 -72.234375 90.234375 C-68.19881132 82.9294939 -60.24592071 78.85400913 -53.15966797 74.9987793 C-48.62297796 72.4829562 -45.00947783 69.61525394 -41.265625 66.05859375 C-38.67917672 63.70849333 -35.9479334 61.68429372 -33.125 59.625 C-26.21327117 54.51633086 -19.10132994 49.0818975 -13.875 42.203125 C-13.25625 41.47609375 -12.6375 40.7490625 -12 40 C-11.01 40 -10.02 40 -9 40 C-8.86335938 39.28610107 -8.72671875 38.57220215 -8.5859375 37.83666992 C-8.01389849 35.06728607 -7.34127111 32.34863781 -6.625 29.61328125 C-6.36203125 28.59169922 -6.0990625 27.57011719 -5.828125 26.51757812 C-5.28077095 24.39916304 -4.7287672 22.28194332 -4.171875 20.16601562 C-2.69164962 14.37935022 -1.61190089 8.81722206 -1.2109375 2.85229492 C-1 1 -1 1 0 0 Z " fill="#C993F7" transform="translate(465,89)"/>
<path d="M0 0 C1.59464289 0.46833359 3.18451807 0.95316949 4.76953125 1.453125 C6.30481977 1.82291771 7.84263428 2.18238248 9.3828125 2.53125 C35.01144489 8.81599546 35.01144489 8.81599546 40.76953125 17.453125 C41.40172854 23.34520375 40.51941515 26.53266615 37.56762695 31.58886719 C30.22469226 44.25567121 30.78414575 56.21600344 31.76953125 70.453125 C31.86234375 72.02707031 31.86234375 72.02707031 31.95703125 73.6328125 C32.5943366 84.17490524 33.70416669 94.33890212 36.16796875 104.6171875 C36.96263063 108.36345067 37.06837106 111.64291747 36.76953125 115.453125 C36.43953125 115.783125 36.10953125 116.113125 35.76953125 116.453125 C35.64798887 117.9720284 35.58983348 119.49609298 35.55859375 121.01953125 C35.53240967 121.97263184 35.50622559 122.92573242 35.47924805 123.90771484 C35.43731323 125.44613037 35.43731323 125.44613037 35.39453125 127.015625 C34.22222194 159.45369984 18.22821503 185.41857753 -4.23046875 208.453125 C-4.75253906 209.00484375 -5.27460938 209.5565625 -5.8125 210.125 C-16.24717951 221.14854404 -26.23836815 227.6228573 -39.97241211 233.98193359 C-46.26769318 236.91704246 -52.22430751 240.21045282 -58.15234375 243.82421875 C-61.23046875 245.453125 -61.23046875 245.453125 -64.99609375 246.42578125 C-68.28908844 247.09581828 -68.28908844 247.09581828 -69.4921875 249.390625 C-69.73582031 250.07125 -69.97945313 250.751875 -70.23046875 251.453125 C-85.78374861 270.59562329 -138.70354078 273.91671591 -162.04196167 276.4246521 C-176.38056294 277.87529275 -190.60546701 278.044012 -204.96484375 276.95703125 C-210.96615446 276.50859682 -216.94576597 276.29423312 -222.96142578 276.16259766 C-235.14013085 275.88964572 -247.23044628 275.26652365 -259.35546875 274.078125 C-260.55623047 273.9642041 -261.75699219 273.8502832 -262.99414062 273.73291016 C-282.80140815 271.65973473 -282.80140815 271.65973473 -291.23046875 266.453125 C-293.52398466 265.57910118 -293.52398466 265.57910118 -295.890625 264.953125 C-296.76074219 264.70755859 -297.63085938 264.46199219 -298.52734375 264.20898438 C-299.44 263.95955078 -300.35265625 263.71011719 -301.29296875 263.453125 C-302.70642578 263.05577148 -302.70642578 263.05577148 -304.1484375 262.65039062 C-308.98744047 261.30066872 -313.82908253 260.05840404 -318.73046875 258.953125 C-325.32241933 257.34238001 -331.17056895 254.45233133 -337.23046875 251.453125 C-338.4782243 250.86907624 -339.72695348 250.2871038 -340.9765625 249.70703125 C-350.28036035 245.3135065 -358.6976606 240.01637638 -367.171875 234.1953125 C-370.2170291 232.10852115 -373.30322851 230.22789356 -376.54296875 228.453125 C-382.09568236 225.22927914 -386.54574606 220.77549743 -391.15234375 216.35546875 C-393.17240767 214.4174509 -395.23754399 212.59023797 -397.40625 210.8203125 C-399.75033048 208.85556454 -401.70418512 206.96680261 -403.66796875 204.640625 C-404.55162109 203.60228516 -404.55162109 203.60228516 -405.453125 202.54296875 C-406.03964844 201.85332031 -406.62617188 201.16367187 -407.23046875 200.453125 C-408.35532455 199.20299524 -409.48032519 197.95299579 -410.60546875 196.703125 C-414.21433445 192.58213645 -417.44149607 188.21212919 -420.6953125 183.80859375 C-423.9913586 179.39493041 -427.48003134 175.13248327 -430.98120117 170.88061523 C-440.43870438 159.245136 -443.80485014 150.59977486 -443.23046875 135.453125 C-445.21046875 134.793125 -447.19046875 134.133125 -449.23046875 133.453125 C-449.23046875 132.463125 -449.23046875 131.473125 -449.23046875 130.453125 C-448.48796875 130.80375 -447.74546875 131.154375 -446.98046875 131.515625 C-443.9673748 132.54281612 -443.12699535 132.56373925 -440.23046875 131.453125 C-438.55201456 129.91958936 -438.55201456 129.91958936 -437.04296875 127.953125 C-432.32959845 122.31336874 -427.37280862 116.54801825 -421.23046875 112.453125 C-417.76628486 112.79954339 -416.18116994 113.48599087 -413.23046875 115.453125 C-411.38760476 115.45099698 -409.54448771 115.44197417 -407.70214844 115.39794922 C-402.52401148 115.51354177 -397.44032385 116.59410468 -392.35546875 117.515625 C-391.12747559 117.73750488 -389.89948242 117.95938477 -388.63427734 118.18798828 C-375.95937518 120.56443091 -363.593382 123.80739277 -351.23046875 127.453125 C-350.32232422 127.71818848 -349.41417969 127.98325195 -348.47851562 128.25634766 C-337.19112753 131.58783989 -326.19536141 135.56815218 -315.20996094 139.77362061 C-302.72986626 144.54450599 -290.41109445 149.01878001 -277.23046875 151.453125 C-276.38468262 151.61103516 -275.53889648 151.76894531 -274.66748047 151.93164062 C-244.488659 157.3169563 -213.77069678 153.93733184 -183.60546875 150.078125 C-182.81475983 149.97915924 -182.0240509 149.88019348 -181.2093811 149.77822876 C-166.91765733 147.97086148 -152.45446625 145.67274594 -139.04296875 140.203125 C-138.29144531 139.90067871 -137.53992188 139.59823242 -136.765625 139.28662109 C-118.33605018 131.65856366 -101.79221074 119.19943235 -85.28125 108.140625 C-82.1412932 106.04256458 -78.95756652 104.04028013 -75.73046875 102.078125 C-71.18468707 99.20610394 -67.28294544 95.9979439 -63.33984375 92.35546875 C-60.78056549 90.04737891 -58.07806189 88.0261969 -55.296875 85.99609375 C-53.04940197 84.31792391 -50.89610439 82.54802628 -48.73046875 80.765625 C-43.69637582 76.68519564 -38.38049388 73.08477997 -32.93945312 69.57348633 C-23.76455545 63.47844117 -18.60155073 55.83047816 -16.10546875 45.078125 C-15.80223931 43.53869086 -15.5110444 41.9968487 -15.23046875 40.453125 C-15.06732178 39.61515381 -14.9041748 38.77718262 -14.73608398 37.91381836 C-13.78061521 32.88192701 -12.98239533 27.84077228 -12.265625 22.76953125 C-12.10255859 21.64740234 -11.93949219 20.52527344 -11.77148438 19.36914062 C-11.45787186 17.17129294 -11.16290121 14.97068628 -10.88867188 12.76757812 C-10.24178225 8.22194562 -9.59763718 5.04795174 -7.1640625 1.10546875 C-3.9389557 -0.71106943 -3.43565576 -0.72030663 0 0 Z M-2.23046875 21.453125 C-3.99150534 23.21416159 -3.70136547 25.86812783 -3.98046875 28.265625 C-5.1789555 37.15821369 -7.45044311 45.71942873 -9.71142578 54.39111328 C-10.30043094 56.73106508 -10.7984091 59.0792242 -11.23046875 61.453125 C-11.80410156 61.52015625 -12.37773437 61.5871875 -12.96875 61.65625 C-16.12311366 62.76763202 -17.30909778 64.62022463 -19.41796875 67.203125 C-25.46539571 74.25943292 -32.81638804 79.45657683 -40.25048828 84.95458984 C-42.95806951 87.00380484 -45.52290125 89.18599421 -48.10546875 91.390625 C-51.50222972 94.2229695 -54.78796108 96.39160703 -58.73046875 98.390625 C-65.13567441 101.67179096 -70.33761196 106.19117456 -75.23046875 111.453125 C-75.23046875 112.113125 -75.23046875 112.773125 -75.23046875 113.453125 C-75.80901611 113.73293213 -76.38756348 114.01273926 -76.98364258 114.30102539 C-79.13012421 115.40167157 -81.14241118 116.5967145 -83.1796875 117.88671875 C-83.93693115 118.36536377 -84.6941748 118.84400879 -85.47436523 119.3371582 C-86.28075439 119.84980225 -87.08714355 120.36244629 -87.91796875 120.890625 C-88.757229 121.42196045 -89.59648926 121.9532959 -90.46118164 122.50073242 C-95.3371198 125.5938527 -100.19140549 128.71819863 -105.02807617 131.87231445 C-107.80617421 133.68116847 -110.59270797 135.47660547 -113.38330078 137.26611328 C-115.02321042 138.31993837 -116.65662276 139.38385897 -118.2890625 140.44921875 C-124.08913653 144.06119273 -130.04389684 146.7363359 -136.41796875 149.140625 C-137.1351709 149.41422852 -137.85237305 149.68783203 -138.59130859 149.96972656 C-152.31359616 154.90700384 -166.70030621 157.22024207 -181.10546875 159.078125 C-181.90583557 159.18329437 -182.70620239 159.28846375 -183.53082275 159.39682007 C-234.09566072 166.01359315 -278.21957437 163.98722727 -325.97943115 145.72747803 C-369.20456308 128.25393945 -369.20456308 128.25393945 -414.23046875 125.453125 C-414.59398437 126.53980469 -414.59398437 126.53980469 -414.96484375 127.6484375 C-416.85882045 133.11183182 -418.75010276 137.7763832 -422.23046875 142.453125 C-422.9864326 143.57412619 -423.73652463 144.69911121 -424.48046875 145.828125 C-425.05796875 146.694375 -425.63546875 147.560625 -426.23046875 148.453125 C-427.40609375 148.1746875 -427.40609375 148.1746875 -428.60546875 147.890625 C-431.2013665 147.19350234 -431.2013665 147.19350234 -433.23046875 148.453125 C-431.34173821 158.14709138 -424.06287557 166.12853985 -417.70800781 173.30566406 C-414.64282716 176.77289839 -411.8246451 180.2789685 -409.16796875 184.078125 C-405.45229841 189.34069575 -401.25407411 193.95051614 -396.84375 198.62890625 C-395.07227662 200.54336851 -393.36178188 202.51575126 -391.7109375 204.53515625 C-385.36786612 211.99700558 -377.24618224 217.24778452 -368.89453125 222.2109375 C-364.49823679 224.85262416 -360.2861649 227.76220466 -356.04296875 230.640625 C-349.96385695 234.73115987 -343.98593467 238.55792532 -337.23046875 241.453125 C-336.26882813 241.86820313 -335.3071875 242.28328125 -334.31640625 242.7109375 C-331.29825029 243.98696799 -328.27014069 245.22921863 -325.23046875 246.453125 C-324.53002441 246.75436279 -323.82958008 247.05560059 -323.10791016 247.3659668 C-316.10133121 250.31066791 -308.96451015 252.27649696 -301.60546875 254.140625 C-299.84203125 254.60178711 -299.84203125 254.60178711 -298.04296875 255.07226562 C-290.91769756 256.90898592 -290.91769756 256.90898592 -283.64453125 257.91015625 C-280.23046875 258.453125 -280.23046875 258.453125 -278.41796875 260.41015625 C-274.74947276 263.83626947 -270.08120043 263.63572764 -265.23046875 264.140625 C-264.25207031 264.25728516 -263.27367187 264.37394531 -262.265625 264.49414062 C-259.25626841 264.84411179 -256.24550428 265.15625246 -253.23046875 265.453125 C-252.28413574 265.5473877 -251.33780273 265.64165039 -250.36279297 265.73876953 C-242.03836161 266.50244012 -233.70811707 266.74199026 -225.35546875 266.953125 C-222.62879495 267.0224088 -219.9022417 267.09462842 -217.17578125 267.171875 C-216.16792572 267.20039551 -216.16792572 267.20039551 -215.13970947 267.22949219 C-210.84158332 267.36497702 -206.57080701 267.63652567 -202.28515625 267.984375 C-189.36047798 268.95970101 -176.48885352 268.697021 -163.60546875 267.265625 C-162.9278952 267.19053711 -162.25032166 267.11544922 -161.55221558 267.03808594 C-145.89237194 265.22273562 -130.61164943 261.59480153 -115.29296875 257.953125 C-113.4782608 257.52297592 -113.4782608 257.52297592 -111.62689209 257.08413696 C-108.12873599 256.2492141 -104.63400335 255.40155094 -101.140625 254.546875 C-100.10217941 254.2958049 -99.06373383 254.0447348 -97.99382019 253.78605652 C-85.72586358 251.31980408 -85.72586358 251.31980408 -75.91796875 244.578125 C-75.36109375 243.546875 -74.80421875 242.515625 -74.23046875 241.453125 C-72.8828125 239.734375 -72.8828125 239.734375 -71.35546875 238.078125 C-70.90429688 237.57539063 -70.453125 237.07265625 -69.98828125 236.5546875 C-68.23046875 235.453125 -68.23046875 235.453125 -65.4387207 235.53076172 C-61.92985881 235.44585052 -60.2004554 234.76171288 -57.140625 233.109375 C-56.19856201 232.60897705 -55.25649902 232.1085791 -54.28588867 231.59301758 C-53.2982251 231.05185303 -52.31056152 230.51068848 -51.29296875 229.953125 C-50.27114502 229.40358154 -49.24932129 228.85403809 -48.1965332 228.2878418 C-46.14802987 227.18604299 -44.10167853 226.08023274 -42.05761719 224.97021484 C-39.63502845 223.67021774 -37.19982542 222.41536909 -34.73828125 221.19140625 C-26.85618915 217.24694212 -20.49057044 212.72409493 -14.23046875 206.453125 C-13.14765625 205.47666016 -13.14765625 205.47666016 -12.04296875 204.48046875 C-4.47496344 197.46654954 1.040611 188.96245834 6.76953125 180.453125 C7.34380859 179.61120605 7.91808594 178.76928711 8.50976562 177.90185547 C10.27790748 175.30362062 12.02657151 172.69330609 13.76953125 170.078125 C14.30932617 169.28301514 14.84912109 168.48790527 15.40527344 167.66870117 C24.75381319 153.42673917 26.01050222 138.12597644 26.45703125 121.453125 C26.4763269 120.77881439 26.49562256 120.10450378 26.51550293 119.40975952 C26.93948627 104.20126198 26.70590762 89.40065556 24.08203125 74.390625 C22.44366272 64.9335354 23.13822544 56.27938337 24.44335938 46.82324219 C24.80240266 44.21426595 25.1558043 41.60668483 25.47265625 38.9921875 C25.57739258 38.17186035 25.68212891 37.3515332 25.79003906 36.50634766 C26.00680973 34.22373067 26.00680973 34.22373067 23.76953125 32.453125 C21.67661968 32.53884161 21.67661968 32.53884161 19.76953125 33.453125 C19.43953125 34.443125 19.10953125 35.433125 18.76953125 36.453125 C16.76953125 35.453125 14.76953125 34.453125 12.76953125 33.453125 C11.82078125 33.081875 10.87203125 32.710625 9.89453125 32.328125 C5.90476965 29.93426804 3.37509451 26.86205484 0.40625 23.31640625 C-0.13386719 22.70152344 -0.67398437 22.08664063 -1.23046875 21.453125 C-1.56046875 21.453125 -1.89046875 21.453125 -2.23046875 21.453125 Z " fill="#000000" transform="translate(467.23046875,67.546875)"/>
<path d="M0 0 C3.875 0.875 3.875 0.875 5 2 C4.9407124 3.4724339 4.8065737 4.94199673 4.640625 6.40625 C4.54072266 7.31375 4.44082031 8.22125 4.33789062 9.15625 C4.12246573 10.96930579 3.90285469 12.78187252 3.67773438 14.59375 C2.38494506 24.99951431 1.62189995 34.38281341 3.75195312 44.6887207 C9.11943917 72.05991759 10.25548157 112.20633707 -5.95629883 136.36401367 C-6.44509521 137.06888916 -6.9338916 137.77376465 -7.4375 138.5 C-7.96045654 139.26481689 -8.48341309 140.02963379 -9.0222168 140.81762695 C-10.12188654 142.4179939 -11.22684568 144.01473845 -12.33691406 145.60791016 C-13.95796625 147.93954101 -15.55351401 150.28717031 -17.1484375 152.63671875 C-28.34784338 168.90070237 -40.19116605 181.28370451 -58 190 C-59.93314839 190.97095241 -61.86538596 191.94371963 -63.796875 192.91796875 C-68.48203738 195.27590305 -73.18161995 197.60255723 -77.89379883 199.90600586 C-80.20415058 201.05757468 -80.20415058 201.05757468 -83 203 C-83.886875 202.87625 -84.77375 202.7525 -85.6875 202.625 C-90.9619122 203.22210327 -93.75858476 206.99933434 -97 211 C-97.2651088 211.66173218 -97.53021759 212.32346436 -97.80335999 213.00524902 C-100.88191678 218.1370799 -110.27961139 219.12951859 -115.75805664 220.58398438 C-117.80693995 221.09458497 -119.85774316 221.59752799 -121.91015625 222.09375 C-123.58112114 222.50256157 -123.58112114 222.50256157 -125.2858429 222.91963196 C-128.8754809 223.79095567 -132.46822139 224.64803061 -136.0625 225.5 C-137.28809631 225.79135834 -138.51369263 226.08271667 -139.77642822 226.38290405 C-154.55587955 229.87028664 -169.26937681 233.13851289 -184.375 234.8125 C-185.63965088 234.95300781 -186.90430176 235.09351563 -188.20727539 235.23828125 C-201.01637363 236.45171127 -213.73499902 236.28609951 -226.54638672 235.24511719 C-231.40852781 234.90003097 -236.26656007 234.81182755 -241.13891602 234.70922852 C-253.50491832 234.44376459 -265.75550818 233.83441425 -278.0625 232.5625 C-279.26205322 232.4402002 -280.46160645 232.31790039 -281.69750977 232.19189453 C-296.46228017 230.56137706 -296.46228017 230.56137706 -299.5234375 227.453125 C-301.86538801 225.1483483 -304.42047897 225.2222452 -307.625 224.75 C-322.69606463 222.24141534 -338.42989209 218.50495893 -352.05859375 211.45703125 C-354.62254683 210.18697215 -357.13518728 209.18112981 -359.80859375 208.17578125 C-364.8990409 206.16735383 -369.16107079 203.50858241 -373.625 200.375 C-375.19501716 199.29584936 -376.76666437 198.21906679 -378.33984375 197.14453125 C-379.11956543 196.61166504 -379.89928711 196.07879883 -380.70263672 195.52978516 C-383.48569605 193.67658114 -386.3352673 191.95947964 -389.20678711 190.24804688 C-401.24447651 183.04294152 -412.28952629 174.05851445 -421 163 C-421.93139225 161.84302537 -422.86378485 160.68685572 -423.796875 159.53125 C-426.41023632 156.28638129 -429.00520256 153.0272907 -431.59570312 149.76416016 C-433.44784077 147.43739614 -435.31878993 145.12596306 -437.1875 142.8125 C-454 121.75300104 -454 121.75300104 -454 116 C-451.9375 115.0625 -451.9375 115.0625 -449 115 C-447.12911021 116.47201989 -445.62595654 118.14237196 -444.0234375 119.90234375 C-441.81318202 122.19367038 -439.46218611 124.06289099 -436.9375 126 C-432.12312309 129.78012347 -428.43940254 133.87610839 -424.69140625 138.67578125 C-420.14253847 144.28132653 -414.64234758 148.53734545 -409 153 C-408.21753906 153.64839844 -407.43507813 154.29679688 -406.62890625 154.96484375 C-394.64038634 164.85082391 -381.51626533 173.36229591 -368 181 C-366.89527344 181.62777344 -365.79054688 182.25554687 -364.65234375 182.90234375 C-356.48091238 187.26999771 -348.24184405 189.9514743 -339.35546875 192.45703125 C-335.68029314 193.49479957 -332.04958583 194.61922956 -328.42578125 195.82421875 C-327.48863281 196.13423828 -326.55148437 196.44425781 -325.5859375 196.76367188 C-323.82134108 197.35145646 -322.05928535 197.94696663 -320.30078125 198.55273438 C-307.42101582 202.79629906 -294.1823271 204.34594777 -280.70053101 204.90942383 C-276.93181264 205.06908292 -273.16522963 205.26932826 -269.3984375 205.46875 C-268.62608261 205.50923462 -267.85372772 205.54971924 -267.05796814 205.59143066 C-258.58591568 206.05082282 -250.13813791 206.75033614 -241.6875 207.5 C-240.99455841 207.55994141 -240.30161682 207.61988281 -239.587677 207.68164062 C-232.63762906 208.28583926 -225.74656651 209.00717455 -218.8515625 210.07421875 C-212.1034841 211.07149987 -205.50282513 211.34532723 -198.6875 211.3125 C-197.48689941 211.30903564 -196.28629883 211.30557129 -195.04931641 211.30200195 C-182.89123406 211.15747201 -171.01177962 209.78898845 -159 208 C-157.41670036 207.78100625 -155.8333694 207.56223879 -154.25 207.34375 C-124.4633469 203.02284662 -98.32838521 192.28925615 -72.74316406 176.66015625 C-70.16814345 175.10176001 -67.57363604 173.58790974 -64.9609375 172.09375 C-64.19064209 171.65160156 -63.42034668 171.20945312 -62.62670898 170.75390625 C-61.23275148 169.95549365 -59.83664883 169.16080628 -58.43774414 168.37109375 C-51.17839596 164.16091702 -45.61017804 158.98755617 -40.5625 152.3125 C-40.09223389 151.69947021 -39.62196777 151.08644043 -39.13745117 150.45483398 C-38.19134697 149.21692709 -37.24895424 147.97617357 -36.31054688 146.73242188 C-35.15278232 145.2019641 -33.97621019 143.68577337 -32.796875 142.171875 C-27.27112093 134.90572595 -23.06300769 127.14179843 -19 119 C-18.50242187 118.01644531 -18.00484375 117.03289062 -17.4921875 116.01953125 C-14.35915161 109.51895079 -12.56873269 103.02476524 -11 96 C-10.62866425 94.60318739 -10.25412028 93.20721987 -9.875 91.8125 C-8.06558198 84.2716809 -8.06558198 84.2716809 -8.5390625 76.6484375 C-9.11983043 73.31148278 -8.63363579 70.64599191 -8.0625 67.3125 C-6.23627424 56.63331227 -7.22472653 46.36237968 -8.2890625 35.65429688 C-9.90129498 18.55311668 -9.90129498 18.55311668 -8.0625 10.5 C-7.80146484 9.30890625 -7.80146484 9.30890625 -7.53515625 8.09375 C-7.09601052 6.37563239 -6.56078312 4.68234936 -6 3 C-4.02 3.495 -4.02 3.495 -2 4 C-1.34 2.68 -0.68 1.36 0 0 Z " fill="#A042CF" transform="translate(488,100)"/>
<path d="M0 0 C6.29882002 4.60521464 10.00498761 10.37463685 11.66015625 18.05078125 C12.70602217 25.26930681 11.77189783 31.19100287 8.12109375 37.55078125 C0.49739445 46.76275124 -12.9518966 55.25127147 -24.69140625 57.17578125 C-48.47160334 59.31559525 -48.47160334 59.31559525 -55.87890625 53.55078125 C-62.74133029 46.53917408 -64.54433742 38.63660586 -65.08984375 29.01953125 C-64.75373712 23.49244441 -62.55566182 20.52524982 -58.87890625 16.55078125 C-58.20085937 15.77992188 -57.5228125 15.0090625 -56.82421875 14.21484375 C-43.81147874 0.27593007 -18.03138991 -10.51090873 0 0 Z " fill="#A207E0" transform="translate(398.87890625,235.44921875)"/>
<path d="M0 0 C6.29882002 4.60521464 10.00498761 10.37463685 11.66015625 18.05078125 C12.70602217 25.26930681 11.77189783 31.19100287 8.12109375 37.55078125 C0.49739445 46.76275124 -12.9518966 55.25127147 -24.69140625 57.17578125 C-48.47160334 59.31559525 -48.47160334 59.31559525 -55.87890625 53.55078125 C-62.74133029 46.53917408 -64.54433742 38.63660586 -65.08984375 29.01953125 C-64.75373712 23.49244441 -62.55566182 20.52524982 -58.87890625 16.55078125 C-58.20085937 15.77992188 -57.5228125 15.0090625 -56.82421875 14.21484375 C-43.81147874 0.27593007 -18.03138991 -10.51090873 0 0 Z M-53.9609375 17.265625 C-54.59386719 18.01972656 -55.22679687 18.77382812 -55.87890625 19.55078125 C-56.72001953 20.54271484 -56.72001953 20.54271484 -57.578125 21.5546875 C-60.48738947 25.50012836 -61.15404468 28.14128988 -60.69140625 33.05078125 C-60.44890931 34.55562208 -60.18782982 36.05816043 -59.87890625 37.55078125 C-58.21241147 34.3836871 -56.96037768 31.14428278 -55.69140625 27.80078125 C-52.75888206 20.73684797 -49.18861931 15.58752775 -42.62890625 11.55078125 C-39.87890625 10.55078125 -39.87890625 10.55078125 -36.87890625 10.55078125 C-36.25732881 22.18809224 -36.25732881 22.18809224 -38.50390625 27.11328125 C-41.08277135 29.76001122 -43.78096227 31.55002576 -46.87890625 33.55078125 C-47.51828125 34.37578125 -48.15765625 35.20078125 -48.81640625 36.05078125 C-51.48580327 39.286414 -54.17070747 40.62537034 -57.87890625 42.55078125 C-55.45644958 47.30597397 -53.91420081 50.2848987 -48.87890625 52.55078125 C-38.61460087 55.7696314 -24.69939829 53.97862514 -15.00390625 49.61328125 C-10.55070325 47.17307083 -6.48645411 44.23165845 -2.44140625 41.17578125 C-1.8376416 40.72984619 -1.23387695 40.28391113 -0.61181641 39.82446289 C4.4915912 35.81134838 6.07505419 31.91305127 7.99609375 25.73828125 C8.26847751 18.79249548 5.63368341 11.79514221 1.12109375 6.55078125 C-15.41628538 -5.76856191 -41.02224356 3.14854364 -53.9609375 17.265625 Z " fill="#000000" transform="translate(398.87890625,235.44921875)"/>
<path d="M0 0 C0.66 0 1.32 0 2 0 C1.0651498 10.09638218 -1.97708637 18.68242646 -6.8125 27.5625 C-7.26044922 28.39604004 -7.70839844 29.22958008 -8.16992188 30.08837891 C-11.16656582 35.60788482 -14.23716368 40.96162594 -18 46 C-18.74894531 47.01191406 -19.49789063 48.02382812 -20.26953125 49.06640625 C-28.40076862 59.91864569 -36.10590053 69.13627126 -48 76 C-49.15939981 76.7013818 -50.31686953 77.40596138 -51.47265625 78.11328125 C-60.51979042 83.63546414 -69.70634216 88.90450261 -79 94 C-79.83402344 94.46019531 -80.66804688 94.92039062 -81.52734375 95.39453125 C-112.22359293 111.52489769 -146.27583738 116.33254583 -180.47973633 118.28222656 C-187.18297722 118.6808997 -193.71348994 119.25365693 -200.3125 120.5 C-217.95800247 123.82263725 -236.08154417 124.50323837 -254 124 C-255.93746094 123.95552734 -255.93746094 123.95552734 -257.9140625 123.91015625 C-275.77592929 123.15204389 -293.83059656 119.9259157 -311 115 C-312.18867676 114.66331299 -312.18867676 114.66331299 -313.40136719 114.31982422 C-347.05151561 104.72292 -379.12888441 89.2643912 -407 68 C-402.81902112 68 -400.26749169 70.16466024 -396.875 72.375 C-395.41633502 73.30230952 -393.95666842 74.22804504 -392.49609375 75.15234375 C-391.7469873 75.62784668 -390.99788086 76.10334961 -390.22607422 76.59326172 C-358.12219582 96.88088481 -322.54376072 111.72595342 -285 118 C-283.79085937 118.20238281 -282.58171875 118.40476562 -281.3359375 118.61328125 C-278.30396096 119.06157575 -275.27562503 119.44085262 -272.22753906 119.76025391 C-270.61340474 119.93398033 -269.00090903 120.12315768 -267.38964844 120.32177734 C-244.15417345 123.12824272 -220.5986837 121.48496265 -197.63623047 117.05371094 C-190.84123076 115.80939591 -184.01290636 115.47217286 -177.125 115.0625 C-134.95859821 112.43873974 -97.89916839 102.74657092 -61.74316406 80.66015625 C-59.16814345 79.10176001 -56.57363604 77.58790974 -53.9609375 76.09375 C-53.19064209 75.65160156 -52.42034668 75.20945312 -51.62670898 74.75390625 C-50.23275148 73.95549365 -48.83664883 73.16080628 -47.43774414 72.37109375 C-40.17839596 68.16091702 -34.61017804 62.98755617 -29.5625 56.3125 C-29.09223389 55.69947021 -28.62196777 55.08644043 -28.13745117 54.45483398 C-27.19134697 53.21692709 -26.24895424 51.97617357 -25.31054688 50.73242188 C-24.15278232 49.2019641 -22.97621019 47.68577337 -21.796875 46.171875 C-16.27112093 38.90572595 -12.06300769 31.14179843 -8 23 C-7.50242187 22.01644531 -7.00484375 21.03289062 -6.4921875 20.01953125 C-3.36879902 13.53896774 -1.5078545 7.02439536 0 0 Z " fill="#9534E0" transform="translate(477,196)"/>
<path d="M0 0 C5.875 1.875 5.875 1.875 7 3 C7.39943176 5.52195967 7.75079848 8.02963656 8.0625 10.5625 C8.15337891 11.27341797 8.24425781 11.98433594 8.33789062 12.71679688 C8.56239503 14.47738403 8.78168397 16.23863478 9 18 C11.64107354 15.53258609 12.79641403 13.42559084 14 10 C16.52349243 13.12432397 18.27256146 16.38060496 20 20 C13.95057046 25.3460075 9.65797642 27.49157243 1.4375 27.3203125 C-3.17644061 26.71399338 -5.8914812 24.25632131 -8.875 20.875 C-10 19 -10 19 -10 17 C-8.6078125 16.1028125 -8.6078125 16.1028125 -7.1875 15.1875 C-3.37207628 12.56907196 -1.4772134 10.51238822 -0.6015625 5.90234375 C-0.3456283 3.94133442 -0.166998 1.97057646 0 0 Z " fill="#000000" transform="translate(365,253)"/>
<path d="M0 0 C2.1328125 1.609375 2.1328125 1.609375 4.125 3.75 C5.11886719 4.79414063 5.11886719 4.79414063 6.1328125 5.859375 C10.90564513 11.33115802 12.23517104 14.88966503 12.16796875 22.09375 C11.96352584 24.41393929 11.28914803 26.06627796 10 28 C7.2743629 26.63718145 7.07349319 25.14913458 5.875 22.375 C2.0100821 14.4291835 -3.76558199 9.91635638 -12 7 C-12 5.68 -12 4.36 -12 3 C-4.4057377 -0.57377049 -4.4057377 -0.57377049 0 0 Z " fill="#000000" transform="translate(377,243)"/>
<path d="M0 0 C9.27630292 1.518611 17.89519363 4.54960415 26.74804688 7.63476562 C39.6239758 12.04412932 52.17525314 14.77836589 65.76953125 15.46484375 C67.24228061 15.54209433 68.71501784 15.61957667 70.18774414 15.69726562 C71.32277878 15.75587769 71.32277878 15.75587769 72.48074341 15.81567383 C94.0826012 16.94429576 94.0826012 16.94429576 104.5625 18 C105.31571533 18.07081787 106.06893066 18.14163574 106.8449707 18.21459961 C111.75240915 18.75240915 111.75240915 18.75240915 114 21 C104.45995488 21.34139326 95.0814009 20.6002653 85.58398438 19.77734375 C79.8494448 19.28610419 74.14033024 18.89594202 68.38818359 18.70556641 C58.2298821 18.3536622 48.82472891 16.52884357 39 14 C37.72511719 13.68933594 36.45023438 13.37867188 35.13671875 13.05859375 C23.09754361 10.0201958 11.36830744 5.98843699 0 1 C0 0.67 0 0.34 0 0 Z " fill="#9637D0" transform="translate(135,289)"/>
<path d="M0 0 C0.66 0 1.32 0 2 0 C2.020625 0.598125 2.04125 1.19625 2.0625 1.8125 C2.85416667 4.35416667 2.85416667 4.35416667 6.0625 5.3125 C6.69027344 5.55484375 7.31804687 5.7971875 7.96484375 6.046875 C15.70853456 9.67347876 20.03718344 16.20836221 23 24 C23 24.66 23 25.32 23 26 C20 25 20 25 18.3125 21.9375 C17.879375 20.968125 17.44625 19.99875 17 19 C16.38125 19.99 15.7625 20.98 15.125 22 C14.42375 22.99 13.7225 23.98 13 25 C12.34 25 11.68 25 11 25 C9.7944567 21.14226144 8.95192901 17.78858012 8.75 13.75 C8.5025 12.5125 8.255 11.275 8 10 C5.08158143 7.91367303 5.08158143 7.91367303 2 7 C2.12375 8.794375 2.12375 8.794375 2.25 10.625 C2.25 15.11394216 0.90913267 17.52520264 -2 21 C-4.65799923 23.41636294 -5.35294333 24 -9 24 C-8 21 -8 21 -5.5625 19.0625 C-2.98829421 16.99057827 -2.17424844 15.99542079 -1 13 C-0.7965885 10.77209557 -0.7965885 10.77209557 -0.9375 8.5 C-1.05801985 5.43984373 -0.86377131 2.94619671 0 0 Z " fill="#EBEBEB" transform="translate(363,246)"/>
<path d="M0 0 C0.66 0 1.32 0 2 0 C0.37278635 3.71429203 -1.94670486 6.61641051 -4.5 9.75 C-5.2940625 10.73484375 -6.088125 11.7196875 -6.90625 12.734375 C-7.5971875 13.48203125 -8.288125 14.2296875 -9 15 C-9.66 15 -10.32 15 -11 15 C-11 15.66 -11 16.32 -11 17 C-13.31 18.32 -15.62 19.64 -18 21 C-18.99 19.68 -19.98 18.36 -21 17 C-16.25 13 -16.25 13 -14 13 C-14 12.34 -14 11.68 -14 11 C-12.07191478 9.4197956 -10.14787173 7.94887609 -8.125 6.5 C-3.88743771 3.46302235 -3.88743771 3.46302235 0 0 Z " fill="#C785C6" transform="translate(421,219)"/>
<path d="M0 0 C4.15548351 0.56530444 6.60893974 2.85450361 9.8125 5.4375 C19.37840458 13.00953243 29.60063509 19.63304189 40 26 C37 27 37 27 33.4453125 25.26171875 C31.99737993 24.41692266 30.55770407 23.55787244 29.125 22.6875 C28.36993164 22.23616699 27.61486328 21.78483398 26.83691406 21.31982422 C19.80836418 17.03712614 13.37830714 12.19376439 7 7 C6.05640625 6.28585937 5.1128125 5.57171875 4.140625 4.8359375 C3.43421875 4.23007812 2.7278125 3.62421875 2 3 C2 2.34 2 1.68 2 1 C1.34 0.67 0.68 0.34 0 0 Z " fill="#9638CE" transform="translate(76,253)"/>
<path d="M0 0 C0.33 0.99 0.66 1.98 1 3 C-3.39294951 3.86947052 -7.78970854 4.71789105 -12.1875 5.5625 C-14.05631836 5.9327832 -14.05631836 5.9327832 -15.96289062 6.31054688 C-17.16494141 6.53935547 -18.36699219 6.76816406 -19.60546875 7.00390625 C-20.71043701 7.21861572 -21.81540527 7.4333252 -22.95385742 7.65454102 C-25.95035595 7.99436993 -28.1057552 7.77478156 -31 7 C-31 6.67 -31 6.34 -31 6 C-15.655 3.03 -15.655 3.03 0 0 Z " fill="#A86798" transform="translate(334,271)"/>
<path d="M0 0 C1.67542976 0.28604898 3.34385343 0.61781233 5 1 C4.67 2.65 4.34 4.3 4 6 C2.0625 6.5625 2.0625 6.5625 0 7 C-1 6 -1 6 -1.125 3.5 C-1 1 -1 1 0 0 Z " fill="#FFFFFF" transform="translate(352,253)"/>
<path d="M0 0 C0.68359375 1.734375 0.68359375 1.734375 1 4 C-0.21484375 6.140625 -0.21484375 6.140625 -1.9375 8.25 C-2.50339844 8.95640625 -3.06929688 9.6628125 -3.65234375 10.390625 C-4.31943359 11.18726563 -4.31943359 11.18726563 -5 12 C-5.33 11.34 -5.66 10.68 -6 10 C-4.78515625 7.6171875 -4.78515625 7.6171875 -3.0625 4.875 C-2.21365234 3.50988281 -2.21365234 3.50988281 -1.34765625 2.1171875 C-0.90292969 1.41851562 -0.45820313 0.71984375 0 0 Z " fill="#A76694" transform="translate(432,205)"/>
<path d="M0 0 C2.9719385 1.12451727 5.33440687 2.22293791 8 4 C7.34 4.66 6.68 5.32 6 6 C4.02 5.01 2.04 4.02 0 3 C0 2.01 0 1.02 0 0 Z " fill="#E0A507" transform="translate(18,198)"/>
</svg>
