<?xml version="1.0" encoding="UTF-8"?>
<svg version="1.1" xmlns="http://www.w3.org/2000/svg" width="512" height="512">
<path d="M0 0 C168.96 0 337.92 0 512 0 C512 168.96 512 337.92 512 512 C343.04 512 174.08 512 0 512 C0 343.04 0 174.08 0 0 Z " fill="#FFFFFF" transform="translate(0,0)"/>
<path d="M0 0 C1.59464289 0.46833359 3.18451807 0.95316949 4.76953125 1.453125 C6.30481977 1.82291771 7.84263428 2.18238248 9.3828125 2.53125 C35.01144489 8.81599546 35.01144489 8.81599546 40.76953125 17.453125 C41.40172854 23.34520375 40.51941515 26.53266615 37.56762695 31.58886719 C30.22469226 44.25567121 30.78414575 56.21600344 31.76953125 70.453125 C31.86234375 72.02707031 31.86234375 72.02707031 31.95703125 73.6328125 C32.5943366 84.17490524 33.70416669 94.33890212 36.16796875 104.6171875 C36.96263063 108.36345067 37.06837106 111.64291747 36.76953125 115.453125 C36.43953125 115.783125 36.10953125 116.113125 35.76953125 116.453125 C35.64798887 117.9720284 35.58983348 119.49609298 35.55859375 121.01953125 C35.53240967 121.97263184 35.50622559 122.92573242 35.47924805 123.90771484 C35.43731323 125.44613037 35.43731323 125.44613037 35.39453125 127.015625 C34.22222194 159.45369984 18.22821503 185.41857753 -4.23046875 208.453125 C-4.75253906 209.00484375 -5.27460938 209.5565625 -5.8125 210.125 C-16.24717951 221.14854404 -26.23836815 227.6228573 -39.97241211 233.98193359 C-46.26769318 236.91704246 -52.22430751 240.21045282 -58.15234375 243.82421875 C-61.23046875 245.453125 -61.23046875 245.453125 -64.99609375 246.42578125 C-68.28908844 247.09581828 -68.28908844 247.09581828 -69.4921875 249.390625 C-69.73582031 250.07125 -69.97945313 250.751875 -70.23046875 251.453125 C-85.78374861 270.59562329 -138.70354078 273.91671591 -162.04196167 276.4246521 C-176.38056294 277.87529275 -190.60546701 278.044012 -204.96484375 276.95703125 C-210.96615446 276.50859682 -216.94576597 276.29423312 -222.96142578 276.16259766 C-235.14013085 275.88964572 -247.23044628 275.26652365 -259.35546875 274.078125 C-260.55623047 273.9642041 -261.75699219 273.8502832 -262.99414062 273.73291016 C-282.80140815 271.65973473 -282.80140815 271.65973473 -291.23046875 266.453125 C-293.52398466 265.57910118 -293.52398466 265.57910118 -295.890625 264.953125 C-296.76074219 264.70755859 -297.63085938 264.46199219 -298.52734375 264.20898438 C-299.44 263.95955078 -300.35265625 263.71011719 -301.29296875 263.453125 C-302.70642578 263.05577148 -302.70642578 263.05577148 -304.1484375 262.65039062 C-308.98744047 261.30066872 -313.82908253 260.05840404 -318.73046875 258.953125 C-325.32241933 257.34238001 -331.17056895 254.45233133 -337.23046875 251.453125 C-338.4782243 250.86907624 -339.72695348 250.2871038 -340.9765625 249.70703125 C-350.28036035 245.3135065 -358.6976606 240.01637638 -367.171875 234.1953125 C-370.2170291 232.10852115 -373.30322851 230.22789356 -376.54296875 228.453125 C-382.09568236 225.22927914 -386.54574606 220.77549743 -391.15234375 216.35546875 C-393.17240767 214.4174509 -395.23754399 212.59023797 -397.40625 210.8203125 C-399.75033048 208.85556454 -401.70418512 206.96680261 -403.66796875 204.640625 C-404.55162109 203.60228516 -404.55162109 203.60228516 -405.453125 202.54296875 C-406.03964844 201.85332031 -406.62617188 201.16367187 -407.23046875 200.453125 C-408.35532455 199.20299524 -409.48032519 197.95299579 -410.60546875 196.703125 C-414.21433445 192.58213645 -417.44149607 188.21212919 -420.6953125 183.80859375 C-423.9913586 179.39493041 -427.48003134 175.13248327 -430.98120117 170.88061523 C-438.83482107 161.21837889 -444.09425714 152.38784596 -443.68359375 139.61328125 C-442.19682168 129.24432777 -431.55218551 121.26652498 -424.23046875 114.453125 C-421.23046875 112.453125 -421.23046875 112.453125 -418.73046875 112.703125 C-416.23046875 113.453125 -416.23046875 113.453125 -413.23046875 115.453125 C-411.38760476 115.45099698 -409.54448771 115.44197417 -407.70214844 115.39794922 C-402.52401148 115.51354177 -397.44032385 116.59410468 -392.35546875 117.515625 C-391.12747559 117.73750488 -389.89948242 117.95938477 -388.63427734 118.18798828 C-375.95937518 120.56443091 -363.593382 123.80739277 -351.23046875 127.453125 C-350.32232422 127.71818848 -349.41417969 127.98325195 -348.47851562 128.25634766 C-337.19112753 131.58783989 -326.19536141 135.56815218 -315.20996094 139.77362061 C-302.72986626 144.54450599 -290.41109445 149.01878001 -277.23046875 151.453125 C-276.38468262 151.61103516 -275.53889648 151.76894531 -274.66748047 151.93164062 C-244.488659 157.3169563 -213.77069678 153.93733184 -183.60546875 150.078125 C-182.81475983 149.97915924 -182.0240509 149.88019348 -181.2093811 149.77822876 C-166.91765733 147.97086148 -152.45446625 145.67274594 -139.04296875 140.203125 C-138.29144531 139.90067871 -137.53992188 139.59823242 -136.765625 139.28662109 C-118.33605018 131.65856366 -101.79221074 119.19943235 -85.28125 108.140625 C-82.1412932 106.04256458 -78.95756652 104.04028013 -75.73046875 102.078125 C-71.18468707 99.20610394 -67.28294544 95.9979439 -63.33984375 92.35546875 C-60.78056549 90.04737891 -58.07806189 88.0261969 -55.296875 85.99609375 C-53.04940197 84.31792391 -50.89610439 82.54802628 -48.73046875 80.765625 C-43.69637582 76.68519564 -38.38049388 73.08477997 -32.93945312 69.57348633 C-23.76455545 63.47844117 -18.60155073 55.83047816 -16.10546875 45.078125 C-15.80223931 43.53869086 -15.5110444 41.9968487 -15.23046875 40.453125 C-15.06732178 39.61515381 -14.9041748 38.77718262 -14.73608398 37.91381836 C-13.78061521 32.88192701 -12.98239533 27.84077228 -12.265625 22.76953125 C-12.10255859 21.64740234 -11.93949219 20.52527344 -11.77148438 19.36914062 C-11.45787186 17.17129294 -11.16290121 14.97068628 -10.88867188 12.76757812 C-10.24178225 8.22194562 -9.59763718 5.04795174 -7.1640625 1.10546875 C-3.9389557 -0.71106943 -3.43565576 -0.72030663 0 0 Z " fill="#F8CC3E" transform="translate(467.23046875,67.546875)"/>
<path d="M0 0 C0.495 0.680625 0.99 1.36125 1.5 2.0625 C8.83129507 10.6767717 14.67431131 13.32977906 26 15 C25.18326851 25.81465141 23.89308105 32.86267286 15.44140625 40.23046875 C12.66104922 42.53265064 9.84168951 44.77414405 7 47 C0.83163476 51.86390767 -2.98070149 55.43856427 -4.4453125 63.4296875 C-5.48678369 68.25565964 -7.90052709 72.55547363 -10 77 C-10.73515165 78.60771801 -11.46945943 80.21582204 -12.203125 81.82421875 C-18.75127119 96.0394815 -26.30284943 109.09708863 -35.44921875 121.796875 C-36.4328675 123.19430043 -37.37864352 124.61981031 -38.26953125 126.078125 C-41.62502993 131.55235246 -45.71605345 136.17760859 -50.0625 140.875 C-50.66457275 141.53008545 -51.26664551 142.1851709 -51.88696289 142.86010742 C-55.01978154 146.18530348 -57.87818959 148.89624043 -62 151 C-63.66015625 149.76302083 -65.3203125 148.52604167 -66.98046875 147.2890625 C-74.7428049 142.33437985 -83.83215816 143.02884299 -92.53125 144.875 C-107.32142935 148.448633 -118.98802059 155.36395595 -128 167.875 C-130.70472321 172.4160403 -130.4736291 176.86375556 -130 182 C-170.21369788 197.11528854 -223.86107696 191.07363408 -265 183 C-266.10553223 182.78327637 -267.21106445 182.56655273 -268.35009766 182.34326172 C-282.52464516 179.50514304 -296.15036069 176.03120861 -309.66015625 170.87792969 C-312.01116404 169.99581115 -314.37528656 169.16750468 -316.75 168.3515625 C-333.15125245 162.65658963 -348.35919157 155.22117189 -362.6171875 145.30078125 C-365.68713796 143.17375658 -368.86140848 141.31926054 -372.125 139.5 C-378.92191758 135.61735219 -384.90109904 130.8760444 -391 126 C-392.33224609 124.95972656 -392.33224609 124.95972656 -393.69140625 123.8984375 C-400.41903989 118.61319167 -406.94688997 113.05311003 -413 107 C-412.67 106.01 -412.34 105.02 -412 104 C-407.19043387 103.13294358 -403.3491977 103.01835638 -398.5546875 103.93359375 C-397.32709717 104.16626953 -396.09950684 104.39894531 -394.8347168 104.63867188 C-393.51456105 104.90370494 -392.1946608 105.1700134 -390.875 105.4375 C-390.19925934 105.57115967 -389.52351868 105.70481934 -388.82730103 105.8425293 C-364.62568086 110.64730706 -341.08115826 117.73538641 -317.98350525 126.35844421 C-271.4314584 143.72100907 -227.89680481 144.06653695 -178.875 137.625 C-178.10766541 137.52603424 -177.34033081 137.42706848 -176.54974365 137.32510376 C-162.29570101 135.4654065 -148.00604449 132.94833651 -134.5 127.875 C-133.31712402 127.43124023 -133.31712402 127.43124023 -132.11035156 126.97851562 C-123.48241444 123.59921146 -115.77182088 119.00094246 -108 114 C-107.09668945 113.42121094 -106.19337891 112.84242188 -105.26269531 112.24609375 C-99.36609773 108.45613032 -93.50141454 104.61970247 -87.65429688 100.75390625 C-85.27860644 99.18409756 -82.89815604 97.62189589 -80.515625 96.0625 C-74.58748919 92.16794081 -68.77091034 88.20812142 -63.23046875 83.76953125 C-60.57205533 81.66049223 -57.85095991 79.6459101 -55.125 77.625 C-51.26118327 74.74293293 -47.50461302 71.78573748 -43.8125 68.6875 C-39.9000323 65.43278049 -35.86780444 62.48050976 -31.67749023 59.60253906 C-15.168913 48.25255485 -7.08616261 38.33399523 -3.31591797 18.37060547 C-2.86916712 15.91510627 -2.43340751 13.45788366 -2 11 C-1.58341761 8.74998439 -1.16677103 6.49998067 -0.75 4.25 C-0.49801751 2.83368462 -0.24703262 1.41718712 0 0 Z " fill="#F9E693" transform="translate(465,89)"/>
<path d="M0 0 C1.59464289 0.46833359 3.18451807 0.95316949 4.76953125 1.453125 C6.30481977 1.82291771 7.84263428 2.18238248 9.3828125 2.53125 C35.01144489 8.81599546 35.01144489 8.81599546 40.76953125 17.453125 C41.40172854 23.34520375 40.51941515 26.53266615 37.56762695 31.58886719 C30.22469226 44.25567121 30.78414575 56.21600344 31.76953125 70.453125 C31.86234375 72.02707031 31.86234375 72.02707031 31.95703125 73.6328125 C32.5943366 84.17490524 33.70416669 94.33890212 36.16796875 104.6171875 C36.96263063 108.36345067 37.06837106 111.64291747 36.76953125 115.453125 C36.43953125 115.783125 36.10953125 116.113125 35.76953125 116.453125 C35.64798887 117.9720284 35.58983348 119.49609298 35.55859375 121.01953125 C35.53240967 121.97263184 35.50622559 122.92573242 35.47924805 123.90771484 C35.43731323 125.44613037 35.43731323 125.44613037 35.39453125 127.015625 C34.22222194 159.45369984 18.22821503 185.41857753 -4.23046875 208.453125 C-4.75253906 209.00484375 -5.27460938 209.5565625 -5.8125 210.125 C-16.24717951 221.14854404 -26.23836815 227.6228573 -39.97241211 233.98193359 C-46.26769318 236.91704246 -52.22430751 240.21045282 -58.15234375 243.82421875 C-61.23046875 245.453125 -61.23046875 245.453125 -64.99609375 246.42578125 C-68.28908844 247.09581828 -68.28908844 247.09581828 -69.4921875 249.390625 C-69.73582031 250.07125 -69.97945313 250.751875 -70.23046875 251.453125 C-85.78374861 270.59562329 -138.70354078 273.91671591 -162.04196167 276.4246521 C-176.38056294 277.87529275 -190.60546701 278.044012 -204.96484375 276.95703125 C-210.96615446 276.50859682 -216.94576597 276.29423312 -222.96142578 276.16259766 C-235.14013085 275.88964572 -247.23044628 275.26652365 -259.35546875 274.078125 C-260.55623047 273.9642041 -261.75699219 273.8502832 -262.99414062 273.73291016 C-282.80140815 271.65973473 -282.80140815 271.65973473 -291.23046875 266.453125 C-293.52398466 265.57910118 -293.52398466 265.57910118 -295.890625 264.953125 C-296.76074219 264.70755859 -297.63085938 264.46199219 -298.52734375 264.20898438 C-299.44 263.95955078 -300.35265625 263.71011719 -301.29296875 263.453125 C-302.70642578 263.05577148 -302.70642578 263.05577148 -304.1484375 262.65039062 C-308.98744047 261.30066872 -313.82908253 260.05840404 -318.73046875 258.953125 C-325.32241933 257.34238001 -331.17056895 254.45233133 -337.23046875 251.453125 C-338.4782243 250.86907624 -339.72695348 250.2871038 -340.9765625 249.70703125 C-350.28036035 245.3135065 -358.6976606 240.01637638 -367.171875 234.1953125 C-370.2170291 232.10852115 -373.30322851 230.22789356 -376.54296875 228.453125 C-382.09568236 225.22927914 -386.54574606 220.77549743 -391.15234375 216.35546875 C-393.17240767 214.4174509 -395.23754399 212.59023797 -397.40625 210.8203125 C-399.75033048 208.85556454 -401.70418512 206.96680261 -403.66796875 204.640625 C-404.55162109 203.60228516 -404.55162109 203.60228516 -405.453125 202.54296875 C-406.03964844 201.85332031 -406.62617188 201.16367187 -407.23046875 200.453125 C-408.35532455 199.20299524 -409.48032519 197.95299579 -410.60546875 196.703125 C-414.21433445 192.58213645 -417.44149607 188.21212919 -420.6953125 183.80859375 C-423.9913586 179.39493041 -427.48003134 175.13248327 -430.98120117 170.88061523 C-438.83482107 161.21837889 -444.09425714 152.38784596 -443.68359375 139.61328125 C-442.19682168 129.24432777 -431.55218551 121.26652498 -424.23046875 114.453125 C-421.23046875 112.453125 -421.23046875 112.453125 -418.73046875 112.703125 C-416.23046875 113.453125 -416.23046875 113.453125 -413.23046875 115.453125 C-411.38760476 115.45099698 -409.54448771 115.44197417 -407.70214844 115.39794922 C-402.52401148 115.51354177 -397.44032385 116.59410468 -392.35546875 117.515625 C-391.12747559 117.73750488 -389.89948242 117.95938477 -388.63427734 118.18798828 C-375.95937518 120.56443091 -363.593382 123.80739277 -351.23046875 127.453125 C-350.32232422 127.71818848 -349.41417969 127.98325195 -348.47851562 128.25634766 C-337.19112753 131.58783989 -326.19536141 135.56815218 -315.20996094 139.77362061 C-302.72986626 144.54450599 -290.41109445 149.01878001 -277.23046875 151.453125 C-276.38468262 151.61103516 -275.53889648 151.76894531 -274.66748047 151.93164062 C-244.488659 157.3169563 -213.77069678 153.93733184 -183.60546875 150.078125 C-182.81475983 149.97915924 -182.0240509 149.88019348 -181.2093811 149.77822876 C-166.91765733 147.97086148 -152.45446625 145.67274594 -139.04296875 140.203125 C-138.29144531 139.90067871 -137.53992188 139.59823242 -136.765625 139.28662109 C-118.33605018 131.65856366 -101.79221074 119.19943235 -85.28125 108.140625 C-82.1412932 106.04256458 -78.95756652 104.04028013 -75.73046875 102.078125 C-71.18468707 99.20610394 -67.28294544 95.9979439 -63.33984375 92.35546875 C-60.78056549 90.04737891 -58.07806189 88.0261969 -55.296875 85.99609375 C-53.04940197 84.31792391 -50.89610439 82.54802628 -48.73046875 80.765625 C-43.69637582 76.68519564 -38.38049388 73.08477997 -32.93945312 69.57348633 C-23.76455545 63.47844117 -18.60155073 55.83047816 -16.10546875 45.078125 C-15.80223931 43.53869086 -15.5110444 41.9968487 -15.23046875 40.453125 C-15.06732178 39.61515381 -14.9041748 38.77718262 -14.73608398 37.91381836 C-13.78061521 32.88192701 -12.98239533 27.84077228 -12.265625 22.76953125 C-12.10255859 21.64740234 -11.93949219 20.52527344 -11.77148438 19.36914062 C-11.45787186 17.17129294 -11.16290121 14.97068628 -10.88867188 12.76757812 C-10.24178225 8.22194562 -9.59763718 5.04795174 -7.1640625 1.10546875 C-3.9389557 -0.71106943 -3.43565576 -0.72030663 0 0 Z M-2.23046875 21.453125 C-2.38080566 22.3961145 -2.38080566 22.3961145 -2.53417969 23.3581543 C-8.96103796 63.1908309 -8.96103796 63.1908309 -26.02783203 75.77880859 C-28.73231698 77.67741508 -31.46725283 79.52688451 -34.21508789 81.36206055 C-39.25353515 84.73380385 -43.94358861 88.36494695 -48.5859375 92.26953125 C-52.39194877 95.41216094 -56.35934875 98.32383183 -60.32421875 101.26171875 C-63.03664338 103.30697442 -65.66800044 105.42249438 -68.29296875 107.578125 C-72.380686 110.87028969 -76.60763472 113.72119264 -81.06640625 116.484375 C-84.88449385 118.86007395 -88.64928549 121.31262585 -92.41796875 123.765625 C-99.45806892 128.33217646 -106.53509906 132.83442463 -113.67578125 137.2421875 C-115.74051807 138.51686297 -117.76816573 139.81323399 -119.78515625 141.1640625 C-125.00638585 144.57863826 -130.47900024 146.88378871 -136.29296875 149.078125 C-137.38025269 149.49421021 -137.38025269 149.49421021 -138.48950195 149.91870117 C-152.2424631 154.89443194 -166.65969801 157.21500469 -181.10546875 159.078125 C-181.90583557 159.18329437 -182.70620239 159.28846375 -183.53082275 159.39682007 C-234.09566072 166.01359315 -278.21957437 163.98722727 -325.97943115 145.72747803 C-369.20456308 128.25393945 -369.20456308 128.25393945 -414.23046875 125.453125 C-414.59398437 126.53980469 -414.59398437 126.53980469 -414.96484375 127.6484375 C-416.85882045 133.11183182 -418.75010276 137.7763832 -422.23046875 142.453125 C-422.82859375 143.566875 -423.42671875 144.680625 -424.04296875 145.828125 C-426.23046875 148.453125 -426.23046875 148.453125 -429.98046875 148.828125 C-431.05296875 148.704375 -432.12546875 148.580625 -433.23046875 148.453125 C-430.47899055 157.54942978 -425.13262356 164.22962672 -419.23046875 171.453125 C-417.9169585 173.09815218 -416.60438053 174.74392443 -415.29296875 176.390625 C-414.33003906 177.58365234 -414.33003906 177.58365234 -413.34765625 178.80078125 C-411.77144302 180.77541 -410.21669871 182.75989677 -408.67578125 184.76171875 C-397.13499491 199.72314698 -385.33409095 212.44136622 -368.89453125 222.2109375 C-364.49823679 224.85262416 -360.2861649 227.76220466 -356.04296875 230.640625 C-349.96385695 234.73115987 -343.98593467 238.55792532 -337.23046875 241.453125 C-336.26882813 241.86820313 -335.3071875 242.28328125 -334.31640625 242.7109375 C-331.29825029 243.98696799 -328.27014069 245.22921863 -325.23046875 246.453125 C-324.53002441 246.75436279 -323.82958008 247.05560059 -323.10791016 247.3659668 C-316.10133121 250.31066791 -308.96451015 252.27649696 -301.60546875 254.140625 C-299.84203125 254.60178711 -299.84203125 254.60178711 -298.04296875 255.07226562 C-290.91769756 256.90898592 -290.91769756 256.90898592 -283.64453125 257.91015625 C-280.23046875 258.453125 -280.23046875 258.453125 -278.41796875 260.41015625 C-274.74947276 263.83626947 -270.08120043 263.63572764 -265.23046875 264.140625 C-264.25207031 264.25728516 -263.27367187 264.37394531 -262.265625 264.49414062 C-259.25626841 264.84411179 -256.24550428 265.15625246 -253.23046875 265.453125 C-252.28413574 265.5473877 -251.33780273 265.64165039 -250.36279297 265.73876953 C-242.03836161 266.50244012 -233.70811707 266.74199026 -225.35546875 266.953125 C-222.62879495 267.0224088 -219.9022417 267.09462842 -217.17578125 267.171875 C-216.16792572 267.20039551 -216.16792572 267.20039551 -215.13970947 267.22949219 C-210.84158332 267.36497702 -206.57080701 267.63652567 -202.28515625 267.984375 C-189.36047798 268.95970101 -176.48885352 268.697021 -163.60546875 267.265625 C-162.9278952 267.19053711 -162.25032166 267.11544922 -161.55221558 267.03808594 C-145.89237194 265.22273562 -130.61164943 261.59480153 -115.29296875 257.953125 C-113.4782608 257.52297592 -113.4782608 257.52297592 -111.62689209 257.08413696 C-108.12873599 256.2492141 -104.63400335 255.40155094 -101.140625 254.546875 C-100.10217941 254.2958049 -99.06373383 254.0447348 -97.99382019 253.78605652 C-85.72586358 251.31980408 -85.72586358 251.31980408 -75.91796875 244.578125 C-75.36109375 243.546875 -74.80421875 242.515625 -74.23046875 241.453125 C-72.8828125 239.734375 -72.8828125 239.734375 -71.35546875 238.078125 C-70.90429688 237.57539063 -70.453125 237.07265625 -69.98828125 236.5546875 C-68.23046875 235.453125 -68.23046875 235.453125 -65.4387207 235.53076172 C-61.92985881 235.44585052 -60.2004554 234.76171288 -57.140625 233.109375 C-56.19856201 232.60897705 -55.25649902 232.1085791 -54.28588867 231.59301758 C-53.2982251 231.05185303 -52.31056152 230.51068848 -51.29296875 229.953125 C-50.27114502 229.40358154 -49.24932129 228.85403809 -48.1965332 228.2878418 C-46.14802987 227.18604299 -44.10167853 226.08023274 -42.05761719 224.97021484 C-39.63502845 223.67021774 -37.19982542 222.41536909 -34.73828125 221.19140625 C-26.85618915 217.24694212 -20.49057044 212.72409493 -14.23046875 206.453125 C-13.14765625 205.47666016 -13.14765625 205.47666016 -12.04296875 204.48046875 C-4.47496344 197.46654954 1.040611 188.96245834 6.76953125 180.453125 C7.34380859 179.61120605 7.91808594 178.76928711 8.50976562 177.90185547 C10.27790748 175.30362062 12.02657151 172.69330609 13.76953125 170.078125 C14.30932617 169.28301514 14.84912109 168.48790527 15.40527344 167.66870117 C24.78123396 153.38496521 26.0380614 137.92451012 26.58203125 121.203125 C26.61680573 120.18398514 26.61680573 120.18398514 26.65228271 119.14425659 C26.94760663 109.84264602 26.54666628 101.17701359 24.5390625 92.08984375 C22.06829431 80.41326922 22.67645541 68.15472984 22.64453125 56.265625 C22.64176178 55.57233093 22.63899231 54.87903687 22.63613892 54.16473389 C22.63030247 52.16321651 22.63337255 50.16167934 22.63671875 48.16015625 C22.63784668 46.9894458 22.63897461 45.81873535 22.64013672 44.61254883 C22.75657658 41.76943903 23.11661707 39.21617741 23.76953125 36.453125 C22.85171875 36.31777344 21.93390625 36.18242188 20.98828125 36.04296875 C9.63396273 34.05119229 4.73189136 30.3004909 -2.23046875 21.453125 Z " fill="#000000" transform="translate(467.23046875,67.546875)"/>
<path d="M0 0 C0.66 0 1.32 0 2 0 C4.29691233 8.07910089 4.15199017 15.72342303 3.8125 24.0625 C3.78733307 24.75153412 3.76216614 25.44056824 3.73623657 26.15048218 C3.07095963 43.87324333 0.89216389 59.60396747 -9.4375 74.5 C-10.22193481 75.64722534 -10.22193481 75.64722534 -11.0222168 76.81762695 C-12.12188654 78.4179939 -13.22684568 80.01473845 -14.33691406 81.60791016 C-15.95796625 83.93954101 -17.55351401 86.28717031 -19.1484375 88.63671875 C-30.34784338 104.90070237 -42.19116605 117.28370451 -60 126 C-61.93314839 126.97095241 -63.86538596 127.94371963 -65.796875 128.91796875 C-70.48203738 131.27590305 -75.18161995 133.60255723 -79.89379883 135.90600586 C-82.20415058 137.05757468 -82.20415058 137.05757468 -85 139 C-85.886875 138.87625 -86.77375 138.7525 -87.6875 138.625 C-92.9619122 139.22210327 -95.75858476 142.99933434 -99 147 C-99.2651088 147.66173218 -99.53021759 148.32346436 -99.80335999 149.00524902 C-102.88191678 154.1370799 -112.27961139 155.12951859 -117.75805664 156.58398438 C-119.80693995 157.09458497 -121.85774316 157.59752799 -123.91015625 158.09375 C-125.58112114 158.50256157 -125.58112114 158.50256157 -127.2858429 158.91963196 C-130.8754809 159.79095567 -134.46822139 160.64803061 -138.0625 161.5 C-139.28809631 161.79135834 -140.51369263 162.08271667 -141.77642822 162.38290405 C-156.55587955 165.87028664 -171.26937681 169.13851289 -186.375 170.8125 C-187.63965088 170.95300781 -188.90430176 171.09351563 -190.20727539 171.23828125 C-203.01637363 172.45171127 -215.73499902 172.28609951 -228.54638672 171.24511719 C-233.40852781 170.90003097 -238.26656007 170.81182755 -243.13891602 170.70922852 C-255.50491832 170.44376459 -267.75550818 169.83441425 -280.0625 168.5625 C-281.26205322 168.4402002 -282.46160645 168.31790039 -283.69750977 168.19189453 C-298.46228017 166.56137706 -298.46228017 166.56137706 -301.5234375 163.453125 C-303.86538801 161.1483483 -306.42047897 161.2222452 -309.625 160.75 C-324.69606463 158.24141534 -340.42989209 154.50495893 -354.05859375 147.45703125 C-356.62254683 146.18697215 -359.13518728 145.18112981 -361.80859375 144.17578125 C-366.8990409 142.16735383 -371.16107079 139.50858241 -375.625 136.375 C-377.19501716 135.29584936 -378.76666437 134.21906679 -380.33984375 133.14453125 C-381.11956543 132.61166504 -381.89928711 132.07879883 -382.70263672 131.52978516 C-385.48569605 129.67658114 -388.3352673 127.95947964 -391.20678711 126.24804688 C-403.24447651 119.04294152 -414.28952629 110.05851445 -423 99 C-423.93139225 97.84302537 -424.86378485 96.68685572 -425.796875 95.53125 C-428.41023632 92.28638129 -431.00520256 89.0272907 -433.59570312 85.76416016 C-435.44784077 83.43739614 -437.31878993 81.12596306 -439.1875 78.8125 C-440.46045273 77.21001462 -441.73120473 75.60577913 -443 74 C-443.77472656 73.03449219 -444.54945313 72.06898438 -445.34765625 71.07421875 C-450.09400286 65.00043861 -453.66740768 59.37294914 -456 52 C-450.53688652 51.88123666 -448.09771896 53.45151628 -444.0625 57.125 C-442.3730117 58.7479327 -440.68543895 60.37286239 -439 62 C-437.61068478 63.17442114 -436.21537611 64.34181158 -434.8125 65.5 C-431.19686359 68.63257568 -428.37320302 72.13902108 -425.54296875 75.984375 C-424.07179756 78.01667592 -424.07179756 78.01667592 -422.3125 79.59765625 C-421 81 -421 81 -420.8125 83.6875 C-420.9053125 84.8321875 -420.9053125 84.8321875 -421 86 C-420.47148437 86.2371875 -419.94296875 86.474375 -419.3984375 86.71875 C-415.68479373 88.70258576 -412.34631953 91.24118455 -408.953125 93.72265625 C-405.38366148 96.26150002 -402.12841 97.64204215 -398 99 C-395.97704237 100.28783171 -393.99966085 101.64889613 -392.0625 103.0625 C-384.94726958 108.13374131 -377.59680294 112.68693733 -370 117 C-368.89140625 117.63035156 -367.7828125 118.26070313 -366.640625 118.91015625 C-358.47231545 123.27234034 -350.23692795 125.95286042 -341.35546875 128.45703125 C-337.68029314 129.49479957 -334.04958583 130.61922956 -330.42578125 131.82421875 C-329.48863281 132.13423828 -328.55148437 132.44425781 -327.5859375 132.76367188 C-325.82134108 133.35145646 -324.05928535 133.94696663 -322.30078125 134.55273438 C-309.42101582 138.79629906 -296.1823271 140.34594777 -282.70053101 140.90942383 C-278.93181264 141.06908292 -275.16522963 141.26932826 -271.3984375 141.46875 C-270.62608261 141.50923462 -269.85372772 141.54971924 -269.05796814 141.59143066 C-260.58591568 142.05082282 -252.13813791 142.75033614 -243.6875 143.5 C-242.99455841 143.55994141 -242.30161682 143.61988281 -241.587677 143.68164062 C-234.64398469 144.28528674 -227.76222683 145.00639484 -220.875 146.08203125 C-213.99065577 147.1045696 -207.26243229 147.2642279 -200.3125 147.1875 C-198.58483398 147.1865332 -198.58483398 147.1865332 -196.82226562 147.18554688 C-190.81353487 147.24706701 -190.81353487 147.24706701 -185 146 C-183.54064212 145.96921928 -182.0799775 145.9868749 -180.62109375 146.03515625 C-142.92104393 146.36926774 -106.35553068 131.97102455 -74.74316406 112.66015625 C-72.16814345 111.10176001 -69.57363604 109.58790974 -66.9609375 108.09375 C-66.19064209 107.65160156 -65.42034668 107.20945312 -64.62670898 106.75390625 C-63.23275148 105.95549365 -61.83664883 105.16080628 -60.43774414 104.37109375 C-53.17839596 100.16091702 -47.61017804 94.98755617 -42.5625 88.3125 C-41.85710083 87.39295532 -41.85710083 87.39295532 -41.13745117 86.45483398 C-40.19134697 85.21692709 -39.24895424 83.97617357 -38.31054688 82.73242188 C-37.15278232 81.2019641 -35.97621019 79.68577337 -34.796875 78.171875 C-29.6630376 71.42108094 -25.66368463 64.28429869 -21.87548828 56.72363281 C-21.12426373 55.24464638 -20.32987167 53.78772541 -19.52734375 52.3359375 C-14.23364323 42.13706495 -12.43767944 29.60380608 -11.66796875 18.21875 C-11.20859604 13.80545595 -9.5645928 11.43931045 -6.5625 8.125 C-5.75941406 7.22007812 -4.95632813 6.31515625 -4.12890625 5.3828125 C-3.42636719 4.59648437 -2.72382813 3.81015625 -2 3 C-1.34 2.01 -0.68 1.02 0 0 Z " fill="#E0A70D" transform="translate(490,164)"/>
<path d="M0 0 C6.29882002 4.60521464 10.00498761 10.37463685 11.66015625 18.05078125 C12.70602217 25.26930681 11.77189783 31.19100287 8.12109375 37.55078125 C0.49739445 46.76275124 -12.9518966 55.25127147 -24.69140625 57.17578125 C-48.47160334 59.31559525 -48.47160334 59.31559525 -55.87890625 53.55078125 C-62.74133029 46.53917408 -64.54433742 38.63660586 -65.08984375 29.01953125 C-64.75373712 23.49244441 -62.55566182 20.52524982 -58.87890625 16.55078125 C-58.20085937 15.77992188 -57.5228125 15.0090625 -56.82421875 14.21484375 C-43.81147874 0.27593007 -18.03138991 -10.51090873 0 0 Z " fill="#E0A507" transform="translate(398.87890625,235.44921875)"/>
<path d="M0 0 C0.33 0 0.66 0 1 0 C1.28765632 5.12273072 1.57238439 10.24561306 1.85449219 15.36865234 C1.95070779 17.10860504 2.04769996 18.84851499 2.14550781 20.58837891 C2.2865883 23.10047529 2.42480295 25.61271615 2.5625 28.125 C2.60624756 28.89303955 2.64999512 29.6610791 2.69506836 30.45239258 C3.50478757 45.41997884 3.50478757 45.41997884 -0.25 49.6875 C-0.88808594 50.43257812 -1.52617187 51.17765625 -2.18359375 51.9453125 C-3.08271484 52.96238281 -3.08271484 52.96238281 -4 54 C-4.763125 55.010625 -5.52625 56.02125 -6.3125 57.0625 C-6.869375 57.701875 -7.42625 58.34125 -8 59 C-8.66 59 -9.32 59 -10 59 C-10.2165625 59.69867188 -10.433125 60.39734375 -10.65625 61.1171875 C-12.34128814 64.73218212 -14.76411466 67.29050497 -17.5 70.125 C-18.5851078 71.27299118 -19.66973526 72.42143656 -20.75390625 73.5703125 C-21.29805176 74.14297852 -21.84219727 74.71564453 -22.40283203 75.30566406 C-25.57555871 78.67141202 -28.65024893 82.12616463 -31.74609375 85.5625 C-34.10179492 88.11008671 -36.53908244 90.55413393 -39 93 C-40.29744141 94.34964844 -40.29744141 94.34964844 -41.62109375 95.7265625 C-48.36180775 102.7010377 -55.47891285 108.80436948 -63.21240234 114.64892578 C-65.65493834 116.49500529 -68.08280571 118.35990433 -70.51000977 120.22607422 C-71.64271399 121.09606481 -72.77722895 121.9637046 -73.91381836 122.82861328 C-76.06322625 124.46973138 -78.08500387 126.08500387 -80 128 C-82.0625 125.1875 -82.0625 125.1875 -84 122 C-82.89187926 118.67563779 -82.14463373 118.07314668 -79.5 115.9375 C-69.76464981 107.5855033 -63.04344159 97.86292913 -56.3125 87.078125 C-55.13173848 85.20858593 -53.92186662 83.36565595 -52.6875 81.53125 C-43.93326667 68.3999 -36.09641124 54.33383156 -30.90234375 39.3984375 C-30 37 -30 37 -28 34 C-27.75333058 32.61042896 -27.54852401 31.21308662 -27.375 29.8125 C-25.94435408 22.84093973 -20.72609749 18.85606638 -15.0625 15 C-14.051875 14.34 -13.04125 13.68 -12 13 C-7.11078153 9.02961742 -3.15980856 5.48909342 0 0 Z " fill="#F8D153" transform="translate(488,119)"/>
<path d="M0 0 C6.29882002 4.60521464 10.00498761 10.37463685 11.66015625 18.05078125 C12.70602217 25.26930681 11.77189783 31.19100287 8.12109375 37.55078125 C0.49739445 46.76275124 -12.9518966 55.25127147 -24.69140625 57.17578125 C-48.47160334 59.31559525 -48.47160334 59.31559525 -55.87890625 53.55078125 C-62.74133029 46.53917408 -64.54433742 38.63660586 -65.08984375 29.01953125 C-64.75373712 23.49244441 -62.55566182 20.52524982 -58.87890625 16.55078125 C-58.20085937 15.77992188 -57.5228125 15.0090625 -56.82421875 14.21484375 C-43.81147874 0.27593007 -18.03138991 -10.51090873 0 0 Z M-53.9609375 17.265625 C-54.59386719 18.01972656 -55.22679687 18.77382812 -55.87890625 19.55078125 C-56.72001953 20.54271484 -56.72001953 20.54271484 -57.578125 21.5546875 C-60.48738947 25.50012836 -61.15404468 28.14128988 -60.69140625 33.05078125 C-60.44890931 34.55562208 -60.18782982 36.05816043 -59.87890625 37.55078125 C-58.21241147 34.3836871 -56.96037768 31.14428278 -55.69140625 27.80078125 C-52.75888206 20.73684797 -49.18861931 15.58752775 -42.62890625 11.55078125 C-39.87890625 10.55078125 -39.87890625 10.55078125 -36.87890625 10.55078125 C-36.25732881 22.18809224 -36.25732881 22.18809224 -38.50390625 27.11328125 C-41.08277135 29.76001122 -43.78096227 31.55002576 -46.87890625 33.55078125 C-47.51828125 34.37578125 -48.15765625 35.20078125 -48.81640625 36.05078125 C-51.48580327 39.286414 -54.17070747 40.62537034 -57.87890625 42.55078125 C-55.45644958 47.30597397 -53.91420081 50.2848987 -48.87890625 52.55078125 C-38.61460087 55.7696314 -24.69939829 53.97862514 -15.00390625 49.61328125 C-10.55070325 47.17307083 -6.48645411 44.23165845 -2.44140625 41.17578125 C-1.8376416 40.72984619 -1.23387695 40.28391113 -0.61181641 39.82446289 C4.4915912 35.81134838 6.07505419 31.91305127 7.99609375 25.73828125 C8.26847751 18.79249548 5.63368341 11.79514221 1.12109375 6.55078125 C-15.41628538 -5.76856191 -41.02224356 3.14854364 -53.9609375 17.265625 Z " fill="#000000" transform="translate(398.87890625,235.44921875)"/>
<path d="M0 0 C0.495 0.680625 0.99 1.36125 1.5 2.0625 C8.83129507 10.6767717 14.67431131 13.32977906 26 15 C23.54361354 20.10841431 21.09085346 23.45457327 16 26 C14.65705519 27.65893182 13.32255312 29.32476605 12 31 C11.34 31 10.68 31 10 31 C10 31.99 10 32.98 10 34 C9.34 34 8.68 34 8 34 C7.67 34.99 7.34 35.98 7 37 C6.34 37 5.68 37 5 37 C4.81824219 37.65226562 4.63648438 38.30453125 4.44921875 38.9765625 C0.62837438 52.26134445 0.62837438 52.26134445 -5.546875 55.81640625 C-8.90782268 57.77778659 -12.24567645 59.75747579 -15.54296875 61.82421875 C-24.55818635 67.40902058 -33.6900235 72.525643 -43.25 77.125 C-44.20156982 77.58608154 -45.15313965 78.04716309 -46.13354492 78.5222168 C-51.37666632 80.99079702 -56.32454531 82.81428294 -62 84 C-58.42470113 80.19403668 -54.57562368 77.03220644 -50.42578125 73.8671875 C-48.07747639 72.05963561 -45.79009589 70.19295352 -43.5 68.3125 C-39.69679747 65.24022546 -35.7688482 62.43264472 -31.74121094 59.66845703 C-15.21382299 48.28652385 -7.09286548 38.36948682 -3.31591797 18.37060547 C-2.86916712 15.91510627 -2.43340751 13.45788366 -2 11 C-1.58341761 8.74998439 -1.16677103 6.49998067 -0.75 4.25 C-0.49801751 2.83368462 -0.24703262 1.41718712 0 0 Z " fill="#FBF0C2" transform="translate(465,89)"/>
<path d="M0 0 C0.33 0 0.66 0 1 0 C1.3104715 5.79546798 0.86276857 11.39000953 0 17.125 C-0.07581299 17.79337891 -0.15162598 18.46175781 -0.22973633 19.15039062 C-1.13613447 24.55020932 -3.58650624 26.86626795 -7.7890625 30.21826172 C-10.01217337 32.00981021 -11.99562378 33.90589041 -14 35.9375 C-14.66 36.60523438 -15.32 37.27296875 -16 37.9609375 C-16.66 38.63382813 -17.32 39.30671875 -18 40 C-23.14690248 45.24742792 -28.42577246 50.20982416 -34 55 C-35.16836813 56.03323544 -36.33508692 57.0683395 -37.5 58.10546875 C-58.74882503 76.87441251 -58.74882503 76.87441251 -67 81 C-67.64002891 79.11597124 -68.23589709 77.21689767 -68.8125 75.3125 C-69.14894531 74.25675781 -69.48539062 73.20101562 -69.83203125 72.11328125 C-70 69 -70 69 -68.05078125 66.49609375 C-67.04402344 65.67238281 -66.03726562 64.84867187 -65 64 C-64.42580322 63.51764893 -63.85160645 63.03529785 -63.26000977 62.53833008 C-61.31768183 60.91696387 -59.34988886 59.3315062 -57.375 57.75 C-56.66641846 57.17717285 -55.95783691 56.6043457 -55.2277832 56.01416016 C-52.12763835 53.5083181 -49.01875238 51.01486037 -45.89453125 48.5390625 C-39.89476191 43.7427101 -34.51491137 38.63324303 -29.21484375 33.08984375 C-27 31 -27 31 -25 31 C-24.78472656 30.46632812 -24.56945312 29.93265625 -24.34765625 29.3828125 C-22.50268514 26.12068967 -20.0022124 23.5736306 -17.4375 20.875 C-16.35509106 19.71780108 -15.2730638 18.56024504 -14.19140625 17.40234375 C-13.65402832 16.82983887 -13.11665039 16.25733398 -12.56298828 15.66748047 C-10.31744061 13.27180871 -8.09005907 10.86145895 -5.875 8.4375 C-4.81925781 7.29087891 -4.81925781 7.29087891 -3.7421875 6.12109375 C-2.11853963 4.14432067 -1.02597831 2.33224967 0 0 Z " fill="#F6C218" transform="translate(478,178)"/>
<path d="M0 0 C0.474375 0.66 0.94875 1.32 1.4375 2 C4.92986819 6.08862618 8.93171968 9.49675861 13 13 C12.319375 14.4540625 12.319375 14.4540625 11.625 15.9375 C10.38908405 18.79050223 9.6093929 21.5155355 9 24.5625 C7.60361186 31.26062199 4.67263268 35.99360784 0 41 C-1.63495707 42.05104383 -3.29883624 43.05988318 -5 44 C-5.495 44.495 -5.99 44.99 -6.5 45.5 C-8 47 -8 47 -10.625 48.5625 C-13.11190375 49.77912906 -13.11190375 49.77912906 -14 52 C-15.485 52.495 -15.485 52.495 -17 53 C-17.33 53.66 -17.66 54.32 -18 55 C-18.639375 55.144375 -19.27875 55.28875 -19.9375 55.4375 C-22.38210855 55.86165035 -22.38210855 55.86165035 -24 59 C-26.05859375 60.421875 -26.05859375 60.421875 -28.4375 61.75 C-29.21996094 62.19859375 -30.00242187 62.6471875 -30.80859375 63.109375 C-33 64 -33 64 -36 63 C-34.94941406 62.23816406 -33.89882813 61.47632813 -32.81640625 60.69140625 C-13.05461152 46.22610207 -6.2282599 34.97875121 -2 11 C-1.58341761 8.74998439 -1.16677103 6.49998067 -0.75 4.25 C-0.49801751 2.83368462 -0.24703262 1.41718712 0 0 Z M-38 64 C-37.34 64.33 -36.68 64.66 -36 65 C-37.65 65.66 -39.3 66.32 -41 67 C-40.01 66.01 -39.02 65.02 -38 64 Z " fill="#FDF9E8" transform="translate(465,89)"/>
<path d="M0 0 C5.875 1.875 5.875 1.875 7 3 C7.39943176 5.52195967 7.75079848 8.02963656 8.0625 10.5625 C8.15337891 11.27341797 8.24425781 11.98433594 8.33789062 12.71679688 C8.56239503 14.47738403 8.78168397 16.23863478 9 18 C11.64107354 15.53258609 12.79641403 13.42559084 14 10 C16.52349243 13.12432397 18.27256146 16.38060496 20 20 C13.95057046 25.3460075 9.65797642 27.49157243 1.4375 27.3203125 C-3.17644061 26.71399338 -5.8914812 24.25632131 -8.875 20.875 C-10 19 -10 19 -10 17 C-8.6078125 16.1028125 -8.6078125 16.1028125 -7.1875 15.1875 C-3.37207628 12.56907196 -1.4772134 10.51238822 -0.6015625 5.90234375 C-0.3456283 3.94133442 -0.166998 1.97057646 0 0 Z " fill="#000000" transform="translate(365,253)"/>
<path d="M0 0 C0.33893581 3.83285925 0.67012787 7.66635091 1 11.5 C1.09539062 12.57765625 1.19078125 13.6553125 1.2890625 14.765625 C1.5517225 17.84249926 1.78669714 20.91933444 2 24 C2.05833008 24.79108154 2.11666016 25.58216309 2.17675781 26.3972168 C2.37068816 30.94339167 1.70964139 33.36165762 -1.25 36.8125 C-1.85328125 37.54082031 -2.4565625 38.26914063 -3.078125 39.01953125 C-4.93193994 40.92986494 -6.82400037 42.47391176 -9 44 C-8.93941406 42.84886719 -8.87882812 41.69773438 -8.81640625 40.51171875 C-8.75706909 39.37126099 -8.75706909 39.37126099 -8.6965332 38.20776367 C-8.60630151 36.51111208 -8.5123175 34.81465634 -8.41479492 33.1184082 C-8.16319236 28.64927139 -7.97205721 24.19500281 -7.921875 19.71875 C-7.90310303 18.87481689 -7.88433105 18.03088379 -7.86499023 17.16137695 C-7.83076342 15.54825916 -7.81879273 13.93446945 -7.83227539 12.32104492 C-7.71016894 7.94849368 -7.12381931 5.63793834 -4.01171875 2.45703125 C-1 0 -1 0 0 0 Z " fill="#E9C052" transform="translate(489,132)"/>
<path d="M0 0 C0.66 0 1.32 0 2 0 C3.5056904 5.80766296 4.21824777 10.9981863 4 17 C3.34 17 2.68 17 2 17 C2 17.66 2 18.32 2 19 C1.34 19 0.68 19 0 19 C-0.2371875 19.54140625 -0.474375 20.0828125 -0.71875 20.640625 C-2.34347757 23.63250137 -4.3501877 26.11159399 -6.5 28.75 C-7.69109375 30.22726563 -7.69109375 30.22726563 -8.90625 31.734375 C-9.94265625 32.85585937 -9.94265625 32.85585937 -11 34 C-11.66 34 -12.32 34 -13 34 C-12.59710843 20.73057115 -11.93447678 12.47111499 -2 3 C-1.34 2.01 -0.68 1.02 0 0 Z " fill="#E3AE20" transform="translate(490,164)"/>
<path d="M0 0 C2.1328125 1.609375 2.1328125 1.609375 4.125 3.75 C5.11886719 4.79414063 5.11886719 4.79414063 6.1328125 5.859375 C10.90564513 11.33115802 12.23517104 14.88966503 12.16796875 22.09375 C11.96352584 24.41393929 11.28914803 26.06627796 10 28 C7.2743629 26.63718145 7.07349319 25.14913458 5.875 22.375 C2.0100821 14.4291835 -3.76558199 9.91635638 -12 7 C-12 5.68 -12 4.36 -12 3 C-4.4057377 -0.57377049 -4.4057377 -0.57377049 0 0 Z " fill="#000000" transform="translate(377,243)"/>
<path d="M0 0 C1.89413414 3.78826827 0.92679165 7.99177368 0 12 C-4.80415176 21.99484447 -16.30187303 28.64463502 -25 35 C-23.80774703 31.22453226 -22.47549127 27.51009784 -21.0625 23.8125 C-20.74410156 22.97332031 -20.42570312 22.13414062 -20.09765625 21.26953125 C-18.98468791 18.96834049 -17.98719936 17.59287259 -16 16 C-15.34 16 -14.68 16 -14 16 C-14 15.01 -14 14.02 -14 13 C-11.60600637 10.19560746 -9.76533227 8.30257322 -6.3125 6.9375 C-3.8530633 6.21195368 -3.8530633 6.21195368 -2.8125 4 C-2.544375 3.34 -2.27625 2.68 -2 2 C-1.34 1.34 -0.68 0.68 0 0 Z " fill="#FBE499" transform="translate(489,107)"/>
<path d="M0 0 C0.66 0 1.32 0 2 0 C2.020625 0.598125 2.04125 1.19625 2.0625 1.8125 C2.85416667 4.35416667 2.85416667 4.35416667 6.0625 5.3125 C6.69027344 5.55484375 7.31804687 5.7971875 7.96484375 6.046875 C15.70853456 9.67347876 20.03718344 16.20836221 23 24 C23 24.66 23 25.32 23 26 C20 25 20 25 18.3125 21.9375 C17.879375 20.968125 17.44625 19.99875 17 19 C16.38125 19.99 15.7625 20.98 15.125 22 C14.42375 22.99 13.7225 23.98 13 25 C12.34 25 11.68 25 11 25 C9.7944567 21.14226144 8.95192901 17.78858012 8.75 13.75 C8.5025 12.5125 8.255 11.275 8 10 C5.08158143 7.91367303 5.08158143 7.91367303 2 7 C2.12375 8.794375 2.12375 8.794375 2.25 10.625 C2.25 15.11394216 0.90913267 17.52520264 -2 21 C-4.65799923 23.41636294 -5.35294333 24 -9 24 C-8 21 -8 21 -5.5625 19.0625 C-2.98829421 16.99057827 -2.17424844 15.99542079 -1 13 C-0.7965885 10.77209557 -0.7965885 10.77209557 -0.9375 8.5 C-1.05801985 5.43984373 -0.86377131 2.94619671 0 0 Z " fill="#EBEBEB" transform="translate(363,246)"/>
<path d="M0 0 C13.30778943 0.40163369 26.59752608 0.93375872 39.875 1.9375 C40.93130615 2.01210449 41.9876123 2.08670898 43.07592773 2.16357422 C44.05891846 2.24236816 45.04190918 2.32116211 46.0546875 2.40234375 C46.91562012 2.46929443 47.77655273 2.53624512 48.66357422 2.60522461 C51.10562751 3.01784741 52.85781448 3.78044506 55 5 C36.24471501 5.38340293 18.4176708 4.82463728 0 1 C0 0.67 0 0.34 0 0 Z " fill="#E4B32E" transform="translate(186,304)"/>
<path d="M0 0 C0.33 0 0.66 0 1 0 C2.0735426 11.48520179 2.0735426 11.48520179 -0.55859375 15.19921875 C-2.30945733 16.65416173 -4.01429769 17.8906408 -6 19 C-7.21762731 15.34711807 -7.39075851 12.84245864 -7 9 C-5.55784021 6.6807057 -3.9080804 4.99894138 -2 3 C-1.34 2.01 -0.68 1.02 0 0 Z " fill="#EECF7B" transform="translate(488,119)"/>
<path d="M0 0 C0.56946521 5.31500865 0.36651929 8.08662581 -2.875 12.4375 C-4.55277164 14.50837272 -5.61344209 15.80672105 -8 17 C-9.06976319 8.56075706 -9.06976319 8.56075706 -6.4765625 4.77734375 C-1.66978953 0 -1.66978953 0 0 0 Z " fill="#F1D996" transform="translate(489,111)"/>
<path d="M0 0 C0.33 0.66 0.66 1.32 1 2 C-0.61590148 3.86010524 -2.23677622 5.7155557 -3.86328125 7.56640625 C-5.34659688 9.25581326 -6.82266488 10.95160043 -8.29296875 12.65234375 C-9.06253906 13.53019531 -9.83210938 14.40804687 -10.625 15.3125 C-11.33914063 16.13363281 -12.05328125 16.95476562 -12.7890625 17.80078125 C-15.03425296 20.03407141 -17.2255819 21.49597335 -20 23 C-19.4409112 19.75728494 -18.5867822 18.06942576 -16 16 C-15.34 16 -14.68 16 -14 16 C-14 15.01 -14 14.02 -14 13 C-11.60600637 10.19560746 -9.76533227 8.30257322 -6.3125 6.9375 C-3.8530633 6.21195368 -3.8530633 6.21195368 -2.8125 4 C-2.544375 3.34 -2.27625 2.68 -2 2 C-1.34 1.34 -0.68 0.68 0 0 Z " fill="#FCE8AB" transform="translate(489,107)"/>
<path d="M0 0 C7.13164734 5.13012234 13.84159539 10.72503253 20 17 C15.80661927 16.41272064 12.78494141 13.96859118 9.4375 11.5625 C8.29042494 10.75121674 7.14329147 9.94001606 5.99609375 9.12890625 C5.00738281 8.42636719 4.01867187 7.72382813 3 7 C2.01 6.34 1.02 5.68 0 5 C-0.1875 2.375 -0.1875 2.375 0 0 Z " fill="#E5B533" transform="translate(69,245)"/>
<path d="M0 0 C0.99 0.66 1.98 1.32 3 2 C1.40377344 3.03320481 -0.20229106 4.05122429 -1.8125 5.0625 C-3.15248047 5.91521484 -3.15248047 5.91521484 -4.51953125 6.78515625 C-7 8 -7 8 -10 7 C-6.7 4.69 -3.4 2.38 0 0 Z M-12 8 C-11.34 8.33 -10.68 8.66 -10 9 C-11.65 9.66 -13.3 10.32 -15 11 C-14.01 10.01 -13.02 9.02 -12 8 Z " fill="#FCF6DA" transform="translate(439,145)"/>
<path d="M0 0 C1.67542976 0.28604898 3.34385343 0.61781233 5 1 C4.67 2.65 4.34 4.3 4 6 C2.0625 6.5625 2.0625 6.5625 0 7 C-1 6 -1 6 -1.125 3.5 C-1 1 -1 1 0 0 Z " fill="#FFFFFF" transform="translate(352,253)"/>
<path d="M0 0 C0.33 0.66 0.66 1.32 1 2 C-0.09655288 3.31886772 -1.20253423 4.62990057 -2.3125 5.9375 C-2.92738281 6.66839844 -3.54226563 7.39929688 -4.17578125 8.15234375 C-6 10 -6 10 -9 11 C-8.67 9.68 -8.34 8.36 -8 7 C-7.38125 6.9175 -6.7625 6.835 -6.125 6.75 C-3.83647371 6.20051917 -3.83647371 6.20051917 -2.875 4.0625 C-2.58625 3.381875 -2.2975 2.70125 -2 2 C-1.34 1.34 -0.68 0.68 0 0 Z " fill="#F4E0AA" transform="translate(489,107)"/>
<path d="M0 0 C2.9719385 1.12451727 5.33440687 2.22293791 8 4 C7.34 4.66 6.68 5.32 6 6 C4.02 5.01 2.04 4.02 0 3 C0 2.01 0 1.02 0 0 Z " fill="#E6B83C" transform="translate(18,198)"/>
</svg>
