<?xml version="1.0" standalone="no"?>
<!DOCTYPE svg PUBLIC "-//W3C//DTD SVG 20010904//EN"
 "http://www.w3.org/TR/2001/REC-SVG-20010904/DTD/svg10.dtd">
<svg version="1.0" xmlns="http://www.w3.org/2000/svg"
 width="2048.000000pt" height="2048.000000pt" viewBox="0 0 2048.000000 2048.000000"
 preserveAspectRatio="xMidYMid meet">

<g transform="translate(0.000000,2048.000000) scale(0.100000,-0.100000)"
fill="#000000" stroke="none">
<path d="M13065 18556 c-183 -47 -292 -107 -470 -256 -160 -134 -397 -388
-468 -502 -39 -62 -90 -241 -88 -308 0 -19 4 -89 9 -155 7 -100 13 -130 36
-178 32 -67 93 -123 190 -176 l68 -36 54 -163 c66 -197 94 -347 101 -548 5
-120 2 -172 -12 -250 -33 -186 -91 -334 -180 -459 -41 -58 -86 -103 -229 -229
-37 -32 -85 -86 -108 -120 -110 -162 -497 -628 -709 -852 -229 -240 -421 -462
-564 -649 -180 -234 -301 -367 -500 -544 -71 -64 -159 -138 -195 -166 -36 -27
-76 -61 -90 -76 -69 -74 -195 -179 -323 -266 -78 -53 -184 -125 -236 -160 -51
-35 -121 -78 -155 -95 -33 -16 -68 -38 -76 -49 -14 -17 -88 144 -959 2079
-656 1456 -953 2107 -974 2129 -19 20 -46 36 -76 43 -61 14 -92 4 -336 -115
-104 -51 -227 -109 -272 -129 -146 -65 -336 -171 -447 -250 -73 -50 -115 -74
-125 -70 -9 4 -41 9 -71 11 -69 5 -116 -18 -147 -73 -37 -65 -31 -111 36 -259
32 -71 458 -1016 946 -2100 488 -1083 890 -1978 893 -1989 4 -16 2 -17 -17 -7
-28 15 -48 9 -251 -79 -191 -83 -393 -152 -525 -182 -81 -17 -137 -22 -296
-24 -108 -1 -207 -5 -220 -9 -13 -4 -39 -20 -57 -36 -53 -47 -201 -82 -417
-101 -113 -9 -175 -9 -315 2 -244 19 -660 24 -800 10 -133 -13 -451 -77 -578
-116 -131 -40 -269 -97 -450 -186 -216 -107 -350 -197 -481 -323 -65 -63 -120
-107 -141 -114 -22 -7 -87 -59 -170 -137 -160 -149 -281 -243 -445 -344 -200
-123 -272 -186 -329 -283 -61 -104 -53 -249 25 -436 109 -262 218 -339 679
-480 91 -28 199 -61 240 -74 41 -13 217 -92 390 -175 173 -82 351 -161 395
-175 336 -104 809 -205 1063 -227 215 -18 675 -33 997 -34 314 0 342 2 575 32
135 17 299 43 365 57 134 27 223 35 226 20 2 -5 -53 -51 -122 -101 -121 -88
-128 -91 -224 -114 -93 -21 -426 -122 -626 -190 -47 -16 -162 -64 -255 -106
-441 -199 -686 -358 -1114 -723 -219 -187 -293 -257 -458 -430 l-155 -165 -49
-3 c-91 -5 -152 -53 -246 -193 -61 -91 -88 -168 -104 -295 -11 -83 -10 -107 4
-177 18 -85 63 -191 104 -246 30 -38 146 -127 224 -170 114 -64 290 -116 1110
-332 84 -23 311 -64 520 -95 91 -13 302 -50 470 -81 168 -31 330 -58 360 -61
30 -2 123 3 205 11 83 9 197 21 255 26 84 8 389 53 590 86 19 3 52 15 74 26
29 15 79 24 192 34 87 8 180 23 216 34 35 11 125 34 200 50 76 17 179 46 230
65 51 19 136 46 188 60 162 44 510 165 564 195 84 47 286 117 417 145 165 35
337 90 395 127 26 16 69 38 96 49 26 10 71 30 98 44 27 14 51 21 53 17 19 -31
537 -1192 537 -1203 0 -7 10 -32 21 -56 12 -24 19 -46 17 -49 -3 -2 -104 -49
-224 -103 -370 -166 -427 -195 -456 -230 -53 -62 -54 -135 -6 -209 14 -20 33
-50 42 -65 28 -46 48 -56 406 -197 80 -31 330 -132 555 -223 226 -91 543 -220
706 -286 163 -66 312 -123 331 -126 48 -9 109 9 140 42 15 16 47 78 71 138 25
61 143 337 262 615 119 278 255 595 302 705 47 110 100 234 118 275 130 302
203 479 209 503 9 40 -10 102 -44 141 -36 40 -123 71 -180 63 -21 -3 -190 -73
-375 -157 -185 -83 -339 -150 -341 -148 -2 2 -149 328 -327 723 l-324 719 106
69 c94 62 257 183 421 315 117 94 653 592 770 716 233 247 291 311 368 406
129 158 234 275 252 278 43 9 70 27 84 57 9 18 16 37 16 41 0 4 38 64 84 133
77 114 124 176 316 411 33 41 100 137 148 213 48 76 123 195 168 265 82 128
197 319 349 577 45 77 131 234 191 348 60 115 137 261 171 325 111 208 199
454 253 710 35 171 70 460 70 590 0 56 12 167 30 276 63 391 101 767 101 1009
0 236 -16 335 -96 612 -62 213 -281 596 -521 910 -149 196 -256 316 -392 441
-64 59 -127 122 -140 139 -87 115 -215 410 -338 782 -57 171 -130 374 -163
450 -33 76 -66 163 -75 193 -18 63 -36 215 -36 312 0 72 -9 105 -35 132 -11
11 -24 57 -36 126 -10 61 -31 151 -45 202 -33 114 -34 187 -4 298 27 99 38
285 22 370 -20 104 -51 170 -111 231 -84 85 -136 102 -326 105 -131 3 -161 1
-240 -20z m361 -181 c52 -15 110 -64 86 -72 -34 -13 -72 -56 -77 -91 -32 -201
-163 -360 -416 -503 -319 -181 -492 -233 -656 -195 -118 27 -126 31 -119 68
19 97 91 196 279 387 254 258 413 367 592 406 84 19 250 18 311 0z m89 -524
c-3 -12 -13 -21 -21 -21 -9 0 -12 5 -8 13 23 40 41 46 29 8z m-730 -1591 c25
-21 74 -133 97 -222 19 -74 21 -111 21 -343 0 -203 -3 -283 -17 -365 -10 -58
-19 -148 -21 -200 -1 -52 -10 -131 -19 -175 -9 -44 -19 -90 -22 -102 -2 -13
-12 -23 -20 -23 -9 0 -33 -10 -54 -21 l-38 -22 -134 66 c-162 81 -278 162
-302 210 -9 20 -19 56 -22 81 l-7 45 76 71 c101 94 164 182 232 320 86 177
135 399 135 611 l0 96 40 -7 c22 -4 47 -13 55 -20z m592 -97 c198 -151 306
-258 359 -357 14 -26 39 -66 55 -89 16 -22 29 -50 29 -63 0 -56 87 -255 162
-371 54 -83 157 -199 221 -249 42 -33 47 -41 47 -77 l0 -40 -167 7 c-196 8
-368 39 -509 92 -51 19 -103 34 -116 34 -23 0 -24 2 -20 58 3 41 -2 73 -18
117 -11 33 -32 119 -44 190 -28 153 -105 481 -152 648 -19 65 -34 123 -34 128
0 5 31 9 69 9 65 0 73 -3 118 -37z m-5490 -1963 c491 -1092 895 -1993 896
-2003 2 -14 -24 -29 -113 -68 -115 -50 -571 -275 -708 -349 l-73 -40 -34 75
c-259 568 -1745 3875 -1745 3883 0 12 58 57 190 147 80 54 173 102 475 244 72
34 146 70 165 81 19 11 39 18 44 17 4 -2 411 -896 903 -1987z m5263 1354 c26
-116 25 -124 -4 -124 -22 0 -24 4 -30 84 -6 74 -1 144 10 133 2 -2 13 -44 24
-93z m-966 -682 c89 -82 197 -144 511 -292 132 -61 209 -103 208 -112 -1 -7
-25 -78 -53 -158 -28 -80 -66 -201 -84 -270 -73 -271 -203 -684 -276 -880 -16
-41 -36 -102 -46 -135 -37 -134 -320 -677 -442 -850 -371 -523 -489 -680 -752
-992 -76 -90 -148 -179 -306 -378 -48 -60 -124 -150 -169 -200 -45 -49 -119
-137 -166 -195 -170 -212 -304 -340 -713 -675 -102 -84 -268 -189 -455 -290
-62 -33 -165 -93 -229 -134 -274 -175 -916 -510 -1217 -635 -49 -21 -138 -60
-196 -87 -58 -26 -144 -62 -190 -78 -136 -49 -435 -120 -549 -131 -98 -9 -327
-47 -341 -56 -4 -2 -114 -18 -245 -35 -374 -48 -595 -50 -1438 -9 -332 16
-722 95 -1141 230 -50 16 -232 97 -404 179 -263 127 -339 159 -479 201 -92 28
-189 60 -217 72 -27 11 -73 27 -101 35 l-51 15 39 77 c70 137 81 278 37 468
-22 99 -58 175 -106 225 -35 36 -35 36 -13 48 54 29 201 142 315 241 111 98
127 109 161 109 33 0 44 7 84 52 123 141 251 264 331 318 48 32 158 94 245
138 288 145 433 197 702 252 184 38 214 41 452 50 204 8 286 7 410 -4 269 -25
370 -29 505 -17 217 19 360 50 502 110 62 26 82 29 223 34 88 3 205 15 270 27
121 22 376 103 520 165 47 20 157 66 244 101 88 35 164 68 170 73 6 4 85 43
176 86 91 43 215 108 275 143 111 66 381 200 687 342 205 95 529 267 623 329
228 152 504 345 595 415 298 230 572 511 799 821 77 104 303 362 510 580 136
144 431 487 573 669 l112 144 27 -47 c15 -25 48 -66 73 -89z m1322 -39 c96
-37 282 -80 403 -94 157 -18 394 -14 507 9 142 29 212 59 234 100 l18 33 46
-56 c25 -31 46 -66 46 -77 0 -11 26 -47 59 -81 32 -34 68 -80 79 -102 11 -22
33 -50 50 -62 37 -27 245 -374 305 -508 128 -289 172 -552 148 -899 -15 -224
-62 -624 -96 -811 -33 -179 -43 -273 -44 -410 -3 -384 -137 -855 -343 -1204
-27 -46 -83 -152 -125 -235 -69 -137 -230 -424 -273 -486 -10 -14 -55 -88
-100 -165 -165 -283 -421 -672 -502 -765 -36 -41 -98 -118 -138 -170 -41 -55
-84 -100 -100 -107 -20 -8 -57 -54 -125 -156 -52 -79 -133 -186 -178 -238 -46
-52 -116 -134 -156 -184 -182 -226 -580 -624 -976 -978 -227 -203 -499 -405
-705 -524 -98 -57 -408 -249 -555 -344 -116 -75 -418 -255 -652 -387 -113 -65
-171 -92 -194 -92 -23 0 -52 -13 -91 -41 -33 -22 -75 -45 -95 -51 -19 -5 -47
-21 -61 -35 -19 -19 -123 -58 -431 -160 -223 -74 -453 -154 -511 -178 -179
-73 -458 -155 -760 -225 -96 -22 -240 -56 -320 -75 -214 -52 -688 -130 -970
-160 -387 -41 -382 -41 -625 6 -211 40 -400 73 -575 99 -309 46 -452 75 -715
146 -132 36 -302 82 -378 102 l-139 37 5 35 c2 19 10 62 17 95 14 71 9 132
-26 269 -50 202 -121 398 -175 486 l-31 50 142 149 c153 161 245 247 445 417
414 351 639 497 1050 683 179 81 234 102 470 176 306 98 301 96 320 75 22 -24
65 -33 97 -21 15 5 57 37 93 71 120 108 515 387 630 444 104 51 514 241 560
259 63 24 444 207 610 292 250 129 473 254 610 341 72 45 173 102 225 126 52
24 118 60 145 80 28 19 91 60 140 91 243 150 737 584 923 811 31 38 92 110
134 160 43 50 117 138 165 195 49 57 120 141 158 186 39 45 98 120 131 166 34
46 99 127 146 179 104 118 174 207 352 445 45 61 102 139 126 175 24 36 89
126 144 200 140 190 186 264 324 526 152 289 184 357 237 514 23 69 67 197 98
285 57 165 147 457 199 650 52 190 139 447 178 525 20 41 43 91 51 110 7 19
42 82 77 140 36 58 80 129 99 159 18 30 33 58 33 62 0 4 12 -5 28 -20 15 -15
64 -41 108 -58z m-2074 -8505 c8 -18 167 -370 353 -783 199 -443 348 -762 364
-778 55 -60 133 -74 213 -37 200 91 453 200 458 198 4 -2 -149 -367 -341 -813
-191 -445 -349 -813 -351 -817 -2 -5 -120 40 -263 98 -143 58 -431 174 -640
259 -209 85 -427 173 -483 196 l-104 43 39 20 c21 11 134 63 252 117 117 54
222 106 233 116 30 26 58 92 58 138 0 60 -23 115 -359 859 -172 379 -310 689
-309 691 2 1 86 51 188 110 147 87 542 332 645 401 28 18 29 18 47 -18z"/>
<path d="M9988 12010 c-180 -33 -354 -137 -455 -273 -166 -223 -192 -512 -68
-759 42 -84 57 -103 133 -181 72 -74 174 -138 277 -174 74 -25 92 -28 225 -27
130 0 153 2 223 26 323 109 530 429 488 757 -22 178 -79 297 -201 422 -134
136 -289 206 -474 214 -56 2 -122 0 -148 -5z m293 -162 c95 -35 153 -72 223
-142 99 -99 151 -207 176 -368 9 -58 7 -77 -11 -145 -34 -125 -82 -208 -168
-294 -115 -115 -242 -170 -396 -171 -286 -3 -535 218 -577 512 -9 67 -8 90 6
152 10 40 24 83 32 96 8 12 12 22 9 22 -3 0 10 31 31 70 68 130 213 243 364
285 80 22 226 14 311 -17z"/>
<path d="M12663 10135 c-213 -60 -367 -183 -458 -367 -58 -119 -80 -221 -72
-343 10 -172 79 -326 198 -446 271 -273 707 -273 978 0 79 79 132 167 168 276
37 112 39 284 4 395 -69 224 -225 388 -440 463 -74 26 -103 31 -206 34 -83 2
-136 -2 -172 -12z m290 -140 c222 -58 396 -266 414 -494 7 -94 -6 -158 -52
-254 -68 -144 -169 -238 -321 -297 -104 -40 -180 -47 -277 -26 -107 24 -189
68 -273 148 -147 140 -206 335 -158 522 47 183 213 351 395 400 71 19 201 20
272 1z"/>
<path d="M4431 13854 c-753 -126 -1179 -948 -846 -1633 63 -130 130 -223 232
-323 212 -207 462 -314 756 -325 333 -13 607 91 846 322 216 209 335 471 348
771 32 732 -616 1309 -1336 1188z m794 -554 c12 -13 16 -29 13 -51 -4 -23 1
-38 19 -57 18 -19 23 -36 23 -77 0 -48 -5 -60 -56 -131 -87 -123 -124 -164
-158 -181 -34 -16 -51 -45 -62 -108 -8 -48 -88 -132 -134 -142 -23 -4 -35 -16
-55 -57 -48 -95 -76 -141 -115 -181 -21 -22 -45 -55 -54 -73 -21 -40 -76 -77
-141 -94 -27 -7 -62 -22 -77 -34 -59 -47 -165 -39 -212 17 -14 17 -26 37 -26
45 0 9 -11 14 -29 14 -55 0 -111 69 -111 136 0 19 -12 37 -37 59 -36 31 -38
36 -37 91 1 100 44 174 101 174 35 0 63 -18 63 -39 0 -18 47 -91 154 -238 l60
-81 72 119 c144 238 310 454 564 734 60 66 120 132 134 148 30 33 75 36 101 7z"/>
</g>
</svg>
