<?xml version="1.0" encoding="UTF-8"?>
<svg version="1.1" xmlns="http://www.w3.org/2000/svg" width="2598" height="2598">
<path d="M0 0 C4.97046641 0.01139339 9.94071849 0.00459956 14.91117764 -0.0068779 C40.48915586 -0.05692589 65.94201028 0.58456087 91.46630859 2.26074219 C92.62338318 2.33635376 93.78045776 2.41196533 94.97259521 2.48986816 C101.456192 2.92698707 107.93063696 3.44068855 114.40380859 4.01074219 C115.35780548 4.0934436 116.31180237 4.17614502 117.29470825 4.26135254 C206.8962897 12.09938036 295.82245705 29.73722758 381.46630859 57.26074219 C382.25358337 57.51319702 383.04085815 57.76565186 383.85198975 58.02575684 C395.10212338 61.63961438 406.30072871 65.39389086 417.46630859 69.26074219 C418.19426636 69.51235107 418.92222412 69.76395996 419.67224121 70.02319336 C453.60395097 81.77072715 486.81998826 95.31119318 519.46630859 110.26074219 C520.61196289 110.7828125 521.75761719 111.30488281 522.93798828 111.84277344 C551.61383198 124.94190509 579.97574003 138.81565939 607.46630859 154.26074219 C609.3203427 155.29223049 611.17451341 156.32347329 613.02880859 157.35449219 C623.18300808 163.02428824 633.23737832 168.85034513 643.21630859 174.82324219 C644.16030518 175.38760986 645.10430176 175.95197754 646.0769043 176.53344727 C661.95510938 186.09867981 677.49948097 196.17155758 692.91015625 206.46972656 C695.59454893 208.26290674 698.28221472 210.05110043 700.97021484 211.83886719 C715.27752239 221.3729846 729.40000553 231.15034515 743.21630859 241.38574219 C744.4048645 242.264198 744.4048645 242.264198 745.61743164 243.16040039 C752.29912805 248.11153675 758.90992483 253.14477607 765.46630859 258.26074219 C766.01029297 258.68387695 766.55427734 259.10701172 767.11474609 259.54296875 C779.57294368 269.23825961 791.86916469 279.13528454 803.88232422 289.37792969 C807.22422948 292.22458373 810.61048583 295.00655071 814.02880859 297.76074219 C819.10238353 301.88764425 823.90372001 306.26176776 828.69677734 310.70605469 C830.92549252 312.76187941 833.17398778 314.77691175 835.46630859 316.76074219 C839.72421831 320.45909088 843.88322769 324.26290072 848.02685547 328.08837891 C849.68929996 329.62307631 851.35259969 331.15668463 853.02171326 332.68412781 C864.47845806 343.16881396 875.47288504 354.11182407 886.43945312 365.10351562 C888.97842613 367.64823919 891.52194003 370.18836965 894.0667572 372.72724724 C896.05903116 374.71588528 898.04889017 376.70692611 900.03805542 378.69867325 C901.42303606 380.08462675 902.80999736 381.46860011 904.19702148 382.85250854 C908.63581629 387.30772584 912.93290678 391.82182222 917.03155518 396.59240723 C918.67233234 398.50030713 920.37488976 400.33752483 922.11474609 402.15527344 C923.02691895 403.11481934 923.02691895 403.11481934 923.95751953 404.09375 C924.57916992 404.74698242 925.20082031 405.40021484 925.84130859 406.07324219 C930.90335186 411.42794645 935.70369856 416.85581079 940.29443359 422.62011719 C942.74675107 425.60171182 945.33738 428.43614304 947.96630859 431.26074219 C952.14593419 435.76336822 956.11802673 440.38484654 959.97021484 445.17089844 C961.85728882 447.50685386 963.75971587 449.82442916 965.68115234 452.13183594 C972.71892215 460.59176621 979.54255985 469.17496004 986.18505859 477.94824219 C988.98470791 481.6429717 991.83418658 485.29606443 994.69677734 488.94213867 C1002.21830079 498.53187352 1009.41808375 508.31910206 1016.46630859 518.26074219 C1017.00690918 519.02016113 1017.54750977 519.77958008 1018.10449219 520.56201172 C1043.26193292 555.94870985 1066.62147729 592.60198729 1087.88671875 630.45751953 C1088.95855456 632.35965536 1090.03656951 634.25831996 1091.12011719 636.15380859 C1111.24054972 671.36598287 1129.53157073 707.96452462 1145.46630859 745.26074219 C1145.91272705 746.30276794 1145.91272705 746.30276794 1146.36816406 747.36584473 C1180.97669167 828.22223756 1207.66728358 912.30401022 1247.85742188 1234.4987793 C1247.84034234 1240.07819633 1247.85052272 1245.6571832 1247.86774445 1251.23658562 C1247.92856758 1274.55000416 1247.51073328 1297.7725658 1246.08349609 1321.04589844 C1246.02204784 1322.04793745 1245.96059959 1323.04997646 1245.89728928 1324.08238029 C1240.43727237 1411.03748603 1225.67156736 1497.55476072 1201.46630859 1581.26074219 C1201.10856354 1582.49869537 1201.10856354 1582.49869537 1200.74359131 1583.76165771 C1185.79784946 1635.33135311 1168.26815987 1686.16480385 1146.46630859 1735.26074219 C1145.44390782 1737.59135496 1144.42177837 1739.92208679 1143.39990234 1742.25292969 C1135.50307065 1760.1608785 1127.05517955 1777.78023696 1118.41156006 1795.33770752 C1117.5045731 1797.18289626 1116.60115548 1799.02977969 1115.69921875 1800.87744141 C1108.5990259 1815.40552832 1101.04704823 1829.56800283 1092.98779297 1843.58496094 C1091.08317555 1846.93454484 1089.2431803 1850.3166192 1087.40844727 1853.70483398 C1082.80790714 1862.1955806 1077.99324462 1870.53989256 1073.02880859 1878.82324219 C1072.17053467 1880.25676025 1072.17053467 1880.25676025 1071.29492188 1881.71923828 C1061.95255776 1897.20183173 1052.15948517 1912.39015404 1042.11181641 1927.42285156 C1040.46349105 1929.88995931 1038.82015895 1932.36034022 1037.17724609 1934.83105469 C1027.92276458 1948.71923334 1018.41283979 1962.42012596 1008.46630859 1975.82324219 C1007.88437744 1976.60932861 1007.30244629 1977.39541504 1006.70288086 1978.20532227 C1005.52235842 1979.7984576 1004.34082761 1981.39084631 1003.15820312 1982.98242188 C1001.55784007 1985.13748508 999.96294924 1987.29650241 998.36865234 1989.45605469 C992.32648949 1997.60946568 986.05852592 2005.54022094 979.62255859 2013.38574219 C976.65722121 2017.00763845 973.7742387 2020.68851188 970.90380859 2024.38574219 C966.68876431 2029.79915882 962.29879193 2035.03554438 957.8059082 2040.2199707 C954.78978702 2043.70229539 951.85110895 2047.2302598 948.96630859 2050.82324219 C944.61494709 2056.18728418 939.95340683 2061.22190465 935.24365234 2066.26855469 C933.0855314 2068.58314481 930.9745705 2070.92969965 928.90380859 2073.32324219 C924.20691951 2078.74099674 919.3324708 2083.99566192 914.46630859 2089.26074219 C913.94564316 2089.82497391 913.42497772 2090.38920563 912.88853455 2090.97053528 C903.00773075 2101.65828781 892.84360633 2112.04006464 882.53881836 2122.31860352 C880.00370183 2124.84829523 877.47406222 2127.38337752 874.94482422 2129.91894531 C873.30777542 2131.55533421 871.67041693 2133.19141336 870.03271484 2134.82714844 C868.91842857 2135.94447105 868.91842857 2135.94447105 867.78163147 2137.08436584 C863.73413303 2141.11393941 859.60203881 2144.97641978 855.25694275 2148.68418884 C853.41336461 2150.30735641 851.68561784 2152.00717727 849.96630859 2153.76074219 C846.99895537 2156.77487801 843.89285567 2159.55991551 840.68896484 2162.31933594 C838.13653976 2164.5487828 835.64743346 2166.84075601 833.15380859 2169.13574219 C828.6337713 2173.26300382 823.96835727 2177.14664353 819.20458984 2180.98730469 C816.4338305 2183.28770688 813.7929306 2185.6859569 811.15380859 2188.13574219 C806.54550799 2192.37695199 801.75059964 2196.25552247 796.80126953 2200.08227539 C792.74322282 2203.22864376 788.8002546 2206.47939164 784.90380859 2209.82324219 C779.23656204 2214.66730378 773.39772453 2219.25349363 767.45263672 2223.75146484 C765.15288313 2225.49889315 762.86423192 2227.26038411 760.57568359 2229.02246094 C750.36664763 2236.86780526 740.05660359 2244.50578689 729.48291016 2251.8515625 C727.50665161 2253.23255092 725.543225 2254.62985554 723.58349609 2256.03417969 C679.35273186 2287.67993236 632.57180875 2315.93776412 584.46630859 2341.26074219 C583.8466925 2341.58751953 583.22707642 2341.91429688 582.58868408 2342.25097656 C508.07533493 2381.52779711 429.44074337 2413.05760814 318.46630859 2444.26074219 C317.66312195 2444.47087952 316.8599353 2444.68101685 316.03240967 2444.89752197 C241.12250614 2464.45362213 164.6377814 2475.87364345 87.46630859 2481.26074219 C86.58958496 2481.32239563 85.71286133 2481.38404907 84.80957031 2481.4475708 C31.73775705 2485.11848096 -22.4688808 2484.89381264 -75.53369141 2481.26074219 C-76.46759705 2481.19757812 -77.40150269 2481.13441406 -78.3637085 2481.06933594 C-169.76442495 2474.81984522 -260.23123377 2458.65086893 -603.81787109 2323.81787109 C-606.47998497 2322.29153504 -609.14982791 2320.7797687 -611.82275391 2319.27246094 C-668.05993483 2287.49903218 -721.98964048 2250.65341945 -771.88525391 2209.609375 C-774.14488298 2207.76070927 -776.43220176 2205.94785899 -778.72119141 2204.13574219 C-783.10424253 2200.64253869 -787.37939008 2197.03107295 -791.64550781 2193.39697266 C-795.08964625 2190.46697537 -798.5743474 2187.59750126 -802.09619141 2184.76074219 C-807.17120612 2180.632669 -811.97384557 2176.25728627 -816.76806641 2171.81152344 C-818.97425087 2169.77672336 -821.20001402 2167.78427981 -823.47119141 2165.82324219 C-828.57598587 2161.39346186 -833.51383044 2156.77898403 -838.46044922 2152.17431641 C-839.98185258 2150.77008188 -841.51404426 2149.37751231 -843.05224609 2147.99169922 C-853.49762382 2138.53889437 -863.40867706 2128.53871847 -873.35595703 2118.56884766 C-875.91068944 2116.00838049 -878.46994075 2113.4524843 -881.03051567 2110.89786148 C-883.03137275 2108.90064171 -885.02981307 2106.90101729 -887.02756119 2104.90068817 C-888.42140029 2103.50587514 -889.81722201 2102.11304421 -891.21310425 2100.72027588 C-895.63878893 2096.27834034 -899.94095779 2091.78955876 -904.01467896 2087.02130127 C-906.75585853 2083.84423146 -909.65621956 2080.8139223 -912.53369141 2077.76074219 C-917.30021865 2072.67474427 -922.00875974 2067.56415673 -926.53369141 2062.26074219 C-927.42015568 2061.22797162 -928.30690175 2060.19544291 -929.19384766 2059.16308594 C-931.25019361 2056.76846955 -933.30302608 2054.3708948 -935.35400391 2051.97167969 C-937.42339839 2049.55252839 -939.50146448 2047.14135485 -941.58837891 2044.73730469 C-946.99960067 2038.49142914 -952.25993238 2032.16623383 -957.32788086 2025.63818359 C-960.2219139 2021.91353684 -963.17193403 2018.2434899 -966.16845703 2014.60083008 C-973.62017462 2005.53509929 -980.68648705 1996.20787098 -987.66943359 1986.77783203 C-989.47657781 1984.33785601 -991.28983382 1981.90252793 -993.10400391 1979.46777344 C-1017.731229 1946.33277423 -1040.54936484 1911.81112433 -1061.53369141 1876.26074219 C-1062.08524902 1875.33036133 -1062.63680664 1874.39998047 -1063.20507812 1873.44140625 C-1074.83706038 1853.79992648 -1085.69799587 1833.77886513 -1096.27587891 1813.55371094 C-1097.67737702 1810.87806979 -1099.09534945 1808.2132853 -1100.54150391 1805.56152344 C-1106.65368472 1794.34120664 -1112.11679916 1782.82987344 -1117.53369141 1771.26074219 C-1118.12222993 1770.01082682 -1118.71093967 1768.76099206 -1119.29980469 1767.51123047 C-1156.5600536 1688.29931875 -1184.52363789 1605.07808754 -1234.53369141 1299.26074219 C-1234.59008789 1298.06835938 -1234.64648438 1296.87597656 -1234.70458984 1295.64746094 C-1239.7389969 1187.57155087 -1230.05984114 1078.57714276 -1166.53369141 832.26074219 C-1166.30079407 831.58138611 -1166.06789673 830.90203003 -1165.82794189 830.2020874 C-1151.55433559 788.58272943 -1134.48103944 747.96311274 -1115.53369141 708.26074219 C-1115.22153687 707.60591858 -1114.90938232 706.95109497 -1114.58776855 706.27642822 C-1102.56581569 681.07371695 -1090.01029788 656.27800222 -1076.12304688 632.04101562 C-1074.58535916 629.35112504 -1073.05961454 626.65483702 -1071.53759766 623.95605469 C-1051.31982389 588.18253529 -1028.89144782 553.71686236 -1004.99169922 520.29980469 C-1003.9890558 518.89758134 -1002.98852107 517.49384856 -1001.98974609 516.08886719 C-994.30230882 505.27826087 -986.3275989 494.7346067 -978.13232422 484.3046875 C-975.80488319 481.32891837 -973.51378203 478.32587519 -971.22119141 475.32324219 C-966.77670171 469.53523845 -962.18073693 463.88654597 -957.53369141 458.26074219 C-956.07495513 456.46940357 -954.61662624 454.67773314 -953.15869141 452.88574219 C-948.49767148 447.19073517 -943.75534851 441.56781529 -938.98388672 435.96533203 C-937.51566102 434.23954889 -936.05195608 432.50999946 -934.58837891 430.78027344 C-929.12891517 424.34807476 -923.5729988 418.03247289 -917.80541992 411.87402344 C-915.18599229 409.07405707 -912.62465925 406.23570513 -910.10791016 403.34277344 C-906.69978853 399.4305193 -903.20753664 395.60799892 -899.65869141 391.82324219 C-899.02592285 391.14801514 -898.3931543 390.47278809 -897.74121094 389.77709961 C-890.79202162 382.40723464 -883.62454209 375.25811713 -876.42382812 368.13500977 C-872.61685451 364.3599986 -868.83496059 360.56007594 -865.05583191 356.75723267 C-862.72588321 354.41374066 -860.39313255 352.07304546 -858.06030273 349.73242188 C-856.83869305 348.50578499 -855.6179826 347.27825187 -854.39819336 346.04980469 C-842.37891744 333.94774915 -842.37891744 333.94774915 -836.28930664 328.76904297 C-833.1650428 326.08489584 -830.20997573 323.21864526 -827.22119141 320.38574219 C-822.02610456 315.49548888 -816.72016383 310.85644501 -811.14306641 306.40136719 C-808.34937625 304.10953754 -805.69160363 301.70842407 -803.03369141 299.26074219 C-798.22178707 294.841923 -793.25099508 290.68840457 -788.16650391 286.58886719 C-786.31938357 285.08642481 -784.48841296 283.56557356 -782.65869141 282.04199219 C-774.19961876 275.00609802 -765.61799989 268.18337519 -756.84619141 261.54199219 C-753.15146189 258.74234287 -749.49836916 255.8928642 -745.85229492 253.03027344 C-736.26265833 245.50882706 -726.47639478 238.30732956 -716.53369141 231.26074219 C-715.75832031 230.70950684 -714.98294922 230.15827148 -714.18408203 229.59033203 C-700.48715595 219.86730936 -686.57651585 210.47627609 -672.53369141 201.26074219 C-671.54804199 200.61379395 -670.56239258 199.9668457 -669.546875 199.30029297 C-644.51060059 182.93184593 -618.71354831 167.72361183 -592.53369141 153.26074219 C-591.60186035 152.74334473 -590.6700293 152.22594727 -589.70996094 151.69287109 C-558.11985108 134.20920449 -525.69336321 118.29454427 -492.54492188 103.99511719 C-488.83586363 102.39486618 -485.13911157 100.76762095 -481.44384766 99.13574219 C-400.3197299 63.53042198 -314.10201032 37.79470276 -102.40869141 4.07324219 C-101.54312622 3.99424683 -100.67756104 3.91525146 -99.7857666 3.8338623 C-66.56289319 0.83956694 -33.34383056 -0.07698477 0 0 Z " fill="#3E3E3E" transform="translate(1326.53369140625,56.7392578125)"/>
<path d="M0 0 C0.61848958 1.92057292 1.23697917 3.84114583 1.85546875 5.76171875 C5.45839831 12.80772092 12.93061654 16.28637556 19.4375 20.25 C21.62275962 21.59836894 23.80765805 22.94732343 25.9921875 24.296875 C27.03858398 24.94076172 28.08498047 25.58464844 29.16308594 26.24804688 C36.56937746 30.82184618 43.85815049 35.57767135 51.11328125 40.38671875 C61.10159514 46.98781888 71.15634542 53.40466367 81.5 59.4375 C82.42925293 59.97979248 83.35850586 60.52208496 84.31591797 61.08081055 C88.86216881 63.70395493 93.43352862 66.22955935 98.10375977 68.62583923 C108.72452272 74.11871868 118.56421796 80.74510054 128.5 87.375 C130.27954255 88.55529889 132.05948886 89.73498928 133.83984375 90.9140625 C138.11111206 93.74504005 142.37702005 96.58394981 146.64031982 99.4269104 C148.87979266 100.91986333 151.12055356 102.4108591 153.36181641 103.90112305 C154.68134419 104.77909041 156.00084471 105.65709874 157.3203125 106.53515625 C157.89511353 106.91727264 158.46991455 107.29938904 159.06213379 107.69308472 C162.64063507 110.07723648 166.19175424 112.49866274 169.73440552 114.9355011 C176.14616651 119.34003108 182.73623275 123.06532927 189.65917969 126.60351562 C195.21594866 129.48180561 200.33056002 132.78975343 205.4765625 136.33984375 C209.68202302 139.20882317 213.97135229 141.67900198 218.5 144 C223.47494365 146.55158028 228.10385799 149.3504437 232.6875 152.5625 C239.73939237 157.47616409 247.27045948 161.40262999 254.875 165.375 C264.47478636 170.39762513 273.47831225 175.77035366 282.1953125 182.23046875 C286.04342011 185.08036813 290.04491349 187.62240306 294.125 190.125 C299.28440887 193.29257274 304.36083513 196.54452624 309.375 199.9375 C314.7635716 203.57594332 320.246109 207.01550591 325.8125 210.375 C339.1136198 218.43008374 352.32303066 226.67307066 364 237 C364.94101563 237.83144531 365.88203125 238.66289063 366.8515625 239.51953125 C373.91356699 245.86704309 380.64919451 252.54998976 387.375 259.25 C388.21925537 260.08958252 389.06351074 260.92916504 389.93334961 261.79418945 C396.09052103 267.96721573 401.8091662 274.41083278 407.4375 281.0625 C409.73282823 283.68748915 412.09210603 286.01636066 414.7578125 288.26171875 C418.91854439 291.86136701 422.70021486 295.71711039 426.4375 299.75 C427.09000732 300.4510083 427.74251465 301.1520166 428.41479492 301.87426758 C436.27680225 310.38193287 443.36819825 319.42407863 450.40625 328.6171875 C465.20573218 347.93499644 480.61968925 366.39116941 499.10253906 382.35424805 C501.95306562 384.82663605 504.72951107 387.37614492 507.5 389.9375 C508.06187012 390.45546143 508.62374023 390.97342285 509.20263672 391.50708008 C512.25262836 394.33269139 515.22633785 397.20533729 518.125 400.1875 C520.94450718 403.05976303 523.9045415 405.56766641 527.0625 408.0625 C531.8766252 411.91513556 536.18482848 416.09947105 540.5 420.5 C546.36024612 426.45775803 552.40384132 431.85662045 559 437 C560.15148751 437.92752168 561.30111759 438.85735242 562.44921875 439.7890625 C570.85367553 446.59696176 579.44215338 453.12676434 588.11279297 459.59033203 C594.71113208 464.51902673 601.27880855 469.44731456 607.45898438 474.89916992 C622.28387971 487.89444019 639.50064024 497.64484272 656.578125 507.3359375 C661.58821603 510.17938127 666.54507524 513.09943281 671.48364258 516.06494141 C680.71533997 521.6047934 690.08088573 526.76051855 699.65673828 531.68115234 C706.44320622 535.16898134 713.12559485 538.80581554 719.76855469 542.55883789 C723.69645024 544.76503276 727.65003133 546.83586107 731.71655273 548.77416992 C741.49270157 553.43808213 749.42673019 559.35096078 756 568 C756 568.66 756 569.32 756 570 C742.94821318 573.23602704 729.80556593 575.88505776 716.59936523 578.40942383 C713.20250016 579.05962877 709.80727399 579.7179336 706.41210938 580.37695312 C704.18498992 580.80517712 701.9577792 581.2329268 699.73046875 581.66015625 C698.74958786 581.85086197 697.76870697 582.04156769 696.75810242 582.23805237 C693.5101343 582.8550924 690.25669315 583.43077344 687 584 C686.30981215 584.12780727 685.61962429 584.25561455 684.90852165 584.38729477 C671.47843801 586.84588949 658.36492125 587.42952092 644.72780418 587.41069031 C641.14097815 587.40613638 637.55462598 587.42041656 633.96784973 587.43908691 C625.08082348 587.48166634 616.19381214 587.49314991 607.30670166 587.50531006 C599.74615921 587.51684597 592.18584004 587.54038092 584.62539101 587.58000183 C581.10060249 587.59352882 577.57611938 587.58941326 574.05131531 587.58459473 C571.8925233 587.5939328 569.73373467 587.60410098 567.57495117 587.61523438 C566.60295776 587.60908615 565.63096436 587.60293793 564.6295166 587.59660339 C557.60178581 587.66021107 552.77068692 588.67010418 547.25 593.3125 C542.38427747 599.12433525 541.55906332 603.8258753 541.61181641 611.13427734 C541.60655945 612.03650528 541.60130249 612.93873322 541.59588623 613.86830139 C541.58267518 616.8576895 541.59145348 619.84654364 541.6015625 622.8359375 C541.59953617 624.95114237 541.59662011 627.06634656 541.59286499 629.18154907 C541.58843523 633.63867779 541.59487194 638.0956266 541.60888672 642.55273438 C541.62562881 648.13731785 541.61607539 653.72146158 541.59856892 659.30602837 C541.50787382 693.39955355 542.50416694 727.35494664 547.5625 761.125 C547.77399319 762.60659908 547.98426426 764.08837309 548.19335938 765.5703125 C548.96144285 770.98107212 549.75345368 776.38779059 550.57958984 781.79003906 C551.6190223 788.71646453 552.3044782 795.50126993 552.5 802.5 C552.71473603 808.30458324 553.03071778 813.95020453 554 819.6875 C557.83275758 844.17737641 556.19826815 870.03170564 556.18847656 894.7571373 C556.18748832 897.91228143 556.18848894 901.06742072 556.18969727 904.2225647 C556.19349124 930.8947083 555.91982926 957.53105534 555 984.1875 C552.31433428 1048.10544555 552.31433428 1048.10544555 556.49131584 1111.81300068 C558.25253885 1125.69340558 558.27606547 1139.49456854 558.23213124 1153.46908486 C558.2233668 1156.9773038 558.22642593 1160.48551706 558.22793579 1163.9937439 C558.22897656 1170.04921444 558.22278541 1176.10464136 558.21146011 1182.16010094 C558.19509713 1190.91490815 558.18998616 1199.66969462 558.18748413 1208.42451546 C558.18312382 1222.63401505 558.16986024 1236.84349148 558.15087891 1251.05297852 C558.13247678 1264.84334193 558.11834157 1278.63369902 558.10986328 1292.42407227 C558.10933783 1293.27634825 558.10881239 1294.12862423 558.10827102 1295.00672676 C558.10566065 1299.28301312 558.1031333 1303.55929952 558.10064721 1307.83558595 C558.0799666 1343.22374047 558.04478686 1378.61186808 558 1414 C526.15255968 1414.04582001 494.30512891 1414.08111911 462.45766323 1414.10213066 C458.68092257 1414.10463148 454.90418197 1414.10722018 451.12744141 1414.10986328 C450.37569457 1414.1103879 449.62394773 1414.11091252 448.84942068 1414.11145304 C436.74494027 1414.12010898 424.64047924 1414.13585181 412.53601025 1414.15430559 C400.07634986 1414.17313965 387.61669949 1414.18414494 375.15702546 1414.18817699 C368.17522068 1414.19065314 361.19345637 1414.19656422 354.21166611 1414.21146011 C279.1700843 1414.36675402 279.1700843 1414.36675402 257 1409 C256.33452148 1408.84192871 255.66904297 1408.68385742 254.98339844 1408.52099609 C252.95260397 1408.01740155 250.9464679 1407.45918573 248.9375 1406.875 C247.21853516 1406.37613281 247.21853516 1406.37613281 245.46484375 1405.8671875 C236.70248405 1401.14519433 232.67488124 1393.46688958 229.875 1384.25 C229.54862549 1383.21560791 229.22225098 1382.18121582 228.88598633 1381.11547852 C221.88775616 1358.12031665 218.76271909 1334.87484709 217 1311 C216.87036613 1309.39534378 216.87036613 1309.39534378 216.7381134 1307.75827026 C215.84956819 1295.58844561 215.80455666 1283.42287235 215.73963928 1271.2250042 C215.71821125 1267.20758744 215.69132416 1263.19023881 215.66296387 1259.17286682 C215.6083701 1251.31470865 215.56023482 1243.45651784 215.51302338 1235.59831238 C215.44112073 1223.6683704 215.36564745 1211.73845439 215.28125 1199.80859375 C215.27399714 1198.78313548 215.27399714 1198.78313548 215.26659775 1197.73696089 C215.13251529 1179.00085099 214.92272026 1160.26786962 214.53125 1141.53515625 C214.51244278 1140.59826902 214.49363556 1139.6613818 214.47425842 1138.69610405 C214.30999539 1130.70166307 214.13616533 1122.71774992 213.61430073 1114.73764706 C212.74233593 1101.34000662 212.8352313 1087.92743347 212.83274293 1074.50724983 C212.83202377 1072.3210081 212.82987357 1070.13477233 212.82724571 1067.9485321 C212.81804918 1060.2832297 212.81390408 1052.61794446 212.81469727 1044.95263672 C212.81529821 1037.86689109 212.80472821 1030.78122153 212.7889536 1023.69549513 C212.77578719 1017.55731848 212.77051707 1011.41916645 212.77115268 1005.28097582 C212.77140477 1001.63876171 212.76871545 997.99661561 212.75797462 994.35441589 C212.72051385 980.72708329 212.72051274 967.25640702 214.52412415 953.72946167 C215.23400561 948.16608693 215.45030531 942.6218466 215.60546875 937.01953125 C215.64238327 935.81891556 215.67929779 934.61829987 215.71733093 933.38130188 C216.17225572 916.99728273 216.25972345 900.60699956 216.29516602 884.2175293 C216.30416126 880.49308601 216.32540344 876.76899956 216.35668945 873.04467773 C216.39514384 868.46597222 216.41392523 863.88758641 216.41844749 859.30872536 C216.42328448 857.58762192 216.43481488 855.8665225 216.45348549 854.14551353 C216.84526301 840.87934926 216.84526301 840.87934926 210.65864563 829.5032196 C205.33080963 824.51192039 198.98683359 823.76393102 191.9609375 823.69140625 C190.55729036 823.66608803 189.15364458 823.64069422 187.75 823.61523438 C185.62013465 823.58757072 183.49030344 823.5635759 181.36035156 823.54370117 C170.63475014 823.42507821 159.98902658 822.71827774 149.30543363 821.80805099 C130.54570723 820.21874999 111.77962474 818.86320158 92.98046875 817.83984375 C92.19560585 817.796943 91.41074295 817.75404226 90.60209632 817.70984149 C44.41020196 815.21289816 -1.82081863 815.42613866 -48.06552899 815.5422653 C-57.64542383 815.56459103 -67.22517567 815.5603578 -76.80508393 815.5500589 C-87.3179017 815.53928634 -97.83064273 815.54543065 -108.34345436 815.55961418 C-112.75908058 815.56532627 -117.17464977 815.5653308 -121.59027672 815.56054878 C-126.74014924 815.5557734 -131.88978445 815.56590331 -137.03961182 815.58750343 C-138.91732292 815.59304424 -140.79505696 815.59356162 -142.67276955 815.58855057 C-160.51289251 815.53542502 -160.51289251 815.53542502 -175.95703125 823.78515625 C-184.37969211 832.91641573 -186.25768797 844.98786179 -186.40939331 856.91796875 C-186.42844199 857.86684464 -186.44749068 858.81572052 -186.46711659 859.79335022 C-186.52675747 862.92464606 -186.57227484 866.05595385 -186.61669922 869.1875 C-186.65440664 871.42350719 -186.69239089 873.65950973 -186.73063469 875.89550781 C-187.11537856 899.72708231 -187.14754541 923.55961469 -187.1343255 947.3937149 C-187.13172187 953.59955379 -187.13416048 959.8053915 -187.13571167 966.01123047 C-187.13750859 976.39778923 -187.1351911 986.78434078 -187.13037109 997.17089844 C-187.12491017 1009.07392322 -187.12671447 1020.97693091 -187.1321975 1032.87995529 C-187.1367727 1043.23894774 -187.13735853 1053.59793512 -187.13475883 1063.95692825 C-187.13322299 1070.08408131 -187.13292671 1076.2112264 -187.13629532 1082.33837891 C-187.1654549 1114.27021895 -187.1654549 1114.27021895 -186.58544922 1146.1953125 C-186.55091707 1147.47826202 -186.51638493 1148.76121155 -186.48080635 1150.08303833 C-186.17711699 1159.34580224 -185.39270035 1168.52979142 -184.5 1177.75 C-182.00149202 1205.07271026 -182.19618043 1232.58298136 -182 1260 C-181.99139954 1261.12460632 -181.98279907 1262.24921265 -181.97393799 1263.40789795 C-181.92257288 1270.29276319 -181.8897673 1277.17746222 -181.875 1284.0625 C-181.87223053 1284.89477112 -181.86946106 1285.72704224 -181.86660767 1286.58453369 C-181.86462372 1287.38695496 -181.86263977 1288.18937622 -181.8605957 1289.01611328 C-181.858647 1289.70351593 -181.8566983 1290.39091858 -181.85469055 1291.09915161 C-181.88913812 1298.33078489 -182.09991291 1305.52728721 -182.48852539 1312.74853516 C-183.0356586 1323.59953925 -183.21695571 1334.43780333 -183.31640625 1345.30078125 C-183.33705985 1347.2437526 -183.35805791 1349.18672031 -183.37937927 1351.12968445 C-183.43373476 1356.16489658 -183.48351341 1361.20014314 -183.53222656 1366.2354126 C-183.58308691 1371.40501858 -183.63843084 1376.57457655 -183.69335938 1381.74414062 C-183.79987715 1391.82938576 -183.90154345 1401.91467316 -184 1412 C-187.35944345 1411.34777545 -190.56004362 1410.56716239 -193.81640625 1409.51171875 C-206.44447808 1405.49359521 -218.92864143 1402.1875145 -232 1400 C-233.27157959 1399.7836792 -233.27157959 1399.7836792 -234.56884766 1399.56298828 C-244.11011581 1397.97426616 -253.51794023 1396.8695869 -263.1875 1396.5625 C-270.95347415 1396.30887576 -278.458832 1395.44593096 -286.125 1394.1875 C-316.14464685 1389.26395299 -346.55527551 1386.72989909 -376.83984375 1384.03125 C-379.71581339 1383.77412638 -382.59176792 1383.51683481 -385.4677124 1383.25942993 C-387.4077772 1383.0863095 -389.34792262 1382.91409033 -391.28814697 1382.74276733 C-400.7483003 1381.90632151 -410.17491558 1381.04938862 -419.57861328 1379.70336914 C-433.38678932 1377.72918716 -447.15350327 1377.69271392 -461.0758667 1377.52557373 C-479.28210807 1377.28934582 -497.00828274 1375.76810447 -515 1373 C-515.13742491 1364.63373805 -515.01712353 1356.63648157 -513.625 1348.375 C-507.75556023 1307.16418735 -509.59269877 1264.50501832 -509.18401909 1222.97134209 C-509.03916072 1208.25264066 -508.87403543 1193.53487421 -508.61624146 1178.81762695 C-508.5818481 1176.81441396 -508.54978581 1174.81115873 -508.52072144 1172.80786133 C-508.37740381 1163.01603794 -508.0880534 1153.24164914 -507.55200195 1143.46337891 C-506.15870359 1117.999961 -505.53197635 1092.57346058 -505.16574097 1067.07540894 C-504.98815646 1054.7595725 -504.78072464 1042.44421946 -504.5703125 1030.12890625 C-504.54877295 1028.86212099 -504.52723339 1027.59533573 -504.50504112 1026.29016304 C-504.01483408 997.73113317 -503.30909349 969.17856977 -502.53696823 940.62591553 C-502.43805923 936.95823684 -502.34047729 933.29052488 -502.24319458 929.62280273 C-502.08971206 923.85177272 -501.93270158 918.08084965 -501.77260208 912.30999947 C-501.71440947 910.20469909 -501.65699127 908.09937714 -501.60044479 905.99403191 C-501.35223356 896.80880454 -501.09201913 887.63574569 -500.47265625 878.46704102 C-500.00067198 871.45259736 -499.81886552 864.46626183 -499.75390625 857.4375 C-499.72092041 854.90103883 -499.68770969 852.36458058 -499.65429688 849.828125 C-499.60749167 845.94208061 -499.56307515 842.05604367 -499.52319336 838.16992188 C-499.37193064 824.03274499 -499.00419253 809.97521083 -498 795.87109375 C-496.6323999 776.26413359 -496.58832979 756.64469752 -496.45739746 736.99743652 C-496.40440423 729.18077262 -496.33987904 721.36421903 -496.26918221 713.54769707 C-496.24666027 710.85294037 -496.2302204 708.1581977 -496.21446228 705.46339417 C-496.20105395 703.80900904 -496.18743901 702.15462558 -496.17358398 700.50024414 C-496.17097061 699.76936081 -496.16835724 699.03847748 -496.16566467 698.28544617 C-496.12187697 693.85393864 -495.75583521 689.54340796 -495.22806835 685.14449024 C-494.89994221 682.0591726 -494.84936548 678.99608417 -494.82299805 675.89477539 C-494.81314125 674.92203423 -494.81314125 674.92203423 -494.80308533 673.92964172 C-494.78364114 671.81897816 -494.77175974 669.70838442 -494.76171875 667.59765625 C-494.75764322 666.86817717 -494.7535677 666.13869808 -494.74936867 665.38711357 C-494.72863773 661.53062106 -494.71427687 657.67416283 -494.70483398 653.81762695 C-494.69375491 649.862599 -494.65930082 645.90813124 -494.61966228 641.95330143 C-494.59338534 638.8844252 -494.58513276 635.815681 -494.58155251 632.74670219 C-494.5767206 631.28960799 -494.56520511 629.8325183 -494.54651451 628.37553596 C-494.42893321 618.60864453 -494.93923154 610.07596057 -501.25 602.1875 C-512.68659744 593.09020659 -524.14295623 591.58605448 -538.5625 591.375 C-541.04303272 591.32329531 -543.52350608 591.26865173 -546.00390625 591.2109375 C-547.08486572 591.19337402 -548.1658252 591.17581055 -549.27954102 591.15771484 C-552.23153948 591.03257599 -555.11118169 590.80314228 -558.04760742 590.50756836 C-563.50074953 589.98895337 -568.92415715 589.84771435 -574.39898682 589.7447052 C-591.1682047 589.40919542 -607.59935994 587.80795201 -624.23152924 585.58086014 C-627.69349342 585.12058437 -631.15771125 584.67783146 -634.62158203 584.23217773 C-652.79163689 581.88457084 -670.94847192 579.42361218 -689.08300781 576.81567383 C-696.71120899 575.71971655 -704.32018384 574.67489293 -712 574 C-710.69238273 571.17089017 -709.25018461 568.92332399 -707.20703125 566.57421875 C-706.65853516 565.94193359 -706.11003906 565.30964844 -705.54492188 564.65820312 C-704.97322266 564.00787109 -704.40152344 563.35753906 -703.8125 562.6875 C-703.26013672 562.04876953 -702.70777344 561.41003906 -702.13867188 560.75195312 C-696.57640638 554.37569755 -690.68158538 548.50925128 -684.26953125 542.9921875 C-681.627757 540.67324625 -679.06931329 538.27395287 -676.5 535.875 C-664.91578296 525.18372532 -652.41352621 515.69933632 -639.68359375 506.42578125 C-636.65572302 504.21955631 -633.64731209 501.99151804 -630.66015625 499.73046875 C-629.96792969 499.20654541 -629.27570313 498.68262207 -628.5625 498.14282227 C-627.29874677 497.18374587 -626.03678426 496.22230116 -624.77734375 495.25756836 C-619.03085195 490.90418945 -613.01484974 486.96998141 -607 483 C-605.17509009 481.78489155 -603.35085113 480.56877472 -601.52734375 479.3515625 C-600.62193848 478.74803955 -599.7165332 478.1445166 -598.78369141 477.52270508 C-596.80780802 476.20528 -594.8322447 474.88737479 -592.85693359 473.5690918 C-587.84924476 470.22796851 -582.83913437 466.89087101 -577.81755066 463.57067871 C-564.34010719 454.65924695 -550.94800024 445.67394815 -538 436 C-537.42185547 435.56816406 -536.84371094 435.13632812 -536.24804688 434.69140625 C-529.71821454 429.78830408 -523.3735158 424.67954082 -517.0625 419.5 C-511.57086316 414.99481415 -505.97121812 410.74846645 -500.1574707 406.67016602 C-489.86943807 399.42761403 -480.26191946 391.51183443 -471 383 C-469.71217819 381.87060071 -468.42064578 380.745415 -467.125 379.625 C-456.82948201 370.63717885 -446.47161058 361.44942513 -437.5625 351.0625 C-431.28142229 343.74445192 -424.33045392 337.11819471 -417.05493164 330.80541992 C-413.77718634 327.92566151 -410.6094549 324.93272311 -407.4375 321.9375 C-406.03649251 320.62105738 -404.63544999 319.30465204 -403.234375 317.98828125 C-400.49093067 315.4064009 -397.75220477 312.81962106 -395.015625 310.23046875 C-387.89555684 303.51226726 -380.66035955 297.10370895 -373 291 C-371.7745452 289.99661656 -370.55069515 288.99127123 -369.328125 287.984375 C-352.69395529 274.30629617 -335.27218915 261.72490887 -317.72802734 249.24731445 C-311.69109862 244.9527945 -305.70874923 240.58994013 -299.75 236.1875 C-286.44004004 226.35797222 -273.03512401 216.68097976 -259.45458984 207.22827148 C-254.71659218 203.92429802 -250.02181102 200.57131665 -245.36352539 197.15600586 C-230.55272499 186.31003994 -215.05079065 176.51925612 -199.5 166.77807617 C-188.92443899 160.11409986 -178.57204992 153.10299703 -168.19335938 146.13818359 C-164.04344013 143.35951443 -159.88031404 140.6008774 -155.71508789 137.84521484 C-149.21410408 133.42704781 -143.01908741 128.59109775 -136.83984375 123.73828125 C-129.42383472 117.91883047 -121.98878816 112.19849887 -114.25 106.8125 C-101.50735186 97.91498134 -89.94445425 88.30402336 -78.68945312 77.58789062 C-76.3400406 75.37971446 -73.9217786 73.25322967 -71.5 71.125 C-67.29101198 67.35285917 -63.58801733 63.36082106 -60 59 C-58.91912109 57.69869141 -58.91912109 57.69869141 -57.81640625 56.37109375 C-54.34692761 52.16442404 -50.94388929 47.93604474 -47.6875 43.5625 C-41.42890517 35.45543646 -33.74919085 28.32852716 -25.9765625 21.69140625 C-23.70229982 19.74524866 -21.47489552 17.75240597 -19.25 15.75 C-18.41984375 15.00363281 -17.5896875 14.25726562 -16.734375 13.48828125 C-14.73105432 11.66525943 -12.74315261 9.83103675 -10.765625 7.98046875 C-10.22260742 7.47483398 -9.67958984 6.96919922 -9.12011719 6.44824219 C-8.05432754 5.45440458 -6.99235424 4.45645576 -5.93457031 3.45410156 C-2.22332733 0 -2.22332733 0 0 0 Z " fill="#FEFEFE" transform="translate(1298,546)"/>
<path d="M0 0 C4.98122791 3.40948124 9.32268941 6.43119396 12 12 C12.58505412 15.33030806 12.86653351 18.62329781 13 22 C9.626631 17.99992713 6.91828243 13.7929547 4.25 9.3125 C3.83878906 8.63638672 3.42757812 7.96027344 3.00390625 7.26367188 C0 2.248845 0 2.248845 0 0 Z " fill="#1B1B1B" transform="translate(759,1759)"/>
<path d="M0 0 C1.88671875 0.2578125 1.88671875 0.2578125 4 1 C5.08203125 2.7421875 5.08203125 2.7421875 5.8125 4.875 C6.06644531 5.57367187 6.32039062 6.27234375 6.58203125 6.9921875 C7 9 7 9 6 12 C4.99466333 10.37829621 3.99588093 8.75252763 3 7.125 C2.443125 6.22007813 1.88625 5.31515625 1.3125 4.3828125 C0 2 0 2 0 0 Z " fill="#0C0C0C" transform="translate(765,1766)"/>
</svg>
