<?xml version="1.0" encoding="UTF-8"?>
<svg version="1.1" xmlns="http://www.w3.org/2000/svg" width="2598" height="2598">
<path d="M0 0 C2.50137366 2.21507186 4.93198385 4.48490607 7.34375 6.796875 C7.94703125 7.34859375 8.5503125 7.9003125 9.171875 8.46875 C20.2906046 18.96399944 29.5273854 32.98334532 37.59375 45.921875 C40.90223471 51.22793539 44.48793069 56.31611564 48.09375 61.421875 C53.93665639 69.71281883 59.55873445 78.10943161 64.99169922 86.67382812 C66.35935309 88.82137563 67.74282518 90.95805857 69.12890625 93.09375 C77.45274977 105.99860504 85.03496328 119.30578055 92.57568359 132.67626953 C94.06127073 135.29830416 95.56339638 137.90875887 97.08203125 140.51171875 C101.00657411 147.2679351 104.5558046 154.11468721 107.78125 161.234375 C108.11189453 161.95641113 108.44253906 162.67844727 108.78320312 163.42236328 C110.33345872 166.95106352 111.50518029 170.27455306 112.20922852 174.06884766 C113.20604412 178.69431715 114.91457278 182.53816879 117.125 186.69921875 C117.49444733 187.41426575 117.86389465 188.12931274 118.24453735 188.86602783 C119.43398663 191.16100408 120.63843444 193.44769817 121.84375 195.734375 C122.67499119 197.33013371 123.50555422 198.92624585 124.33544922 200.52270508 C128.27115842 208.07149816 132.26201836 215.58243267 136.46875 222.984375 C146.72828192 241.07200215 155.98004034 259.8493446 163.76220703 279.12915039 C172.91801466 301.70466853 183.96969651 324.18387118 196.78125 344.921875 C197.17006348 345.55488525 197.55887695 346.18789551 197.95947266 346.84008789 C201.32235428 352.12700266 204.7829849 355.98348629 210.27734375 358.98046875 C215.45862877 362.10042151 217.66274637 366.61920897 220.40625 371.859375 C221.43324947 373.73977141 222.46059171 375.61998065 223.48828125 377.5 C223.97506348 378.40685547 224.4618457 379.31371094 224.96337891 380.24804688 C226.76819852 383.58061085 228.66864762 386.84490119 230.59375 390.109375 C231.13515625 391.03363281 231.6765625 391.95789063 232.234375 392.91015625 C232.60046875 393.53277344 232.9665625 394.15539062 233.34375 394.796875 C256.09612733 389.9007938 276.80814665 381.62311075 297.88623047 371.85400391 C319.41515562 361.88394694 341.32979555 353.07208444 363.51147461 344.67532349 C365.5671788 343.8968139 367.6219112 343.11573206 369.67553711 342.33175659 C392.46540243 333.64942253 415.59053118 327.2484191 439.34375 321.796875 C440.48944458 321.5325769 441.63513916 321.26827881 442.81555176 320.99597168 C450.1212082 319.31286093 457.43195156 317.65341631 464.74658203 316.00976562 C468.47419761 315.1706487 472.19996491 314.3236276 475.92578125 313.4765625 C495.50661971 309.05400412 515.19369733 304.83496742 535.21875 303.046875 C535.88956604 302.98616821 536.56038208 302.92546143 537.25152588 302.86291504 C554.52967454 301.37050889 571.8907001 301.53284016 589.21875 301.546875 C589.94113609 301.54714188 590.66352219 301.54740875 591.40779877 301.54768372 C595.63737958 301.55014971 599.86682012 301.56107932 604.09634399 301.5834198 C606.0157984 301.59338583 607.93526801 301.60027902 609.85473633 301.60705566 C616.73965174 301.66189045 623.54573213 301.96290833 630.40463257 302.57115173 C639.26854503 303.25189734 647.80684699 302.65371288 656.59375 301.484375 C711.43013596 294.81590255 764.61698763 296.08230067 819.25906372 303.69303894 C824.79857512 304.46031108 830.34027953 305.18026354 835.89453125 305.83203125 C849.84273239 307.483014 863.52041361 309.69205905 877.2593689 312.56170654 C888.95858006 315.00465625 900.683993 317.05775275 912.48950195 318.91897583 C940.68910342 323.36747221 968.06313608 329.32384816 995.34375 337.796875 C996.09279602 338.0295105 996.84184204 338.262146 997.61358643 338.50183105 C1033.04537729 349.53822062 1033.04537729 349.53822062 1047.90625 356.11914062 C1052.64471565 358.12767294 1056.48605989 358.95778329 1061.6484375 359.11328125 C1069.40985396 359.52878799 1074.8386036 362.72469674 1081.46875 366.546875 C1097.17167176 375.22528055 1113.59683045 381.2456062 1130.49749756 387.14776611 C1133.09564084 388.06122619 1135.68269483 389.00428273 1138.26953125 389.94921875 C1146.64793288 392.9885055 1155.09450154 395.69456881 1163.65625 398.171875 C1164.5229834 398.42316162 1165.3897168 398.67444824 1166.28271484 398.93334961 C1170.96615988 400.25065474 1175.50994042 401.23586606 1180.34375 401.796875 C1180.58609375 401.10335938 1180.8284375 400.40984375 1181.078125 399.6953125 C1182.55281137 396.31809866 1184.50217734 393.43354052 1186.59375 390.421875 C1191.67684548 382.95507428 1196.36486239 375.27365037 1201.03271484 367.54248047 C1204.68876576 361.49506273 1208.4117202 355.50018024 1212.21875 349.546875 C1216.68411436 342.55251455 1220.93532139 335.44762727 1225.13363647 328.29006958 C1231.09973112 318.11998715 1237.27136062 308.13066437 1243.76879883 298.2878418 C1250.18085669 288.57002684 1256.32803851 278.69490249 1262.46875 268.80419922 C1264.33173737 265.81614214 1266.21010922 262.83835451 1268.09375 259.86328125 C1275.9446137 247.44109325 1283.43632951 234.8565172 1290.7265625 222.09765625 C1294.03471909 216.31233934 1297.42840684 210.58183014 1300.84375 204.859375 C1305.58149189 196.90005564 1310.12286365 188.84629972 1314.59375 180.734375 C1324.81014279 162.21990494 1335.32441501 143.8447635 1346.74902344 126.04492188 C1350.46128942 120.24906179 1354.02714564 114.37127839 1357.57128906 108.47192383 C1368.27963258 90.65106132 1379.48062732 73.6575053 1392.8046875 57.66699219 C1395.25171833 54.6936013 1397.60684366 51.65045612 1399.96875 48.609375 C1418.42426711 25.05812856 1439.90599017 -0.74388656 1470.34375 -8.203125 C1473.7936124 -8.61851453 1477.18411728 -8.68104675 1480.65625 -8.640625 C1482.03937378 -8.62817749 1482.03937378 -8.62817749 1483.45043945 -8.61547852 C1499.69827503 -8.21396222 1510.54759931 -0.79180568 1521.61328125 10.6640625 C1542.58250224 34.02614518 1550.92461163 65.54769942 1549.828125 96.34375 C1547.59510062 136.35381065 1531.49284219 173.59180218 1512.70068359 208.42480469 C1508.08119225 217.04372142 1503.97032417 225.91073235 1499.78955078 234.74804688 C1496.87227559 240.89984232 1493.9191121 247.03449389 1490.96557617 253.16894531 C1488.32812256 258.64969845 1485.70816097 264.13772765 1483.1171875 269.640625 C1473.36615885 290.27082821 1462.19970782 309.70181268 1450.07958984 329.01660156 C1448.25301271 331.9422078 1446.44733734 334.88000484 1444.64453125 337.8203125 C1437.02693253 350.20455928 1429.09596598 362.18689261 1420.34375 373.796875 C1419.70260254 374.64910645 1419.06145508 375.50133789 1418.40087891 376.37939453 C1411.84862351 385.07020057 1405.23231446 393.70693352 1398.46875 402.234375 C1393.61917793 408.36236482 1389.01422832 414.63884979 1384.55566406 421.05664062 C1383.76869201 422.1866843 1382.97664758 423.31321856 1382.17871094 424.43554688 C1376.0608406 433.05124593 1370.86288765 442.10431463 1365.78125 451.359375 C1358.69611522 464.26003365 1351.66012549 476.52017444 1341.99609375 487.6875 C1340.13819601 489.61270156 1340.13819601 489.61270156 1340.34375 491.796875 C1340.86171143 492.05267334 1341.37967285 492.30847168 1341.91333008 492.57202148 C1351.29816668 497.24725526 1359.98179672 501.77310422 1367.88671875 508.71875 C1371.1797699 511.50396973 1374.7438639 513.6706137 1378.40625 515.93359375 C1393.00914904 525.19633689 1406.35604736 536.33010573 1419.73388672 547.24145508 C1423.74369803 550.50937803 1427.7901328 553.71747093 1431.890625 556.87109375 C1435.32962468 559.57081802 1438.70778132 562.34360654 1442.09375 565.109375 C1447.05970637 569.16364222 1452.05824604 573.15985869 1457.15625 577.046875 C1466.3949892 584.11401981 1475.2103209 591.43040322 1483.60302734 599.48535156 C1487.14375925 602.85533999 1490.79085507 605.98944422 1494.609375 609.04296875 C1500.65979948 613.94543323 1506.12786449 619.32116928 1511.59375 624.859375 C1512.54386452 625.81095274 1513.49438462 626.76212569 1514.4453125 627.71289062 C1518.31331328 631.60526957 1522.14342704 635.48981158 1525.703125 639.66796875 C1530.89054827 645.71253146 1536.68238316 651.20192643 1542.34375 656.796875 C1555.59557869 669.89323531 1555.59557869 669.89323531 1560.9296875 676.16015625 C1562.94843275 678.49677023 1565.13233989 680.64365989 1567.34375 682.796875 C1570.25523242 685.63173946 1573.0060037 688.53244506 1575.65625 691.609375 C1579.3571398 695.87901626 1583.31166589 699.84203388 1587.34375 703.796875 C1592.59081032 708.94341693 1597.55197858 714.22448918 1602.34375 719.796875 C1603.83945227 721.46739962 1605.33879266 723.13468332 1606.84375 724.796875 C1609.45622763 727.68988714 1612.04663562 730.59625735 1614.59375 733.546875 C1616.74199235 736.02675845 1618.94302105 738.43865776 1621.2109375 740.80859375 C1629.63912325 749.64561422 1637.11118261 758.96359593 1644.34375 768.796875 C1644.80410645 769.41594727 1645.26446289 770.03501953 1645.73876953 770.67285156 C1650.78461738 777.46869372 1655.39570356 784.39205174 1659.66894531 791.69750977 C1663.02618605 797.38810549 1666.66169586 802.8746638 1670.34375 808.359375 C1671.25894409 809.72412964 1671.25894409 809.72412964 1672.19262695 811.11645508 C1673.37966322 812.88588952 1674.56691139 814.65518183 1675.75439453 816.42431641 C1683.4479856 827.90915789 1690.54304333 839.72764263 1697.62890625 851.59375 C1700.76989978 856.84987717 1703.94991337 862.08042308 1707.15625 867.296875 C1711.02674076 873.5960475 1714.7879362 879.95125709 1718.50732422 886.34057617 C1721.1610978 890.86867511 1723.92239188 895.31317281 1726.75610352 899.73071289 C1751.65164323 938.55850918 1765.8221969 981.03621224 1779.34375 1024.796875 C1779.78131622 1026.20821716 1779.78131622 1026.20821716 1780.22772217 1027.64807129 C1791.67618901 1064.58971529 1801.14688312 1101.82416745 1809.42504883 1139.59399414 C1815.67231291 1168.08459849 1822.32486277 1196.4913189 1830.6015625 1224.46875 C1831.39133472 1227.14041602 1832.18060501 1229.81222845 1832.96875 1232.484375 C1833.25818481 1233.46555298 1833.25818481 1233.46555298 1833.5534668 1234.46655273 C1849.90473909 1290.11618938 1849.90473909 1290.11618938 1841.09375 1309.546875 C1833.3341188 1321.8901023 1821.05133272 1330.51990876 1809.34375 1338.796875 C1808.46235352 1339.42625977 1807.58095703 1340.05564453 1806.67285156 1340.70410156 C1803.82418815 1342.73040939 1800.96175723 1344.73555702 1798.09375 1346.734375 C1797.20768066 1347.36126221 1796.32161133 1347.98814941 1795.40869141 1348.6340332 C1785.87680545 1355.18027116 1775.50166931 1358.97102054 1764.53125 1362.421875 C1763.5834668 1362.72109863 1762.63568359 1363.02032227 1761.65917969 1363.32861328 C1745.59135093 1368.29161766 1729.93364214 1370.04236595 1713.15625 1370.109375 C1712.42211884 1370.11332275 1711.68798767 1370.11727051 1710.93161011 1370.12133789 C1699.12278046 1370.1503526 1687.62052807 1369.20481063 1675.90625 1367.796875 C1653.0617809 1365.08420701 1630.28006027 1365.36728429 1607.30950928 1365.74938965 C1604.49625511 1365.79443321 1601.68304499 1365.83107061 1598.86962891 1365.86425781 C1573.05304104 1366.18069771 1547.62603922 1367.82839143 1522.07373047 1371.73510742 C1511.80201319 1373.25770742 1501.46168499 1373.99729656 1491.1015625 1374.62695312 C1488.9100938 1374.76197988 1486.72024805 1374.92329523 1484.53125 1375.09375 C1478.04640868 1375.38556786 1472.19556633 1374.43639744 1465.85971069 1373.14556885 C1449.12451771 1369.75825113 1432.41330648 1368.13013188 1415.42205811 1366.73046875 C1411.72572775 1366.42246682 1408.03096317 1366.09664596 1404.3359375 1365.7734375 C1396.34132419 1365.07807592 1388.34382436 1364.42631011 1380.34375 1363.796875 C1379.48069244 1363.72721527 1378.61763489 1363.65755554 1377.72842407 1363.58578491 C1363.43956196 1362.45778419 1349.1048463 1362.60130411 1334.78125 1362.609375 C1333.44673661 1362.60872124 1332.11222326 1362.60798817 1330.77770996 1362.60717773 C1316.51512625 1362.60395355 1302.31509018 1362.64753495 1288.09375 1363.796875 C1259.11562607 1366.13228634 1229.6245903 1365.43266087 1200.59375 1364.234375 C1177.97431925 1363.32517806 1155.82995393 1365.06252483 1133.37721252 1367.60070801 C1116.92276425 1369.448834 1100.732444 1369.98326136 1084.17358398 1369.98217773 C1080.39100202 1369.98438389 1076.60870321 1370.00264877 1072.82617188 1370.02148438 C1070.40625099 1370.02441553 1067.98632873 1370.02640218 1065.56640625 1370.02734375 C1063.8818911 1370.03812202 1063.8818911 1370.03812202 1062.16334534 1370.04911804 C1056.44004377 1370.03243426 1051.85815703 1369.42366103 1046.34375 1367.796875 C1042.87593505 1367.91208482 1042.87593505 1367.91208482 1039.1953125 1368.54296875 C1031.41481964 1369.62171299 1023.64003086 1370.28834977 1015.8046875 1370.83203125 C1014.58670471 1370.91657562 1013.36872192 1371.00112 1012.11383057 1371.08822632 C1009.59081093 1371.26107265 1007.067676 1371.43224346 1004.54443359 1371.60180664 C1000.74668701 1371.85749411 996.94951107 1372.12062981 993.15234375 1372.38476562 C972.24265744 1373.82257083 951.36981239 1374.99241629 930.40625 1374.921875 C929.61946869 1374.92098877 928.83268738 1374.92010254 928.02206421 1374.91918945 C913.67879386 1374.90066063 899.34595464 1374.60173015 885.01000977 1374.15283203 C880.12178432 1374.00282324 875.23330303 1373.89315407 870.34375 1373.796875 C869.43937195 1373.7764917 868.5349939 1373.7561084 867.60321045 1373.73510742 C842.30550163 1373.22995933 817.07503011 1375.13082328 791.83837891 1376.66064453 C752.57327533 1379.02987471 713.71740773 1379.72634943 674.46875 1376.859375 C658.84881208 1375.76129394 643.2317291 1374.69168323 627.5859375 1374.04296875 C626.41499542 1373.98641617 625.24405334 1373.92986359 624.03762817 1373.87159729 C617.71778647 1373.63945257 611.99305418 1374.00071889 605.80105591 1375.29161072 C602.44130863 1375.98243244 599.13550976 1376.3043919 595.71875 1376.61328125 C595.04690674 1376.67466782 594.37506348 1376.73605438 593.68286133 1376.79930115 C592.27495453 1376.9267842 590.86682807 1377.05186373 589.45849609 1377.17456055 C587.37404369 1377.35672754 585.29056205 1377.54784403 583.20703125 1377.74023438 C578.92191464 1378.12884019 574.63443686 1378.4758089 570.34375 1378.796875 C569.28376297 1378.87625809 569.28376297 1378.87625809 568.20236206 1378.95724487 C554.38755352 1379.94310891 540.59707014 1379.85038134 526.75430298 1379.75805664 C508.8592425 1379.64792708 491.01584807 1379.57379635 473.15625 1380.796875 C441.20468441 1382.96245271 408.77797362 1382.43032268 376.82958984 1380.31274414 C369.02821338 1379.81370793 361.22797885 1379.46876929 353.4140625 1379.2265625 C352.72438511 1379.20514065 352.03470772 1379.1837188 351.32413101 1379.1616478 C339.36790268 1378.80243622 327.42176495 1378.74379015 315.4609375 1378.8046875 C314.60867647 1378.80902046 313.75641544 1378.81335342 312.87832832 1378.81781769 C309.36931304 1378.8364127 305.86030676 1378.85628619 302.35130405 1378.87711716 C274.90455911 1379.0377967 247.5578343 1379.06492165 220.15625 1377.296875 C219.06639801 1377.22669159 217.97654602 1377.15650818 216.85366821 1377.084198 C215.24544693 1376.98052414 215.24544693 1376.98052414 213.60473633 1376.87475586 C188.81493826 1375.28623402 163.89412355 1374.77500479 139.09375 1376.546875 C138.15926025 1376.60834717 137.22477051 1376.66981934 136.26196289 1376.7331543 C130.88838865 1377.22790662 127.72049132 1378.42811047 123.34375 1381.796875 C120.1215073 1382.8709559 117.69612712 1382.96741069 114.30517578 1383.03393555 C113.04392883 1383.06024551 111.78268188 1383.08655548 110.48321533 1383.11366272 C109.08517115 1383.13737503 107.68711987 1383.16067185 106.2890625 1383.18359375 C104.82362782 1383.21014883 103.35819408 1383.2367563 101.89276123 1383.26341248 C97.0848982 1383.34750476 92.27686896 1383.41678057 87.46875 1383.484375 C86.64599831 1383.49642723 85.82324661 1383.50847946 84.97556305 1383.52089691 C60.03366794 1383.88350551 35.14977518 1383.74040857 10.21875 1382.921875 C9.5036388 1382.89846794 8.7885276 1382.87506088 8.05174637 1382.85094452 C1.72657176 1382.64275228 -4.59832781 1382.42692964 -10.92295837 1382.20281982 C-23.64461947 1381.75252045 -36.36716759 1381.38795034 -49.09375 1381.109375 C-50.56646866 1381.07703262 -50.56646866 1381.07703262 -52.06893921 1381.04403687 C-64.60734248 1380.78173818 -77.06323999 1380.85036586 -89.59594727 1381.38330078 C-114.98394535 1382.44647035 -140.30814385 1381.95703356 -165.67373657 1380.65118408 C-180.70382361 1379.90398565 -195.69733179 1379.72767066 -210.7421875 1379.76953125 C-211.67856112 1379.77179089 -212.61493473 1379.77405052 -213.5796833 1379.77637863 C-223.0726496 1379.80100015 -232.56511628 1379.8458869 -242.05770588 1379.93469524 C-263.83275217 1380.12842075 -285.02647095 1379.50865081 -306.65625 1376.796875 C-307.80795685 1376.65768646 -308.9596637 1376.51849792 -310.14627075 1376.37509155 C-316.75930112 1375.57371278 -323.36200479 1374.71305895 -329.96044922 1373.79956055 C-333.21306019 1373.35155004 -336.46767332 1372.92063534 -339.72265625 1372.49023438 C-354.52993736 1370.48876697 -368.45262253 1367.66899952 -382.46875 1362.359375 C-383.66721558 1361.91259399 -383.66721558 1361.91259399 -384.88989258 1361.45678711 C-390.66935009 1359.26486301 -396.25192122 1356.8116291 -401.65625 1353.796875 C-402.28015625 1354.27769531 -402.9040625 1354.75851562 -403.546875 1355.25390625 C-407.72745364 1358.3119221 -412.60029425 1358.44836839 -417.65625 1357.796875 C-424.79493581 1355.49619357 -428.82509385 1350.97424128 -432.5 1344.59765625 C-444.69911982 1318.90469871 -445.92574757 1291.63303429 -441.65625 1263.796875 C-441.48915527 1262.67635742 -441.32206055 1261.55583984 -441.14990234 1260.40136719 C-434.60556813 1217.56067895 -422.46323521 1176.70681343 -406.19140625 1136.6003418 C-399.87295939 1121.00739256 -394.00234227 1105.25321233 -388.15032959 1089.48048401 C-386.50934034 1085.06414406 -384.84173318 1080.66017536 -383.1328125 1076.26953125 C-378.30092292 1063.81427735 -374.18492728 1051.20153305 -370.21963501 1038.45046997 C-366.06696081 1025.09878072 -361.69099684 1011.83615647 -357.15625 998.609375 C-356.85892975 997.74087921 -356.5616095 996.87238342 -356.25527954 995.97756958 C-349.82413321 977.21058928 -342.86511188 959.11188373 -334.09375 941.296875 C-333.45276367 939.97586792 -333.45276367 939.97586792 -332.79882812 938.62817383 C-329.74231156 932.49964437 -326.38709384 926.61816034 -322.88737488 920.73399353 C-314.5811482 906.74667812 -307.32685863 892.38961626 -300.28125 877.734375 C-281.89705638 839.69857239 -281.89705638 839.69857239 -273.28125 826.734375 C-272.72308594 825.88568848 -272.16492188 825.03700195 -271.58984375 824.16259766 C-267.2058906 817.53525429 -262.66824901 811.03418868 -257.98242188 804.61767578 C-256.52698954 802.61940363 -255.08305827 800.61314306 -253.640625 798.60546875 C-241.61286812 781.87535122 -229.429165 765.25117873 -216.90234375 748.890625 C-207.48288118 736.58428711 -207.48288118 736.58428711 -198.38085938 724.04345703 C-183.26459489 702.65809285 -167.63818363 681.34636183 -148.86328125 662.99609375 C-145.60753305 659.75187032 -142.63569208 656.29294243 -139.65625 652.796875 C-137.90482565 650.78962462 -136.14786221 648.78731811 -134.390625 646.78515625 C-133.2678372 645.49799637 -132.15270094 644.20410486 -131.046875 642.90234375 C-123.4603702 634.03335838 -115.26696778 626.10674077 -106.13671875 618.84375 C-104.0061653 617.08562401 -102.11461495 615.29832081 -100.21875 613.296875 C-96.49870124 609.4534123 -92.27034179 606.41166996 -87.96875 603.25 C-84.45682956 600.66647001 -81.01952443 597.99320341 -77.59375 595.296875 C-76.99844482 594.82838135 -76.40313965 594.3598877 -75.78979492 593.87719727 C-72.29635269 591.11765131 -68.8397323 588.31844385 -65.40625 585.484375 C-53.99098786 576.10814943 -42.27560765 567.14787765 -30.26513672 558.54956055 C-24.70558904 554.56817975 -19.21897578 550.50069251 -13.76074219 546.38183594 C-9.42775812 543.11556385 -5.06695684 539.89040038 -0.6887207 536.68505859 C7.95286955 530.35613001 16.45668915 523.87597776 24.890625 517.2734375 C29.47501577 513.68591824 34.09246614 510.14263575 38.71875 506.609375 C39.42660645 506.06853271 40.13446289 505.52769043 40.86376953 504.97045898 C44.01402452 502.56611497 47.16749509 500.16684982 50.34375 497.796875 C48.8261274 493.43268462 46.50354912 489.82717679 43.90625 486.046875 C42.99509895 484.69989114 42.08497924 483.35220918 41.17578125 482.00390625 C40.7060791 481.30861816 40.23637695 480.61333008 39.75244141 479.89697266 C35.5230789 473.59177746 31.4464657 467.18481247 27.34375 460.796875 C26.78606934 459.93078613 26.22838867 459.06469727 25.65380859 458.17236328 C19.28762659 448.27742717 12.99406536 438.3639573 7.0925293 428.18383789 C3.86578036 422.63257535 0.49518369 417.18001259 -2.90625 411.734375 C-13.22887047 395.15695928 -22.90623355 378.21832114 -32.40380859 361.15771484 C-36.42679028 353.94645558 -40.54196552 346.79503745 -44.71875 339.671875 C-62.25810568 309.72675228 -78.60344362 279.25448444 -94.01019287 248.16802979 C-96.88265654 242.37353621 -99.76190562 236.58241286 -102.64453125 230.79296875 C-103.10411854 229.8697391 -103.10411854 229.8697391 -103.57299042 228.92785835 C-110.52934939 214.96442268 -117.72795419 201.13492749 -125.28125 187.484375 C-125.74088135 186.64865967 -126.2005127 185.81294434 -126.67407227 184.9519043 C-128.64547197 181.37863491 -130.62663311 177.81581197 -132.70703125 174.3046875 C-146.05536984 151.69818446 -157.97011704 126.56667763 -161.92578125 100.3984375 C-162.83563439 97.15799797 -164.51535364 95.36595063 -166.65625 92.796875 C-170.6287989 84.47439377 -168.73003532 75.02648958 -166.71875 66.359375 C-166.50057617 65.41779541 -166.28240234 64.47621582 -166.05761719 63.50610352 C-162.24958623 48.18044461 -155.42910396 34.18401126 -145.65625 21.796875 C-144.68751953 20.55550781 -144.68751953 20.55550781 -143.69921875 19.2890625 C-138.77167105 13.36797667 -133.07080296 9.01537667 -126.65625 4.796875 C-125.33560547 3.91902344 -125.33560547 3.91902344 -123.98828125 3.0234375 C-89.50525867 -18.47373595 -33.39146656 -27.69527521 0 0 Z M57.34375 1339.796875 C56.35375 1341.281875 56.35375 1341.281875 55.34375 1342.796875 C56.33375 1342.796875 57.32375 1342.796875 58.34375 1342.796875 C58.01375 1341.806875 57.68375 1340.816875 57.34375 1339.796875 Z " fill="#A8A8A8" transform="translate(574.65625,506.203125)"/>
<path d="M0 0 C2.50137366 2.21507186 4.93198385 4.48490607 7.34375 6.796875 C7.94703125 7.34859375 8.5503125 7.9003125 9.171875 8.46875 C20.2906046 18.96399944 29.5273854 32.98334532 37.59375 45.921875 C40.90223471 51.22793539 44.48793069 56.31611564 48.09375 61.421875 C53.93665639 69.71281883 59.55873445 78.10943161 64.99169922 86.67382812 C66.35935309 88.82137563 67.74282518 90.95805857 69.12890625 93.09375 C77.45274977 105.99860504 85.03496328 119.30578055 92.57568359 132.67626953 C94.06127073 135.29830416 95.56339638 137.90875887 97.08203125 140.51171875 C101.00657411 147.2679351 104.5558046 154.11468721 107.78125 161.234375 C108.11189453 161.95641113 108.44253906 162.67844727 108.78320312 163.42236328 C110.33345872 166.95106352 111.50518029 170.27455306 112.20922852 174.06884766 C113.20604412 178.69431715 114.91457278 182.53816879 117.125 186.69921875 C117.49444733 187.41426575 117.86389465 188.12931274 118.24453735 188.86602783 C119.43398663 191.16100408 120.63843444 193.44769817 121.84375 195.734375 C122.67499119 197.33013371 123.50555422 198.92624585 124.33544922 200.52270508 C128.27115842 208.07149816 132.26201836 215.58243267 136.46875 222.984375 C146.72828192 241.07200215 155.98004034 259.8493446 163.76220703 279.12915039 C172.91801466 301.70466853 183.96969651 324.18387118 196.78125 344.921875 C197.17006348 345.55488525 197.55887695 346.18789551 197.95947266 346.84008789 C201.32235428 352.12700266 204.7829849 355.98348629 210.27734375 358.98046875 C215.45862877 362.10042151 217.66274637 366.61920897 220.40625 371.859375 C221.43324947 373.73977141 222.46059171 375.61998065 223.48828125 377.5 C223.97506348 378.40685547 224.4618457 379.31371094 224.96337891 380.24804688 C226.76819852 383.58061085 228.66864762 386.84490119 230.59375 390.109375 C231.13515625 391.03363281 231.6765625 391.95789063 232.234375 392.91015625 C232.60046875 393.53277344 232.9665625 394.15539062 233.34375 394.796875 C256.09612733 389.9007938 276.80814665 381.62311075 297.88623047 371.85400391 C319.41515562 361.88394694 341.32979555 353.07208444 363.51147461 344.67532349 C365.5671788 343.8968139 367.6219112 343.11573206 369.67553711 342.33175659 C392.46540243 333.64942253 415.59053118 327.2484191 439.34375 321.796875 C440.48944458 321.5325769 441.63513916 321.26827881 442.81555176 320.99597168 C450.1212082 319.31286093 457.43195156 317.65341631 464.74658203 316.00976562 C468.47419761 315.1706487 472.19996491 314.3236276 475.92578125 313.4765625 C495.50661971 309.05400412 515.19369733 304.83496742 535.21875 303.046875 C535.88956604 302.98616821 536.56038208 302.92546143 537.25152588 302.86291504 C554.52967454 301.37050889 571.8907001 301.53284016 589.21875 301.546875 C589.94113609 301.54714188 590.66352219 301.54740875 591.40779877 301.54768372 C595.63737958 301.55014971 599.86682012 301.56107932 604.09634399 301.5834198 C606.0157984 301.59338583 607.93526801 301.60027902 609.85473633 301.60705566 C616.73965174 301.66189045 623.54573213 301.96290833 630.40463257 302.57115173 C639.26854503 303.25189734 647.80684699 302.65371288 656.59375 301.484375 C711.43013596 294.81590255 764.61698763 296.08230067 819.25906372 303.69303894 C824.79857512 304.46031108 830.34027953 305.18026354 835.89453125 305.83203125 C849.84273239 307.483014 863.52041361 309.69205905 877.2593689 312.56170654 C888.95858006 315.00465625 900.683993 317.05775275 912.48950195 318.91897583 C940.68910342 323.36747221 968.06313608 329.32384816 995.34375 337.796875 C996.09279602 338.0295105 996.84184204 338.262146 997.61358643 338.50183105 C1033.04537729 349.53822062 1033.04537729 349.53822062 1047.90625 356.11914062 C1052.64471565 358.12767294 1056.48605989 358.95778329 1061.6484375 359.11328125 C1069.40985396 359.52878799 1074.8386036 362.72469674 1081.46875 366.546875 C1097.17167176 375.22528055 1113.59683045 381.2456062 1130.49749756 387.14776611 C1133.09564084 388.06122619 1135.68269483 389.00428273 1138.26953125 389.94921875 C1146.64793288 392.9885055 1155.09450154 395.69456881 1163.65625 398.171875 C1164.5229834 398.42316162 1165.3897168 398.67444824 1166.28271484 398.93334961 C1170.96615988 400.25065474 1175.50994042 401.23586606 1180.34375 401.796875 C1180.58609375 401.10335938 1180.8284375 400.40984375 1181.078125 399.6953125 C1182.55281137 396.31809866 1184.50217734 393.43354052 1186.59375 390.421875 C1191.67684548 382.95507428 1196.36486239 375.27365037 1201.03271484 367.54248047 C1204.68876576 361.49506273 1208.4117202 355.50018024 1212.21875 349.546875 C1216.68411436 342.55251455 1220.93532139 335.44762727 1225.13363647 328.29006958 C1231.09973112 318.11998715 1237.27136062 308.13066437 1243.76879883 298.2878418 C1250.18085669 288.57002684 1256.32803851 278.69490249 1262.46875 268.80419922 C1264.33173737 265.81614214 1266.21010922 262.83835451 1268.09375 259.86328125 C1275.9446137 247.44109325 1283.43632951 234.8565172 1290.7265625 222.09765625 C1294.03471909 216.31233934 1297.42840684 210.58183014 1300.84375 204.859375 C1305.58149189 196.90005564 1310.12286365 188.84629972 1314.59375 180.734375 C1324.81014279 162.21990494 1335.32441501 143.8447635 1346.74902344 126.04492188 C1350.46128942 120.24906179 1354.02714564 114.37127839 1357.57128906 108.47192383 C1368.27963258 90.65106132 1379.48062732 73.6575053 1392.8046875 57.66699219 C1395.25171833 54.6936013 1397.60684366 51.65045612 1399.96875 48.609375 C1418.42426711 25.05812856 1439.90599017 -0.74388656 1470.34375 -8.203125 C1473.7936124 -8.61851453 1477.18411728 -8.68104675 1480.65625 -8.640625 C1482.03937378 -8.62817749 1482.03937378 -8.62817749 1483.45043945 -8.61547852 C1499.69827503 -8.21396222 1510.54759931 -0.79180568 1521.61328125 10.6640625 C1542.58250224 34.02614518 1550.92461163 65.54769942 1549.828125 96.34375 C1547.59510062 136.35381065 1531.49284219 173.59180218 1512.70068359 208.42480469 C1508.08119225 217.04372142 1503.97032417 225.91073235 1499.78955078 234.74804688 C1496.87227559 240.89984232 1493.9191121 247.03449389 1490.96557617 253.16894531 C1488.32812256 258.64969845 1485.70816097 264.13772765 1483.1171875 269.640625 C1473.36615885 290.27082821 1462.19970782 309.70181268 1450.07958984 329.01660156 C1448.25301271 331.9422078 1446.44733734 334.88000484 1444.64453125 337.8203125 C1437.02693253 350.20455928 1429.09596598 362.18689261 1420.34375 373.796875 C1419.70260254 374.64910645 1419.06145508 375.50133789 1418.40087891 376.37939453 C1411.84862351 385.07020057 1405.23231446 393.70693352 1398.46875 402.234375 C1393.61917793 408.36236482 1389.01422832 414.63884979 1384.55566406 421.05664062 C1383.76869201 422.1866843 1382.97664758 423.31321856 1382.17871094 424.43554688 C1376.0608406 433.05124593 1370.86288765 442.10431463 1365.78125 451.359375 C1358.69611522 464.26003365 1351.66012549 476.52017444 1341.99609375 487.6875 C1340.13819601 489.61270156 1340.13819601 489.61270156 1340.34375 491.796875 C1340.86171143 492.05267334 1341.37967285 492.30847168 1341.91333008 492.57202148 C1351.29816668 497.24725526 1359.98179672 501.77310422 1367.88671875 508.71875 C1371.1797699 511.50396973 1374.7438639 513.6706137 1378.40625 515.93359375 C1393.00914904 525.19633689 1406.35604736 536.33010573 1419.73388672 547.24145508 C1423.74369803 550.50937803 1427.7901328 553.71747093 1431.890625 556.87109375 C1435.32962468 559.57081802 1438.70778132 562.34360654 1442.09375 565.109375 C1447.05970637 569.16364222 1452.05824604 573.15985869 1457.15625 577.046875 C1466.3949892 584.11401981 1475.2103209 591.43040322 1483.60302734 599.48535156 C1487.14375925 602.85533999 1490.79085507 605.98944422 1494.609375 609.04296875 C1500.65979948 613.94543323 1506.12786449 619.32116928 1511.59375 624.859375 C1512.54386452 625.81095274 1513.49438462 626.76212569 1514.4453125 627.71289062 C1518.31331328 631.60526957 1522.14342704 635.48981158 1525.703125 639.66796875 C1530.89054827 645.71253146 1536.68238316 651.20192643 1542.34375 656.796875 C1555.59557869 669.89323531 1555.59557869 669.89323531 1560.9296875 676.16015625 C1562.94843275 678.49677023 1565.13233989 680.64365989 1567.34375 682.796875 C1570.25523242 685.63173946 1573.0060037 688.53244506 1575.65625 691.609375 C1579.3571398 695.87901626 1583.31166589 699.84203388 1587.34375 703.796875 C1592.59081032 708.94341693 1597.55197858 714.22448918 1602.34375 719.796875 C1603.83945227 721.46739962 1605.33879266 723.13468332 1606.84375 724.796875 C1609.45622763 727.68988714 1612.04663562 730.59625735 1614.59375 733.546875 C1616.74199235 736.02675845 1618.94302105 738.43865776 1621.2109375 740.80859375 C1629.63912325 749.64561422 1637.11118261 758.96359593 1644.34375 768.796875 C1644.80410645 769.41594727 1645.26446289 770.03501953 1645.73876953 770.67285156 C1650.78461738 777.46869372 1655.39570356 784.39205174 1659.66894531 791.69750977 C1663.02618605 797.38810549 1666.66169586 802.8746638 1670.34375 808.359375 C1671.25894409 809.72412964 1671.25894409 809.72412964 1672.19262695 811.11645508 C1673.37966322 812.88588952 1674.56691139 814.65518183 1675.75439453 816.42431641 C1683.4479856 827.90915789 1690.54304333 839.72764263 1697.62890625 851.59375 C1700.76989978 856.84987717 1703.94991337 862.08042308 1707.15625 867.296875 C1711.02674076 873.5960475 1714.7879362 879.95125709 1718.50732422 886.34057617 C1721.1610978 890.86867511 1723.92239188 895.31317281 1726.75610352 899.73071289 C1751.65164323 938.55850918 1765.8221969 981.03621224 1779.34375 1024.796875 C1779.78131622 1026.20821716 1779.78131622 1026.20821716 1780.22772217 1027.64807129 C1791.67618901 1064.58971529 1801.14688312 1101.82416745 1809.42504883 1139.59399414 C1815.67231291 1168.08459849 1822.32486277 1196.4913189 1830.6015625 1224.46875 C1831.39133472 1227.14041602 1832.18060501 1229.81222845 1832.96875 1232.484375 C1833.25818481 1233.46555298 1833.25818481 1233.46555298 1833.5534668 1234.46655273 C1849.90473909 1290.11618938 1849.90473909 1290.11618938 1841.09375 1309.546875 C1833.3341188 1321.8901023 1821.05133272 1330.51990876 1809.34375 1338.796875 C1808.46235352 1339.42625977 1807.58095703 1340.05564453 1806.67285156 1340.70410156 C1803.82418815 1342.73040939 1800.96175723 1344.73555702 1798.09375 1346.734375 C1797.20768066 1347.36126221 1796.32161133 1347.98814941 1795.40869141 1348.6340332 C1785.87680545 1355.18027116 1775.50166931 1358.97102054 1764.53125 1362.421875 C1763.5834668 1362.72109863 1762.63568359 1363.02032227 1761.65917969 1363.32861328 C1745.59135093 1368.29161766 1729.93364214 1370.04236595 1713.15625 1370.109375 C1712.42211884 1370.11332275 1711.68798767 1370.11727051 1710.93161011 1370.12133789 C1699.12278046 1370.1503526 1687.62052807 1369.20481063 1675.90625 1367.796875 C1653.0617809 1365.08420701 1630.28006027 1365.36728429 1607.30950928 1365.74938965 C1604.49625511 1365.79443321 1601.68304499 1365.83107061 1598.86962891 1365.86425781 C1573.05304104 1366.18069771 1547.62603922 1367.82839143 1522.07373047 1371.73510742 C1511.80201319 1373.25770742 1501.46168499 1373.99729656 1491.1015625 1374.62695312 C1488.9100938 1374.76197988 1486.72024805 1374.92329523 1484.53125 1375.09375 C1478.04640868 1375.38556786 1472.19556633 1374.43639744 1465.85971069 1373.14556885 C1449.12451771 1369.75825113 1432.41330648 1368.13013188 1415.42205811 1366.73046875 C1411.72572775 1366.42246682 1408.03096317 1366.09664596 1404.3359375 1365.7734375 C1396.34132419 1365.07807592 1388.34382436 1364.42631011 1380.34375 1363.796875 C1379.48069244 1363.72721527 1378.61763489 1363.65755554 1377.72842407 1363.58578491 C1363.43956196 1362.45778419 1349.1048463 1362.60130411 1334.78125 1362.609375 C1333.44673661 1362.60872124 1332.11222326 1362.60798817 1330.77770996 1362.60717773 C1316.51512625 1362.60395355 1302.31509018 1362.64753495 1288.09375 1363.796875 C1259.11562607 1366.13228634 1229.6245903 1365.43266087 1200.59375 1364.234375 C1177.97431925 1363.32517806 1155.82995393 1365.06252483 1133.37721252 1367.60070801 C1116.92276425 1369.448834 1100.732444 1369.98326136 1084.17358398 1369.98217773 C1080.39100202 1369.98438389 1076.60870321 1370.00264877 1072.82617188 1370.02148438 C1070.40625099 1370.02441553 1067.98632873 1370.02640218 1065.56640625 1370.02734375 C1063.8818911 1370.03812202 1063.8818911 1370.03812202 1062.16334534 1370.04911804 C1056.44004377 1370.03243426 1051.85815703 1369.42366103 1046.34375 1367.796875 C1042.87593505 1367.91208482 1042.87593505 1367.91208482 1039.1953125 1368.54296875 C1031.41481964 1369.62171299 1023.64003086 1370.28834977 1015.8046875 1370.83203125 C1014.58670471 1370.91657562 1013.36872192 1371.00112 1012.11383057 1371.08822632 C1009.59081093 1371.26107265 1007.067676 1371.43224346 1004.54443359 1371.60180664 C1000.74668701 1371.85749411 996.94951107 1372.12062981 993.15234375 1372.38476562 C972.24265744 1373.82257083 951.36981239 1374.99241629 930.40625 1374.921875 C929.61946869 1374.92098877 928.83268738 1374.92010254 928.02206421 1374.91918945 C913.67879386 1374.90066063 899.34595464 1374.60173015 885.01000977 1374.15283203 C880.12178432 1374.00282324 875.23330303 1373.89315407 870.34375 1373.796875 C869.43937195 1373.7764917 868.5349939 1373.7561084 867.60321045 1373.73510742 C842.30550163 1373.22995933 817.07503011 1375.13082328 791.83837891 1376.66064453 C752.57327533 1379.02987471 713.71740773 1379.72634943 674.46875 1376.859375 C658.84881208 1375.76129394 643.2317291 1374.69168323 627.5859375 1374.04296875 C626.41499542 1373.98641617 625.24405334 1373.92986359 624.03762817 1373.87159729 C617.71778647 1373.63945257 611.99305418 1374.00071889 605.80105591 1375.29161072 C602.44130863 1375.98243244 599.13550976 1376.3043919 595.71875 1376.61328125 C595.04690674 1376.67466782 594.37506348 1376.73605438 593.68286133 1376.79930115 C592.27495453 1376.9267842 590.86682807 1377.05186373 589.45849609 1377.17456055 C587.37404369 1377.35672754 585.29056205 1377.54784403 583.20703125 1377.74023438 C578.92191464 1378.12884019 574.63443686 1378.4758089 570.34375 1378.796875 C569.28376297 1378.87625809 569.28376297 1378.87625809 568.20236206 1378.95724487 C554.38755352 1379.94310891 540.59707014 1379.85038134 526.75430298 1379.75805664 C508.8592425 1379.64792708 491.01584807 1379.57379635 473.15625 1380.796875 C441.20468441 1382.96245271 408.77797362 1382.43032268 376.82958984 1380.31274414 C369.02821338 1379.81370793 361.22797885 1379.46876929 353.4140625 1379.2265625 C352.72438511 1379.20514065 352.03470772 1379.1837188 351.32413101 1379.1616478 C339.36790268 1378.80243622 327.42176495 1378.74379015 315.4609375 1378.8046875 C314.60867647 1378.80902046 313.75641544 1378.81335342 312.87832832 1378.81781769 C309.36931304 1378.8364127 305.86030676 1378.85628619 302.35130405 1378.87711716 C274.90455911 1379.0377967 247.5578343 1379.06492165 220.15625 1377.296875 C219.06639801 1377.22669159 217.97654602 1377.15650818 216.85366821 1377.084198 C215.24544693 1376.98052414 215.24544693 1376.98052414 213.60473633 1376.87475586 C188.81493826 1375.28623402 163.89412355 1374.77500479 139.09375 1376.546875 C138.15926025 1376.60834717 137.22477051 1376.66981934 136.26196289 1376.7331543 C130.88838865 1377.22790662 127.72049132 1378.42811047 123.34375 1381.796875 C120.1215073 1382.8709559 117.69612712 1382.96741069 114.30517578 1383.03393555 C113.04392883 1383.06024551 111.78268188 1383.08655548 110.48321533 1383.11366272 C109.08517115 1383.13737503 107.68711987 1383.16067185 106.2890625 1383.18359375 C104.82362782 1383.21014883 103.35819408 1383.2367563 101.89276123 1383.26341248 C97.0848982 1383.34750476 92.27686896 1383.41678057 87.46875 1383.484375 C86.64599831 1383.49642723 85.82324661 1383.50847946 84.97556305 1383.52089691 C60.03366794 1383.88350551 35.14977518 1383.74040857 10.21875 1382.921875 C9.5036388 1382.89846794 8.7885276 1382.87506088 8.05174637 1382.85094452 C1.72657176 1382.64275228 -4.59832781 1382.42692964 -10.92295837 1382.20281982 C-23.64461947 1381.75252045 -36.36716759 1381.38795034 -49.09375 1381.109375 C-50.56646866 1381.07703262 -50.56646866 1381.07703262 -52.06893921 1381.04403687 C-64.60734248 1380.78173818 -77.06323999 1380.85036586 -89.59594727 1381.38330078 C-114.98394535 1382.44647035 -140.30814385 1381.95703356 -165.67373657 1380.65118408 C-180.70382361 1379.90398565 -195.69733179 1379.72767066 -210.7421875 1379.76953125 C-211.67856112 1379.77179089 -212.61493473 1379.77405052 -213.5796833 1379.77637863 C-223.0726496 1379.80100015 -232.56511628 1379.8458869 -242.05770588 1379.93469524 C-263.83275217 1380.12842075 -285.02647095 1379.50865081 -306.65625 1376.796875 C-307.80795685 1376.65768646 -308.9596637 1376.51849792 -310.14627075 1376.37509155 C-316.75930112 1375.57371278 -323.36200479 1374.71305895 -329.96044922 1373.79956055 C-333.21306019 1373.35155004 -336.46767332 1372.92063534 -339.72265625 1372.49023438 C-354.52993736 1370.48876697 -368.45262253 1367.66899952 -382.46875 1362.359375 C-383.66721558 1361.91259399 -383.66721558 1361.91259399 -384.88989258 1361.45678711 C-390.66935009 1359.26486301 -396.25192122 1356.8116291 -401.65625 1353.796875 C-402.28015625 1354.27769531 -402.9040625 1354.75851562 -403.546875 1355.25390625 C-407.72745364 1358.3119221 -412.60029425 1358.44836839 -417.65625 1357.796875 C-424.79493581 1355.49619357 -428.82509385 1350.97424128 -432.5 1344.59765625 C-444.69911982 1318.90469871 -445.92574757 1291.63303429 -441.65625 1263.796875 C-441.48915527 1262.67635742 -441.32206055 1261.55583984 -441.14990234 1260.40136719 C-434.60556813 1217.56067895 -422.46323521 1176.70681343 -406.19140625 1136.6003418 C-399.87295939 1121.00739256 -394.00234227 1105.25321233 -388.15032959 1089.48048401 C-386.50934034 1085.06414406 -384.84173318 1080.66017536 -383.1328125 1076.26953125 C-378.30092292 1063.81427735 -374.18492728 1051.20153305 -370.21963501 1038.45046997 C-366.06696081 1025.09878072 -361.69099684 1011.83615647 -357.15625 998.609375 C-356.85892975 997.74087921 -356.5616095 996.87238342 -356.25527954 995.97756958 C-349.82413321 977.21058928 -342.86511188 959.11188373 -334.09375 941.296875 C-333.45276367 939.97586792 -333.45276367 939.97586792 -332.79882812 938.62817383 C-329.74231156 932.49964437 -326.38709384 926.61816034 -322.88737488 920.73399353 C-314.5811482 906.74667812 -307.32685863 892.38961626 -300.28125 877.734375 C-281.89705638 839.69857239 -281.89705638 839.69857239 -273.28125 826.734375 C-272.72308594 825.88568848 -272.16492188 825.03700195 -271.58984375 824.16259766 C-267.2058906 817.53525429 -262.66824901 811.03418868 -257.98242188 804.61767578 C-256.52698954 802.61940363 -255.08305827 800.61314306 -253.640625 798.60546875 C-241.61286812 781.87535122 -229.429165 765.25117873 -216.90234375 748.890625 C-207.48288118 736.58428711 -207.48288118 736.58428711 -198.38085938 724.04345703 C-183.26459489 702.65809285 -167.63818363 681.34636183 -148.86328125 662.99609375 C-145.60753305 659.75187032 -142.63569208 656.29294243 -139.65625 652.796875 C-137.90482565 650.78962462 -136.14786221 648.78731811 -134.390625 646.78515625 C-133.2678372 645.49799637 -132.15270094 644.20410486 -131.046875 642.90234375 C-123.4603702 634.03335838 -115.26696778 626.10674077 -106.13671875 618.84375 C-104.0061653 617.08562401 -102.11461495 615.29832081 -100.21875 613.296875 C-96.49870124 609.4534123 -92.27034179 606.41166996 -87.96875 603.25 C-84.45682956 600.66647001 -81.01952443 597.99320341 -77.59375 595.296875 C-76.99844482 594.82838135 -76.40313965 594.3598877 -75.78979492 593.87719727 C-72.29635269 591.11765131 -68.8397323 588.31844385 -65.40625 585.484375 C-53.99098786 576.10814943 -42.27560765 567.14787765 -30.26513672 558.54956055 C-24.70558904 554.56817975 -19.21897578 550.50069251 -13.76074219 546.38183594 C-9.42775812 543.11556385 -5.06695684 539.89040038 -0.6887207 536.68505859 C7.95286955 530.35613001 16.45668915 523.87597776 24.890625 517.2734375 C29.47501577 513.68591824 34.09246614 510.14263575 38.71875 506.609375 C39.42660645 506.06853271 40.13446289 505.52769043 40.86376953 504.97045898 C44.01402452 502.56611497 47.16749509 500.16684982 50.34375 497.796875 C48.8261274 493.43268462 46.50354912 489.82717679 43.90625 486.046875 C42.99509895 484.69989114 42.08497924 483.35220918 41.17578125 482.00390625 C40.7060791 481.30861816 40.23637695 480.61333008 39.75244141 479.89697266 C35.5230789 473.59177746 31.4464657 467.18481247 27.34375 460.796875 C26.78606934 459.93078613 26.22838867 459.06469727 25.65380859 458.17236328 C19.28762659 448.27742717 12.99406536 438.3639573 7.0925293 428.18383789 C3.86578036 422.63257535 0.49518369 417.18001259 -2.90625 411.734375 C-13.22887047 395.15695928 -22.90623355 378.21832114 -32.40380859 361.15771484 C-36.42679028 353.94645558 -40.54196552 346.79503745 -44.71875 339.671875 C-62.25810568 309.72675228 -78.60344362 279.25448444 -94.01019287 248.16802979 C-96.88265654 242.37353621 -99.76190562 236.58241286 -102.64453125 230.79296875 C-103.10411854 229.8697391 -103.10411854 229.8697391 -103.57299042 228.92785835 C-110.52934939 214.96442268 -117.72795419 201.13492749 -125.28125 187.484375 C-125.74088135 186.64865967 -126.2005127 185.81294434 -126.67407227 184.9519043 C-128.64547197 181.37863491 -130.62663311 177.81581197 -132.70703125 174.3046875 C-146.05536984 151.69818446 -157.97011704 126.56667763 -161.92578125 100.3984375 C-162.83563439 97.15799797 -164.51535364 95.36595063 -166.65625 92.796875 C-170.6287989 84.47439377 -168.73003532 75.02648958 -166.71875 66.359375 C-166.50057617 65.41779541 -166.28240234 64.47621582 -166.05761719 63.50610352 C-162.24958623 48.18044461 -155.42910396 34.18401126 -145.65625 21.796875 C-144.68751953 20.55550781 -144.68751953 20.55550781 -143.69921875 19.2890625 C-138.77167105 13.36797667 -133.07080296 9.01537667 -126.65625 4.796875 C-125.33560547 3.91902344 -125.33560547 3.91902344 -123.98828125 3.0234375 C-89.50525867 -18.47373595 -33.39146656 -27.69527521 0 0 Z M-116.67480469 43.34301758 C-125.45754416 54.2197197 -127.87349766 62.50912262 -127.05224609 76.2644043 C-126.90662312 78.72806256 -126.82503869 81.18747306 -126.75390625 83.65429688 C-126.24349027 97.32980107 -123.31429976 109.67500607 -118.09375 122.359375 C-117.75424316 123.19178711 -117.41473633 124.02419922 -117.06494141 124.88183594 C-110.58437237 140.43867802 -102.60637964 155.07725492 -93.99853516 169.54272461 C-87.81421847 180.03038648 -82.49436994 190.90562209 -77.13183594 201.82861328 C-75.0047341 206.10745249 -72.77823507 210.33007787 -70.53125 214.546875 C-64.6743323 225.56453317 -59.14016662 236.74169273 -53.60351562 247.92285156 C-51.30810128 252.55791237 -48.99330665 257.18266106 -46.65625 261.796875 C-46.20056641 262.69712402 -45.74488281 263.59737305 -45.27539062 264.52490234 C-38.3660385 278.12238219 -31.09287403 291.42564324 -23.33203125 304.5546875 C-19.32983707 311.32563402 -15.42560195 318.1511364 -11.53125 324.984375 C-10.85174404 326.17587334 -10.17221942 327.36736104 -9.49267578 328.55883789 C-8.17130097 330.87606825 -6.85043663 333.19358756 -5.52978516 335.51123047 C-3.78694522 338.56767298 -2.04090272 341.62224975 -0.29296875 344.67578125 C0.48191895 346.02965942 0.48191895 346.02965942 1.27246094 347.41088867 C2.26905394 349.15202374 3.2657959 350.89307356 4.26269531 352.6340332 C6.39151867 356.35729141 8.511152 360.08442484 10.58984375 363.8359375 C16.54805204 374.58439824 22.92661882 385.05632781 29.34912109 395.53271484 C31.47836443 399.01716814 33.59455846 402.50927319 35.70703125 406.00390625 C36.45441272 407.23926651 37.20180853 408.47461808 37.94921875 409.70996094 C39.37401256 412.06511453 40.79691026 414.42137858 42.21875 416.77832031 C50.83902479 431.01344527 59.99881431 444.88997646 69.18701172 458.76245117 C74.02060328 466.06390378 78.79819928 473.39745399 83.375 480.86328125 C83.74701538 481.45801743 84.11903076 482.0527536 84.50231934 482.66551208 C88.9082897 489.95421178 90.45312939 497.39563734 89.34375 505.796875 C85.44187201 517.76379545 75.67374491 524.2774523 66.04785156 531.51171875 C63.38039012 533.52339741 60.73842156 535.56787414 58.09375 537.609375 C37.77121974 553.24833119 17.36213182 568.77209015 -3.49072266 583.70068359 C-12.70295899 590.30046456 -21.68484756 597.15682937 -30.58691406 604.16845703 C-32.49933827 605.67339679 -34.41644408 607.17206239 -36.3359375 608.66796875 C-43.21552107 614.03718811 -50.00852493 619.50417286 -56.76171875 625.03149414 C-60.35400537 627.96197505 -63.9809771 630.8235874 -67.69042969 633.60400391 C-74.36682609 638.61027659 -80.43313408 644.07618719 -86.484375 649.8125 C-89.00054354 652.19764911 -91.57606164 654.48908339 -94.21875 656.734375 C-98.34137202 660.30321197 -101.58981282 664.0685113 -104.46875 668.734375 C-106.30434883 671.30421336 -107.66776683 672.7673147 -110.03125 674.734375 C-116.20617396 679.93189014 -121.50360611 686.00437375 -126.94726562 691.94384766 C-128.46595827 693.5905444 -130.00050764 695.21919437 -131.546875 696.83984375 C-138.63826966 704.35630738 -144.87290931 712.3748355 -151.05078125 720.64746094 C-152.57962929 722.6942946 -154.11640495 724.73486955 -155.65625 726.7734375 C-161.55514908 734.59454884 -167.36563805 742.47868998 -173.16162109 750.3762207 C-177.61290984 756.42333477 -182.15193947 762.3991984 -186.71875 768.359375 C-193.33096984 776.99729465 -199.75700204 785.75128913 -206.08398438 794.59960938 C-208.74462308 798.31789328 -211.41868252 802.0264645 -214.09375 805.734375 C-214.62621338 806.47381348 -215.15867676 807.21325195 -215.70727539 807.97509766 C-218.50881023 811.85725457 -221.33449228 815.71888058 -224.19921875 819.5546875 C-231.7843886 829.71612825 -239.02067406 839.9875047 -245.65625 850.796875 C-246.10564941 851.5280957 -246.55504883 852.25931641 -247.01806641 853.01269531 C-255.45904763 866.87638566 -262.33201409 881.36828909 -269.17919922 896.06591797 C-275.31437911 909.19088213 -281.70950102 921.92810627 -289.18994141 934.34033203 C-295.17691702 944.39745185 -300.3100298 954.85204325 -305.4152832 965.37573242 C-305.74279572 966.04583344 -306.07030823 966.71593445 -306.40774536 967.40634155 C-307.30036044 969.2347725 -308.18499227 971.06709458 -309.0690918 972.8996582 C-310.65625 975.796875 -310.65625 975.796875 -312.26098633 977.29467773 C-314.43833966 979.63890434 -314.62338709 982.17716703 -315.28125 985.28125 C-318.15924174 997.80585724 -322.54524822 1009.88660833 -326.65625 1022.046875 C-327.51886653 1024.60907839 -328.37986803 1027.17182332 -329.24072266 1029.73461914 C-330.52561843 1033.55899307 -331.81094411 1037.3832174 -333.09927368 1041.20643616 C-335.46835906 1048.2413908 -337.81399018 1055.28305108 -340.1171875 1062.33984375 C-345.93420908 1080.13626389 -352.23879231 1097.6715096 -359.0511322 1115.11140442 C-361.23294839 1120.69751238 -363.38707726 1126.29387408 -365.53125 1131.89453125 C-376.37232382 1160.19566203 -376.37232382 1160.19566203 -380.18774414 1169.49536133 C-395.66828596 1207.28161958 -420.72739418 1276.38753716 -404.65625 1316.796875 C-403.66625 1317.126875 -402.67625 1317.456875 -401.65625 1317.796875 C-400.99625 1317.466875 -400.33625 1317.136875 -399.65625 1316.796875 C-392.71734634 1316.10298463 -388.25924619 1318.34542465 -382.6640625 1322.15234375 C-364.71003553 1334.06845062 -342.48737262 1335.94072953 -321.64984131 1338.54595947 C-319.77831218 1338.78151212 -317.90790686 1339.02594546 -316.03759766 1339.27099609 C-312.72880278 1339.69883097 -309.4182961 1340.10057694 -306.10531616 1340.49401855 C-304.36152669 1340.70965907 -302.61930897 1340.93817611 -300.87832642 1341.17541504 C-278.87807988 1344.16763142 -257.17986064 1344.08202231 -235.03125 1343.859375 C-227.99746074 1343.7927295 -220.9637189 1343.73986441 -213.9296875 1343.70703125 C-213.03842981 1343.70249561 -212.14717213 1343.69795998 -211.22890663 1343.6932869 C-196.58666241 1343.63542551 -182.0040603 1344.12201819 -167.37890625 1344.79296875 C-142.87489286 1345.91015836 -118.4258556 1345.96743155 -93.9006958 1345.83377075 C-81.47424369 1345.76694071 -69.04770927 1345.74179992 -56.62109375 1345.73046875 C-55.38248093 1345.72924955 -54.1438681 1345.72803036 -52.86772156 1345.72677422 C-30.02146977 1345.71417011 -7.20150513 1346.12841036 15.63434219 1346.7851181 C48.85829373 1347.74869553 48.85829373 1347.74869553 82.09375 1347.671875 C82.97947693 1347.661492 83.86520386 1347.65110901 84.777771 1347.64041138 C87.17071312 1347.60774823 89.5610712 1347.54816746 91.953125 1347.4765625 C93.23155273 1347.44288574 94.50998047 1347.40920898 95.82714844 1347.37451172 C100.16969289 1346.66120568 102.62990218 1345.12094421 106.34375 1342.796875 C111.40735318 1341.51868391 116.78928347 1341.77999597 121.984375 1341.84375 C127.47689942 1341.85458491 132.93200901 1341.65971354 138.4140625 1341.359375 C139.22674591 1341.31504333 140.03942932 1341.27071167 140.8767395 1341.22503662 C144.22854049 1341.03928506 147.58005284 1340.84938972 150.93115234 1340.65136719 C173.89719723 1339.30875092 196.6667224 1339.65927386 219.618927 1341.07888794 C244.90068005 1342.60982294 270.08289012 1342.98956112 295.40625 1342.859375 C317.80788609 1342.74631143 340.14345518 1342.76449356 362.53125 1343.734375 C363.54317413 1343.7782132 364.55509827 1343.82205139 365.59768677 1343.86721802 C373.29497168 1344.20951261 380.991872 1344.56550753 388.6796875 1345.08203125 C401.5089547 1345.92550798 414.3218738 1345.94889127 427.17578125 1345.92724609 C430.96879046 1345.92187494 434.76168181 1345.927228 438.5546875 1345.93359375 C441.01822942 1345.93293299 443.48177127 1345.93165187 445.9453125 1345.9296875 C447.60694931 1345.93272385 447.60694931 1345.93272385 449.30215454 1345.93582153 C455.23241655 1345.91854308 461.10617129 1345.70832668 467.02294922 1345.29956055 C475.14112563 1344.74008091 483.23402938 1344.64661968 491.36927795 1344.62821007 C493.96919976 1344.62082622 496.56895505 1344.60500194 499.16882324 1344.58686829 C506.55132389 1344.53546444 513.93373151 1344.48681688 521.31640625 1344.47094727 C548.46622048 1344.40403311 575.77765574 1343.76064015 602.62080383 1339.24568176 C605.91875767 1338.70209996 609.07578343 1338.66714956 612.41796875 1338.6640625 C613.09081909 1338.66265259 613.76366943 1338.66124268 614.45690918 1338.65979004 C616.6484097 1338.65765664 618.83976406 1338.66396124 621.03125 1338.671875 C622.16247787 1338.67420135 622.16247787 1338.67420135 623.31655884 1338.67657471 C643.53741318 1338.72516007 663.66204642 1339.35234834 683.796875 1341.296875 C697.46929827 1342.5643926 711.05681387 1343.07027034 724.78125 1343.109375 C725.76955811 1343.11299042 726.75786621 1343.11660583 727.77612305 1343.12033081 C761.41918283 1343.16828083 795.06012217 1340.70860774 828.61801147 1338.51855469 C829.32876328 1338.47273223 830.03951508 1338.42690977 830.77180481 1338.37969875 C832.74372888 1338.25244634 834.7155422 1338.12348109 836.68734741 1337.99440002 C842.78151954 1337.66518258 848.86718536 1337.64979217 854.96875 1337.671875 C855.64148956 1337.67276123 856.31422913 1337.67364746 857.00735474 1337.67456055 C867.3306595 1337.69010252 877.64061907 1337.91476669 887.95874023 1338.22695923 C923.78764537 1339.3055362 959.58501732 1339.51316141 995.34375 1336.796875 C996.09265503 1336.7412439 996.84156006 1336.68561279 997.61315918 1336.6282959 C1002.96303207 1336.23034816 1008.31003846 1335.80363775 1013.65625 1335.359375 C1014.69094925 1335.27627579 1014.69094925 1335.27627579 1015.74655151 1335.1914978 C1025.47515472 1334.39687423 1034.82495531 1332.89371708 1044.34375 1330.796875 C1044.653125 1331.43625 1044.9625 1332.075625 1045.28125 1332.734375 C1046.1782663 1334.73298321 1046.1782663 1334.73298321 1047.34375 1335.796875 C1049.37756744 1335.99652905 1049.37756744 1335.99652905 1051.71875 1335.984375 C1052.90597656 1336.00564453 1052.90597656 1336.00564453 1054.1171875 1336.02734375 C1056.63106333 1335.94195009 1056.63106333 1335.94195009 1059.34375 1333.796875 C1061.52587891 1333.66162109 1061.52587891 1333.66162109 1064.0703125 1333.8203125 C1065.00987793 1333.87219727 1065.94944336 1333.92408203 1066.91748047 1333.97753906 C1067.92439941 1334.04166992 1068.93131836 1334.10580078 1069.96875 1334.171875 C1072.08842979 1334.28084422 1074.20822423 1334.3876053 1076.328125 1334.4921875 C1077.36646484 1334.54536133 1078.40480469 1334.59853516 1079.47460938 1334.65332031 C1099.77419813 1335.66899068 1120.03079422 1333.17895553 1140.1875 1330.9296875 C1170.15361864 1327.67968566 1200.10749495 1328.52344579 1230.19165039 1329.44042969 C1243.24673614 1329.83801187 1256.20184286 1330.19040951 1269.21875 1328.859375 C1291.90930095 1326.80843567 1314.70474266 1326.70216082 1337.47271729 1326.62164307 C1339.58938985 1326.61364331 1341.7060539 1326.60267714 1343.82269287 1326.58831787 C1360.08713258 1326.48950438 1376.14249864 1327.41409465 1392.34375 1328.796875 C1394.76575468 1328.99755141 1397.18779294 1329.19782274 1399.60986328 1329.39770508 C1405.74773614 1329.9084703 1411.88391176 1330.43700988 1418.01953125 1330.97412109 C1421.76525932 1331.3009329 1425.51151486 1331.62119741 1429.2578125 1331.94140625 C1431.69013881 1332.15324841 1434.12243179 1332.36547374 1436.5546875 1332.578125 C1437.64969574 1332.67089722 1438.74470398 1332.76366943 1439.87289429 1332.85925293 C1446.43395214 1333.44178878 1452.90908007 1334.28153352 1459.41059875 1335.34042358 C1479.5715323 1338.4778297 1498.9101561 1338.19402912 1519.078125 1335.58984375 C1525.37777461 1334.77689263 1531.68500462 1334.12361256 1538.00878906 1333.53173828 C1542.42221091 1333.11136529 1546.8160911 1332.61026824 1551.21418762 1332.04930115 C1560.53693137 1330.8822803 1569.76701155 1330.36167161 1579.15625 1330.171875 C1579.94133942 1330.15419067 1580.72642883 1330.13650635 1581.53530884 1330.11828613 C1587.80439716 1329.97905403 1594.07371247 1329.88161581 1600.34375 1329.796875 C1601.36142456 1329.7824939 1602.37909912 1329.76811279 1603.4276123 1329.7532959 C1632.81148617 1329.35297064 1662.19942231 1329.07502012 1691.34765625 1333.3828125 C1697.53238272 1334.17604562 1703.80815772 1333.98130187 1710.03125 1333.984375 C1711.96000977 1334.00274414 1711.96000977 1334.00274414 1713.92773438 1334.02148438 C1725.05438361 1334.03835145 1735.58181843 1332.78969585 1746.28125 1329.734375 C1750.62026455 1328.50460082 1754.8585752 1327.33830445 1759.34375 1326.796875 C1759.67375 1327.126875 1760.00375 1327.456875 1760.34375 1327.796875 C1766.25807394 1328.39709104 1769.10888238 1327.15407134 1773.84375 1323.671875 C1774.41488525 1323.25808594 1774.98602051 1322.84429688 1775.57446289 1322.41796875 C1778.9941323 1319.911415 1782.18783984 1317.23375368 1785.33203125 1314.3984375 C1788.78107461 1311.65259716 1792.54306289 1309.37014942 1796.28295898 1307.04296875 C1804.17709196 1302.21074147 1804.17709196 1302.21074147 1809.34375 1294.796875 C1809.65654842 1291.29353274 1809.72440407 1288.72496706 1808.38256836 1285.45336914 C1807.23999714 1282.5315554 1806.81615234 1279.90091371 1806.41015625 1276.79296875 C1804.19681824 1261.50569431 1799.85448874 1246.44192118 1795.25549316 1231.71217346 C1789.61935804 1213.61591162 1785.19826509 1195.28920896 1780.91858292 1176.83265305 C1779.93932399 1172.6192903 1778.94877252 1168.40858132 1777.9597168 1164.19750977 C1774.75004938 1150.51662489 1771.57274144 1136.82825971 1768.42578125 1123.1328125 C1768.22137421 1122.24377731 1768.01696716 1121.35474213 1767.80636597 1120.43876648 C1766.94462221 1116.68620045 1766.08725405 1112.93282258 1765.24414062 1109.17602539 C1759.84910565 1085.39331163 1753.17127928 1062.06655974 1745.91064453 1038.79882812 C1744.70708917 1034.941809 1743.51441387 1031.0815241 1742.32456017 1027.22025967 C1731.81803824 993.08330958 1731.81803824 993.08330958 1718.46875 959.984375 C1717.9639209 958.86458252 1717.4590918 957.74479004 1716.93896484 956.59106445 C1710.00074726 941.42251351 1701.79707945 927.28447892 1692.7487793 913.29003906 C1688.40060387 906.54342071 1684.29240214 899.68607118 1680.28125 892.734375 C1674.8288826 883.28816749 1669.19284987 873.98004149 1663.4140625 864.73046875 C1661.46635248 861.6125571 1659.54181664 858.48322517 1657.6484375 855.33203125 C1651.85323652 845.69353771 1645.74570829 836.3063362 1639.46435547 826.97705078 C1635.50857619 821.08966195 1631.65297988 815.15580217 1627.89453125 809.140625 C1618.85946194 794.6845141 1609.00405481 781.25612662 1597.34375 768.796875 C1595.8404133 767.13321742 1594.34046795 765.46648968 1592.84375 763.796875 C1590.5720371 761.27187007 1588.29939586 758.74774196 1586.0234375 756.2265625 C1582.66421718 752.50295217 1579.31392016 748.77573981 1576.03125 744.984375 C1569.01308791 736.94744744 1561.77201248 729.14373676 1554.15625 721.671875 C1550.52458178 718.09944717 1547.15468264 714.47120753 1543.96875 710.484375 C1533.00959556 696.80472624 1520.2928233 684.6494253 1507.85009766 672.33984375 C1502.71936516 667.25385232 1497.67606719 662.18040435 1492.98803711 656.67700195 C1489.69318644 652.90957137 1486.13293478 649.39554418 1482.59375 645.859375 C1481.80315186 645.06813232 1481.01255371 644.27688965 1480.19799805 643.46166992 C1475.21464368 638.52312348 1470.15471811 633.94356709 1464.6171875 629.6328125 C1461.73307307 627.30371666 1459.20166434 624.7268022 1456.68359375 622.01171875 C1455.39824333 620.57297343 1455.39824333 620.57297343 1453.34375 620.796875 C1453.07836426 620.189646 1452.81297852 619.58241699 1452.53955078 618.95678711 C1451.28505032 616.69084886 1450.29393762 615.72790002 1448.2109375 614.23828125 C1447.57784668 613.77671631 1446.94475586 613.31515137 1446.29248047 612.83959961 C1445.60814941 612.35112549 1444.92381836 611.86265137 1444.21875 611.359375 C1438.4271747 607.12555636 1432.76305089 602.78760324 1427.21875 598.234375 C1422.30062825 594.201181 1417.35870542 590.20914013 1412.34375 586.296875 C1407.21365118 582.29077833 1402.14063905 578.21979494 1397.09375 574.109375 C1396.41199707 573.55467529 1395.73024414 572.99997559 1395.02783203 572.4284668 C1392.21534915 570.13908518 1389.40509836 567.84721211 1386.6015625 565.546875 C1375.31088334 556.36625719 1363.21058394 548.2859963 1351.15917969 540.15014648 C1347.11798171 537.41372177 1343.14463145 534.66799926 1339.3125 531.64453125 C1334.95010845 528.32999608 1330.20279597 526.20508903 1325.21875 523.984375 C1300.23787481 512.41054606 1300.23787481 512.41054606 1295.98046875 503.87890625 C1294.70522094 499.70892414 1294.74188499 496.0914326 1295.34375 491.796875 C1295.446875 490.90355469 1295.55 490.01023437 1295.65625 489.08984375 C1297.60104193 480.20457561 1303.47656342 475.30180389 1309.79443359 469.26049805 C1321.14777519 458.32956719 1327.87031846 445.14622782 1335.33413696 431.42358398 C1340.40247058 422.11080324 1345.73297985 413.19063405 1352.01074219 404.63476562 C1353.44837193 402.65262704 1354.8400787 400.64321725 1356.2265625 398.625 C1361.62753679 390.79048327 1367.28228705 383.28812361 1373.3449707 375.95483398 C1379.42654244 368.56135581 1385.07160875 360.86157304 1390.67675781 353.10351562 C1391.74288578 351.6282993 1392.81224138 350.15540676 1393.88574219 348.68554688 C1402.38759378 337.03963547 1410.04899965 324.92004698 1417.59667969 312.63867188 C1419.16460917 310.08826674 1420.740762 307.54321629 1422.3203125 305 C1425.03201888 300.62103219 1427.6963758 296.21497099 1430.34375 291.796875 C1430.7975 291.04567383 1431.25125 290.29447266 1431.71875 289.52050781 C1440.41982261 275.03684736 1447.75543751 259.95770298 1455.02610779 244.72677612 C1459.00942939 236.387069 1463.05657826 228.07862716 1467.10714722 219.77142334 C1468.3052906 217.31327937 1469.50160232 214.85425192 1470.69750977 212.39501953 C1474.90414023 203.75157877 1479.1607606 195.13532629 1483.46826172 186.54174805 C1495.42174771 162.68952427 1505.30694696 139.82897433 1511.34375 113.796875 C1511.61316406 112.64058594 1511.88257812 111.48429688 1512.16015625 110.29296875 C1516.73581001 86.26278711 1513.00323377 61.26205227 1499.34375 40.796875 C1492.83441359 32.07137195 1492.83441359 32.07137195 1483.40625 27.390625 C1472.02519179 26.87330417 1462.37700344 34.48440551 1454.34375 41.796875 C1446.01090802 49.62170708 1438.41784594 57.81182362 1431.34375 66.796875 C1430.34122184 68.02432935 1429.33581501 69.24943603 1428.328125 70.47265625 C1415.86580147 85.61108797 1404.56771724 101.05618808 1394.34375 117.796875 C1393.78929199 118.7038916 1393.23483398 119.6109082 1392.66357422 120.54541016 C1390.31205492 124.39691071 1387.9645418 128.25077772 1385.62548828 132.10986328 C1382.26754971 137.64986246 1378.87777296 143.16759534 1375.44750977 148.66308594 C1364.37166751 166.42085282 1353.99196177 184.54667922 1343.87939453 202.86743164 C1339.46971508 210.83332263 1334.92234686 218.70251232 1330.25537109 226.52001953 C1326.70786326 232.46639042 1323.24067487 238.45333352 1319.80859375 244.46704102 C1312.91019341 256.54189756 1305.66887377 268.32509166 1298.12939453 280.0078125 C1294.96567916 284.94933347 1291.87845169 289.93850604 1288.78125 294.921875 C1284.22074057 302.25134876 1279.58708184 309.52203139 1274.84375 316.734375 C1269.3086712 325.16776658 1264.09614851 333.77448689 1258.93408203 342.44018555 C1253.37422394 351.77275332 1247.67796216 361.01469424 1241.93652344 370.23632812 C1239.77633837 373.70904747 1237.62400111 377.18659393 1235.47265625 380.66479492 C1234.39064425 382.41317193 1233.30731991 384.1607375 1232.22265625 385.9074707 C1229.46316731 390.35382193 1226.72551157 394.81146071 1224.0234375 399.29296875 C1203.87406301 432.58336871 1203.87406301 432.58336871 1188.34375 436.796875 C1157.79345985 439.43475146 1127.29117143 424.924169 1099.28125 414.359375 C1098.48729828 414.06073547 1097.69334656 413.76209595 1096.87533569 413.45440674 C1094.60090167 412.5963228 1092.32924577 411.73131772 1090.05859375 410.86328125 C1089.06366913 410.48725014 1089.06366913 410.48725014 1088.04864502 410.10362244 C1084.68610099 408.80667851 1081.4599731 407.38506076 1078.24975586 405.74438477 C1074.94903289 404.06048449 1071.6559525 402.7394338 1068.1328125 401.5703125 C1066.98619141 401.18415771 1065.83957031 400.79800293 1064.65820312 400.40014648 C1063.44068359 399.99481689 1062.22316406 399.5894873 1060.96875 399.171875 C1052.80920723 396.42418249 1044.70587294 393.60738323 1036.71704102 390.38891602 C993.10438911 372.86455278 947.73647398 360.48775808 901.40150452 352.97250366 C893.51397718 351.69157126 885.65891077 350.31608015 877.8203125 348.76171875 C876.95053772 348.58930161 876.08076294 348.41688446 875.18463135 348.23924255 C873.42767686 347.89050631 871.67073919 347.54168533 869.91381836 347.19277954 C851.12246058 343.47454614 832.33359972 340.78251166 813.30587769 338.61140442 C808.1847822 338.02412706 803.07533536 337.37782609 797.96875 336.67578125 C756.58870072 331.00406736 716.64691289 331.27711566 675.15625 335.296875 C673.92165039 335.41522705 672.68705078 335.5335791 671.41503906 335.65551758 C665.32148479 336.27333395 659.39609127 337.11377767 653.40698242 338.39111328 C647.37115791 339.57813734 641.04574915 338.89818949 634.93994141 338.56860352 C618.95204441 337.71706109 602.97724983 337.54846525 586.96875 337.546875 C586.28502571 337.54672771 585.60130142 337.54658043 584.89685822 337.54642868 C547.82171269 337.55380503 511.72629171 340.60996964 475.91186523 350.82080078 C469.03353712 352.73589824 462.06512093 354.11856922 455.0715332 355.53515625 C403.3077809 366.02348316 354.9161288 385.50940472 307.01196289 407.41650391 C287.93004587 416.13805166 268.95720937 423.26820224 248.71875 428.796875 C247.99295746 428.9992276 247.26716492 429.2015802 246.51937866 429.4100647 C225.68694649 435.17201302 225.68694649 435.17201302 216.03125 431.359375 C207.7616894 426.39083241 203.71859214 417.1374217 199.53930664 408.82543945 C196.92052509 403.65226778 194.06385453 399.50588209 189.921875 395.390625 C187.0647315 392.51616548 184.57836925 389.49189608 182.09375 386.296875 C181.61413818 385.68013916 181.13452637 385.06340332 180.64038086 384.42797852 C158.24532539 355.40092684 141.3414725 321.09831501 127.65429688 287.20092773 C119.68073103 267.52789322 109.83979766 248.24181682 99.34375 229.796875 C96.0527402 223.97724045 92.92638213 218.10116136 89.953125 212.11328125 C89.36256317 210.93112282 89.36256317 210.93112282 88.7600708 209.7250824 C86.75215057 205.70306379 84.75471602 201.67591495 82.76171875 197.64648438 C82.38744751 196.89120453 82.01317627 196.13592468 81.62756348 195.35775757 C80.89147007 193.87193415 80.15698949 192.38531053 79.42419434 190.89785767 C77.37286434 186.76097742 75.1878098 182.75183453 72.859375 178.76171875 C71.02454481 175.48505916 70.05879554 173.08728806 69.859375 169.33984375 C69.52358077 163.13453156 66.18885691 158.35108831 63.09375 153.109375 C62.46114258 152.01286621 61.82853516 150.91635742 61.17675781 149.78662109 C59.87108719 147.52986222 58.55824475 145.27723754 57.23828125 143.02880859 C55.52403493 140.10442809 53.83551228 137.16721077 52.15625 134.22265625 C41.05332278 114.90767246 28.38003126 96.58113386 15.75610352 78.24023438 C12.96009883 74.1768797 10.20735392 70.09057774 7.50170898 65.96655273 C-10.181219 37.43605086 -10.181219 37.43605086 -37.65625 20.796875 C-38.36910156 20.61511719 -39.08195312 20.43335938 -39.81640625 20.24609375 C-64.74709453 16.3024498 -99.29111348 23.7677076 -116.67480469 43.34301758 Z " fill="#000000" transform="translate(574.65625,506.203125)"/>
<path d="M0 0 C2.86414961 1.40866214 5.70709647 2.45572513 8.7175293 3.49584961 C32.14505636 11.65396729 47.66367594 29.05400866 58.2421875 50.84765625 C71.01882459 78.05630211 70.56452763 107.32161694 60.61035156 135.37744141 C54.93666829 150.89619533 48.53780912 164.41193823 36.8671875 176.41015625 C36.27679687 177.06242187 35.68640625 177.7146875 35.078125 178.38671875 C15.91926318 198.89598493 -9.20232974 209.01234805 -36.87963867 210.28662109 C-64.38533093 211.16459134 -94.34681868 204.40573913 -115.4453125 185.97265625 C-117.02364891 184.46826452 -118.58701938 182.94796765 -120.1328125 181.41015625 C-120.83019531 180.74757813 -121.52757812 180.085 -122.24609375 179.40234375 C-133.34930379 168.06197777 -137.4121561 153.612016 -140.1328125 138.41015625 C-140.32488281 137.61351562 -140.51695312 136.816875 -140.71484375 135.99609375 C-145.44451079 106.73404159 -138.56737727 71.10340273 -122.08984375 46.33984375 C-120.19383084 43.92536025 -118.21945879 41.66101079 -116.1328125 39.41015625 C-115.38902344 38.56195312 -114.64523437 37.71375 -113.87890625 36.83984375 C-111.66443172 34.32935655 -109.41077617 31.86302755 -107.1328125 29.41015625 C-106.58238281 28.80558594 -106.03195312 28.20101563 -105.46484375 27.578125 C-80.92616883 1.70648503 -33.98496457 -17.71556664 0 0 Z " fill="#000000" transform="translate(785.1328125,1357.58984375)"/>
<path d="M0 0 C6.35372224 2.30526988 10.60227297 5.7604466 14.48828125 11.265625 C14.71515625 12.420625 14.94203125 13.575625 15.17578125 14.765625 C16.94407142 19.48106545 19.41964221 20.28663813 23.71484375 22.625 C28.56917367 25.49657544 32.44559157 29.36710256 36.48828125 33.265625 C37.19621826 33.93489014 37.19621826 33.93489014 37.91845703 34.61767578 C45.95274103 42.22784714 52.88418646 50.39634457 59.48828125 59.265625 C60.51115234 60.61333984 60.51115234 60.61333984 61.5546875 61.98828125 C75.7037921 81.27140221 79.23817437 106.54485034 75.9453125 129.8828125 C71.50743469 154.03921472 55.86835269 178.40821341 36.0390625 192.8671875 C10.19404855 210.66217464 -31.17844887 220.66375701 -62.19921875 215.078125 C-81.25880384 210.84047164 -98.74772897 198.56817679 -109.51171875 182.265625 C-115.43712427 172.35253593 -121.1743054 162.37335667 -123.046875 150.859375 C-123.41631226 148.2623215 -123.41631226 148.2623215 -124.46875 145.96484375 C-132.69226502 124.68226367 -129.54292626 97.11485744 -125.51171875 75.265625 C-125.3108667 74.14873291 -125.3108667 74.14873291 -125.10595703 73.00927734 C-122.16280586 57.3873877 -115.13522722 44.97238926 -104.51171875 33.265625 C-103.94582031 32.5953125 -103.37992188 31.925 -102.796875 31.234375 C-86.20279581 12.87176582 -58.6514302 1.00386556 -34.35546875 -1.41015625 C-22.16715844 -2.79975756 -12.23373176 -3.14903003 0 0 Z " fill="#000000" transform="translate(1852.51171875,1356.734375)"/>
<path d="M0 0 C0.95173096 -0.01015137 1.90346191 -0.02030273 2.8840332 -0.03076172 C8.32178508 0.03743229 11.8306349 0.68040052 16.625 3.4375 C18.86234465 4.08696616 21.11365716 4.68978045 23.375 5.25 C38.4018281 9.45308757 47.99256519 18.64482118 55.83203125 31.9453125 C65.79324486 51.34689196 65.77144448 71.03667974 59.3359375 91.6171875 C52.6128089 112.24816812 41.44484472 127.3983347 22.625 138.4375 C1.52460494 148.88955616 -22.51789549 146.82896023 -44.37890625 139.8515625 C-55.56164956 136.04545957 -64.26636112 129.91841784 -70.3125 119.67578125 C-79.67914469 99.94384225 -76.62615538 72.48505978 -70.0625 52.3125 C-66.12092702 41.49364241 -60.30422536 33.69202691 -52.375 25.4375 C-51.38306641 24.36822266 -51.38306641 24.36822266 -50.37109375 23.27734375 C-42.65735041 15.18960074 -33.4080955 9.2796198 -23.375 4.4375 C-22.52035156 4.02113281 -21.66570313 3.60476563 -20.78515625 3.17578125 C-13.9262812 0.37121972 -7.31740885 0.05635694 0 0 Z " fill="#D3D3D3" transform="translate(754.375,1387.5625)"/>
<path d="M0 0 C1.18239258 0.00676758 1.18239258 0.00676758 2.38867188 0.01367188 C4.32164761 0.02538688 6.25458393 0.04332002 8.1875 0.0625 C8.47882813 0.72636719 8.77015625 1.39023438 9.0703125 2.07421875 C12.58442312 9.64392245 16.12930582 13.70854967 23.8125 17.1875 C34.86510908 22.50604873 42.79211422 32.59750999 50.1875 42.0625 C50.8990625 42.88492187 51.610625 43.70734375 52.34375 44.5546875 C61.6273075 55.3970513 64.36636047 66.3155438 64.4375 80.25 C64.4684375 81.7359668 64.4684375 81.7359668 64.5 83.25195312 C64.55335602 93.42294538 61.8409603 101.66841489 57.0625 110.5625 C56.66925537 111.2951709 56.27601074 112.0278418 55.87084961 112.78271484 C47.38283727 128.07566959 34.6926366 136.89411629 18.1875 142.0625 C11.25436958 144.02265206 4.24072941 145.60195332 -2.8125 147.0625 C-4.01132813 147.31128906 -5.21015625 147.56007813 -6.4453125 147.81640625 C-20.75817847 150.38124313 -34.59348088 150.91354116 -46.9375 142.375 C-60.76172444 131.10464835 -68.29532368 114.73288448 -70.53125 97.17578125 C-72.69245402 73.25245347 -73.83041254 44.99047375 -57.98046875 25.35546875 C-53.77126145 20.90356842 -48.87306268 17.48010429 -43.8125 14.0625 C-42.88566406 13.43214844 -41.95882813 12.80179688 -41.00390625 12.15234375 C-28.79195908 4.44577515 -14.42007094 -0.15713405 0 0 Z " fill="#D3D3D3" transform="translate(1829.8125,1388.9375)"/>
</svg>
