<?xml version="1.0" encoding="UTF-8"?>
<svg version="1.1" xmlns="http://www.w3.org/2000/svg" width="2598" height="2598">
<path d="M0 0 C0.6552063 0.15988403 1.3104126 0.31976807 1.98547363 0.48449707 C20.80218335 5.10795538 39.10069355 10.8396297 57.25 17.625 C58.07722565 17.93243134 58.90445129 18.23986267 59.75674438 18.55661011 C70.25185367 22.48138123 80.29725299 26.9271279 90.23883057 32.09204102 C92.8082814 33.41670401 95.40535713 34.68279536 98.00390625 35.94921875 C108.85575893 41.2831315 119.45940174 46.88862904 129.93188477 52.93237305 C137.80781016 57.43052434 145.86723918 61.49534504 154 65.5 C175.42293944 76.06854161 195.74920211 87.37168122 214.3347168 102.47973633 C218.55587547 105.89795425 222.86957538 109.12640096 227.3125 112.25 C236.73398656 118.89428181 244.86830493 125.37845798 251.9375 134.5 C252.9584375 135.2425 252.9584375 135.2425 254 136 C255.11375 135.814375 256.2275 135.62875 257.375 135.4375 C261 135 261 135 263.89453125 137.0546875 C267.13281019 139.95127148 269.71440818 143.22115617 272.3125 146.6875 C273.27781318 147.9352482 274.24528175 149.18133172 275.21484375 150.42578125 C275.68776855 151.03373535 276.16069336 151.64168945 276.64794922 152.26806641 C293.53949584 173.90559471 320.29342271 181.81965508 346.19824219 187.53686523 C364.58089545 191.62379754 382.39384434 196.98586991 400.28417969 202.82472229 C416.58460157 208.1370069 433.01663202 213.0565972 449.625 217.3125 C472.08620167 223.08620167 472.08620167 223.08620167 479 230 C480.485 229.01 480.485 229.01 482 228 C482.9590625 228.9590625 482.9590625 228.9590625 483.9375 229.9375 C484.40542969 230.39898437 484.87335938 230.86046875 485.35546875 231.3359375 C486.50921017 232.50338131 487.63480406 233.69899772 488.73828125 234.9140625 C495.9018213 242.56444507 504.38378267 248.13682785 513 254 C514.37698354 254.94822993 515.75329769 255.89743273 517.12890625 256.84765625 C524.10378043 261.65303417 531.11137023 266.40860774 538.14698792 271.1245575 C541.17294021 273.15350598 544.19619967 275.18645176 547.21951294 277.21932983 C548.71979862 278.22632636 550.22145232 279.23128822 551.72457886 280.23403931 C562.82710453 287.64105102 573.28079429 295.37979094 583.0625 304.5 C584.07523504 305.43780872 585.08826009 306.37530435 586.1015625 307.3125 C587.53628906 308.6428125 587.53628906 308.6428125 589 310 C604.20386851 323.9329569 619.11222112 335.60670164 637.30859375 345.4296875 C640.64328089 347.23676351 643.87462447 349.12971791 647.0625 351.1875 C677.15454703 369.43145883 715.56507554 374.8949262 749.875 379.375 C750.84374054 379.50246613 751.81248108 379.62993225 752.81057739 379.76126099 C755.64082188 380.12916423 758.47226959 380.48518965 761.3046875 380.8359375 C762.11641922 380.93977249 762.92815094 381.04360748 763.76448059 381.15058899 C778.79529302 382.94774631 793.91615558 383.15031202 809.03369141 383.14526367 C810.86304796 383.14826615 812.6924039 383.15167112 814.52175903 383.15544128 C819.44058083 383.16418458 824.35938516 383.16661555 829.27821398 383.16725707 C832.37520936 383.16797423 835.47220048 383.17012115 838.56919479 383.17275429 C849.44343083 383.18198273 860.31765471 383.18609318 871.19189453 383.18530273 C881.21053765 383.1847058 891.22912626 383.19518818 901.24775565 383.2110464 C909.93657253 383.22429232 918.625372 383.22947948 927.31419885 383.22884732 C932.46393721 383.22859684 937.61362727 383.23118895 942.76335526 383.24202538 C963.15834017 383.28191056 983.5009866 383.11096322 1003.87304688 382.07104492 C1004.68889858 382.02945893 1005.50475028 381.98787293 1006.34532475 381.94502676 C1020.11892099 381.22473408 1033.82224096 380.07023736 1047.52734375 378.50537109 C1050.95669657 378.11571738 1054.38811277 377.75036046 1057.8203125 377.38671875 C1075.7571317 375.43312951 1092.54477226 372.11321847 1109.62936401 366.34103394 C1113.31526225 365.09648832 1117.01047776 363.88044275 1120.70703125 362.66796875 C1121.79257042 362.31168144 1121.79257042 362.31168144 1122.90003967 361.94819641 C1128.69401772 360.06336336 1134.53369439 358.44325453 1140.4375 356.9375 C1165.53914644 350.43792374 1192.53392484 340.84569189 1212.8125 324.3125 C1222.28376119 316.7495074 1233.28173821 311.54713459 1244 306 C1245.43947714 305.25330149 1246.87892909 304.50655444 1248.31835938 303.75976562 C1257.86431268 298.81131661 1267.4266544 293.89522014 1277 289 C1277.98601951 292.06842113 1278.01050307 293.83412499 1276.9609375 296.87109375 C1276.70957031 297.61166016 1276.45820313 298.35222656 1276.19921875 299.11523438 C1275.79123047 300.26475586 1275.79123047 300.26475586 1275.375 301.4375 C1275.12621094 302.16904297 1274.87742187 302.90058594 1274.62109375 303.65429688 C1273.44965348 307.05497049 1272.2395664 310.41996456 1270.86621094 313.74511719 C1266.66536338 324.01939913 1264.12132186 334.61061023 1261.5 345.375 C1261.01057474 347.3603493 1260.52082677 349.34561907 1260.03076172 351.33081055 C1257.01159079 363.61144102 1254.14357924 375.90884588 1251.56539917 388.28993225 C1247.79696342 406.35277479 1243.56070622 424.27758483 1239.125 442.1875 C1238.53227453 444.59172847 1237.93982595 446.99602521 1237.34765625 449.40039062 C1232.52767807 468.94653053 1232.52767807 468.94653053 1230.13793945 478.32348633 C1226.67808804 491.92913914 1223.5204949 505.51418595 1220.9375 519.3125 C1220.60188803 521.06932884 1220.26544404 522.82599891 1219.92822266 524.58251953 C1219.09784014 528.91568767 1218.27539878 533.25030731 1217.45635986 537.58563232 C1213.84479219 556.69259801 1210.1633151 575.76929741 1205.7578125 594.71240234 C1205.26007261 596.87173399 1204.77275325 599.03349929 1204.296875 601.19775391 C1201.14791191 615.51460207 1196.98032752 629.10627723 1191.96502686 642.85189819 C1182.50376789 668.81426061 1176.0562866 695.3138908 1169.63818359 722.15234375 C1162.13614114 753.51999238 1162.13614114 753.51999238 1157.22131348 767.55606079 C1155.8927581 771.36674838 1154.61244854 775.19375543 1153.328125 779.01953125 C1153.0562738 779.82861435 1152.78442261 780.63769745 1152.5043335 781.47129822 C1142.04983656 812.694379 1133.38434406 844.31003118 1125.50488281 876.26489258 C1122.10991631 890.00616633 1118.53592195 903.58805987 1114 917 C1113.76958511 917.68944199 1113.53917023 918.37888397 1113.30177307 919.08921814 C1110.85628969 926.40348629 1108.19260109 933.57716118 1105.26953125 940.71484375 C1104.24171868 943.2263722 1103.21431358 945.73806335 1102.1875 948.25 C1101.79585663 949.20563339 1101.79585663 949.20563339 1101.39630127 950.18057251 C1097.46282842 959.82062632 1094.18473375 969.5137352 1091.25 979.5 C1084.87364323 1001.12635677 1084.87364323 1001.12635677 1077 1009 C1077.928125 1009.2475 1078.85625 1009.495 1079.8125 1009.75 C1083.25528099 1011.10011019 1084.46678117 1011.66299432 1086 1015 C1086.13352839 1018.53850227 1085.84353916 1020.90364218 1083.64453125 1023.76171875 C1081.26143938 1026.18843702 1078.74615072 1028.39259632 1076.109375 1030.5390625 C1056.28006553 1046.90227316 1045.95529866 1073.86900293 1043.46655273 1098.91308594 C1042.88749127 1105.39878527 1042.38973594 1111.89143143 1041.92138672 1118.38598633 C1040.62666251 1136.00862139 1038.23357134 1153.64161562 1030.6875 1169.8125 C1030.11165161 1171.10438232 1030.11165161 1171.10438232 1029.52416992 1172.42236328 C1026.79393919 1178.47969458 1023.83345588 1184.41509232 1020.8137207 1190.33203125 C1017.41261675 1197.04386137 1014.56656195 1203.92746872 1012 1211 C1011.73413086 1211.72026367 1011.46826172 1212.44052734 1011.19433594 1213.18261719 C1007.67039727 1222.88905038 1005.49313475 1232.05064335 1004.67333984 1242.34472656 C1002.21285105 1273.05679437 993.31349729 1303.93672858 986.13916016 1333.83129883 C985.76198354 1335.40314298 985.38486627 1336.97500137 985.0078125 1338.546875 C984.8273941 1339.29893723 984.64697571 1340.05099945 984.46109009 1340.82585144 C983.31363922 1345.62943253 982.23796552 1350.44400998 981.20654297 1355.27392578 C977.66294291 1371.75183272 972.80248916 1387.9222587 968.21839905 1404.13331604 C965.98439266 1412.03746008 963.79843111 1419.95400322 961.625 1427.875 C960.99000399 1430.17329335 960.35460527 1432.47147548 959.71875 1434.76953125 C958.64277775 1438.65926575 957.58057902 1442.55222292 956.53125 1446.44921875 C949.60148738 1471.88402307 939.66789952 1496.02576519 929.24609375 1520.18359375 C928.90006607 1520.98700195 928.55403839 1521.79041016 928.19752502 1522.61816406 C926.41013002 1526.76114116 924.60522428 1530.89519165 922.77246094 1535.01831055 C916.85984664 1548.41476587 912.00721122 1562.05252104 907.375 1575.9375 C906.65698974 1578.06470296 905.93824118 1580.19165686 905.21875 1582.31835938 C896.09271618 1608.58529395 896.09271618 1608.58529395 889 1635.4375 C888.51309845 1637.63022557 888.02611556 1639.82293308 887.5390625 1642.015625 C887.29188477 1643.14419922 887.04470703 1644.27277344 886.79003906 1645.43554688 C885.95401817 1649.20745817 885.08634452 1652.97147177 884.2109375 1656.734375 C881.36578686 1669.00541855 878.64666415 1681.25774331 876.62402344 1693.6965332 C875.62526611 1699.71544186 874.46284657 1705.68242398 873.19140625 1711.6484375 C869.5524731 1728.75401323 866.25815239 1745.80359879 863.8125 1763.125 C863.68986786 1763.9892157 863.56723572 1764.8534314 863.44088745 1765.74383545 C862.95897753 1769.14244266 862.47878103 1772.54128746 862.0004425 1775.94039917 C857.50559148 1807.83739513 851.34361145 1838.92267889 837 1868 C836.65614258 1868.71236816 836.31228516 1869.42473633 835.95800781 1870.15869141 C829.3460225 1883.74780153 820.70067793 1896.09794235 810.96875 1907.62890625 C809.26640824 1909.67914722 807.7193134 1911.76000944 806.1875 1913.9375 C799.49300123 1922.92463533 791.02559542 1930.17698492 782.15576172 1936.91625977 C777.16827712 1940.74847867 772.83230414 1944.98762154 768.4609375 1949.5 C765.70240119 1952.3023226 762.80538932 1954.85779336 759.8046875 1957.39453125 C758.0211746 1958.98116285 756.47395204 1960.66751578 754.875 1962.4375 C746.52902824 1970.76504798 734.4492317 1975.32606388 723.9375 1980.25 C722.32427856 1981.01123169 722.32427856 1981.01123169 720.6784668 1981.7878418 C708.89641932 1987.20581136 696.70293201 1990.47650798 684.125 1993.5 C682.86123535 1993.80550781 681.5974707 1994.11101562 680.29541016 1994.42578125 C672.68768753 1996.22869547 665.09368258 1997.76443706 657.375 1999 C647.7450135 2000.54286972 638.41522845 2002.83614089 628.99804688 2005.35888672 C621.0198411 2007.49549697 613.02460003 2009.43223734 604.94311523 2011.13842773 C600.39639443 2012.12612725 595.97117576 2013.3033363 591.52900696 2014.69248962 C579.28426565 2018.48628933 566.7806244 2020.7464201 554.1875 2023.0625 C551.81599914 2023.50447479 549.44449849 2023.9464507 547.07299805 2024.38842773 C531.11415886 2027.3416304 515.13580638 2030.18604546 499 2032 C498.29686802 2032.08014343 497.59373604 2032.16028687 496.86929703 2032.24285889 C491.0405082 2032.87145492 485.28774373 2033.16733866 479.42749023 2033.20874023 C478.07568161 2033.22341591 478.07568161 2033.22341591 476.69656372 2033.23838806 C467.19820181 2033.33366488 457.69918677 2033.37122156 448.20043945 2033.4050293 C443.74700823 2033.42258964 439.29424082 2033.45699794 434.84106445 2033.50756836 C405.63871703 2033.83117296 377.73862469 2032.27890337 349 2027 C347.51719571 2026.73304945 346.03429575 2026.46662978 344.55130005 2026.20074463 C315.49147305 2020.96182284 287.90890195 2012.90035147 261.3503418 1999.78759766 C237.88019578 1988.2019144 211.57015989 1983.21732413 186.25341797 1977.24707031 C181.83897551 1976.20417326 177.43623374 1975.12126406 173.03515625 1974.0234375 C158.14931749 1970.39059605 143.2871082 1967.93893977 128.1322937 1965.7409668 C109.80414172 1963.08048995 91.81734173 1959.94407474 73.875 1955.3125 C72.97857788 1955.08429565 72.08215576 1954.85609131 71.15856934 1954.62097168 C62.62592928 1952.4275652 54.44095469 1950.28104091 46.71923828 1945.90698242 C45.02914558 1944.84446655 45.02914558 1944.84446655 43 1945 C42.41476562 1945.65613281 41.82953125 1946.31226562 41.2265625 1946.98828125 C39 1949 39 1949 36.3984375 1949.41796875 C26.8347314 1948.68895239 18.84630304 1945.57031405 10.11132812 1941.87255859 C7.19383179 1940.66683104 4.22231614 1939.62455931 1.25 1938.5625 C-14.89735337 1932.30210829 -27.94969247 1921.83237549 -40.47680664 1910.11914062 C-46.34067129 1904.67762816 -52.62904867 1899.82867267 -59 1895 C-59.74233887 1894.43313477 -60.48467773 1893.86626953 -61.24951172 1893.28222656 C-71.11937476 1885.76755629 -80.91173049 1878.61682305 -92 1873 C-93.00933594 1872.48308594 -94.01867188 1871.96617188 -95.05859375 1871.43359375 C-102.72257214 1867.84081073 -110.51121269 1865.72755785 -118.6875 1863.625 C-153.14123075 1854.74651965 -178.2185079 1835.86749725 -200 1808 C-201.27839174 1806.44730767 -202.56920711 1804.90472018 -203.875 1803.375 C-204.67550781 1802.42753906 -204.67550781 1802.42753906 -205.4921875 1801.4609375 C-207.04655749 1799.74390468 -207.04655749 1799.74390468 -210 1799 C-211.24023717 1797.49866027 -212.47803074 1795.99498501 -213.6875 1794.46875 C-215.020659 1792.82343315 -215.020659 1792.82343315 -217.375 1791.625 C-219.97355894 1790.01636827 -221.02656624 1788.79991152 -222.875 1786.4375 C-227.61659988 1780.83935304 -233.74846866 1777.26003568 -239.87158203 1773.36376953 C-243.5297305 1771.01983545 -247.1367204 1768.59976355 -250.75 1766.1875 C-251.51296387 1765.68331543 -252.27592773 1765.17913086 -253.06201172 1764.65966797 C-256.8123918 1762.17328452 -260.51330543 1759.64903453 -264.13671875 1756.98046875 C-287.71968716 1739.79921522 -314.65184038 1728.27280667 -341.79953003 1718.02023315 C-346.57629641 1716.20089203 -351.17827929 1714.15411913 -355.75 1711.875 C-365.78239928 1706.93056195 -376.2999432 1703.18325117 -386.78149414 1699.313797 C-391.0526584 1697.73417193 -395.307735 1696.11730809 -399.55532837 1694.47540283 C-440.59788034 1678.62981488 -484.78189563 1663.95888131 -529.1796875 1663.796875 C-531.05081711 1663.78832489 -531.05081711 1663.78832489 -532.95974731 1663.77960205 C-535.59701707 1663.77019665 -538.23429834 1663.76363592 -540.87158203 1663.75976562 C-544.80127703 1663.75331253 -548.7305841 1663.71916217 -552.66015625 1663.6875 C-569.15860053 1663.61945609 -585.24881186 1664.68536549 -601.62608337 1666.63168335 C-609.58079143 1667.50006623 -617.57017138 1668.00215755 -625.55078125 1668.5703125 C-628.76740198 1668.80629887 -631.95270134 1669.09735383 -635.1484375 1669.53125 C-639.54495413 1670.06632302 -643.88979588 1670.2270763 -648.3125 1670.375 C-657.62221128 1670.74758761 -666.7968546 1671.71432039 -676.04382324 1672.82595825 C-683.27934249 1673.66432861 -690.48456455 1674.25223494 -697.75785828 1674.6317749 C-715.60702878 1675.56360769 -733.28017175 1677.44099804 -751.01000977 1679.66650391 C-754.1325917 1680.05821308 -757.25612378 1680.4399168 -760.38110352 1680.81201172 C-779.81108685 1683.12582618 -798.86441231 1686.06184863 -817.97015381 1690.33309937 C-821.8893099 1691.19574635 -825.82123794 1691.9867892 -829.7559967 1692.77459717 C-841.02696868 1695.0364142 -851.97824387 1698.2814003 -862.99023438 1701.53738403 C-875.00534692 1705.06985187 -887.03651982 1707.78269277 -899.33789062 1710.10531616 C-911.93781425 1712.48901443 -924.17682523 1715.59946139 -936.47021484 1719.27148438 C-938.73789766 1719.924521 -941.00377145 1720.50794228 -943.30078125 1721.046875 C-952.26595228 1723.16947001 -959.84620564 1726.54745004 -967.90576172 1730.88378906 C-970.08070659 1732.04301591 -972.27335576 1733.1611804 -974.47265625 1734.2734375 C-982.21465761 1738.22225358 -989.44837633 1742.19500011 -996 1748 C-997 1746 -997 1746 -996.171875 1743.17578125 C-995.70469946 1741.88554468 -995.22994912 1740.59803967 -994.75 1739.3125 C-994.35542603 1738.2155481 -994.35542603 1738.2155481 -993.95288086 1737.09643555 C-992.57496257 1733.26973553 -991.16981089 1729.45388581 -989.74462891 1725.64453125 C-983.01602698 1707.63669971 -977.82699941 1689.95080412 -973.72021484 1671.15771484 C-972.32676926 1665.04828256 -970.49805122 1659.08267216 -968.64453125 1653.10058594 C-964.934749 1641.01006834 -961.62089359 1628.88223531 -958.9765625 1616.515625 C-957.99131959 1611.9098632 -956.91191496 1607.32967917 -955.8125 1602.75 C-955.51158447 1601.49135132 -955.51158447 1601.49135132 -955.20458984 1600.20727539 C-954.3091656 1596.46304593 -953.41235924 1592.71914828 -952.5144043 1588.9755249 C-947.93794626 1569.89281161 -943.43773674 1550.81123693 -939.40234375 1531.60546875 C-937.72047681 1523.6139302 -935.89974861 1515.65429876 -934.09765625 1507.68920898 C-932.81414805 1501.93723718 -931.66025994 1496.20042683 -930.72143555 1490.3828125 C-927.97950097 1473.56779639 -923.11514522 1457.23326547 -918.60009766 1440.82861328 C-916.35518554 1432.66528078 -914.15045679 1424.491095 -911.94189453 1416.31787109 C-910.81533113 1412.14913929 -909.68466458 1407.98155516 -908.55029297 1403.81494141 C-905.29068365 1391.86315853 -905.29068365 1391.86315853 -902.18359375 1379.87109375 C-897.71652885 1362.23268314 -891.7905868 1345.10040039 -885.98681641 1327.86636353 C-879.73376417 1309.29543125 -873.68234778 1290.67254981 -868.40625 1271.796875 C-862.3951049 1250.34354806 -855.35448879 1229.65346421 -847 1209 C-846.57444824 1207.9387793 -846.14889648 1206.87755859 -845.71044922 1205.78417969 C-842.43364196 1197.61853286 -839.08754911 1189.48658527 -835.578125 1181.41796875 C-827.29163753 1162.22233992 -821.08601709 1142.4871738 -815.17114258 1122.45825195 C-812.35758697 1112.96960165 -809.19303921 1103.93962594 -804.94335938 1094.99853516 C-803.94251139 1092.87820865 -802.97788438 1090.74356442 -802.015625 1088.60546875 C-795.56029531 1074.43278643 -788.58856152 1059.33497171 -779 1047 C-779.94875 1046.731875 -780.8975 1046.46375 -781.875 1046.1875 C-785 1045 -785 1045 -787 1042 C-788.87027547 1027.70715801 -784.1622758 1013.90169883 -780.4375 1000.28125 C-771.06268123 965.83492025 -770.74281929 932.08592655 -777 897 C-781.56480798 871.00224397 -782.94653562 847.4401005 -768.0625 824.4375 C-765.24250246 819.88490757 -763.59545813 815.22222744 -761.875 810.1875 C-759.33538356 802.83069192 -756.10779922 796.3057843 -752.125 789.625 C-746.07274376 779.42353587 -741.38357668 769.0073042 -737 758 C-736.62198242 757.0728418 -736.24396484 756.14568359 -735.85449219 755.19042969 C-729.43004379 739.40967739 -724.09515779 723.35226076 -718.90527344 707.13549805 C-715.44995865 696.35496949 -711.83408138 685.65162027 -708 675 C-704.94637218 666.50765133 -701.97730331 658.03458615 -699.3671875 649.39453125 C-696.97905701 641.58984392 -694.3189431 633.86755933 -691.72241211 626.13012695 C-689.0018369 618.03293393 -689.0018369 618.03293393 -686.37109375 609.90625 C-683.78345081 601.787588 -680.78231558 593.96367369 -677.4375 586.125 C-673.01167772 575.74909541 -669.06710338 565.23586598 -665.25 554.625 C-664.98186493 553.88171448 -664.71372986 553.13842896 -664.43746948 552.37261963 C-661.45597267 544.09308708 -658.5581765 535.78658906 -655.75390625 527.4453125 C-655.51122009 526.72824127 -655.26853394 526.01117004 -655.01849365 525.27236938 C-653.36575936 520.31337379 -651.97094851 515.31638427 -650.6875 510.25 C-650.4704541 509.39994385 -650.2534082 508.5498877 -650.02978516 507.67407227 C-649.84722168 506.95791748 -649.6646582 506.2417627 -649.4765625 505.50390625 C-647.68794599 498.67824884 -645.61188344 491.93834206 -643.5625 485.1875 C-639.27959867 471.05392561 -635.23883097 456.87316822 -631.6171875 442.5546875 C-628.90645706 431.8809527 -625.90528024 421.36956321 -622.5625 410.875 C-615.82772016 389.60705117 -610.85969591 367.96057476 -607 346 C-606.7671177 344.68453655 -606.53403071 343.36910933 -606.30078125 342.05371094 C-605.25958802 336.17906854 -604.21880713 330.30437392 -603.19311523 324.42700195 C-602.95043039 323.03856158 -602.70767372 321.65013375 -602.46484375 320.26171875 C-602.34525803 319.57669785 -602.2256723 318.89167694 -602.10246277 318.18589783 C-601.37761384 314.06096461 -600.61055445 309.946284 -599.81587219 305.83427429 C-598.31560976 298.04364888 -597.18941273 290.25291081 -596.25 282.375 C-595.61582523 277.39480818 -594.96781117 272.41647555 -594.31713867 267.43841553 C-594.09998573 265.76877016 -593.88474704 264.09887502 -593.67114258 262.42877197 C-590.79268338 239.94042319 -587.28743201 217.94082016 -581 196.125 C-580.75491699 195.26748138 -580.50983398 194.40996277 -580.25732422 193.52645874 C-575.53097801 177.18598611 -569.30384363 162.39344492 -560.375 147.875 C-559.73304688 146.80507813 -559.09109375 145.73515625 -558.4296875 144.6328125 C-554.00507258 137.34307809 -549.78824397 131.17029604 -543.0625 125.8125 C-542.10214844 125.04164063 -541.14179687 124.27078125 -540.15234375 123.4765625 C-537.98930512 121.76879265 -535.81211253 120.08032418 -533.62890625 118.3984375 C-527.11652719 113.36851406 -520.89257199 108.19711894 -514.89941406 102.5559082 C-510.41471583 98.34249478 -505.78108725 94.33283943 -501.08325195 90.35961914 C-497.51819021 87.3348832 -494.08331084 84.2160024 -490.6875 81 C-486.28036524 76.97412763 -481.66268583 73.40310098 -476.8125 69.9375 C-476.17852295 69.47923828 -475.5445459 69.02097656 -474.89135742 68.54882812 C-460.75784957 58.66453116 -444.89853806 51.28056805 -429.5 43.625 C-428.48054291 43.11732086 -427.46108582 42.60964172 -426.41073608 42.08657837 C-384.6186026 21.28910215 -343.59647711 6.73442542 -298 -3.3125 C-296.23468933 -3.70390167 -296.23468933 -3.70390167 -294.43371582 -4.10321045 C-279.6786009 -7.36021555 -264.99549906 -10.13927444 -250 -12 C-248.69092682 -12.17008072 -248.69092682 -12.17008072 -247.35540771 -12.34359741 C-166.00568829 -22.91285834 -79.76886711 -19.48470303 0 0 Z " fill="#FEFEFE" transform="translate(1143,238)"/>
<path d="M0 0 C0.87291687 0.00906372 1.74583374 0.01812744 2.64520264 0.02746582 C26.10707121 0.29600003 49.21350113 2.92856997 72.44594193 6.0148201 C73.92790956 6.21162605 75.40999177 6.40757139 76.89219284 6.60261154 C103.3351963 10.08325665 127.8943968 15.58676481 153.125 24.3125 C155.44578798 25.10867989 157.76658897 25.90482187 160.08740234 26.70092773 C174.98957696 31.83249916 189.83743578 37.10959195 204.625 42.5625 C205.48031311 42.87530914 206.33562622 43.18811829 207.21685791 43.51040649 C217.97448258 47.45751534 228.32487648 51.92692874 238.63818359 56.91821289 C244.3286623 59.66206527 250.15236591 62.05187477 256 64.4375 C296.88759733 81.52707518 339.54429681 107.60275781 371.86328125 138.10546875 C373.74834775 139.77687141 375.53745621 140.91321776 377.6875 142.1875 C380.46281842 145.56288727 380.32851388 146.42936353 380.125 150.6875 C379.79037982 153.47028146 379.41182122 156.22899034 379 159 C378.76641119 160.76425469 378.53337512 162.52858262 378.30078125 164.29296875 C373.17176031 201.36556891 364.43891451 237.15543492 352.47583008 272.57519531 C349.46410663 281.50518506 346.57677237 290.45106617 343.9375 299.5 C343.47742554 301.0768457 343.47742554 301.0768457 343.00805664 302.68554688 C342.36420952 304.89605001 341.72074861 307.10666566 341.07763672 309.31738281 C339.15041404 315.90329737 337.18734422 322.47810952 335.20169067 329.04663086 C334.74681864 330.55599966 334.29471978 332.06620808 333.84591675 333.57739258 C331.27583244 342.22754312 328.41832884 350.68698057 325.14453125 359.09765625 C320.67187154 370.60230997 316.90280328 382.29525841 313.1875 394.0625 C312.4835737 396.2754168 311.77930421 398.48822446 311.07470703 400.70092773 C307.29965661 412.58254432 303.61310246 424.48786015 300.01895142 436.42529297 C291.73675281 463.91303917 282.73756132 491.15638214 271.63671875 517.64453125 C260.65351371 543.88467273 251.39835225 570.91414929 241.90625 597.72265625 C241.65879028 598.42136841 241.41133057 599.12008057 241.15637207 599.83996582 C239.99740652 603.11400027 238.84128926 606.3889741 237.68945312 609.66552734 C235.26650981 616.53462834 232.74281893 623.35333447 230.10742188 630.14379883 C228.53442154 634.20079418 227.02543752 638.28021129 225.51489258 642.36083984 C224.04792672 646.29294125 222.52377324 650.1940952 220.93359375 654.078125 C215.02008368 668.61669948 210.43248353 683.40679146 206.04785156 698.45898438 C204.52591316 703.60208655 202.89764166 708.70853075 201.25 713.8125 C198.98765971 720.84200588 196.81111993 727.88670732 194.76806641 734.9831543 C193.49121104 739.40299802 192.08010406 743.75968781 190.625 748.125 C188.14927902 755.7316333 186.55147341 763.49806518 184.875 771.3125 C182.29445498 783.28161627 179.07597527 794.95424519 175.375 806.625 C175.14520447 807.35312897 174.91540894 808.08125793 174.6786499 808.83145142 C171.7653027 818.01938989 168.53928175 827.03130259 165 836 C164.4130284 837.56113688 163.82917327 839.12345321 163.25 840.6875 C161.45663709 845.4399117 160.37910169 846.48201653 156 849 C154.72891938 850.0719919 154.72891938 850.0719919 154.625 852.5625 C155.13584771 857.24527071 157.31408494 860.22053381 160 864 C159.01 864 158.02 864 157 864 C155.74945613 862.51909279 154.50420953 861.03255746 153.3125 859.50390625 C151.98716545 857.82208047 151.98716545 857.82208047 149.625 856.625 C147.02644106 855.01636827 145.97343376 853.79991152 144.125 851.4375 C139.38340012 845.83935304 133.25153134 842.26003568 127.12841797 838.36376953 C123.4702695 836.01983545 119.8632796 833.59976355 116.25 831.1875 C115.48703613 830.68331543 114.72407227 830.17913086 113.93798828 829.65966797 C110.1876082 827.17328452 106.48669457 824.64903453 102.86328125 821.98046875 C79.28031284 804.79921522 52.34815962 793.27280667 25.20046997 783.02023315 C20.42370359 781.20089203 15.82172071 779.15411913 11.25 776.875 C1.21760072 771.93056195 -9.2999432 768.18325117 -19.78149414 764.313797 C-24.0526584 762.73417193 -28.307735 761.11730809 -32.55532837 759.47540283 C-73.59788034 743.62981488 -117.78189563 728.95888131 -162.1796875 728.796875 C-163.42710724 728.79117493 -164.67452698 728.78547485 -165.95974731 728.77960205 C-168.59701707 728.77019665 -171.23429834 728.76363592 -173.87158203 728.75976562 C-177.80127703 728.75331253 -181.7305841 728.71916217 -185.66015625 728.6875 C-202.15860053 728.61945609 -218.24881186 729.68536549 -234.62608337 731.63168335 C-242.58079143 732.50006623 -250.57017138 733.00215755 -258.55078125 733.5703125 C-261.76740198 733.80629887 -264.95270134 734.09735383 -268.1484375 734.53125 C-272.54495413 735.06632302 -276.88979588 735.2270763 -281.3125 735.375 C-290.62221128 735.74758761 -299.7968546 736.71432039 -309.04382324 737.82595825 C-316.27934249 738.66432861 -323.48456455 739.25223494 -330.75785828 739.6317749 C-348.60702878 740.56360769 -366.28017175 742.44099804 -384.01000977 744.66650391 C-387.1325917 745.05821308 -390.25612378 745.4399168 -393.38110352 745.81201172 C-412.81108685 748.12582618 -431.86441231 751.06184863 -450.97015381 755.33309937 C-454.8893099 756.19574635 -458.82123794 756.9867892 -462.7559967 757.77459717 C-474.02696868 760.0364142 -484.97824387 763.2814003 -495.99023438 766.53738403 C-508.00534692 770.06985187 -520.03651982 772.78269277 -532.33789062 775.10531616 C-544.93781425 777.48901443 -557.17682523 780.59946139 -569.47021484 784.27148438 C-571.73789766 784.924521 -574.00377145 785.50794228 -576.30078125 786.046875 C-585.26595228 788.16947001 -592.84620564 791.54745004 -600.90576172 795.88378906 C-603.08070659 797.04301591 -605.27335576 798.1611804 -607.47265625 799.2734375 C-615.21465761 803.22225358 -622.44837633 807.19500011 -629 813 C-630 811 -630 811 -629.171875 808.17578125 C-628.70469946 806.88554468 -628.22994912 805.59803967 -627.75 804.3125 C-627.48695068 803.58119873 -627.22390137 802.84989746 -626.95288086 802.09643555 C-625.57496257 798.26973553 -624.16981089 794.45388581 -622.74462891 790.64453125 C-616.01602698 772.63669971 -610.82699941 754.95080412 -606.72021484 736.15771484 C-605.32676926 730.04828256 -603.49805122 724.08267216 -601.64453125 718.10058594 C-597.934749 706.01006834 -594.62089359 693.88223531 -591.9765625 681.515625 C-590.99131959 676.9098632 -589.91191496 672.32967917 -588.8125 667.75 C-588.61188965 666.91090088 -588.4112793 666.07180176 -588.20458984 665.20727539 C-587.3091656 661.46304593 -586.41235924 657.71914828 -585.5144043 653.9755249 C-580.93794626 634.89281161 -576.43773674 615.81123693 -572.40234375 596.60546875 C-570.72047681 588.6139302 -568.89974861 580.65429876 -567.09765625 572.68920898 C-565.81414805 566.93723718 -564.66025994 561.20042683 -563.72143555 555.3828125 C-560.97950097 538.56779639 -556.11514522 522.23326547 -551.60009766 505.82861328 C-549.35518554 497.66528078 -547.15045679 489.491095 -544.94189453 481.31787109 C-543.81533113 477.14913929 -542.68466458 472.98155516 -541.55029297 468.81494141 C-538.29068365 456.86315853 -538.29068365 456.86315853 -535.18359375 444.87109375 C-530.71652885 427.23268314 -524.7905868 410.10040039 -518.98681641 392.86636353 C-512.73376417 374.29543125 -506.68234778 355.67254981 -501.40625 336.796875 C-495.3951049 315.34354806 -488.35448879 294.65346421 -480 274 C-479.57444824 272.9387793 -479.14889648 271.87755859 -478.71044922 270.78417969 C-475.43364196 262.61853286 -472.08754911 254.48658527 -468.578125 246.41796875 C-460.29163753 227.22233992 -454.08601709 207.4871738 -448.17114258 187.45825195 C-445.35758697 177.96960165 -442.19303921 168.93962594 -437.94335938 159.99853516 C-436.94251139 157.87820865 -435.97788438 155.74356442 -435.015625 153.60546875 C-428.56029531 139.43278643 -421.58856152 124.33497171 -412 112 C-413.32 111.34 -414.64 110.68 -416 110 C-414.741875 109.95875 -413.48375 109.9175 -412.1875 109.875 C-409.97907123 109.6695463 -409.97907123 109.6695463 -408 109 C-406.20833582 106.25071961 -406.20833582 106.25071961 -405 103 C-403.38142377 101.28659212 -401.70777926 99.62451394 -400 98 C-399.19997559 97.21488037 -398.39995117 96.42976074 -397.57568359 95.62084961 C-390.78695646 89.22110732 -383.66942028 84.29262023 -375.625 79.5625 C-374.38944175 78.82464613 -373.15409321 78.08644098 -371.91894531 77.34790039 C-362.22631991 71.58596754 -352.35580823 66.20839452 -342.27539062 61.15380859 C-340.12975122 60.06579445 -338.00850079 58.94169146 -335.890625 57.80078125 C-325.34383645 52.18992126 -314.39155841 48.5215724 -303 45 C-301.48158708 44.51620135 -299.96335017 44.03184983 -298.4453125 43.546875 C-275.4336964 36.31472383 -251.86157555 30.6845354 -228.27905273 25.66870117 C-221.01810741 24.12133434 -213.78506425 22.49349334 -206.5703125 20.7421875 C-205.76925079 20.54781601 -204.96818909 20.35344452 -204.14285278 20.15318298 C-203.33822601 19.95785477 -202.53359924 19.76252655 -201.70458984 19.5612793 C-185.28354614 15.57512573 -168.93091196 12.17156573 -152.23095703 9.52636719 C-149.09279508 9.01511759 -145.96660884 8.45936484 -142.83984375 7.8828125 C-96.0256939 -0.74318899 -47.45163174 -0.56375086 0 0 Z " fill="#5F5F5F" transform="translate(776,1173)"/>
<path d="M0 0 C3.48607185 1.69021665 5.69573947 3.6864728 8.125 6.625 C14.89256454 14.58342353 23.38406572 20.40179669 32.06225586 26.08007812 C36.64078305 29.07614938 41.11546558 32.18770195 45.5625 35.375 C51.08949877 39.32835784 56.69501993 43.14774662 62.36328125 46.89453125 C63.01859329 47.3282605 63.67390533 47.76198975 64.34907532 48.2088623 C67.63682846 50.38324307 70.92924669 52.55005157 74.22875977 54.70654297 C84.15851149 61.23336423 93.36210474 68.38797679 102.0625 76.5 C103.07523504 77.43780872 104.08826009 78.37530435 105.1015625 79.3125 C106.53628906 80.6428125 106.53628906 80.6428125 108 82 C123.20386851 95.9329569 138.11222112 107.60670164 156.30859375 117.4296875 C159.64328089 119.23676351 162.87462447 121.12971791 166.0625 123.1875 C196.15454703 141.43145883 234.56507554 146.8949262 268.875 151.375 C269.84374054 151.50246613 270.81248108 151.62993225 271.81057739 151.76126099 C274.64082188 152.12916423 277.47226959 152.48518965 280.3046875 152.8359375 C281.52228508 152.99168999 281.52228508 152.99168999 282.76448059 153.15058899 C297.79529302 154.94774631 312.91615558 155.15031202 328.03369141 155.14526367 C329.86304796 155.14826615 331.6924039 155.15167112 333.52175903 155.15544128 C338.44058083 155.16418458 343.35938516 155.16661555 348.27821398 155.16725707 C351.37520936 155.16797423 354.47220048 155.17012115 357.56919479 155.17275429 C368.44343083 155.18198273 379.31765471 155.18609318 390.19189453 155.18530273 C400.21053765 155.1847058 410.22912626 155.19518818 420.24775565 155.2110464 C428.93657253 155.22429232 437.625372 155.22947948 446.31419885 155.22884732 C451.46393721 155.22859684 456.61362727 155.23118895 461.76335526 155.24202538 C482.15834017 155.28191056 502.5009866 155.11096322 522.87304688 154.07104492 C523.68889858 154.02945893 524.50475028 153.98787293 525.34532475 153.94502676 C539.11892099 153.22473408 552.82224096 152.07023736 566.52734375 150.50537109 C569.95669657 150.11571738 573.38811277 149.75036046 576.8203125 149.38671875 C594.7571317 147.43312951 611.54477226 144.11321847 628.62936401 138.34103394 C632.31526225 137.09648832 636.01047776 135.88044275 639.70703125 134.66796875 C640.79257042 134.31168144 640.79257042 134.31168144 641.90003967 133.94819641 C647.69401772 132.06336336 653.53369439 130.44325453 659.4375 128.9375 C684.53914644 122.43792374 711.53392484 112.84569189 731.8125 96.3125 C741.28376119 88.7495074 752.28173821 83.54713459 763 78 C764.43947714 77.25330149 765.87892909 76.50655444 767.31835938 75.75976562 C776.86431268 70.81131661 786.4266544 65.89522014 796 61 C796.98601951 64.06842113 797.01050307 65.83412499 795.9609375 68.87109375 C795.58388672 69.98194336 795.58388672 69.98194336 795.19921875 71.11523438 C794.79123047 72.26475586 794.79123047 72.26475586 794.375 73.4375 C794.00181641 74.53481445 794.00181641 74.53481445 793.62109375 75.65429688 C792.44965348 79.05497049 791.2395664 82.41996456 789.86621094 85.74511719 C785.66536338 96.01939913 783.12132186 106.61061023 780.5 117.375 C780.01057474 119.3603493 779.52082677 121.34561907 779.03076172 123.33081055 C776.01159079 135.61144102 773.14357924 147.90884588 770.56539917 160.28993225 C766.79696342 178.35277479 762.56070622 196.27758483 758.125 214.1875 C757.53227453 216.59172847 756.93982595 218.99602521 756.34765625 221.40039062 C751.52767807 240.94653053 751.52767807 240.94653053 749.13793945 250.32348633 C745.67808804 263.92913914 742.5204949 277.51418595 739.9375 291.3125 C739.60188803 293.06932884 739.26544404 294.82599891 738.92822266 296.58251953 C738.09784014 300.91568767 737.27539878 305.25030731 736.45635986 309.58563232 C732.84479219 328.69259801 729.1633151 347.76929741 724.7578125 366.71240234 C724.26007261 368.87173399 723.77275325 371.03349929 723.296875 373.19775391 C720.14791191 387.51460207 715.98032752 401.10627723 710.96502686 414.85189819 C701.50376789 440.81426061 695.0562866 467.3138908 688.63818359 494.15234375 C681.13614114 525.51999238 681.13614114 525.51999238 676.22131348 539.55606079 C674.8927581 543.36674838 673.61244854 547.19375543 672.328125 551.01953125 C672.0562738 551.82861435 671.78442261 552.63769745 671.5043335 553.47129822 C661.04983656 584.694379 652.38434406 616.31003118 644.50488281 648.26489258 C641.10991631 662.00616633 637.53592195 675.58805987 633 689 C632.76958511 689.68944199 632.53917023 690.37888397 632.30177307 691.08921814 C629.85628969 698.40348629 627.19260109 705.57716118 624.26953125 712.71484375 C623.24171868 715.2263722 622.21431358 717.73806335 621.1875 720.25 C620.92640442 720.88708893 620.66530884 721.52417786 620.39630127 722.18057251 C616.46282842 731.82062632 613.18473375 741.5137352 610.25 751.5 C603.87364323 773.12635677 603.87364323 773.12635677 596 781 C597.98 781.66 599.96 782.32 602 783 C600 784 600 784 597 783.5 C592.85421456 783.4045949 590.86083482 785.49133572 587.875 788.1875 C586.23453453 789.7758478 584.60775508 791.37855025 583 793 C582.071875 793.886875 581.14375 794.77375 580.1875 795.6875 C578.08512549 797.82385176 578.08512549 797.82385176 576.76953125 799.6328125 C575.5 801.3125 575.5 801.3125 573 804 C572.2272876 803.99097656 571.4545752 803.98195313 570.65844727 803.97265625 C567.20505856 804.00817646 565.77449527 805.15805767 562.96484375 807.125 C557.06912978 811.04432662 550.99678792 814.06853749 544.5625 817 C543.36874756 817.54688477 542.17499512 818.09376953 540.94506836 818.65722656 C516.91099116 829.59860396 492.87208428 839.62770183 467.47265625 846.96728516 C463.98968027 848.00306893 460.54250379 849.11749239 457.09375 850.26171875 C443.71268786 854.67189693 430.3336532 858.26512006 416.5625 861.1875 C415.86464386 861.33808868 415.16678772 861.48867737 414.44778442 861.64382935 C409.69479619 862.65923951 404.9268105 863.55949146 400.14334106 864.41928101 C397.90843853 864.83216982 395.67733867 865.2658782 393.44918823 865.71377563 C363.11950522 871.75770241 332.59077503 872.4179845 301.77758318 873.15714997 C293.99240837 873.3447481 286.20815873 873.56373821 278.42382812 873.78320312 C275.65023956 873.86125524 272.87664517 873.93909431 270.1030426 874.01664734 C269.42867521 874.03550828 268.75430781 874.05436921 268.05950505 874.0738017 C263.52741723 874.19969763 258.99516501 874.31716043 254.4627533 874.43074036 C243.91390303 874.69805937 233.37528278 874.9930428 222.83666992 875.53710938 C213.73806252 876.00482445 204.66423874 876.16342123 195.5546875 876.16796875 C193.96460952 876.17120665 192.3745318 876.17457227 190.78445435 876.17805481 C187.47885452 876.18396739 184.1732805 876.18590327 180.86767578 876.18530273 C177.56423392 876.18522209 174.26093258 876.19208058 170.95751953 876.20581055 C141.41012997 876.32632191 111.51632377 876.3267985 82.3125 871.3125 C81.52891113 871.18306 80.74532227 871.05362 79.93798828 870.92025757 C57.7324556 867.23557571 37.14465944 860.15327241 16.10952759 852.27975464 C8.21515859 849.32692107 0.29933563 846.43384977 -7.625 843.5625 C-8.37272675 843.29142426 -9.12045349 843.02034851 -9.89083862 842.74105835 C-21.47508413 838.54991344 -33.11847619 834.56096557 -44.8125 830.6875 C-45.56742737 830.43707947 -46.32235474 830.18665894 -47.10015869 829.9286499 C-53.26771628 827.88312578 -59.4361773 825.840393 -65.61083984 823.81640625 C-76.7646659 820.14903738 -87.21789101 816.64604446 -97 810 C-98.52407078 808.97946924 -100.04888204 807.96004392 -101.57421875 806.94140625 C-104.22314823 805.17167016 -106.86960674 803.39885817 -109.50805664 801.61352539 C-115.25774249 797.74425916 -121.10104745 794.10735185 -127.06762695 790.58276367 C-135.45992215 785.6220942 -142.85191456 780.86049231 -149.7890625 773.984375 C-157.13289296 766.89073515 -165.82964948 761.09399078 -174 755 C-175.22274966 754.08606246 -176.44541951 753.17201813 -177.66796875 752.2578125 C-178.66441406 751.51273438 -179.66085937 750.76765625 -180.6875 750 C-182.46023022 748.66918971 -184.23118987 747.33601616 -186 746 C-186.88945313 745.32839844 -187.77890625 744.65679688 -188.6953125 743.96484375 C-204.29154263 731.88358489 -204.29154263 731.88358489 -206 723 C-206.6140772 712.88063359 -205.56301213 703.48513278 -203.5 693.5625 C-203.2301493 692.22732658 -202.96045934 690.89212067 -202.69091797 689.55688477 C-197.33148959 663.37482601 -190.57447057 638.19844201 -179.97729492 613.59765625 C-167.1393836 583.78800401 -158.36543899 552.78361062 -152.44921875 520.89233398 C-150.66876868 511.6810881 -147.77246765 502.79528164 -144.91455078 493.87158203 C-144.02713019 491.08518562 -143.16432926 488.29236333 -142.30859375 485.49609375 C-139.43685408 476.18354489 -136.30039182 467.03510673 -132.796875 457.94140625 C-128.32718167 446.17382687 -124.44588588 434.26115669 -120.68435669 422.25158691 C-112.59526798 396.46847594 -103.7914876 371.18478821 -93.63818359 346.13623047 C-90.66479177 338.76997646 -87.87424096 331.35043496 -85.1875 323.875 C-84.83864746 322.90457764 -84.48979492 321.93415527 -84.13037109 320.93432617 C-79.49842465 307.92007931 -75.22053548 294.81145882 -71.3125 281.5625 C-71.1030072 280.85443207 -70.8935144 280.14636414 -70.67767334 279.4168396 C-66.28820814 264.51764531 -62.49542386 249.48155987 -58.80786133 234.39558411 C-57.87817458 230.5954993 -56.94021864 226.79749038 -56 223 C-55.75230362 221.99096619 -55.75230362 221.99096619 -55.49960327 220.96154785 C-53.17314448 211.55152762 -50.13593668 202.62986382 -46.5625 193.625 C-39.82984766 176.62995525 -35.26898223 159.52709933 -31.375 141.6875 C-30.80082842 139.07923829 -30.2249472 136.47136337 -29.64788818 133.86373901 C-29.27574663 132.18198822 -28.90483925 130.49996382 -28.53521729 128.81765747 C-27.57126175 124.4569508 -26.53182744 120.13291641 -25.3828125 115.81640625 C-23.4895742 108.39722189 -22.54191154 100.82447811 -21.5 93.25 C-21.09835984 90.35870995 -20.69198893 87.46813636 -20.28125 84.578125 C-20.1801442 83.86124008 -20.07903839 83.14435516 -19.97486877 82.40574646 C-19.373962 78.24892449 -18.65743766 74.13599693 -17.82936096 70.01872253 C-15.8008781 59.9321488 -15.05047196 49.86020937 -14.41870117 39.6027832 C-14.27470565 37.32631664 -14.1093258 35.05215316 -13.94140625 32.77734375 C-13.90584122 32.09808334 -13.87027618 31.41882294 -13.83363342 30.71897888 C-13.4282041 25.46821052 -11.72773714 22.36255621 -9 18 C-8.835 17.2575 -8.67 16.515 -8.5 15.75 C-8 14 -8 14 -6 12.75 C-3.24320549 10.33780481 -3.54021563 8.39693258 -3.28125 4.875 C-3 3 -3 3 -1.4375 1 C-0.963125 0.67 -0.48875 0.34 0 0 Z " fill="#8B8B8B" transform="translate(1624,466)"/>
<path d="M0 0 C8.74082573 4.07950113 17.45454604 8.19577209 26.0625 12.55078125 C26.97960503 13.0146096 26.97960503 13.0146096 27.91523743 13.48780823 C28.5352916 13.80144821 29.15534576 14.1150882 29.79418945 14.43823242 C40.07338039 19.63725423 50.34362081 24.71306768 60.9375 29.25 C71.01794697 33.56710791 80.8611957 38.28472842 90.70031738 43.12161255 C126.59090076 60.76490921 163.14321579 75.76811174 200.7421875 89.3515625 C205.58273723 91.10361551 210.3953799 92.91308934 215.1953125 94.7734375 C233.58185679 101.83824849 252.15004866 107.05800076 271.25097656 111.80908203 C275.77898397 112.93814751 280.29221367 114.11925266 284.8046875 115.30859375 C315.19095134 123.26342178 346.04572611 129.44958615 377.125 134 C377.80870667 134.10018433 378.49241333 134.20036865 379.19683838 134.30358887 C395.81585184 136.70781731 412.17370942 137.27396289 428.94702148 137.35009766 C431.57699523 137.36650985 434.20692721 137.39359908 436.83666992 137.43212891 C455.07876106 137.69665705 471.90648563 136.2529008 489.76486206 132.64353943 C494.12783081 131.77564988 498.50654636 131.00779105 502.88722229 130.23529053 C518.06430919 127.54504417 532.92096438 123.5544338 547.81236267 119.62489319 C554.09138945 117.96924277 560.38517169 116.37713962 566.6875 114.8125 C567.63294678 114.57668213 568.57839355 114.34086426 569.55249023 114.09790039 C574.38689221 112.89316792 579.22378991 111.69902341 584.0625 110.51171875 C596.2126417 107.51990238 608.26647242 104.30957043 620.27246094 100.78417969 C623.16593101 99.95229409 626.06928505 99.1650019 628.9765625 98.3828125 C640.28817636 95.29373324 650.64945796 91.60882853 661.13671875 86.37890625 C743.23569875 45.57360809 743.23569875 45.57360809 766 50 C766.7115625 51.2375 766.7115625 51.2375 767.4375 52.5 C767.953125 53.325 768.46875 54.15 769 55 C771.95659873 55.83349951 771.95659873 55.83349951 775 55 C778.21775827 51.95617461 779.49930857 49.38104998 780 45 C780.33 45 780.66 45 781 45 C781.17349265 52.72168033 780.83728243 60.07098695 779.5625 67.6875 C779.39129639 68.72946533 779.22009277 69.77143066 779.04370117 70.8449707 C774.58493796 96.78837383 768.22642088 122.44842134 762.08837891 148.03515625 C760.39396968 155.09916187 758.72660332 162.16062716 757.20874023 169.26513672 C753.66246759 185.74575367 748.80337588 201.91912293 744.21839905 218.13331604 C741.98439266 226.03746008 739.79843111 233.95400322 737.625 241.875 C736.99000399 244.17329335 736.35460527 246.47147548 735.71875 248.76953125 C734.64277775 252.65926575 733.58057902 256.55222292 732.53125 260.44921875 C725.60148738 285.88402307 715.66789952 310.02576519 705.24609375 334.18359375 C704.90006607 334.98700195 704.55403839 335.79041016 704.19752502 336.61816406 C702.41013002 340.76114116 700.60522428 344.89519165 698.77246094 349.01831055 C692.85984664 362.41476587 688.00721122 376.05252104 683.375 389.9375 C682.65698974 392.06470296 681.93824118 394.19165686 681.21875 396.31835938 C672.09271618 422.58529395 672.09271618 422.58529395 665 449.4375 C664.51309845 451.63022557 664.02611556 453.82293308 663.5390625 456.015625 C663.1682959 457.70848633 663.1682959 457.70848633 662.79003906 459.43554688 C661.95401817 463.20745817 661.08634452 466.97147177 660.2109375 470.734375 C657.36578686 483.00541855 654.64666415 495.25774331 652.62402344 507.6965332 C651.62526611 513.71544186 650.46284657 519.68242398 649.19140625 525.6484375 C645.5524731 542.75401323 642.25815239 559.80359879 639.8125 577.125 C639.68986786 577.9892157 639.56723572 578.8534314 639.44088745 579.74383545 C638.95897753 583.14244266 638.47878103 586.54128746 638.0004425 589.94039917 C633.50559148 621.83739513 627.34361145 652.92267889 613 682 C612.65614258 682.71236816 612.31228516 683.42473633 611.95800781 684.15869141 C605.3460225 697.74780153 596.70067793 710.09794235 586.96875 721.62890625 C585.26640824 723.67914722 583.7193134 725.76000944 582.1875 727.9375 C575.49300123 736.92463533 567.02559542 744.17698492 558.15576172 750.91625977 C553.16827712 754.74847867 548.83230414 758.98762154 544.4609375 763.5 C541.70240119 766.3023226 538.80538932 768.85779336 535.8046875 771.39453125 C534.0211746 772.98116285 532.47395204 774.66751578 530.875 776.4375 C522.52902824 784.76504798 510.4492317 789.32606388 499.9375 794.25 C498.32427856 795.01123169 498.32427856 795.01123169 496.6784668 795.7878418 C484.89641932 801.20581136 472.70293201 804.47650798 460.125 807.5 C458.86123535 807.80550781 457.5974707 808.11101563 456.29541016 808.42578125 C448.68768753 810.22869547 441.09368258 811.76443706 433.375 813 C423.7450135 814.54286972 414.41522845 816.83614089 404.99804688 819.35888672 C397.0198411 821.49549697 389.02460003 823.43223734 380.94311523 825.13842773 C376.39639443 826.12612725 371.97117576 827.3033363 367.52900696 828.69248962 C355.28426565 832.48628933 342.7806244 834.7464201 330.1875 837.0625 C327.81599914 837.50447479 325.44449849 837.9464507 323.07299805 838.38842773 C307.11415886 841.3416304 291.13580638 844.18604546 275 846 C274.29686802 846.08014343 273.59373604 846.16028687 272.86929703 846.24285889 C267.0405082 846.87145492 261.28774373 847.16733866 255.42749023 847.20874023 C254.52628448 847.21852402 253.62507874 847.2283078 252.69656372 847.23838806 C243.19820181 847.33366488 233.69918677 847.37122156 224.20043945 847.4050293 C219.74700823 847.42258964 215.29424082 847.45699794 210.84106445 847.50756836 C181.63871703 847.83117296 153.73862469 846.27890337 125 841 C123.51719571 840.73304945 122.03429575 840.46662978 120.55130005 840.20074463 C91.49147305 834.96182284 63.90890195 826.90035147 37.3503418 813.78759766 C13.88019578 802.2019144 -12.42984011 797.21732413 -37.74658203 791.24707031 C-42.16102449 790.20417326 -46.56376626 789.12126406 -50.96484375 788.0234375 C-65.85068251 784.39059605 -80.7128918 781.93893977 -95.8677063 779.7409668 C-114.19585828 777.08048995 -132.18265827 773.94407474 -150.125 769.3125 C-151.46963318 768.97019348 -151.46963318 768.97019348 -152.84143066 768.62097168 C-161.3453425 766.4349501 -169.51394051 764.32098253 -177.18310547 759.90698242 C-179.10890858 758.77668179 -179.10890858 758.77668179 -182 759 C-181.87625 757.3603125 -181.87625 757.3603125 -181.75 755.6875 C-181.64330412 752.09795562 -181.64330412 752.09795562 -183.4375 750.1875 C-185.94480469 749.02557831 -187.8575383 748.67733108 -190.5625 748.25 C-192.9609375 747.75390625 -192.9609375 747.75390625 -195 747 C-196.6875 744.1875 -196.6875 744.1875 -197.2578125 742.32421875 C-198.24418288 739.23532203 -199.65747116 736.420981 -201.0625 733.5 C-208.72349492 717.43725238 -206.88932887 701.58487585 -202.32452393 684.89590454 C-201.22988924 680.88628192 -200.21374951 676.85667348 -199.19140625 672.828125 C-198.99230652 672.04995926 -198.79320679 671.27179352 -198.58807373 670.470047 C-196.75683854 663.23026304 -195.52365867 655.99605416 -194.59570312 648.59033203 C-192.52158398 632.27511762 -189.14133769 616.15775649 -185.8125 600.0625 C-185.56978363 598.88813385 -185.32706726 597.7137677 -185.07699585 596.5038147 C-181.71939426 580.34940999 -178.16855797 564.44569396 -172.9296875 548.78320312 C-171.98435563 545.95316547 -171.08284973 543.11183374 -170.1875 540.265625 C-166.45724286 528.57427333 -162.1772151 517.12725966 -157.75 505.6875 C-148.78977263 482.52006233 -140.6156134 459.17046047 -133.89373779 435.25268555 C-130.91679969 424.70078615 -127.37734322 414.46469751 -123.51855469 404.20654297 C-119.18093679 392.65200836 -115.16346505 380.99591156 -111.1875 369.3125 C-110.87302917 368.39159576 -110.55855835 367.47069153 -110.23455811 366.5218811 C-108.13027656 360.35650839 -106.05223599 354.18288997 -104 348 C-103.73091827 347.19243256 -103.46183655 346.38486511 -103.18460083 345.55282593 C-99.15779269 333.39808617 -95.9451747 321.15899404 -93.0625 308.6875 C-92.62546873 306.82130383 -92.18779525 304.95525794 -91.74951172 303.08935547 C-90.68063419 298.53210962 -89.61965606 293.97307123 -88.56121826 289.41339111 C-87.78732853 286.08545487 -87.00534991 282.75947068 -86.22265625 279.43359375 C-83.72913144 268.81877623 -81.27286944 258.19562717 -78.83410645 247.56811523 C-77.76355864 242.9036917 -76.69125548 238.23967208 -75.61907959 233.57562256 C-74.83139445 230.14479631 -74.04673758 226.71328703 -73.26220703 223.28173828 C-69.74494801 207.94180658 -65.88392899 192.78376776 -61.34716797 177.71240234 C-57.55854796 165.12473509 -54.03915044 152.58090112 -51.26171875 139.7265625 C-47.50447504 122.39647077 -43.12723627 105.14327957 -37.9375 88.1875 C-37.64576904 87.23069336 -37.35403809 86.27388672 -37.0534668 85.28808594 C-36.07661645 82.17677392 -35.05023419 79.08736631 -34 76 C-33.76781769 75.31520569 -33.53563538 74.63041138 -33.29641724 73.92486572 C-29.00543363 61.40772265 -23.64663499 49.73636034 -17.5625 38 C-11.13019665 25.53765245 -5.2693855 13.00103264 0 0 Z " fill="#CFCFCF" transform="translate(1367,1424)"/>
<path d="M0 0 C0.6552063 0.15988403 1.3104126 0.31976807 1.98547363 0.48449707 C20.80218335 5.10795538 39.10069355 10.8396297 57.25 17.625 C58.07722565 17.93243134 58.90445129 18.23986267 59.75674438 18.55661011 C70.25185367 22.48138123 80.29725299 26.9271279 90.23883057 32.09204102 C92.8082814 33.41670401 95.40535713 34.68279536 98.00390625 35.94921875 C108.85575893 41.2831315 119.45940174 46.88862904 129.93188477 52.93237305 C137.80781016 57.43052434 145.86723918 61.49534504 154 65.5 C175.42293944 76.06854161 195.74920211 87.37168122 214.3347168 102.47973633 C218.55587547 105.89795425 222.86957538 109.12640096 227.3125 112.25 C235.73229568 118.18786288 243.51654927 123.94665711 250 132 C252.10280634 134.35659368 252.10280634 134.35659368 254 136 C254.66 136 255.32 136 256 136 C255.34 137.32 254.68 138.64 254 140 C253.34 140 252.68 140 252 140 C252.0928125 141.5159375 252.0928125 141.5159375 252.1875 143.0625 C252.01216221 146.74459365 251.27374886 148.86824279 249.78878784 152.16610718 C248.59384376 154.94429322 247.78144345 157.80427515 246.94140625 160.70703125 C246.55865918 162.0109623 246.17541691 163.31474808 245.79174805 164.6184082 C245.5923764 165.30005035 245.39300476 165.9816925 245.18759155 166.68399048 C240.23250062 183.55665206 234.55245515 200.1157968 228.57080078 216.64794922 C227.24686498 220.30924829 225.93805469 223.97574351 224.63421631 227.64424133 C217.07305965 248.91467839 209.04416729 269.97756493 200.7902832 290.98773193 C198.70387709 296.30026847 196.62821508 301.61687808 194.5625 306.9375 C194.19809814 307.86320801 193.83369629 308.78891602 193.45825195 309.74267578 C186.95416459 326.52295637 181.80332865 343.72407104 176.94641113 361.03970337 C175.43172866 366.43381169 173.896894 371.82218646 172.36328125 377.2109375 C172.06662567 378.25411636 171.76997009 379.29729523 171.46432495 380.37208557 C166.50098352 397.8029282 161.11502451 414.99342845 154.92749023 432.03222656 C151.30343695 442.03486266 147.93125406 452.10980252 144.60394287 462.21426392 C141.99745205 470.12448657 139.31586628 477.97971875 136.3125 485.75 C131.20146063 499.12259455 127.86123936 513.12657155 124.22265625 526.95410156 C120.09080644 542.62721292 115.12650611 557.9830338 110.0625 573.375 C102.44993345 596.51486436 95.32039445 619.66868873 89.14526367 643.23974609 C87.33455678 650.12122744 85.45093246 656.97226288 83.44921875 663.80078125 C78.76538945 679.79187673 74.51043918 695.61613053 71.54882812 712.03613281 C70.78620867 716.15454927 69.93237122 720.25259114 69.08496094 724.35424805 C66.94765235 734.73856972 65.07873056 745.1376745 63.51928711 755.625 C62.82711647 760.18962732 62.0737272 764.72448781 61.11621094 769.24121094 C57.81829457 784.82088243 55.86771465 800.50634466 53.921875 816.30371094 C53.48355885 819.84141351 53.03516949 823.37773229 52.5859375 826.9140625 C52.45569183 828.00030914 52.32544617 829.08655579 52.19125366 830.20571899 C52.06417023 831.20211395 51.93708679 832.19850891 51.80615234 833.22509766 C51.69830414 834.10187164 51.59045593 834.97864563 51.4793396 835.88198853 C51 838 51 838 49 840 C48.41444336 839.69054443 47.82888672 839.38108887 47.22558594 839.06225586 C40.72367072 835.70871021 34.1237071 833.04898022 27.25 830.5625 C19.70513665 827.78554734 12.28597535 824.90842289 4.9375 821.6484375 C1.64379143 820.22991345 -1.7008544 818.97491082 -5.0625 817.7265625 C-21.52331493 811.60864822 -35.76551564 804.60403941 -50.25708008 794.78759766 C-60.37159153 787.99258071 -71.06229885 782.38180243 -82.02734375 777.09375 C-82.74484802 776.74768707 -83.46235229 776.40162415 -84.20159912 776.04507446 C-87.80661629 774.31039819 -91.41712412 772.58853237 -95.03662109 770.88427734 C-102.58555434 767.30570224 -109.69293301 763.44100864 -116.76342773 758.96435547 C-122.52050009 755.47024638 -128.57738794 752.57425303 -134.625 749.625 C-137.3077514 748.30955024 -139.98853715 746.99016677 -142.66796875 745.66796875 C-143.64247734 745.18768974 -143.64247734 745.18768974 -144.63667297 744.69770813 C-148.0816068 742.98908846 -151.46906172 741.22056727 -154.80078125 739.30078125 C-165.63118467 733.07323621 -177.03090899 728.79967178 -188.75 724.5625 C-189.58779999 724.25682098 -190.42559998 723.95114197 -191.28878784 723.63619995 C-200.92577889 720.14049695 -210.39900487 717.06009113 -220.54538345 715.40135193 C-222.2998524 715.11448044 -224.05340997 714.82201244 -225.80633163 714.52583313 C-244.01391416 711.49349466 -261.69442434 710.40236988 -280.1328125 710.46875 C-282.17184265 710.46807741 -284.2108559 710.46468392 -286.24988258 710.46096468 C-292.65610013 710.44928181 -299.06207525 710.45688864 -305.46826172 710.47851562 C-311.18584972 710.49760634 -316.90301888 710.49800432 -322.62060547 710.47851562 C-352.67886396 710.37878037 -382.59926875 710.72894785 -412.59375 712.8515625 C-413.75983921 712.93402725 -414.92592842 713.016492 -416.12735367 713.10145569 C-469.30287665 716.95894712 -523.46023344 723.91262699 -574.33691406 740.31640625 C-582.33370099 742.89046789 -590.34446269 745.22332841 -598.5 747.25 C-610.43832401 750.23921545 -622.26167109 753.58741881 -634.07983398 757.0177002 C-636.1509712 757.61862507 -638.22272435 758.21743218 -640.29516602 758.81384277 C-651.44539102 762.02662719 -662.50902261 765.41678811 -673.4765625 769.2109375 C-674.88231537 769.695839 -674.88231537 769.695839 -676.31646729 770.1905365 C-682.98631608 772.53692236 -689.32209223 775.31540402 -695.66796875 778.421875 C-698.88188421 779.94405771 -702.09977978 781.21489186 -705.4375 782.4375 C-710.56698489 784.35867914 -715.47151072 786.57120063 -720.375 789 C-721.02911865 789.32025146 -721.6832373 789.64050293 -722.35717773 789.97045898 C-730.80276948 793.94770819 -730.80276948 793.94770819 -736 801 C-738.265625 802.21875 -738.265625 802.21875 -741.25 803.5 C-747.8180232 806.61902537 -752.80828135 810.72418034 -758.1875 815.51171875 C-760.39924305 817.46849697 -762.60527633 819.27879236 -765 821 C-761.81191828 809.51772192 -757.87203796 799.2086318 -751.75 789 C-745.80859733 779.03692389 -741.29685223 768.75801715 -737 758 C-736.62053223 757.06994141 -736.24106445 756.13988281 -735.85009766 755.18164062 C-729.4273643 739.40388235 -724.09411571 723.34900457 -718.90527344 707.13549805 C-715.44995865 696.35496949 -711.83408138 685.65162027 -708 675 C-704.94637218 666.50765133 -701.97730331 658.03458615 -699.3671875 649.39453125 C-696.97905701 641.58984392 -694.3189431 633.86755933 -691.72241211 626.13012695 C-689.0018369 618.03293393 -689.0018369 618.03293393 -686.37109375 609.90625 C-683.78345081 601.787588 -680.78231558 593.96367369 -677.4375 586.125 C-673.01167772 575.74909541 -669.06710338 565.23586598 -665.25 554.625 C-664.98186493 553.88171448 -664.71372986 553.13842896 -664.43746948 552.37261963 C-661.45597267 544.09308708 -658.5581765 535.78658906 -655.75390625 527.4453125 C-655.51122009 526.72824127 -655.26853394 526.01117004 -655.01849365 525.27236938 C-653.36575936 520.31337379 -651.97094851 515.31638427 -650.6875 510.25 C-650.36193115 508.97491577 -650.36193115 508.97491577 -650.02978516 507.67407227 C-649.75593994 506.59984009 -649.75593994 506.59984009 -649.4765625 505.50390625 C-647.68794599 498.67824884 -645.61188344 491.93834206 -643.5625 485.1875 C-639.27959867 471.05392561 -635.23883097 456.87316822 -631.6171875 442.5546875 C-628.90645706 431.8809527 -625.90528024 421.36956321 -622.5625 410.875 C-615.82772016 389.60705117 -610.85969591 367.96057476 -607 346 C-606.7671177 344.68453655 -606.53403071 343.36910933 -606.30078125 342.05371094 C-605.25958802 336.17906854 -604.21880713 330.30437392 -603.19311523 324.42700195 C-602.95043039 323.03856158 -602.70767372 321.65013375 -602.46484375 320.26171875 C-602.34525803 319.57669785 -602.2256723 318.89167694 -602.10246277 318.18589783 C-601.37761384 314.06096461 -600.61055445 309.946284 -599.81587219 305.83427429 C-598.31560976 298.04364888 -597.18941273 290.25291081 -596.25 282.375 C-595.61582523 277.39480818 -594.96781117 272.41647555 -594.31713867 267.43841553 C-594.09998573 265.76877016 -593.88474704 264.09887502 -593.67114258 262.42877197 C-590.79268338 239.94042319 -587.28743201 217.94082016 -581 196.125 C-580.75491699 195.26748138 -580.50983398 194.40996277 -580.25732422 193.52645874 C-575.53097801 177.18598611 -569.30384363 162.39344492 -560.375 147.875 C-559.73304688 146.80507813 -559.09109375 145.73515625 -558.4296875 144.6328125 C-554.00507258 137.34307809 -549.78824397 131.17029604 -543.0625 125.8125 C-542.10214844 125.04164063 -541.14179687 124.27078125 -540.15234375 123.4765625 C-537.98930512 121.76879265 -535.81211253 120.08032418 -533.62890625 118.3984375 C-527.11652719 113.36851406 -520.89257199 108.19711894 -514.89941406 102.5559082 C-510.41471583 98.34249478 -505.78108725 94.33283943 -501.08325195 90.35961914 C-497.51819021 87.3348832 -494.08331084 84.2160024 -490.6875 81 C-486.28036524 76.97412763 -481.66268583 73.40310098 -476.8125 69.9375 C-476.17852295 69.47923828 -475.5445459 69.02097656 -474.89135742 68.54882812 C-460.75784957 58.66453116 -444.89853806 51.28056805 -429.5 43.625 C-428.48054291 43.11732086 -427.46108582 42.60964172 -426.41073608 42.08657837 C-384.6186026 21.28910215 -343.59647711 6.73442542 -298 -3.3125 C-296.82312622 -3.57343445 -295.64625244 -3.8343689 -294.43371582 -4.10321045 C-279.6786009 -7.36021555 -264.99549906 -10.13927444 -250 -12 C-248.69092682 -12.17008072 -248.69092682 -12.17008072 -247.35540771 -12.34359741 C-166.00568829 -22.91285834 -79.76886711 -19.48470303 0 0 Z " fill="#656565" transform="translate(1143,238)"/>
<path d="M0 0 C5.77727721 4.07223551 10.94962786 8.63239145 16.140625 13.421875 C19.76138411 16.68649387 23.53428563 19.73324802 27.328125 22.79296875 C29.8985905 24.91623338 32.35919363 27.11811849 34.8125 29.375 C39.18123797 33.35158354 43.73451441 37.00556203 48.39672852 40.62573242 C53.06502107 44.2524385 57.66835349 47.95202801 62.25 51.6875 C62.93271973 52.24260254 63.61543945 52.79770508 64.31884766 53.36962891 C67.11179642 55.64131773 69.90016649 57.91724327 72.671875 60.21484375 C92.37542643 76.38101262 115.61032055 90.31951684 138.77636719 100.97314453 C140.42296681 101.73353078 142.06333634 102.50744025 143.70019531 103.28857422 C161.64260664 111.8327189 179.90930828 118.31285078 198.81201172 124.3359375 C203.43685333 125.81290269 208.04805941 127.32925299 212.65785217 128.85244751 C284.9796033 152.73168497 370.59076734 169.19687586 446.18457031 152.31616211 C454.50872425 150.46441439 462.79501211 149.04398654 471.25 147.9375 C472.42949219 147.78297363 473.60898438 147.62844727 474.82421875 147.46923828 C477.26474468 147.15069442 479.70533852 146.83267043 482.14599609 146.51513672 C489.12872957 145.58180544 496.09640692 144.54957268 503.0625 143.5 C503.76980255 143.39373291 504.4771051 143.28746582 505.20584106 143.17797852 C514.03056983 141.84521621 522.77753478 140.31212494 531.50537109 138.44042969 C538.52174952 136.98597333 545.57874771 136.1241882 552.6875 135.25 C569.57830938 133.13946898 586.19740336 129.81838455 602.87081909 126.42832947 C607.77496799 125.43443155 612.68345395 124.49691161 617.609375 123.6171875 C619.27649536 123.31155884 619.27649536 123.31155884 620.97729492 122.99975586 C622.9122993 122.64711559 624.84974423 122.30736126 626.7902832 121.98657227 C633.89181969 120.65706087 640.18210222 117.88297687 646.71899414 114.91918945 C666.2949247 106.05623143 686.77365139 97.68374401 708 94 C708.63097595 93.88952332 709.2619519 93.77904663 709.91204834 93.66522217 C716.64622827 92.486854 723.38142601 91.31507921 730.13110352 90.22851562 C739.53536645 88.70111498 748.76312846 86.75396422 758.01531982 84.4838562 C761.05052624 83.74388638 764.09349579 83.03819467 767.13671875 82.33203125 C768.22791016 82.07873047 769.31910156 81.82542969 770.44335938 81.56445312 C771.51392578 81.31630859 772.58449219 81.06816406 773.6875 80.8125 C774.80060547 80.55275391 775.91371094 80.29300781 777.06054688 80.02539062 C778.13755859 79.77595703 779.21457031 79.52652344 780.32421875 79.26953125 C781.27385498 79.04885986 782.22349121 78.82818848 783.2019043 78.60083008 C788.44970352 77.47397955 793.37730025 76.86262051 798.75 76.875 C799.87921875 76.87242188 801.0084375 76.86984375 802.171875 76.8671875 C805 77 805 77 807 78 C805.64783586 88.37436276 802.29842713 98.11902405 799 108 C798.77860352 108.67208496 798.55720703 109.34416992 798.32910156 110.03662109 C795.89914957 117.36953478 793.19738646 124.56547604 790.26953125 131.71484375 C789.24171868 134.2263722 788.21431358 136.73806335 787.1875 139.25 C786.92640442 139.88708893 786.66530884 140.52417786 786.39630127 141.18057251 C782.46282842 150.82062632 779.18473375 160.5137352 776.25 170.5 C769.87364323 192.12635677 769.87364323 192.12635677 762 200 C763.98 200.66 765.96 201.32 768 202 C766 203 766 203 763 202.5 C758.85421456 202.4045949 756.86083482 204.49133572 753.875 207.1875 C752.23453453 208.7758478 750.60775508 210.37855025 749 212 C747.6078125 213.3303125 747.6078125 213.3303125 746.1875 214.6875 C744.08512549 216.82385176 744.08512549 216.82385176 742.76953125 218.6328125 C741.5 220.3125 741.5 220.3125 739 223 C738.2272876 222.99097656 737.4545752 222.98195313 736.65844727 222.97265625 C733.20505856 223.00817646 731.77449527 224.15805767 728.96484375 226.125 C723.06912978 230.04432662 716.99678792 233.06853749 710.5625 236 C709.36874756 236.54688477 708.17499512 237.09376953 706.94506836 237.65722656 C682.91099116 248.59860396 658.87208428 258.62770183 633.47265625 265.96728516 C629.98968027 267.00306893 626.54250379 268.11749239 623.09375 269.26171875 C609.71268786 273.67189693 596.3336532 277.26512006 582.5625 280.1875 C581.86464386 280.33808868 581.16678772 280.48867737 580.44778442 280.64382935 C575.69479619 281.65923951 570.9268105 282.55949146 566.14334106 283.41928101 C563.90843853 283.83216982 561.67733867 284.2658782 559.44918823 284.71377563 C529.11950522 290.75770241 498.59077503 291.4179845 467.77758318 292.15714997 C459.99240837 292.3447481 452.20815873 292.56373821 444.42382812 292.78320312 C441.65023956 292.86125524 438.87664517 292.93909431 436.1030426 293.01664734 C435.42867521 293.03550828 434.75430781 293.05436921 434.05950505 293.0738017 C429.52741723 293.19969763 424.99516501 293.31716043 420.4627533 293.43074036 C409.91390303 293.69805937 399.37528278 293.9930428 388.83666992 294.53710938 C379.73806252 295.00482445 370.66423874 295.16342123 361.5546875 295.16796875 C359.96460952 295.17120665 358.3745318 295.17457227 356.78445435 295.17805481 C353.47885452 295.18396739 350.1732805 295.18590327 346.86767578 295.18530273 C343.56423392 295.18522209 340.26093258 295.19208058 336.95751953 295.20581055 C307.41012997 295.32632191 277.51632377 295.3267985 248.3125 290.3125 C247.1371167 290.11834 247.1371167 290.11834 245.93798828 289.92025757 C223.7324556 286.23557571 203.14465944 279.15327241 182.10952759 271.27975464 C174.21515859 268.32692107 166.29933563 265.43384977 158.375 262.5625 C157.62727325 262.29142426 156.87954651 262.02034851 156.10916138 261.74105835 C144.52491587 257.54991344 132.88152381 253.56096557 121.1875 249.6875 C120.43257263 249.43707947 119.67764526 249.18665894 118.89984131 248.9286499 C112.73228372 246.88312578 106.5638227 244.840393 100.38916016 242.81640625 C89.2353341 239.14903738 78.78210899 235.64604446 69 229 C67.47592922 227.97946924 65.95111796 226.96004392 64.42578125 225.94140625 C61.77685177 224.17167016 59.13039326 222.39885817 56.49194336 220.61352539 C50.74225751 216.74425916 44.89895255 213.10735185 38.93237305 209.58276367 C30.54007785 204.6220942 23.14808544 199.86049231 16.2109375 192.984375 C8.86710704 185.89073515 0.17035052 180.09399078 -8 174 C-9.22274966 173.08606246 -10.44541951 172.17201813 -11.66796875 171.2578125 C-12.66441406 170.51273438 -13.66085937 169.76765625 -14.6875 169 C-16.46023022 167.66918971 -18.23118987 166.33601616 -20 165 C-21.33417969 163.99259766 -21.33417969 163.99259766 -22.6953125 162.96484375 C-38.29154263 150.88358489 -38.29154263 150.88358489 -40 142 C-40.6140772 131.88063359 -39.56301213 122.48513278 -37.5 112.5625 C-37.2301493 111.22732658 -36.96045934 109.89212067 -36.69091797 108.55688477 C-30.7597795 79.58188876 -22.58119299 52.37069728 -10.87597656 25.16064453 C-7.93044231 18.2998571 -5.22884362 11.4373798 -2.90234375 4.34375 C-2 2 -2 2 0 0 Z " fill="#707070" transform="translate(1458,1047)"/>
<path d="M0 0 C3.23007596 1.35618172 6.14975774 3.16060691 9.1171875 5.00390625 C10.45494824 5.82159149 11.79351008 6.63796735 13.1328125 7.453125 C13.81279297 7.86739746 14.49277344 8.28166992 15.19335938 8.70849609 C19.4878348 11.29275502 23.85800176 13.74476957 28.21875 16.21484375 C30.01050352 17.2380415 31.79330791 18.27765254 33.5546875 19.35229492 C36.4110452 21.04125134 39.31499236 22.57555851 42.265625 24.09375 C43.126754 24.53798561 43.126754 24.53798561 44.00527954 24.99119568 C45.87506797 25.95542151 47.74603578 26.91732895 49.6171875 27.87890625 C52.25045038 29.23350161 54.88324173 30.58900859 57.515625 31.9453125 C58.5031778 32.45396851 58.5031778 32.45396851 59.51068115 32.97290039 C63.53254381 35.04810521 67.53789541 37.15150395 71.53125 39.28125 C89.55632866 48.8855102 107.72129947 56.5295241 127.07089233 63.01290894 C142.23271833 68.10830044 156.72958714 74.41952726 171.17578125 81.28125 C213.68225547 101.29687949 262.45178158 113.14866163 308.30004883 122.84033203 C313.05348492 123.84705496 313.05348492 123.84705496 315.2421875 124.94140625 C315.644375 123.27078125 315.644375 123.27078125 316.0546875 121.56640625 C317.2421875 117.94140625 317.2421875 117.94140625 320.2421875 115.94140625 C323.53143039 116.07845804 325.52348987 116.36644814 328.1171875 118.44140625 C331.65739739 126.30853934 328.5735109 138.03352055 327.7421875 146.50390625 C327.52572491 148.71477866 327.31064234 150.92573582 327.10021973 153.13719177 C326.90957971 155.14071396 326.71374003 157.14373943 326.51757812 159.14672852 C326.23029771 163.10523865 326.19596306 166.97463402 326.2421875 170.94140625 C326.87608398 170.85576416 327.50998047 170.77012207 328.16308594 170.68188477 C331.10571299 170.28613189 334.04893846 169.89500547 336.9921875 169.50390625 C337.98863281 169.36919922 338.98507812 169.23449219 340.01171875 169.09570312 C341.01074219 168.96357422 342.00976562 168.83144531 343.0390625 168.6953125 C344.39016113 168.51464233 344.39016113 168.51464233 345.76855469 168.33032227 C355.08133627 167.28764156 364.33115757 166.77876882 373.69921875 166.66015625 C374.8452507 166.64174683 375.99128265 166.6233374 377.17204285 166.60437012 C380.79954443 166.54623752 384.42709012 166.49319104 388.0546875 166.44140625 C407.44609909 166.19855888 407.44609909 166.19855888 426.80395508 165.14648438 C432.85268414 164.78569957 438.89989433 164.87145861 444.95684814 164.92419434 C471.01621447 165.12597751 496.43564536 163.5395794 522.2421875 159.94140625 C523.22880371 159.80395996 524.21541992 159.66651367 525.23193359 159.52490234 C535.04341758 158.10050871 544.69549303 156.09558246 554.33984375 153.81640625 C557.9103436 152.9782395 561.48202809 152.14531921 565.0546875 151.31640625 C565.97990204 151.10139465 566.90511658 150.88638306 567.85836792 150.66485596 C588.68508605 145.87958742 609.72896851 142.75509426 630.87897396 139.8059063 C662.99712184 137.38491177 662.99712184 137.38491177 691.2421875 124.94140625 C691.63577145 117.67249124 691.63577145 117.67249124 688.87109375 111.29296875 C687.07708797 110.0894726 687.07708797 110.0894726 684.2421875 108.94140625 C683.2421875 107.94140625 683.2421875 107.94140625 682.9296875 105.12890625 C683.2421875 101.94140625 683.2421875 101.94140625 685.2421875 100.06640625 C687.68429573 97.94976261 687.68429573 97.94976261 687.3046875 94.00390625 C687.27117188 93.31296875 687.23765625 92.62203125 687.203125 91.91015625 C687.26362013 88.86120151 688.25808498 87.19917808 690.2421875 84.94140625 C692.6171875 83.94140625 692.6171875 83.94140625 695.2421875 83.94140625 C697.9921875 85.06640625 697.9921875 85.06640625 700.2421875 86.94140625 C700.8828125 89.55859375 700.8828125 89.55859375 701.2421875 91.94140625 C704.95094502 90.17146033 708.6591173 88.40029159 712.3671875 86.62890625 C713.41390625 86.12939453 714.460625 85.62988281 715.5390625 85.11523438 C716.55742188 84.62861328 717.57578125 84.14199219 718.625 83.640625 C719.60629883 83.17188965 720.58759766 82.7031543 721.59863281 82.22021484 C723.70194601 81.20274582 725.78419184 80.15885135 727.859375 79.0859375 C730.2421875 77.94140625 730.2421875 77.94140625 732.2421875 77.94140625 C731.9946875 77.21953125 731.7471875 76.49765625 731.4921875 75.75390625 C731.2421875 72.94140625 731.2421875 72.94140625 732.62890625 70.375 C736.37645526 66.88512999 739.84423887 66.81409526 744.8046875 66.19140625 C764.10885553 63.21865549 784.3550866 56.99095849 800.84375 46.24609375 C803.2421875 44.94140625 803.2421875 44.94140625 807.2421875 44.94140625 C806.9837122 56.29082181 804.11672869 67.02181158 801.2421875 77.94140625 C800.98663086 78.91787109 800.73107422 79.89433594 800.46777344 80.90039062 C792.41510711 111.19422494 779.47785928 138.55686468 759.2109375 162.5703125 C757.50859574 164.62055347 755.9615009 166.70141569 754.4296875 168.87890625 C747.73518873 177.86604158 739.26778292 185.11839117 730.39794922 191.85766602 C725.41046462 195.68988492 721.07449164 199.92902779 716.703125 204.44140625 C713.94458869 207.24372885 711.04757682 209.79919961 708.046875 212.3359375 C706.2633621 213.9225691 704.71613954 215.60892203 703.1171875 217.37890625 C694.77121574 225.70645423 682.6914192 230.26747013 672.1796875 235.19140625 C671.10420654 235.69889404 670.02872559 236.20638184 668.9206543 236.72924805 C657.13860682 242.14721761 644.94511951 245.41791423 632.3671875 248.44140625 C631.10342285 248.74691406 629.8396582 249.05242188 628.53759766 249.3671875 C620.92987503 251.17010172 613.33587008 252.70584331 605.6171875 253.94140625 C595.987201 255.48427597 586.65741595 257.77754714 577.24023438 260.30029297 C569.2620286 262.43690322 561.26678753 264.37364359 553.18530273 266.07983398 C548.63858193 267.0675335 544.21336326 268.24474255 539.77119446 269.63389587 C527.52645315 273.42769558 515.0228119 275.68782635 502.4296875 278.00390625 C500.05818664 278.44588104 497.68668599 278.88785695 495.31518555 279.32983398 C479.35634636 282.28303665 463.37799388 285.12745171 447.2421875 286.94140625 C446.53905552 287.02154968 445.83592354 287.10169312 445.11148453 287.18426514 C439.2826957 287.81286117 433.52993123 288.10874491 427.66967773 288.15014648 C426.76847198 288.15993027 425.86726624 288.16971405 424.93875122 288.17979431 C415.44038931 288.27507113 405.94137427 288.31262781 396.44262695 288.34643555 C391.98919573 288.36399589 387.53642832 288.39840419 383.08325195 288.44897461 C353.88090453 288.77257921 325.98081219 287.22030962 297.2421875 281.94140625 C295.75938321 281.6744557 294.27648325 281.40803603 292.79348755 281.14215088 C263.73366055 275.90322909 236.15108945 267.84175772 209.5925293 254.72900391 C186.12238328 243.14332065 159.81234739 238.15873038 134.49560547 232.18847656 C130.08116301 231.14557951 125.67842124 230.06267031 121.27734375 228.96484375 C106.39150499 225.3320023 91.5292957 222.88034602 76.3744812 220.68237305 C58.04632922 218.0218962 40.05952923 214.88548099 22.1171875 210.25390625 C21.22076538 210.0257019 20.32434326 209.79749756 19.40075684 209.56237793 C10.896845 207.37635635 2.72824699 205.26238878 -4.94091797 200.84838867 C-6.86672108 199.71808804 -6.86672108 199.71808804 -9.7578125 199.94140625 C-9.6753125 198.84828125 -9.5928125 197.75515625 -9.5078125 196.62890625 C-9.40111662 193.03936187 -9.40111662 193.03936187 -11.1953125 191.12890625 C-13.70261719 189.96698456 -15.6153508 189.61873733 -18.3203125 189.19140625 C-20.71875 188.6953125 -20.71875 188.6953125 -22.7578125 187.94140625 C-24.4453125 185.12890625 -24.4453125 185.12890625 -25.015625 183.265625 C-26.00199538 180.17672828 -27.41528366 177.36238725 -28.8203125 174.44140625 C-36.48130742 158.37865863 -34.64714137 142.5262821 -30.08233643 125.83731079 C-28.98770174 121.82768817 -27.97156201 117.79807973 -26.94921875 113.76953125 C-26.75011902 112.99136551 -26.55101929 112.21319977 -26.34588623 111.41145325 C-24.51432613 104.17038476 -23.28145662 96.93471404 -22.35229492 89.52783203 C-20.38473678 74.05559152 -17.18402112 58.80120651 -13.99658203 43.54370117 C-13.2541967 39.98658122 -12.51934157 36.42796106 -11.78515625 32.86914062 C-11.3077383 30.57152173 -10.82988895 28.27399243 -10.3515625 25.9765625 C-10.13584595 24.93049332 -9.92012939 23.88442413 -9.69787598 22.80665588 C-8.6488378 17.80797694 -7.53312994 12.82924442 -6.28320312 7.87670898 C-6.06297485 6.99917465 -5.84274658 6.12164032 -5.61584473 5.21751404 C-4.54169207 2.36810216 -3.30464164 -0.11015472 0 0 Z " fill="#BEBEBE" transform="translate(1194.7578125,1983.05859375)"/>
<path d="M0 0 C1.6574675 0.00090637 1.6574675 0.00090637 3.34841919 0.00183105 C90.7941885 0.13107795 180.80975746 15.81617429 285.58935547 73.84277344 C288.30249239 75.81687623 291.05561786 77.73242979 293.80639648 79.65356445 C305.54107844 87.85935262 317.10471665 96.22639951 327.4375 106.1875 C328.41976562 107.13109375 328.41976562 107.13109375 329.421875 108.09375 C329.98390625 108.6815625 330.5459375 109.269375 331.125 109.875 C331.60324219 110.37386719 332.08148437 110.87273437 332.57421875 111.38671875 C333.98080026 114.3208096 333.28864754 116.05712892 332.4375 119.1875 C331.04126502 122.67678535 329.44980791 126.05560302 327.8125 129.4375 C327.35883057 130.37827393 326.90516113 131.31904785 326.43774414 132.28833008 C323.29216517 138.6958672 320.02659584 144.68469157 315.4375 150.1875 C314.80972656 150.9403125 314.18195313 151.693125 313.53515625 152.46875 C306.59426107 160.43074522 298.95061583 167.77099199 291.4375 175.1875 C278.99566422 171.48956052 268.54773937 161.55068661 258.41503906 153.71240234 C254.78104502 150.91018916 251.11159882 148.15695156 247.4296875 145.41796875 C245.29852703 143.82933608 243.1811127 142.22837228 241.0703125 140.61328125 C231.00260797 132.98140037 220.39901182 126.45436232 209.4375 120.1875 C208.70772949 119.76694336 207.97795898 119.34638672 207.22607422 118.91308594 C165.97748245 95.35613095 119.28967885 89.36136594 72.69592285 88.18133545 C68.35313388 88.06992308 64.01060335 87.94895462 59.66804028 87.82911491 C56.09436777 87.7306073 52.52067256 87.6336166 48.94685364 87.54055786 C42.143705 87.36129745 35.34387036 87.15453068 28.54370117 86.88037109 C14.83917261 86.32909518 1.31700279 86.10341652 -12.375 86.9375 C-14.04385418 87.02931152 -15.71271832 87.12094231 -17.3815918 87.21240234 C-27.55814572 87.79815933 -37.61612536 88.80012729 -47.71435547 90.20849609 C-72.49351556 93.58159881 -72.49351556 93.58159881 -82.5625 88.1875 C-84.94628498 83.16369257 -84.91011941 78.1970713 -84.875 72.75 C-84.87008545 71.83621582 -84.8651709 70.92243164 -84.86010742 69.98095703 C-84.6236134 55.69671796 -82.68540086 41.58274045 -79.125 27.75 C-78.93204346 26.99960449 -78.73908691 26.24920898 -78.5402832 25.47607422 C-76.73568297 18.96833118 -74.24548823 11.22541269 -68.5625 7.1875 C-61.79358507 4.65189186 -54.89267544 3.455969 -47.75 2.5625 C-46.40711914 2.38074219 -46.40711914 2.38074219 -45.03710938 2.1953125 C-30.01858361 0.22847354 -15.12396763 -0.01523442 0 0 Z " fill="#FDFDFD" transform="translate(945.5625,335.8125)"/>
<path d="M0 0 C1.54084152 2.66917428 2.79357901 5.18269319 4 8 C4.33966797 8.78117187 4.67933594 9.56234375 5.02929688 10.3671875 C6.11793561 12.90531729 7.18374674 15.45239443 8.25 18 C9.81862712 21.67312064 11.40380878 25.33877813 13 29 C13.53512207 30.22831543 13.53512207 30.22831543 14.08105469 31.48144531 C15.0682616 33.70987184 16.08896956 35.91892522 17.125 38.125 C17.4127832 38.78113281 17.70056641 39.43726562 17.99707031 40.11328125 C19.69599968 43.62727407 21.22388155 45.40668025 24.7421875 46.9296875 C25.81726562 47.28289063 26.89234375 47.63609375 28 48 C28.36566084 50.99711299 28.69155884 53.99649101 29 57 C29.103125 57.928125 29.20625 58.85625 29.3125 59.8125 C29 62 29 62 27 63.9375 C24.75908585 65.89474178 24.75908585 65.89474178 24.3125 68.9375 C24.63955255 72.00581145 24.63955255 72.00581145 26.5390625 73.07421875 C27.16554688 73.42097656 27.79203125 73.76773438 28.4375 74.125 C31.23477426 75.8533971 31.89946854 76.65098513 32.828125 79.875 C33.48516679 85.81694313 33.48516679 85.81694313 33 89 C20.07980395 102.73160933 -15.98311848 103.15270716 -33.23464966 105.53796387 C-55.06856187 108.57956022 -76.55449135 112.34863321 -98.0625 117.25 C-113.40495265 120.74588936 -128.64950044 124.06759764 -144.25 126.1875 C-144.94811798 126.28236694 -145.64623596 126.37723389 -146.36550903 126.47497559 C-157.71217193 127.98838828 -169.06380628 129.07187472 -180.5 129.5625 C-181.49829834 129.60568359 -182.49659668 129.64886719 -183.52514648 129.69335938 C-194.49927834 130.10856563 -205.47338065 130.05823953 -216.453125 129.96313477 C-222.97289343 129.91760948 -229.41610028 129.97268161 -235.921875 130.4765625 C-242.71477241 130.98707097 -249.482041 131.1319096 -256.29296875 131.2109375 C-257.96075378 131.23072662 -257.96075378 131.23072662 -259.66223145 131.25091553 C-261.98021191 131.27792807 -264.29819497 131.30471804 -266.61618042 131.33129883 C-287.3121763 131.58454955 -307.71677174 132.06751518 -328.19189453 135.3515625 C-329.78946255 135.60285629 -331.3942568 135.80774775 -333 136 C-333.33 135.67 -333.66 135.34 -334 135 C-333.96031025 131.88282773 -333.85161955 128.7989218 -333.6875 125.6875 C-333.64117432 124.75067383 -333.59484863 123.81384766 -333.54711914 122.84863281 C-333.15181443 115.48523459 -332.50120492 108.16413371 -331.66088867 100.83862305 C-330.14419292 90.99336486 -330.14419292 90.99336486 -333 82 C-335.05003955 80.80767387 -335.05003955 80.80767387 -337 80 C-337.4271682 72.73814054 -336.14511721 65.94703096 -334 59 C-332 57 -332 57 -329.9699707 56.83300781 C-329.13038818 56.87264648 -328.29080566 56.91228516 -327.42578125 56.953125 C-325.9857373 57.01512085 -325.9857373 57.01512085 -324.51660156 57.07836914 C-323.45924805 57.13500732 -322.40189453 57.19164551 -321.3125 57.25 C-320.19456055 57.3008374 -319.07662109 57.3516748 -317.92480469 57.40405273 C-311.95154808 57.69070654 -305.98987598 58.0619046 -300.02734375 58.51953125 C-285.22641556 59.64093582 -270.49845614 60.2311759 -255.65368652 60.29855347 C-253.70858857 60.30769901 -251.76350594 60.32163065 -249.81848145 60.34085083 C-230.57703157 60.50950715 -213.38313573 57.49506952 -195 52 C-193.34802203 51.51488507 -191.69591973 51.03019334 -190.04370117 50.54589844 C-178.35286757 47.09735996 -166.76254371 43.36765776 -155.18826294 39.54919434 C-143.68652759 35.76214104 -132.11688465 32.53654798 -120.36328125 29.609375 C-114.07644049 28.04221494 -107.85268468 26.28560475 -101.625 24.5 C-92.86007459 22.0019548 -84.05879903 19.77465021 -75.1875 17.6875 C-63.85473015 15.01834156 -52.64444912 12.02434872 -41.4375 8.875 C-20.39120918 2.97217204 -20.39120918 2.97217204 -12 0.8125 C-11.21810303 0.60415527 -10.43620605 0.39581055 -9.63061523 0.18115234 C-6.07680526 -0.71391748 -3.45224941 -1.368248 0 0 Z " fill="#FEFEFE" transform="translate(1854,2019)"/>
<path d="M0 0 C0.66 0.33 1.32 0.66 2 1 C-2.62 5.62 -7.24 10.24 -12 15 C-12 10.92412524 -10.74008328 10.01409161 -8 7 C-5.38714613 4.60155971 -2.71262052 2.28465854 0 0 Z " fill="#525252" transform="translate(603,361)"/>
<path d="M0 0 C2.6486859 3.19668988 4.93992341 6.39486597 7 10 C6.01 10 5.02 10 4 10 C2.578125 8.57421875 2.578125 8.57421875 1.25 6.6875 C0.80140625 6.07261719 0.3528125 5.45773437 -0.109375 4.82421875 C-1 3 -1 3 0 0 Z " fill="#585858" transform="translate(929,2027)"/>
</svg>
