<?xml version="1.0" encoding="UTF-8"?>
<svg version="1.1" xmlns="http://www.w3.org/2000/svg" width="2598" height="2598">
<path d="M0 0 C5.46666454 0.00257277 10.9333276 0.00017246 16.39999223 -0.00138617 C25.57729738 -0.00319452 34.75459444 -0.00083767 43.93189836 0.00395441 C54.45415236 0.00938627 64.97638695 0.00763675 75.49864048 0.00212801 C84.6197453 -0.00245125 93.74084437 -0.00303018 102.86194998 -0.00043333 C108.27116092 0.00110432 113.68036283 0.00139416 119.08957314 -0.00196981 C151.10014403 -0.01913253 182.98506938 0.35314975 214.92188859 2.7593255 C216.04165086 2.84224848 217.16141313 2.92517145 218.31510758 3.01060724 C245.99245396 5.08673962 273.5260207 8.35056915 301.07508683 11.68461847 C310.65341605 12.84197243 320.23397442 13.98062829 329.81486344 15.11656427 C332.99719364 15.49595003 336.17869552 15.88171412 339.36012101 16.26860285 C341.31428462 16.50265105 343.26846656 16.7365463 345.22266984 16.970263 C346.06181931 17.0741131 346.90096879 17.1779632 347.76554704 17.28496027 C362.77756836 19.06230682 377.88073093 19.38426368 392.9790175 19.68632746 C393.98667956 19.70724219 394.99434162 19.72815692 396.03253889 19.74970543 C420.12529076 20.24129465 444.21659128 20.29886564 468.31356597 20.30158257 C471.94786655 20.30230722 475.58216364 20.30446681 479.21646333 20.30707979 C491.98253191 20.31623235 504.74859027 20.32042624 517.51466203 20.31962824 C529.28416853 20.31902523 541.05362954 20.32964691 552.82312453 20.3453719 C563.05974954 20.3585463 573.2963598 20.36380826 583.5329932 20.36317283 C589.59030853 20.3629214 595.64758291 20.36557332 601.70488954 20.37635088 C626.33798061 20.41717816 650.79919458 20.1595895 675.37076592 18.37321711 C697.80527278 16.80893707 720.3013792 16.93870493 742.77735734 16.89604425 C744.61882691 16.8919834 746.46029636 16.88786616 748.30176568 16.88369417 C756.93009501 16.86478383 765.55841635 16.85050236 774.18676227 16.8420822 C784.09752956 16.83224265 794.00807754 16.80569145 803.91876739 16.76558131 C811.62970665 16.7354529 819.34058256 16.72061807 827.05157954 16.71730119 C831.639062 16.71495517 836.2263061 16.70604588 840.81372476 16.68084002 C845.10931135 16.65759934 849.40450138 16.65330962 853.70013452 16.6636014 C855.27311738 16.66409716 856.84611971 16.65776485 858.41904283 16.64404535 C860.56839098 16.62634504 862.71631056 16.63342015 864.86565995 16.64657831 C866.0665485 16.64418996 867.26743705 16.64180161 868.50471616 16.63934088 C872.48574074 17.23789579 874.66003506 18.66013363 877.79688859 21.1343255 C879.80728019 24.04368761 880.12574655 26.67311384 880.39454484 30.16166925 C880.47382218 31.11879816 880.55309953 32.07592707 880.63477921 33.06205988 C880.70890031 34.05528254 880.7830214 35.04850519 880.85938859 36.0718255 C881.01449265 38.03946792 881.17196648 40.00692527 881.33204484 41.97416925 C881.39786759 42.84420588 881.46369035 43.7142425 881.53150773 44.61064386 C881.74621694 47.11114321 881.74621694 47.11114321 882.30637956 49.42955256 C882.83157236 52.32557929 882.9169383 54.99190398 882.91041398 57.93437433 C882.91030068 59.64558214 882.91030068 59.64558214 882.9101851 61.39135981 C882.90502381 62.6123588 882.89986253 63.83335779 882.89454484 65.09135675 C882.89312989 66.34945658 882.89171494 67.6075564 882.89025712 68.90378046 C882.88561432 72.2361108 882.87664087 75.56837182 882.86555314 78.90068293 C882.85529362 82.30603168 882.8507498 85.7113876 882.84571671 89.11674738 C882.83469689 95.78929249 882.81796559 102.461805 882.79688859 109.1343255 C901.57814713 112.50336286 919.67788593 113.67700415 938.73438859 113.4468255 C941.16862557 113.43527496 943.60287166 113.42550765 946.03712296 113.41752863 C956.48563673 113.3597468 966.91012987 113.17695709 977.3506062 112.76835871 C992.99142355 112.16222379 1008.60633298 111.97097333 1024.25782609 111.96635675 C1026.23510096 111.96394732 1028.21237584 111.96153473 1030.18965042 111.95889634 C1036.38913671 111.95085845 1042.5886086 111.94830177 1048.78809953 111.94902277 C1054.3450953 111.94955264 1059.90202019 111.94254282 1065.45899796 111.92851496 C1092.67687261 111.86154776 1119.88507897 111.86176224 1147.08595109 112.95854425 C1148.03200589 112.99322117 1148.97806069 113.02789808 1149.95278382 113.06362581 C1165.10907742 113.64055552 1181.11812411 114.65630183 1192.17188859 126.3843255 C1205.16539966 142.40443755 1205.08836252 167.48855953 1207.04688859 187.1343255 C1207.17796006 188.43226038 1207.30903153 189.73019526 1207.44407487 191.06746149 C1209.30570341 209.72908187 1210.37429959 228.30526121 1210.35938859 247.0718255 C1210.36192643 248.09735529 1210.36446427 249.12288507 1210.36707902 250.17949152 C1210.36183936 268.69345631 1207.74380867 286.35418891 1204.37350297 304.51561213 C1202.19028943 316.29352699 1200.2842467 328.11444677 1198.42188859 339.9468255 C1198.22679704 341.18124384 1198.03170548 342.41566217 1197.83070207 343.68748713 C1194.44285129 365.29167834 1191.89212195 386.92130693 1189.91261125 408.69999933 C1188.53678244 423.46357177 1186.15573978 437.69540916 1182.79688859 452.1343255 C1182.57384049 453.10559381 1182.3507924 454.07686213 1182.12098527 455.07756281 C1180.77861152 460.91130648 1179.39909784 466.73540097 1177.9946425 472.55449152 C1177.29285658 475.463539 1176.59722616 478.37400948 1175.90235734 481.28471613 C1167.94777376 514.49043516 1167.94777376 514.49043516 1163.48438859 527.7593255 C1163.19443009 528.62340021 1162.9044716 529.48747492 1162.60572648 530.37773371 C1158.06916306 543.51458887 1152.04145935 556.09651583 1144.12891984 567.548388 C1140.55823886 573.16309302 1139.47155148 577.66511603 1139.42188859 584.2593255 C1139.20122477 601.93716092 1131.75168403 619.15151842 1122.79688859 634.1343255 C1121.93833193 635.73614692 1121.08358107 637.34002013 1120.23438859 638.9468255 C1118.05806311 642.82139841 1115.57881356 646.41530901 1112.99610734 650.02885675 C1110.1485394 654.04984524 1107.3825252 658.12430186 1104.60938859 662.1968255 C1098.91680356 670.53733376 1093.12554307 678.8028375 1087.28077531 687.03715754 C1085.78063717 689.15729353 1084.2895008 691.28349312 1082.80079484 693.41166925 C1071.19792418 709.98073447 1058.99135966 725.88041251 1045.88697648 741.29252863 C1042.93674158 744.76691693 1040.04009561 748.27904018 1037.17188859 751.8218255 C1033.61862698 756.18726119 1029.93039764 760.39824568 1026.13282609 764.55229425 C1024.82586153 765.99694906 1023.52744983 767.44989253 1022.26246476 768.93144464 C1017.90873293 774.01793979 1013.26496625 778.64448476 1008.35938859 783.1968255 C1007.29107804 784.19939386 1007.29107804 784.19939386 1006.20118546 785.22221613 C998.85555649 792.08747699 991.34791873 798.59081834 983.35938859 804.6968255 C977.94759823 808.85371606 972.63191107 813.08192614 967.4333632 817.50273371 C935.97191102 844.14960227 898.61455614 854.32304755 859.34522843 863.9834466 C846.30749053 867.2011488 833.50429216 870.79716422 820.76295304 875.02611017 C785.98651498 886.53237189 785.98651498 886.53237189 769.51563859 885.9312005 C768.69271821 885.90677378 767.86979783 885.88234705 767.02194047 885.85718012 C762.88611987 885.72706695 758.78345362 885.51714948 754.66090226 885.16044855 C746.96243631 884.50359536 746.96243631 884.50359536 740.12803483 887.45387506 C737.09766625 890.76607874 734.89449746 894.4734128 732.77702165 898.41212702 C731.34780407 900.92341497 729.57330243 903.10071348 727.73438859 905.3218255 C727.09243546 906.10815363 726.45048234 906.89448175 725.78907609 907.704638 C725.13165421 908.50643488 724.47423234 909.30823175 723.79688859 910.1343255 C722.71794328 911.49170832 722.71794328 911.49170832 721.61720109 912.876513 C715.07567506 921.04776179 708.01680084 928.37298195 700.04298234 935.1499505 C698.36542042 936.63203999 696.74026367 938.17383279 695.14454484 939.7437005 C685.69696755 949.00817915 675.01172828 956.16423575 663.79688859 963.1343255 C662.45509538 963.97664728 662.45509538 963.97664728 661.08619523 964.83598566 C653.25696871 969.59076119 645.09794156 973.25624618 636.70496964 976.87211847 C623.16512289 982.71507498 609.94449996 988.89625216 596.98731828 995.95122004 C593.41132319 997.88270378 589.79821781 999.7369827 586.17188859 1001.5718255 C585.00399796 1002.16866144 583.83610734 1002.76549738 582.63282609 1003.38041925 C573.13161924 1007.89905341 562.96398972 1010.64054857 552.85938859 1013.4468255 C552.16901505 1013.63997339 551.47864152 1013.83312128 550.76734757 1014.03212214 C537.48326185 1017.74603651 524.13101979 1021.14402751 510.72999406 1024.41166925 C508.13390074 1025.05129271 505.54432556 1025.71010119 502.95704484 1026.3843255 C495.8691643 1028.22720705 488.85678338 1029.69916908 481.59766984 1030.70073175 C478.60004094 1031.10843366 478.60004094 1031.10843366 474.98438859 1032.1968255 C468.49683557 1033.98406896 461.48031597 1033.80671112 454.79688859 1034.1343255 C455.0091005 1035.38560236 455.22131242 1036.63687922 455.439955 1037.92607355 C457.60077832 1051.33579315 458.27922083 1064.37957955 458.17188859 1077.9468255 C458.16856523 1078.95213312 458.16524186 1079.95744074 458.16181779 1080.99321222 C458.10738421 1095.0554982 457.43592062 1108.66471365 455.18165421 1122.5615716 C454.49225781 1127.17125388 454.08443308 1131.80549661 453.67188859 1136.4468255 C453.59663957 1137.24604425 453.52139054 1138.045263 453.44386125 1138.8687005 C451.92150362 1155.97384238 451.56239939 1173.09474862 451.54688859 1190.2593255 C451.5448845 1191.35149378 451.54288041 1192.44366205 451.54081559 1193.56892633 C451.53356914 1209.79729163 452.31716915 1225.68646807 454.07423234 1241.81010675 C454.96874396 1250.15999031 455.24174737 1258.50538869 455.32984757 1266.89970636 C455.43940981 1272.34921733 456.00676115 1277.25394824 457.3017714 1282.55351496 C459.60039851 1293.13842337 459.18968658 1303.86285747 459.12501359 1314.63823175 C459.12194753 1316.89253853 459.12007786 1319.14684721 459.11933732 1321.40115595 C459.11476156 1326.10191966 459.10044232 1330.80250946 459.07813859 1335.50322199 C459.0498427 1341.49319705 459.03892142 1347.483036 459.03445649 1353.47307158 C459.02927273 1359.23647536 459.0147632 1364.999846 459.00001359 1370.76323175 C458.99813287 1371.84370846 458.99625215 1372.92418516 458.99431443 1374.03740358 C458.97081526 1384.48396601 458.90388832 1394.86104654 458.03245378 1405.27609491 C457.70618776 1409.23484424 457.57617695 1413.18783495 457.48048234 1417.157763 C457.45970124 1417.91481531 457.43892015 1418.67186762 457.41750932 1419.4518609 C457.35358133 1421.80428285 457.29388196 1424.1567877 457.23438859 1426.5093255 C457.19105308 1428.13172896 457.14743489 1429.75412488 457.10352921 1431.376513 C456.9975515 1435.29568901 456.89693377 1439.21499374 456.79688859 1443.1343255 C457.88394593 1442.9926243 458.97100327 1442.8509231 460.09100175 1442.70492792 C471.13968165 1441.33119279 481.97283095 1440.85048862 493.09766984 1440.90385675 C494.79283448 1440.90505523 496.48799979 1440.90550032 498.18316483 1440.9052453 C501.70671186 1440.90679316 505.23015485 1440.91494654 508.7536757 1440.92851496 C513.20443349 1440.94546462 517.65507868 1440.94922496 522.10586476 1440.94872332 C552.81370275 1440.94936617 552.81370275 1440.94936617 566.28126359 1441.50541925 C567.45589913 1441.54745226 567.45589913 1441.54745226 568.65426469 1441.59033442 C576.25226344 1441.98304405 582.76621713 1444.33947525 589.79688859 1447.1343255 C592.10860642 1447.9075014 594.42110826 1448.67833711 596.73438859 1449.4468255 C602.63786088 1451.56516933 608.13304971 1454.18048367 613.69288468 1457.0537591 C618.33776245 1459.44603317 623.04122069 1461.55536774 627.85938859 1463.5718255 C635.29605338 1466.73480492 642.08535518 1470.64143707 648.91261125 1474.94731379 C650.79785002 1476.13493116 652.69234385 1477.30628156 654.58985734 1478.47416925 C662.21828944 1483.18420648 669.76781688 1488.01735566 677.29688859 1492.8843255 C678.53378434 1493.68048273 678.53378434 1493.68048273 679.79566789 1494.49272394 C698.7944252 1506.83103059 710.11360431 1521.87020886 716.17188859 1544.0718255 C717.33164258 1548.1801066 719.0763515 1551.6341061 721.10938859 1555.3843255 C725.22624157 1563.12353091 727.23489855 1571.29294038 729.38673234 1579.74760675 C730.38544976 1583.66628563 731.53231819 1587.4828438 732.84010148 1591.30766535 C736.03399531 1600.6727091 737.27929415 1610.08280321 738.4970839 1619.86821222 C738.85602656 1622.58132769 739.34483033 1625.25924811 739.85938859 1627.9468255 C742.7609244 1645.23514305 743.07875689 1662.89351756 743.45533586 1680.38286066 C743.47968705 1681.43869349 743.47968705 1681.43869349 743.50453019 1682.51585627 C743.54777005 1684.43010432 743.58573574 1686.34446948 743.62330461 1688.25883722 C743.83153506 1692.90785297 744.29117636 1697.50956896 744.79688859 1702.1343255 C746.08682977 1702.09674128 746.08682977 1702.09674128 747.40283036 1702.05839777 C788.2545814 1700.87852034 829.09758103 1699.92039331 869.9683249 1699.88756037 C872.59665018 1699.88434111 875.22494002 1699.87723935 877.85325456 1699.86918879 C882.00570236 1699.85745028 886.15800324 1699.85704208 890.31045747 1699.86568689 C891.82120651 1699.86765061 893.3319635 1699.86657562 894.84270692 1699.86200953 C921.25660954 1699.79613463 921.25660954 1699.79613463 929.24610734 1706.40385675 C934.96913029 1712.79000075 934.47179831 1719.40385186 934.48438859 1727.5718255 C934.49099 1728.65938135 934.49099 1728.65938135 934.49772477 1729.76890802 C934.51064994 1748.52460166 930.85616249 1766.7047969 927.31060624 1785.05285883 C926.11816242 1791.27411774 925.04847287 1797.50436224 924.09766984 1803.767138 C923.91980187 1804.91930307 923.91980187 1804.91930307 923.73834062 1806.09474421 C921.73109063 1819.70898425 921.50060884 1833.35338752 921.24220109 1847.0874505 C921.22126515 1848.14966066 921.20032922 1849.21187082 921.17875886 1850.30626917 C920.72584206 1873.61448202 920.64235367 1896.91998101 920.6665175 1920.23198175 C920.67225646 1925.80758946 920.66879359 1931.38314982 920.66307187 1936.95875597 C920.6435615 1959.46365036 920.78461684 1981.94155136 921.48425031 2004.43604326 C921.50653227 2005.15438656 921.52881423 2005.87272985 921.5517714 2006.61284113 C921.57378901 2007.32241779 921.59580661 2008.03199446 921.61849141 2008.76307344 C921.85128145 2016.51843886 921.95441142 2024.27461155 922.04298234 2032.032763 C922.05906917 2033.40147137 922.07516207 2034.77017966 922.09126115 2036.13888788 C922.11507208 2038.1847259 922.13868325 2040.23056571 922.1618979 2042.27641058 C922.43778394 2066.50051031 922.99367522 2090.65851351 924.45130754 2114.84439325 C924.99180703 2124.06097388 925.2239469 2133.28917798 925.45509171 2142.51787043 C925.61003227 2148.37912924 925.84736995 2154.20928817 926.29298234 2160.0562005 C926.9209723 2168.3067292 927.1338609 2176.5589721 927.34913468 2184.82890558 C927.58630857 2194.16632747 927.58630857 2194.16632747 928.31251359 2203.47416925 C929.01366898 2210.51777224 929.01944919 2217.57065759 929.03712296 2224.64311457 C929.04695716 2227.02594019 929.078141 2229.40794641 929.10938859 2231.7905755 C929.11590919 2233.3192163 929.12116335 2234.84786315 929.12501359 2236.376513 C929.13736039 2237.08178125 929.14970719 2237.7870495 929.16242814 2238.51368952 C929.14257716 2242.9113484 928.45345146 2245.61885569 925.79688859 2249.1343255 C922.1678999 2252.32343678 918.56184714 2252.80915959 913.87891984 2252.6968255 C909.15135876 2251.83400067 904.99509687 2249.8785936 900.68238664 2247.80082941 C899.71426042 2247.33555841 899.71426042 2247.33555841 898.72657609 2246.860888 C898.16180558 2246.57809992 897.59703507 2246.29531183 897.01515031 2246.00395441 C888.56703191 2242.69202422 880.25895533 2242.84650511 871.32716203 2242.86308527 C869.7583269 2242.85869106 868.1894941 2242.85338639 866.62066483 2242.84724665 C863.24271306 2242.83576433 859.86482385 2242.83028821 856.48685288 2242.82936525 C851.0760838 2242.82740192 845.66543918 2242.80920625 840.2547133 2242.78860712 C825.81509324 2242.7361809 811.37543618 2242.70595242 796.93574214 2242.68270481 C784.73834658 2242.66266477 772.54105879 2242.62972987 760.34376359 2242.57573175 C759.42570624 2242.57175017 758.5076489 2242.56776858 757.56177163 2242.56366634 C723.14990615 2242.40632171 688.8113929 2241.47208466 654.48485303 2238.88467646 C646.10669922 2238.25456266 637.74356202 2237.85739335 629.34596086 2237.60356379 C628.33124558 2237.57204068 628.33124558 2237.57204068 627.296031 2237.53988075 C622.04787792 2237.37698481 616.79942471 2237.22627839 611.55079484 2237.079638 C610.76271668 2237.05739869 609.97463851 2237.03515937 609.1626792 2237.01224613 C571.6094252 2235.95852503 534.06995513 2235.89020232 496.50470436 2235.99027133 C487.6617569 2236.01338925 478.81880458 2236.02380789 469.97583401 2236.03367829 C451.91615107 2236.05409442 433.856525 2236.08881248 415.79688859 2236.1343255 C415.80736222 2236.71923761 415.81783586 2237.30414972 415.82862687 2237.90678644 C415.87029123 2240.56592214 415.8962476 2243.22498903 415.92188859 2245.8843255 C415.9386464 2246.80471613 415.95540421 2247.72510675 415.97266984 2248.673388 C415.98233781 2250.00756769 415.98233781 2250.00756769 415.99220109 2251.3687005 C416.00791154 2252.59411554 416.00791154 2252.59411554 416.02393937 2253.84428644 C415.77518775 2256.35320069 415.05388988 2257.96828176 413.79688859 2260.1343255 C413.13688859 2260.1343255 412.47688859 2260.1343255 411.79688859 2260.1343255 C411.79688859 2260.7943255 411.79688859 2261.4543255 411.79688859 2262.1343255 C406.54294085 2263.88564142 400.93250508 2264.02416571 395.79688859 2261.8843255 C393.08314728 2259.50980186 391.92794653 2257.4561787 391.56983781 2253.84428644 C391.58554826 2252.6188714 391.58554826 2252.6188714 391.60157609 2251.3687005 C391.61124406 2250.03452082 391.61124406 2250.03452082 391.62110734 2248.673388 C391.63786515 2247.75299738 391.65462296 2246.83260675 391.67188859 2245.8843255 C391.68542375 2244.48053644 391.68542375 2244.48053644 391.69923234 2243.048388 C391.72275223 2240.74343894 391.75562006 2238.43901391 391.79688859 2236.1343255 C371.70655445 2236.24210312 351.61625472 2236.3549547 331.52598214 2236.47366476 C322.19539741 2236.52868238 312.86480888 2236.58210851 303.53419328 2236.63163996 C295.39111099 2236.6748716 287.24805329 2236.7212401 279.10500944 2236.77120405 C274.80291791 2236.79749575 270.50083027 2236.82233331 266.19870973 2236.84339952 C243.51914976 2236.93974503 243.51914976 2236.93974503 220.85664105 2237.7556529 C207.98145707 2238.41659841 195.08841603 2238.51058278 182.19923234 2238.673388 C181.42176864 2238.68349925 180.64430495 2238.69361049 179.84328175 2238.70402813 C125.61293094 2239.40673738 71.37366033 2239.42751704 17.13950372 2239.47538614 C13.84992428 2239.47834602 10.56034489 2239.48136088 7.27076554 2239.48442316 C6.45441264 2239.48517226 5.63805973 2239.48592137 4.79696886 2239.48669317 C-8.62494513 2239.49952958 -22.04673241 2239.5330868 -35.46858632 2239.57422499 C-49.4086266 2239.61659203 -63.3486007 2239.6401984 -77.28870517 2239.64543831 C-85.05450409 2239.64883681 -92.8200962 2239.66042591 -100.58583045 2239.69354105 C-107.13779195 2239.72145569 -113.68950278 2239.73257322 -120.24151921 2239.72134559 C-123.57468074 2239.71615637 -126.90688828 2239.72178911 -130.24004531 2239.74381113 C-133.84918523 2239.76637265 -137.45698823 2239.75826991 -141.06613326 2239.74232721 C-142.64202252 2239.76315034 -142.64202252 2239.76315034 -144.24974793 2239.78439415 C-148.850187 2239.73413409 -152.15104743 2239.68909803 -155.81436992 2236.71717882 C-159.77681992 2232.43273567 -160.45249807 2229.89282248 -160.49363875 2224.07280207 C-160.50623229 2222.83945124 -160.51882583 2221.60610041 -160.53180099 2220.33537531 C-160.53482377 2218.98190159 -160.53722153 2217.62842636 -160.53904891 2216.2749505 C-160.54689614 2214.86418169 -160.55513879 2213.45341504 -160.56375289 2212.0426507 C-160.5823448 2208.26944696 -160.58434206 2204.49641918 -160.58026671 2200.72317743 C-160.57811398 2198.38711549 -160.57961764 2196.05107579 -160.58149886 2193.71501398 C-160.58425812 2173.14655845 -160.05714349 2152.82844888 -157.47139144 2132.39512873 C-157.37383559 2131.62328241 -157.27627975 2130.8514361 -157.17576766 2130.0562005 C-157.02040636 2128.85490944 -156.86504506 2127.65361837 -156.70497584 2126.41592455 C-155.21665952 2114.24387941 -155.03953243 2101.97189203 -154.93773055 2089.72465754 C-154.9215003 2088.15139616 -154.90488141 2086.57813876 -154.8879106 2085.0048852 C-154.85234784 2081.64238151 -154.81926182 2078.27986632 -154.78812003 2074.91731882 C-154.73799296 2069.53166035 -154.68071702 2064.14609096 -154.62240767 2058.76051569 C-154.46796336 2044.39935188 -154.32194675 2030.03810505 -154.18138754 2015.67679882 C-154.06227884 2003.51932474 -153.93677569 1991.36193546 -153.80076766 1979.204638 C-153.78550591 1977.834346 -153.78550591 1977.834346 -153.76993585 1976.43637133 C-153.43744204 1946.89192309 -152.71703086 1917.39105757 -151.53095984 1887.86783457 C-151.2612776 1881.02575385 -151.05092588 1874.1839419 -150.89061141 1867.33842707 C-150.8701573 1866.48178272 -150.84970319 1865.62513838 -150.82862926 1864.74253511 C-150.29234006 1839.85930932 -152.99390105 1815.39727939 -156.17514205 1790.74269342 C-158.15200585 1775.20731268 -158.48060879 1759.77357204 -158.55320907 1744.13017511 C-158.56989054 1741.49532041 -158.59733656 1738.86051311 -158.63524032 1736.22587824 C-158.68988487 1732.39434495 -158.7118477 1728.56385153 -158.72654891 1724.73198175 C-158.74921828 1723.55692575 -158.77188766 1722.38186975 -158.79524398 1721.171206 C-158.77170757 1712.09725336 -158.77170757 1712.09725336 -155.85789657 1708.40947199 C-149.47886157 1702.94264955 -139.1508266 1704.40745985 -131.19334579 1704.79985285 C-126.55483168 1705.31869383 -122.49312492 1706.83618904 -118.14061141 1708.4468255 C-108.79629668 1711.88574084 -99.62352952 1713.10853625 -89.75779891 1713.8218255 C-88.97043664 1713.88264118 -88.18307437 1713.94345686 -87.37185264 1714.00611544 C-67.35844644 1715.53529743 -47.32187389 1715.69076513 -27.25975204 1715.80388117 C-22.37685326 1715.83442006 -17.49410096 1715.88068271 -12.61131454 1715.92534113 C-3.14199241 1716.00977167 6.32736143 1716.0777984 15.79688859 1716.1343255 C15.593257 1715.26988825 15.593257 1715.26988825 15.38551164 1714.38798761 C9.65734192 1689.80024939 7.28689858 1666.46924887 7.41602921 1641.21037531 C7.42388162 1638.51192897 7.40920585 1635.81377259 7.395468 1633.11536455 C7.24993212 1599.55812872 7.24993212 1599.55812872 14.04688859 1584.8843255 C14.35062394 1584.22795099 14.65435929 1583.57157648 14.96729875 1582.89531183 C24.35844173 1562.9869605 36.96974473 1549.34159472 55.79688859 1538.0718255 C60.55661271 1535.03624037 63.37639671 1530.64406189 66.60548234 1526.095263 C69.11493108 1522.70459965 71.88372178 1519.87594683 74.92579484 1516.970263 C76.70180979 1515.22761785 78.27239371 1513.42341093 79.85938859 1511.5093255 C90.03144103 1499.77234192 102.14692656 1490.04600162 114.79688859 1481.1343255 C115.47622453 1480.6417425 116.15556046 1480.14915949 116.85548234 1479.64164972 C163.8034137 1445.81859396 215.70639876 1433.60898554 272.55952287 1433.39610529 C276.77808835 1433.37612681 280.99643986 1433.33421257 285.21485734 1433.29448175 C293.40880984 1433.22037151 301.602676 1433.16937247 309.79688859 1433.1343255 C311.91951066 1418.16357488 312.12386558 1403.33334811 312.17579484 1388.23198175 C312.19201746 1385.65762973 312.2092022 1383.08328361 312.22729325 1380.50894403 C312.26803933 1374.45835972 312.30115174 1368.40778433 312.32976741 1362.3571319 C312.38405729 1350.90254037 312.45281544 1339.44805047 312.52770638 1327.99357653 C312.55020123 1324.26780063 312.56668806 1320.54203524 312.58242631 1316.81622553 C312.64699159 1304.56565297 312.91468136 1292.37510706 313.68149304 1280.14797068 C315.22874752 1253.14847536 314.92632621 1225.99909351 314.97811341 1198.96486521 C314.98429441 1196.42305612 314.99418185 1193.88128763 315.00517106 1191.33949518 C315.11275922 1164.77199943 315.01911331 1138.14298061 310.28712296 1111.91362238 C308.30591516 1100.681516 306.57113317 1089.40077857 304.79688859 1078.1343255 C304.65831437 1077.26018 304.51974015 1076.38603449 304.37696671 1075.48539972 C302.69970246 1064.66609767 302.58332235 1054.0499331 302.79688859 1043.1343255 C301.60772843 1043.02217707 301.60772843 1043.02217707 300.39454484 1042.907763 C282.76492869 1040.92077864 265.48767366 1036.40833231 248.78468156 1030.49492121 C243.5041437 1028.63117029 238.27643938 1027.27161595 232.79688859 1026.1343255 C221.86258202 1023.4773912 221.86258202 1023.4773912 218.79688859 1019.1343255 C218.55196671 1018.34541925 218.30704484 1017.556513 218.05470109 1016.7437005 C214.61806181 1009.61427492 203.49304498 1005.850793 196.47266984 1002.84135675 C195.78766908 1002.54486734 195.10266831 1002.24837793 194.39690995 1001.942904 C186.18349362 998.4082309 177.9000714 995.04516057 169.60938859 991.6968255 C168.80051194 991.36906122 167.99163529 991.04129694 167.15824723 990.70360041 C157.8890536 986.94794635 148.60645381 983.25222529 139.23438859 979.7593255 C110.52865035 969.00798334 84.94435021 954.04740312 59.8720839 936.579638 C58.10926815 935.35188868 56.34043177 934.13279103 54.57032609 932.9155755 C44.35181495 925.73022473 35.50819905 917.02146403 26.80494523 908.10600519 C24.2786544 905.53305234 21.75610291 903.2001921 18.79688859 901.1343255 C18.21938859 901.4230755 17.64188859 901.7118255 17.04688859 902.0093255 C16.30438859 902.3805755 15.56188859 902.7518255 14.79688859 903.1343255 C14.24355851 903.47987482 13.69022843 903.82542414 13.12013078 904.18144464 C9.90175941 905.50146392 6.80157641 905.47745925 3.37501359 905.50541925 C2.64741838 905.51689493 1.91982316 905.52837061 1.17017961 905.54019403 C-24.31448673 905.84172475 -45.62670997 901.61994922 -69.70311141 893.3218255 C-70.55224105 893.02999384 -71.40137069 892.73816217 -72.27623153 892.43748713 C-83.7283982 888.46520926 -94.48689909 883.78989127 -105.20311141 878.1343255 C-106.78655091 877.33248032 -108.3709456 876.53251324 -109.95701766 875.735888 C-118.07905648 871.55382785 -125.7198808 866.96652329 -133.25389266 861.8062005 C-137.68512302 858.77889072 -142.22075194 855.92459884 -146.76561141 853.0718255 C-148.38802359 852.05101816 -150.0104197 851.03018526 -151.63279891 850.0093255 C-152.79827254 849.27649347 -152.79827254 849.27649347 -153.9872911 848.52885675 C-188.45263185 826.83802088 -220.73348167 802.14290196 -251.20311141 775.1343255 C-252.26465438 774.21200129 -252.26465438 774.21200129 -253.34764266 773.27104425 C-258.88788175 768.39232625 -264.16164236 763.28093314 -269.39061141 758.0718255 C-270.05576766 757.41126154 -270.72092391 756.75069757 -271.40623641 756.07011652 C-275.31445732 752.14975526 -279.0349628 748.11806351 -282.65110946 743.92705011 C-284.55923729 741.72296286 -286.53657976 739.58725391 -288.51561141 737.4468255 C-293.76927358 731.6084387 -298.51710357 725.42800211 -303.20311141 719.1343255 C-303.92990096 718.16825373 -303.92990096 718.16825373 -304.67137313 717.18266535 C-312.17268001 707.18332019 -318.99781891 696.87455403 -325.54344344 686.22636652 C-329.07799988 680.48713617 -332.71119848 674.85260816 -336.5263536 669.29619074 C-358.33982031 637.47927151 -374.25909308 601.2099982 -386.57811141 564.7593255 C-386.97071151 563.60940119 -387.36331161 562.45947687 -387.76780868 561.27470636 C-394.50200393 540.85123326 -398.08536007 519.68508529 -401.81773543 498.5572381 C-402.32615463 495.69055585 -402.8422409 492.82527697 -403.35824943 489.95995283 C-408.13056801 463.43082191 -412.80550778 436.79805325 -415.32811141 409.9468255 C-415.4078218 409.13071802 -415.48753219 408.31461054 -415.56965804 407.47377253 C-416.74757277 395.38902813 -417.6208737 383.29973867 -418.35081649 371.18059015 C-421.27587497 322.65712007 -426.12178797 274.24527734 -431.54206252 225.94317484 C-431.82374635 223.42337317 -432.1017965 220.90319436 -432.3789537 218.38289118 C-434.05274413 203.21758907 -435.76827298 188.09792306 -438.72654891 173.1187005 C-438.91456069 172.16562006 -439.10257247 171.21253962 -439.29628158 170.23057795 C-440.55777907 164.25424775 -442.31572045 158.5649723 -444.36673141 152.81222773 C-445.57148441 148.95487731 -445.70072153 145.74023302 -445.64061141 141.6968255 C-445.63932235 140.37811457 -445.63803329 139.05940363 -445.63670516 137.70073175 C-445.03855106 132.78077956 -443.42734804 130.26191188 -439.82811141 126.9468255 C-426.49964879 117.74383941 -404.4641083 120.84969533 -389.14036727 120.87553644 C-386.42658829 120.87392084 -383.71281604 120.86933002 -380.99904037 120.86491632 C-374.42551071 120.8560759 -367.85202703 120.85792088 -361.27849566 120.86374161 C-355.92628719 120.86828202 -350.57409148 120.86886078 -345.22188163 120.86669397 C-344.07360565 120.86623427 -344.07360565 120.86623427 -342.90213217 120.86576529 C-341.34628553 120.86512574 -339.7904389 120.86447731 -338.23459227 120.86382011 C-323.68142483 120.85813177 -309.12828267 120.86464972 -294.57511938 120.87542084 C-282.13705781 120.8843424 -269.69903362 120.88281291 -257.26097274 120.87358332 C-242.76618089 120.86283234 -228.2714112 120.8586941 -213.77661592 120.86480784 C-212.22476113 120.86544483 -210.67290634 120.86607358 -209.12105155 120.86669397 C-208.35782097 120.86700252 -207.59459039 120.86731108 -206.8082316 120.86762898 C-201.47732258 120.86934245 -196.14642781 120.86646995 -190.815521 120.86173487 C-184.29701626 120.85607151 -177.77855956 120.85775466 -171.26006018 120.86829636 C-167.94574344 120.87348284 -164.63157078 120.87462033 -161.31724524 120.86899805 C-145.50262467 120.84466925 -129.93222686 121.44126093 -114.20311141 123.1343255 C-112.65252017 110.96633213 -111.86966908 98.98222003 -111.71295524 86.71637774 C-111.67473382 83.78551851 -111.62454266 80.85506527 -111.57138228 77.92444086 C-111.42244988 69.60817116 -111.29352038 61.29164351 -111.17405868 52.97490168 C-111.099649 47.85107584 -111.01120139 42.7276449 -110.91423011 37.60419893 C-110.88043107 35.66303309 -110.85215012 33.72176281 -110.8295629 31.78043413 C-110.79801307 29.07922978 -110.74873319 26.37887909 -110.69554305 23.67802668 C-110.69076949 22.8827154 -110.68599593 22.08740412 -110.68107772 21.2679925 C-110.54905091 15.87248704 -109.51819345 12.45540517 -105.69529891 8.62260675 C-81.85281376 -8.71214694 -28.3794613 -0.01759442 0 0 Z M-290.82811141 256.8843255 C-291.58350204 257.02354425 -292.33889266 257.162763 -293.11717391 257.3062005 C-295.88913027 258.40667756 -296.67260237 259.58374547 -298.20311141 262.1343255 C-298.64739606 264.96464567 -298.64739606 264.96464567 -298.56639266 268.0874505 C-298.56727889 269.25703302 -298.56816512 270.42661554 -298.56907821 271.63163996 C-298.55143416 272.87002619 -298.53379012 274.10841242 -298.51561141 275.3843255 C-298.50505721 276.64527033 -298.49450301 277.90621515 -298.48362899 279.20537043 C-298.68932696 294.54749301 -298.68932696 294.54749301 -294.75389266 309.11479425 C-289.30034306 321.30537689 -290.6214645 337.73598596 -290.09861922 350.88774347 C-289.54913058 371.44179976 -289.54913058 371.44179976 -284.20311141 391.1343255 C-283.54311141 391.4643255 -282.88311141 391.7943255 -282.20311141 392.1343255 C-281.72326637 376.90293669 -282.13304371 362.06195834 -283.95311141 346.9468255 C-284.04100936 346.21415461 -284.12890731 345.48148371 -284.21946883 344.72661066 C-285.10960409 337.38560342 -286.07438839 330.05521927 -287.0737474 322.72836542 C-289.03094851 308.32519299 -290.61110433 294.05680393 -290.82811141 279.5093255 C-290.86323836 278.26433283 -290.89836532 277.01934015 -290.93455672 275.73662043 C-290.92134643 266.22322661 -290.92134643 266.22322661 -287.35154891 261.985888 C-286.32854369 261.00693106 -285.27927613 260.05452432 -284.20311141 259.1343255 C-283.19762892 258.13983822 -282.19601815 257.1413688 -281.20311141 256.1343255 C-284.51061724 255.92093803 -287.58492934 256.28118887 -290.82811141 256.8843255 Z M882.79688859 271.1343255 C882.77784486 272.45644714 882.77784486 272.45644714 882.75841641 273.8052783 C882.44580581 295.4499419 882.1195448 317.09436431 881.77887082 338.73860502 C881.61442503 349.20644494 881.45427053 359.6743147 881.30494523 370.14238214 C881.17448117 379.28741121 881.03522617 388.4322613 880.88625294 397.57700819 C880.80796957 402.39993479 880.73351591 407.22283795 880.66966653 412.04597902 C880.38755621 433.13489861 879.68769384 454.08347494 877.85443997 475.10068846 C876.63252958 489.14041944 876.31224865 503.10213299 876.23438859 517.1968255 C876.05867841 542.60025783 873.89258016 566.99215689 870.07545304 592.11039972 C869.48642722 595.99587778 868.91153872 599.88326761 868.33790421 603.77104425 C864.92661027 626.61334674 860.38626904 648.89450504 854.17188859 671.1343255 C850.84215631 683.07148312 847.84022322 694.90420976 845.79688859 707.1343255 C850.90083268 706.4699966 855.18819189 705.39950208 859.98438859 703.5093255 C865.40618369 701.40292399 870.84722456 699.40048922 876.35059953 697.51664972 C880.51121153 696.08895776 884.65490821 694.61504192 888.79688859 693.1343255 C889.47058488 692.89778254 890.14428117 692.66123957 890.8383925 692.41752863 C900.98641519 688.78853891 908.06200989 683.39977708 915.79688859 676.1343255 C916.4736464 675.51428644 917.15040421 674.89424738 917.84766984 674.25541925 C927.18951533 665.3430839 934.34250147 654.66903412 941.29688859 643.8843255 C942.14472432 642.57775286 942.99270736 641.2712758 943.8408339 639.96489191 C949.3473357 631.46388526 954.80721232 622.95233819 959.79688859 614.1343255 C960.35328019 613.15254328 960.90967179 612.17076105 961.48292375 611.15922785 C963.45005281 607.67635062 965.40721904 604.18809929 967.35938859 600.6968255 C967.97330461 599.60096125 968.58722062 598.50509699 969.21974015 597.37602472 C977.43285363 582.572709 984.63186548 567.33513352 991.67188859 551.9468255 C993.26766029 548.46548942 994.86540925 544.98506777 996.46485734 541.50541925 C996.84916413 540.66920038 997.23347093 539.83298151 997.62942338 538.97142267 C999.97520897 533.88026884 1002.38259421 528.82535109 1004.85987687 523.79667902 C1012.44593297 508.3659887 1018.64474662 492.29585768 1024.94093156 476.30717707 C1025.73547334 474.29022845 1026.53352866 472.27470294 1027.33204484 470.2593255 C1037.06035131 445.54563329 1043.37423388 420.30256475 1047.79688859 394.1343255 C1047.98452775 393.10073908 1048.17216691 392.06715265 1048.36549211 391.00224543 C1050.12608922 380.36892838 1050.1467558 369.82529172 1050.10938859 359.0718255 C1050.10864839 357.60158426 1050.10864839 357.60158426 1050.10789323 356.10164118 C1050.08504898 341.15076306 1049.4460315 326.34437646 1047.95240617 311.46806574 C1046.59060612 297.7169632 1046.20027131 283.94294933 1045.79688859 270.1343255 C1035.6927349 270.10226959 1025.58858462 270.08287104 1015.48438859 270.0718255 C1014.31849198 270.07054148 1014.31849198 270.07054148 1013.12904191 270.06923151 C969.68125575 270.02720262 926.24055572 270.59899519 882.79688859 271.1343255 Z M-101.20311141 275.1343255 C-102.40833627 284.06235044 -103.35108611 292.95899014 -103.75901961 301.96147394 C-103.80077724 302.86768866 -103.84253488 303.77390337 -103.88555789 304.70757914 C-104.30071162 314.37572506 -104.36710719 324.03675945 -104.37108016 333.7124505 C-104.37431277 335.62120317 -104.37767813 337.52995561 -104.38116622 339.43870783 C-104.38709269 343.41179714 -104.38901307 347.38486492 -104.38841414 351.35795832 C-104.38833326 355.35409848 -104.39522764 359.35012309 -104.40892196 363.34623957 C-104.50480218 391.75901996 -103.63264898 419.81670403 -101.20311141 448.1343255 C-100.87311141 448.1343255 -100.54311141 448.1343255 -100.20311141 448.1343255 C-100.20311141 391.0443255 -100.20311141 333.9543255 -100.20311141 275.1343255 C-100.53311141 275.1343255 -100.86311141 275.1343255 -101.20311141 275.1343255 Z M-184.20739913 278.18080378 C-203.95224274 279.68473705 -223.65546218 280.34636134 -243.45311141 280.6968255 C-245.77082508 280.74016091 -248.08853348 280.7837791 -250.40623641 280.82768488 C-256.00513841 280.93314663 -261.60409447 281.03516313 -267.20311141 281.1343255 C-264.93826318 301.87298002 -262.58014123 322.59609185 -260.03514266 343.30229425 C-259.8897203 344.50136408 -259.74429793 345.7004339 -259.59446883 346.93583918 C-259.36617396 348.8016477 -259.13218966 350.66680839 -258.88401961 352.53007746 C-258.06688714 358.97368663 -257.96754349 365.42731447 -257.81550765 371.91560602 C-257.52397478 383.78357918 -257.01387473 395.56681922 -255.54637313 407.35551691 C-255.29339136 409.40348167 -255.05193371 411.45287794 -254.81688094 413.50297785 C-252.4175113 434.37610677 -249.07159481 454.84246983 -241.54271102 474.54619074 C-240.13191594 478.32502349 -238.82461578 482.13081558 -237.55467391 485.95854425 C-237.29936904 486.72634714 -237.04406417 487.49415003 -236.78102279 488.28521967 C-232.74997436 500.46533851 -228.89486093 512.70325418 -225.01121688 524.93095636 C-223.97036691 528.20640353 -222.92673974 531.48095611 -221.88279891 534.75541925 C-221.57228591 535.7358671 -221.26177291 536.71631495 -220.94185042 537.72647333 C-215.65098514 554.30502 -209.8665758 571.10032724 -200.33983016 585.75541925 C-197.76131526 589.8329611 -195.45379783 594.02755761 -193.14061141 598.2593255 C-187.60177594 608.29358355 -181.90913703 617.56049373 -174.38865829 626.23149347 C-171.35033536 629.7392435 -168.5108533 633.32514329 -165.76561141 637.0718255 C-157.69875568 647.99177025 -148.830133 658.4627272 -138.51561141 667.3218255 C-134.95772898 670.37830751 -131.67165828 673.66238575 -128.39061141 677.0093255 C-122.9860995 682.49379085 -117.24012596 687.35175554 -111.20311141 692.1343255 C-109.41081595 693.63357412 -107.61915486 695.13358142 -105.82811141 696.6343255 C-100.8940337 700.68279952 -95.71854008 704.26576496 -90.44139266 707.84916925 C-85.47752297 711.3520206 -80.837069 715.20614102 -76.20311141 719.1343255 C-74.88277247 717.04949736 -74.88277247 717.04949736 -75.98826766 714.25883722 C-76.4097911 713.03954523 -76.83131454 711.82025324 -77.26561141 710.564013 C-77.49231521 709.89904306 -77.719019 709.23407312 -77.95259261 708.54895258 C-78.4417707 707.11482566 -78.93407012 705.68176047 -79.42912459 704.24965143 C-80.72743514 700.49165618 -82.00260172 696.7259116 -83.27342391 692.95854425 C-83.52762099 692.20529367 -83.78181808 691.45204309 -84.0437181 690.67596674 C-86.2432859 684.11006416 -88.20424586 677.4878718 -90.07811141 670.8218255 C-92.01584655 663.94714227 -94.16393341 657.43145867 -97.08592391 650.8999505 C-99.09602492 645.92389624 -100.3107572 640.72241554 -101.5900743 635.51933527 C-102.072867 633.64103903 -102.58636311 631.77063372 -103.11107039 629.90361261 C-105.74355743 620.4455118 -107.61703731 611.01623253 -109.14061141 601.3218255 C-109.2659526 600.53664545 -109.39129378 599.7514654 -109.52043319 598.94249201 C-114.54824535 567.31623682 -117.68423569 535.4690484 -120.52928329 503.5842309 C-121.13087977 496.86459579 -121.77914993 490.15033833 -122.44505477 483.43681574 C-123.90744586 468.6814854 -125.17089119 453.92572049 -126.20311141 439.1343255 C-126.28886931 437.94142405 -126.37462722 436.74852259 -126.46298385 435.5194726 C-128.200947 410.82330807 -128.48432198 386.21788367 -128.39872909 361.46769953 C-128.38785157 357.50353915 -128.38830818 353.53941237 -128.38873267 349.57523966 C-128.38747473 299.51166064 -128.38747473 299.51166064 -126.20311141 276.1343255 C-145.65376311 275.64384612 -164.82450016 276.69902101 -184.20739913 278.18080378 Z M-282.20311141 392.1343255 C-282.20311141 394.1143255 -282.20311141 396.0943255 -282.20311141 398.1343255 C-281.87311141 398.1343255 -281.54311141 398.1343255 -281.20311141 398.1343255 C-281.20311141 396.1543255 -281.20311141 394.1743255 -281.20311141 392.1343255 C-281.53311141 392.1343255 -281.86311141 392.1343255 -282.20311141 392.1343255 Z M-85.20311141 858.1343255 C-75.79317277 865.83940467 -61.02852468 868.63007973 -49.60008407 872.35161066 C-47.57284511 873.01359152 -45.54961614 873.68783349 -43.52733016 874.36479425 C-28.59460309 879.21839546 -14.82215947 880.59271061 0.79688859 880.1343255 C0.30188859 879.1443255 0.30188859 879.1443255 -0.20311141 878.1343255 C-3.44469607 877.44671664 -6.67099621 876.92554095 -9.94920516 876.454638 C-13.68896399 875.84406513 -16.62834462 875.06589209 -19.89451766 873.1030755 C-23.02070031 871.24286765 -24.973744 870.50256334 -28.51561141 870.0093255 C-29.53912704 869.86108332 -30.56264266 869.71284113 -31.61717391 869.56010675 C-34.29887807 869.2416909 -36.97749389 868.94800143 -39.66404891 868.67729425 C-56.46563523 866.98108093 -56.46563523 866.98108093 -64.24217391 863.12260675 C-71.01487675 859.81013937 -77.74389859 858.94072689 -85.20311141 858.1343255 Z M326.79688859 1041.1343255 C326.46978518 1049.06658318 327.70043204 1056.80091612 328.79688859 1064.6343255 C328.99008627 1066.04311265 329.18279877 1067.45196642 329.37501359 1068.860888 C329.84337677 1072.2861539 330.31831248 1075.7104698 330.79688859 1079.1343255 C331.12688859 1079.1343255 331.45688859 1079.1343255 331.79688859 1079.1343255 C331.79688859 1066.5943255 331.79688859 1054.0543255 331.79688859 1041.1343255 C330.14688859 1041.1343255 328.49688859 1041.1343255 326.79688859 1041.1343255 Z M50.79688859 1573.1343255 C51.79688859 1575.1343255 51.79688859 1575.1343255 51.79688859 1575.1343255 Z M49.79688859 1575.1343255 C48.31188859 1577.1143255 48.31188859 1577.1143255 46.79688859 1579.1343255 C47.12688859 1579.7943255 47.45688859 1580.4543255 47.79688859 1581.1343255 C48.78688859 1579.8143255 49.77688859 1578.4943255 50.79688859 1577.1343255 C50.46688859 1576.4743255 50.13688859 1575.8143255 49.79688859 1575.1343255 Z M44.79688859 1582.1343255 C45.79688859 1584.1343255 45.79688859 1584.1343255 45.79688859 1584.1343255 Z M43.79688859 1584.1343255 C39.77808091 1591.68839449 36.1239248 1598.58231435 34.79688859 1607.1343255 C40.80165619 1600.09425314 42.77313377 1593.00439984 44.79688859 1584.1343255 C44.46688859 1584.1343255 44.13688859 1584.1343255 43.79688859 1584.1343255 Z M33.79688859 1608.1343255 C34.79688859 1610.1343255 34.79688859 1610.1343255 34.79688859 1610.1343255 Z M32.79688859 1613.1343255 C33.79688859 1615.1343255 33.79688859 1615.1343255 33.79688859 1615.1343255 Z M397.79688859 1714.1343255 C397.79688859 1716.7743255 397.79688859 1719.4143255 397.79688859 1722.1343255 C432.72820652 1721.35216477 467.61332663 1720.32527238 502.48438859 1718.0718255 C503.17028062 1718.02774057 503.85617265 1717.98365564 504.56284928 1717.93823481 C522.70077169 1716.79232104 522.70077169 1716.79232104 540.79688859 1715.1343255 C540.79688859 1714.8043255 540.79688859 1714.4743255 540.79688859 1714.1343255 C493.60688859 1714.1343255 446.41688859 1714.1343255 397.79688859 1714.1343255 Z M249.79688859 1715.1343255 C249.79688859 1715.4643255 249.79688859 1715.7943255 249.79688859 1716.1343255 C291.02881492 1721.50628329 332.25452246 1722.55617425 373.79688859 1722.1343255 C373.79688859 1719.8243255 373.79688859 1717.5143255 373.79688859 1715.1343255 C332.87688859 1715.1343255 291.95688859 1715.1343255 249.79688859 1715.1343255 Z M384.79688859 2079.1343255 C384.79688859 2123.0243255 384.79688859 2166.9143255 384.79688859 2212.1343255 C386.11688859 2212.1343255 387.43688859 2212.1343255 388.79688859 2212.1343255 C388.89142963 2204.45549188 388.8481153 2196.82196801 388.39454484 2189.15385675 C388.35287187 2188.44046137 388.31119889 2187.72706598 388.2682631 2186.99205256 C388.20291368 2185.8750094 388.20291368 2185.8750094 388.13624406 2184.73539972 C386.76773036 2161.33923118 386.44597433 2137.93831021 386.17188859 2114.5093255 C386.16164281 2113.63548338 386.15139703 2112.76164125 386.14084077 2111.86131907 C386.01397774 2100.95243879 385.89960583 2090.04345942 385.79688859 2079.1343255 C385.46688859 2079.1343255 385.13688859 2079.1343255 384.79688859 2079.1343255 Z " fill="#242424" transform="translate(955.203111410141,203.86567449569702)"/>
<path d="M0 0 C5.06065768 0.01489862 10.12131379 0.02292037 15.18198776 0.02987289 C52.8519728 0.08445205 90.52679428 0.16038891 128.18738937 1.0809021 C130.50131193 1.13733335 132.81528864 1.19087567 135.12928391 1.24422836 C166.31476926 1.98674828 197.40302948 4.4151392 228.37855148 8.0764122 C230.5786124 8.33037122 232.77872816 8.58385554 234.97889328 8.83691025 C247.15951137 10.24641746 259.33089906 11.72830411 271.49964523 13.23656845 C272.78373276 13.39549576 274.06782028 13.55442307 275.39081955 13.71816635 C281.60253931 14.48811074 287.81329829 15.26469446 294.02259445 16.05395126 C304.62355881 17.38962001 315.16011714 18.64707665 325.83826828 19.1220665 C328.95303279 19.32315079 331.93103336 19.79217688 335.00355148 20.3264122 C335.00989939 22.29268963 335.00989939 22.29268963 335.01637554 24.29868984 C335.27769889 105.14737653 335.55938178 185.99597027 335.89764319 273.67394368 C335.95185984 287.68714245 336.00563596 301.70034129 336.05500412 315.7135582 C336.05890842 316.82169331 336.06281273 317.92982843 336.06683534 319.0715434 C336.07444213 321.2327454 336.0820477 323.39394742 336.08965194 325.55514944 C336.15065017 342.86069181 336.21949458 360.16615633 336.3100462 377.47157192 C336.34928208 384.99392781 336.38457021 392.51623474 336.40684128 400.03866196 C336.49465701 439.0270156 336.49465701 439.0270156 339.27161789 477.89330673 C341.06024117 495.06704604 341.14492079 512.22030459 341.08948898 529.47094345 C341.08519343 531.89255861 341.08116098 534.31417425 341.0773735 536.73579025 C341.02629201 563.16238883 340.84988443 589.58826115 340.62855148 616.0139122 C340.6128618 617.92698606 340.6128618 617.92698606 340.59685516 619.87870789 C340.25206928 661.84277789 339.64672998 703.79792319 338.80701828 745.75512314 C338.71869967 750.17471584 338.63058206 754.5943125 338.54261398 759.0139122 C338.52055956 760.1187722 338.49850513 761.2236322 338.47578239 762.36197281 C338.0957613 781.49974933 337.78421356 800.63817266 337.49794793 819.77753139 C337.46458772 822.00731284 337.43109418 824.23709227 337.39756966 826.46687126 C337.19011217 840.27623274 336.98545557 854.08563101 336.78973269 867.89516413 C336.70374103 873.9507113 336.61435341 880.00620407 336.52397156 886.06168747 C336.4876227 888.54183245 336.45251475 891.021996 336.41880035 893.50217819 C336.16279913 912.3146437 335.85717739 931.12792372 333.84730148 949.8498497 C333.74010788 950.89114029 333.63291428 951.93243088 333.52247238 953.00527573 C333.18821833 956.23790913 332.84591788 959.46962922 332.50355148 962.7014122 C332.27518752 964.90708972 332.04732084 967.11281879 331.81995773 969.3185997 C331.60035044 971.43322927 331.38031461 973.5478144 331.15980148 975.6623497 C331.05873093 976.63215775 330.95766037 977.60196579 330.85352707 978.60116196 C330.33108356 983.52714335 329.74297234 988.42817104 329.00355148 993.3264122 C323.50431399 993.40052591 318.0053667 993.45499684 312.50574875 993.49120712 C310.63460349 993.50630093 308.76349365 993.52677809 306.8924675 993.55273056 C304.20414622 993.58908813 301.51629235 993.60613235 298.82777023 993.61938095 C297.9901767 993.63486481 297.15258316 993.65034866 296.289608 993.66630173 C290.38291673 993.66801636 290.38291673 993.66801636 288.38351059 991.86762619 C287.92812408 991.35902557 287.47273758 990.85042496 287.00355148 990.3264122 C283.54342151 988.59634721 279.77769951 988.69848915 276.00355148 989.3264122 C275.17855148 990.1720372 274.35355148 991.0176622 273.50355148 991.8889122 C271.00355148 994.3264122 271.00355148 994.3264122 269.13563156 994.41601181 C268.41786545 994.31296738 267.70009933 994.20992294 266.96058273 994.10375595 C266.15636887 993.98894882 265.352155 993.87414169 264.52357101 993.75585556 C256.25268347 992.34639119 248.12819697 990.41245325 240.00355148 988.3264122 C238.33848557 987.90174667 238.33848557 987.90174667 236.63978195 987.46850204 C218.9118648 982.78769009 205.40712362 975.68505137 190.54700851 965.08227158 C177.92448539 956.36839306 162.73889188 951.41791311 148.60413742 945.7717247 C143.82366005 943.85279156 139.05913497 941.89583461 134.29359055 939.94018173 C126.04924115 936.55886404 117.81086546 933.19817941 109.44105148 930.1389122 C86.89134564 921.72413727 66.91368419 909.80172445 47.00355148 896.3264122 C46.23027512 895.80546982 45.45699875 895.28452744 44.66028976 894.74779892 C42.59838086 893.34998289 40.54956348 891.93486552 38.50355148 890.5139122 C37.84741867 890.06983017 37.19128586 889.62574814 36.51527023 889.16820908 C17.04173388 875.5963085 -3.80959195 855.23093302 -16.67857742 835.34643173 C-18.27117365 832.90531628 -19.92053563 830.50633728 -21.57066727 828.10375595 C-22.83930394 826.24163828 -24.10624023 824.37836098 -25.37144852 822.5139122 C-26.24772903 821.22372177 -26.24772903 821.22372177 -27.14171219 819.90746689 C-33.54344724 810.29700659 -38.09873497 800.04921199 -42.62144852 789.4514122 C-42.87967392 788.84892654 -43.13789932 788.24644089 -43.40394974 787.62569809 C-47.26238038 778.61425212 -50.90459052 769.53504319 -54.43394852 760.3889122 C-60.55182486 744.56485417 -67.32856438 728.97782508 -74.74376297 713.71532822 C-79.12773696 704.64181621 -82.57205978 695.46740255 -85.68394852 685.8889122 C-86.19361295 684.34311632 -86.70346471 682.79738218 -87.21348953 681.25170517 C-91.70118379 667.5651655 -95.8516681 653.77591299 -99.89952469 639.95360947 C-102.33699033 631.65596119 -104.92302787 623.48239376 -107.89122391 615.35668564 C-122.26192533 575.95550472 -124.65795006 532.31629481 -128.29722977 490.86620712 C-129.18206905 480.82764569 -130.12606208 470.84645612 -131.53649426 460.86699867 C-133.14755553 448.4655444 -133.16575053 436.04170841 -133.20518875 423.56029892 C-133.21475181 421.60322031 -133.22464394 419.64614328 -133.23483658 417.68906784 C-133.26600801 411.29476497 -133.28649854 404.90045013 -133.30504227 398.5060997 C-133.30833959 397.40744158 -133.31163691 396.30878346 -133.31503415 395.17683268 C-133.34586119 384.75205378 -133.3724875 374.32727136 -133.38945293 363.9024601 C-133.4111681 350.726654 -133.45273404 337.55126516 -133.52289051 324.37562549 C-133.57089014 315.03023728 -133.59448692 305.68495823 -133.60164982 296.33945096 C-133.60650297 290.8034365 -133.6205457 285.26789319 -133.66139412 279.73201752 C-133.86684095 250.50888024 -131.86950505 222.14469603 -128.07412261 193.16805494 C-126.73887846 182.75038543 -125.91342431 172.301677 -125.18394852 161.8264122 C-125.12466899 160.97662489 -125.06538946 160.12683758 -125.00431359 159.25129914 C-124.51465202 152.16342632 -124.07364251 145.07570548 -123.73717117 137.97875595 C-123.69457672 137.08273666 -123.65198227 136.18671738 -123.60809708 135.26354599 C-123.52832427 133.54617611 -123.45183605 131.82864914 -123.37930679 130.1109581 C-123.1672849 125.45442986 -122.66724978 120.94367686 -121.99644852 116.3264122 C-121.86832082 114.02077407 -121.77552387 111.71294461 -121.71519852 109.4045372 C-121.6778157 108.13223251 -121.64043289 106.85992783 -121.60191727 105.54906845 C-121.54890233 103.55217262 -121.49590132 101.55527613 -121.44420242 99.55834579 C-121.39242263 97.61114041 -121.33513936 95.66408381 -121.27769852 93.7170372 C-121.23225906 91.9850206 -121.23225906 91.9850206 -121.18590164 90.21801376 C-120.99644852 87.3264122 -120.99644852 87.3264122 -119.99644852 84.3264122 C-119.84806469 81.72769288 -119.75195202 79.1511634 -119.69932938 76.55028915 C-119.67967621 75.75981186 -119.66002304 74.96933456 -119.63977432 74.15490341 C-119.57589309 71.54158452 -119.51856922 68.92816475 -119.46129227 66.31469345 C-119.41828427 64.50293151 -119.37486771 62.69117923 -119.3310585 60.87943649 C-119.21683889 56.11034497 -119.10817775 51.34114229 -119.00065994 46.5718956 C-118.88997221 41.70548356 -118.77404701 36.83919662 -118.65855789 31.97289658 C-118.43271843 22.42418381 -118.21274887 12.87534547 -117.99644852 3.3264122 C-78.64503125 0.12462926 -39.44809413 -0.11933172 0 0 Z " fill="#D1D1D1" transform="translate(987.9964485168457,227.67358779907227)"/>
<path d="M0 0 C4.32001718 0.00638531 8.64003561 0.00684902 12.96005678 0.00802541 C21.08702886 0.01109509 29.21398698 0.01924761 37.34095299 0.0293749 C46.61595638 0.04067416 55.89096054 0.04608076 65.16596913 0.05107033 C84.19575869 0.06143555 103.22553539 0.07894747 122.25531435 0.10139394 C123.21539865 7.83230593 123.39682903 15.45858748 123.38229799 23.24276662 C123.38385798 24.53668716 123.38541797 25.8306077 123.38702524 27.16373795 C123.3911775 30.73257651 123.38914617 34.30138812 123.38603902 37.87022674 C123.3837671 41.73159111 123.38727427 45.592951 123.39001894 49.45431447 C123.39446341 57.0253406 123.39350402 64.5963568 123.3906063 72.16738332 C123.38833792 78.35508858 123.38804597 84.54279109 123.38913012 90.73049664 C123.38928335 91.61514252 123.38943658 92.4997884 123.38959446 93.41124172 C123.38991426 95.20971585 123.39023847 97.00818998 123.39056705 98.8066641 C123.39342033 115.68878473 123.39014194 132.57089994 123.38476668 149.45301967 C123.38034133 163.79032233 123.38103909 178.12761684 123.38568544 192.46491933 C123.39110842 209.20581482 123.39310127 225.94670549 123.39007318 242.68760175 C123.38975475 244.49587587 123.38944038 246.30415 123.38913012 248.11242414 C123.38897584 249.00142792 123.38882156 249.8904317 123.38866261 250.80637499 C123.38781702 256.9244919 123.38923939 263.0426056 123.39160967 269.16072202 C123.40339528 302.80422421 123.35045048 336.44445582 122.8700901 370.08506612 C122.8413595 372.13671937 122.81463216 374.18838976 122.78840899 376.24007642 C122.58817028 391.26808599 122.13412878 406.1949797 120.75531435 421.16389394 C120.60916682 422.7769917 120.46302696 424.39009015 120.31689501 426.00318933 C120.25126981 426.72039574 120.18564462 427.43760216 120.11803079 428.1765421 C118.66777478 444.17408681 118.76148551 460.28123868 118.6342206 476.33210683 C118.43423335 497.98122938 116.17633685 518.85786127 112.81781435 540.22639394 C112.51453121 542.1859445 112.21179585 544.14557992 111.90961123 546.10530019 C111.31588431 549.94899171 110.71613004 553.79166553 110.11127138 557.6336205 C109.56306796 561.11815237 109.02705222 564.60408899 108.50482607 568.09260488 C105.91436678 585.25775787 102.17399609 601.96211371 97.53702211 618.68650746 C89.7419479 645.64934068 89.7419479 645.64934068 85.72259951 673.32820058 C83.51434432 707.5422237 64.67580748 742.25075765 40.5014081 765.79670644 C37.27798709 769.1042167 34.44758793 772.68944983 31.5639081 776.29280019 C29.2590821 779.09681017 26.85115409 781.75569195 24.38031435 784.41389394 C16.74051588 792.76658184 9.56358088 801.11578071 4.50531435 811.28889394 C1.76203853 816.71028464 0.00453019 817.98326179 -5.74468565 820.10139394 C-11.76666833 826.05792028 -16.27045965 833.69192778 -21.09746885 840.62678456 C-25.21733087 846.48949037 -29.64714261 851.98350143 -34.36187315 857.37483144 C-36.21691205 859.49748251 -37.98616628 861.65073255 -39.74468565 863.85139394 C-42.98874472 867.6438756 -46.93691043 870.56240726 -50.8345294 873.65217519 C-53.77190849 876.12430497 -56.3570566 878.75189096 -58.99468565 881.53889394 C-64.57834514 887.23390846 -70.74165437 891.53141573 -77.51128721 895.71150136 C-79.18833686 896.75516595 -80.84919565 897.82492037 -82.50152159 898.90730214 C-90.65785675 904.14292528 -99.02005205 908.11129073 -107.91204405 911.91462636 C-121.44768832 917.71308698 -134.64496092 923.88653718 -147.58501768 930.92707753 C-173.82003882 945.1923332 -202.58431156 951.3288657 -231.46367979 958.11115956 C-236.15649338 959.21639961 -240.81798438 960.38055127 -245.46343565 961.67170644 C-249.79179587 962.86697133 -254.07896891 963.84875635 -258.49468565 964.66389394 C-259.16153379 964.78756337 -259.82838194 964.91123281 -260.5154376 965.0386498 C-266.49584664 966.11915864 -272.50061016 966.88727918 -278.5376544 967.57405019 C-281.73848109 967.96932042 -281.73848109 967.96932042 -284.49468565 969.27717519 C-285.23718565 969.54916738 -285.97968565 969.82115956 -286.74468565 970.10139394 C-288.74468565 968.7680606 -290.74468565 967.43472727 -292.74468565 966.10139394 C-295.71299977 965.48202131 -297.63324824 965.70629078 -300.74468565 966.10139394 C-301.40855284 966.73561269 -302.07242002 967.36983144 -302.7564044 968.02326894 C-307.32104519 971.19763351 -312.04983749 971.30160162 -317.49468565 971.85139394 C-319.15648863 972.03568959 -319.15648863 972.03568959 -320.85186338 972.22370839 C-329.84136452 973.15733611 -338.71858584 973.4366136 -347.74468565 973.10139394 C-348.17498593 961.92633638 -346.74865647 950.87563031 -345.60454893 939.78010488 C-342.91190436 913.4754244 -341.47317036 887.22678048 -341.18218565 860.78889394 C-341.14633067 858.08339889 -341.10985667 855.37791733 -341.07281065 852.67243886 C-340.96083371 844.32407415 -340.86529059 835.97555199 -340.77272367 827.62695241 C-340.74384348 825.02553489 -340.7146655 822.42412085 -340.68542051 819.82270741 C-340.50328909 803.60538514 -340.32487826 787.3880217 -340.15065241 771.17061257 C-339.89931729 747.8133269 -339.62083984 724.45702836 -339.24468565 701.10139394 C-339.22671934 699.94128804 -339.20875303 698.78118215 -339.19024229 697.58592153 C-339.01760417 686.55965603 -338.80178177 675.53729471 -338.44254082 664.51534951 C-337.86918397 646.87367801 -337.57863614 629.24753906 -337.51489019 611.59681821 C-337.49892059 607.21199156 -337.47501681 602.82722623 -337.44999266 598.44244313 C-337.38003358 586.00775452 -337.31841001 573.57304218 -337.26787901 561.13825917 C-337.23961298 554.19889576 -337.20431306 547.25960457 -337.16122526 540.32031697 C-337.13456611 535.96238796 -337.11659907 531.60453946 -337.10518801 527.2465452 C-337.09395322 523.92930501 -337.06983729 520.61218215 -337.04766417 517.29499745 C-337.04707502 516.09684911 -337.04648588 514.89870076 -337.04587889 513.66424489 C-337.03616056 512.57334554 -337.02644224 511.48244618 -337.01642942 510.35848927 C-337.01219748 509.40987806 -337.00796555 508.46126685 -337.00360537 507.48390985 C-336.74468565 505.10139394 -336.74468565 505.10139394 -334.74468565 502.10139394 C-334.42636821 499.63000234 -334.42636821 499.63000234 -334.49468565 496.91389394 C-334.4895294 496.01283925 -334.48437315 495.11178456 -334.47906065 494.18342519 C-334.6662926 490.98783539 -334.6662926 490.98783539 -335.68250608 487.53601003 C-336.90404828 482.75170699 -337.48198035 477.96914967 -338.0051837 473.06550527 C-338.164404 471.60104876 -338.164404 471.60104876 -338.32684088 470.10700727 C-341.60923607 439.14244039 -342.53509102 408.40631029 -342.55045325 377.29105896 C-342.5536148 372.14546859 -342.56888821 367.00001817 -342.59109068 361.85447621 C-342.5943488 361.09598301 -342.59760692 360.33748982 -342.60096377 359.55601197 C-342.60769131 357.99308347 -342.61442051 356.43015497 -342.62115133 354.86722648 C-342.71228388 333.0561666 -342.72744446 311.24507267 -342.74019957 289.43385243 C-342.7444598 282.22370835 -342.7499249 275.01356539 -342.7554904 267.80342223 C-342.81434043 191.13571229 -342.81400198 114.46805215 -342.74468565 3.10139394 C-341.13213219 3.10277663 -341.13213219 3.10277663 -339.4870019 3.10418725 C-313.09133597 3.12658085 -286.69567129 3.14291035 -260.29999781 3.15320611 C-247.53424249 3.15831987 -234.76849352 3.16526631 -222.00274229 3.17683339 C-210.85082687 3.18693319 -199.69891605 3.19328292 -188.54699618 3.19548243 C-182.66516283 3.19676415 -176.78334262 3.19968248 -170.90151358 3.20712399 C-147.21804948 3.23583845 -123.54509546 3.14857149 -99.86602354 2.65779042 C-98.39979907 2.62858264 -98.39979907 2.62858264 -96.90395391 2.5987848 C-87.2300897 2.4006869 -77.60349332 2.10102468 -67.95455027 1.33970475 C-45.37599223 -0.33660101 -22.62537954 -0.0392893 0 0 Z " fill="#BCBCBC" transform="translate(1689.7446856498718,245.89860606193542)"/>
<path d="M0 0 C9.47221112 2.83131747 9.47221112 2.83131747 12.75 3.87890625 C44.25618713 13.45109852 82.34953928 10.35779377 114.92895508 10.31567383 C119.90910659 10.30975731 124.88890069 10.32717972 129.86899281 10.3500185 C133.76122684 10.36472932 137.6533726 10.3656336 141.5456295 10.36250877 C143.38475976 10.36301864 145.22389538 10.36819275 147.06299782 10.37832069 C149.6084073 10.3906801 152.15308829 10.38390807 154.69848633 10.37231445 C155.43962677 10.37995819 156.18076721 10.38760193 156.94436646 10.39547729 C160.52738392 10.35947317 163.00688019 9.99686023 166.28603268 8.50042057 C170.03087268 6.83164614 173.24148984 6.6227475 177.36383057 6.61904907 C178.07198906 6.6143691 178.78014755 6.60968913 179.50976539 6.60486734 C181.86640533 6.59296928 184.22245802 6.60235503 186.57910156 6.61181641 C188.27702166 6.60774736 189.9749391 6.60240362 191.67285156 6.59588623 C196.28214419 6.58221727 200.89123507 6.5875173 205.5005312 6.59702349 C210.36085335 6.60465683 215.22115904 6.59756113 220.08148193 6.59286499 C228.27277688 6.58740355 236.46399081 6.59459405 244.65527344 6.60888672 C254.03138114 6.62506135 263.40729155 6.62003836 272.7833941 6.6034075 C280.89018913 6.58961905 288.99692599 6.58796057 297.10372901 6.59572351 C301.91869541 6.6003261 306.73357059 6.60123929 311.54853058 6.59111404 C338.86316498 6.5415514 365.73125967 7.76341334 392.84700394 11.20313454 C428.96386242 15.77246021 465.65886033 15.48904022 502 16 C503.24649988 28.41011294 504.32536422 40.79422459 505 53.25 C505.14306045 55.85952849 505.28898677 58.46890116 505.4375 61.078125 C505.47588989 61.75686676 505.51427979 62.43560852 505.55383301 63.13491821 C505.80328066 67.3287718 506.12177241 71.5116433 506.49023438 75.69677734 C507.91517756 91.95536616 508.3746553 108.10650643 508.53173828 124.42138672 C508.67438378 137.97270889 509.19521298 151.35741591 510.53125 164.84692383 C511.03952783 170.07957135 511.29430885 175.3103928 511.5 180.5625 C511.82992429 188.40586785 512.43439016 196.18533482 513.18287659 203.99908447 C515.38345548 227.39917076 516.32604624 250.69045867 516.5625 274.1875 C516.60705385 278.14159303 516.65409347 282.09562429 516.70530701 286.04963684 C516.736238 288.47185872 516.76339907 290.89413383 516.78553772 293.31645203 C516.85206061 298.85433994 517.00907443 304.36204731 517.36984253 309.88919067 C518.36222027 325.58283339 518.12782815 341.3158452 518.10139394 357.03321052 C518.09506925 361.43870877 518.09454949 365.84420799 518.09336853 370.24971008 C518.09028174 378.56121128 518.08210475 386.87269905 518.07201904 395.18419439 C518.06077472 404.65966447 518.05532665 414.13513525 518.05032361 423.61061037 C518.0399194 443.07374781 518.02237226 462.53687282 518 482 C516.83808341 482.00634791 516.83808341 482.00634791 515.65269375 482.01282406 C496.40876906 482.11817344 477.16486674 482.22702528 457.92098141 482.33933926 C448.61310059 482.39358678 439.30521642 482.44681481 429.99731445 482.49731445 C392.90048559 482.69918198 355.80476586 482.92692974 318.71075368 483.44213986 C316.57050657 483.4717353 314.43025053 483.50058563 312.28999138 483.52929497 C299.83288942 483.69812614 287.37788352 483.89078914 274.92472839 484.25115967 C274.15230104 484.2735005 273.37987369 484.29584133 272.58403945 484.31885916 C271.41534454 484.35269183 271.41534454 484.35269183 270.22303963 484.38720798 C249.81562271 484.97682329 229.42681712 485.14974793 209.01151443 485.1343255 C205.35559893 485.13224293 201.69968722 485.13353159 198.04377156 485.13475883 C189.34517619 485.13767869 180.64659199 485.13577825 171.94799805 485.13037109 C164.17032235 485.12558961 156.39266588 485.12550553 148.61499023 485.13037109 C98.06803118 485.16125628 47.53994985 484.86680467 -3 484 C-3.62358652 437.48212331 -3.62358652 437.48212331 -0.59863281 415.10644531 C2.71101629 390.55631252 3.30134819 365.91474013 3.33885384 341.18029642 C3.34732531 337.31326612 3.36828544 333.44630132 3.38806152 329.57931519 C3.43630879 319.76124203 3.46883815 309.94313982 3.5 300.125 C3.54115377 287.27337996 3.5889607 274.42182518 3.65625 261.5703125 C3.66029594 260.78348367 3.66434189 259.99665483 3.66851044 259.1859827 C3.79377898 235.48537844 4.20881127 211.80606454 4.96875 188.1171875 C4.99023668 187.44073637 5.01172337 186.76428525 5.03386116 186.06733561 C5.17603584 181.60826244 5.32655856 177.14953236 5.48242188 172.69091797 C5.51942703 171.60516857 5.55643219 170.51941917 5.59455872 169.40076828 C5.8458948 162.60276069 6.26757058 155.82928584 6.78371048 149.04622746 C7.25610084 142.39306878 7.24390968 135.7296941 7.25 129.0625 C7.25100708 128.28276825 7.25201416 127.5030365 7.25305176 126.69967651 C7.23737177 108.49820624 5.46654511 90.59461731 3.18887329 72.54446411 C2.71470342 68.76060623 2.25840553 64.97478717 1.8125 61.1875 C1.72347412 60.43418396 1.63444824 59.68086792 1.54272461 58.90472412 C-0.70866408 39.31670356 -0.38230207 19.68414526 0 0 Z " fill="#7F7F7F" transform="translate(822,1934)"/>
<path d="M0 0 C9.03930927 -0.03562913 18.07856903 -0.06486076 27.11794281 -0.07794952 C29.32759186 -0.08158711 31.53723912 -0.08681542 33.74687958 -0.09397125 C44.56167384 -0.12681599 55.35035935 0.01471444 66.15732574 0.44962311 C67.59804569 0.50713619 67.59804569 0.50713619 69.06787109 0.56581116 C78.56587356 0.98898859 88.00082307 1.93418321 97.44443512 3.01016998 C97.65650409 14.78309828 97.02285465 26.45487874 96.25693512 38.19766998 C96.16247604 39.67496582 96.16247604 39.67496582 96.0661087 41.18210602 C94.65675956 62.88638835 92.2023869 84.44085923 89.44443512 106.01016998 C88.77017487 106.0247525 88.09591461 106.03933502 87.40122223 106.05435944 C70.19381267 106.46020133 53.10266586 107.45102637 35.9539566 108.90592194 C17.20904889 110.47655464 -1.5289934 111.05336454 -20.33290863 111.25626373 C-21.10980356 111.26470432 -21.88669849 111.27314491 -22.6871357 111.28184128 C-29.93576188 111.35923218 -37.1844331 111.43008948 -44.43325043 111.48697662 C-48.44864107 111.51890672 -52.46384876 111.56015209 -56.47908974 111.60717201 C-57.98717805 111.62302858 -59.49530738 111.63542394 -61.00345421 111.64407921 C-72.43099391 111.66702972 -72.43099391 111.66702972 -83.55556488 114.01016998 C-85.85801356 117.463843 -85.81249094 118.79546799 -85.82118988 122.86563873 C-85.82529877 124.03844391 -85.82940765 125.21124908 -85.83364105 126.41959381 C-85.82437592 127.66635895 -85.81511078 128.91312408 -85.80556488 130.19766998 C-85.7995224 131.46312653 -85.79347992 132.72858307 -85.78725433 134.03238678 C-86.04231613 149.3971604 -86.04231613 149.3971604 -82.10634613 163.99063873 C-76.65279653 176.18122137 -77.97391797 192.61183044 -77.45107269 205.76358795 C-76.92808292 218.62481807 -76.34892969 231.25449345 -72.33681488 243.59610748 C-72.07900238 244.39274811 -71.82118988 245.18938873 -71.55556488 246.01016998 C-71.23201019 246.9653653 -70.90845551 247.92056061 -70.57509613 248.90470123 C-69.06568793 254.24986618 -68.62449764 259.79790709 -67.9821701 265.29917145 C-64.79872941 292.23997791 -60.21289481 319.54223316 -49.80190277 344.74210358 C-48.45939066 348.26235179 -47.39617654 351.82258137 -46.37197113 355.44376373 C-43.49938558 365.38917963 -40.31423796 375.22787605 -37.09926605 385.06705475 C-36.11868761 388.07076244 -35.14455025 391.07650863 -34.17079926 394.08243561 C-27.02500826 416.05114577 -19.53990175 437.1320657 -7.19618988 456.74454498 C-4.89947988 460.40686634 -2.81813313 464.12197719 -0.80556488 467.94766998 C4.38415759 477.76006686 10.40138254 486.45274091 17.44443512 495.01016998 C18.87481439 496.78338455 20.29927101 498.56120145 21.72177887 500.34073639 C22.75830043 501.63671803 23.79743014 502.93061736 24.83896637 504.22257233 C27.21610039 507.1785825 29.54104041 510.14231568 31.78037262 513.20548248 C38.17382078 521.85044394 45.53465783 529.36862276 53.13193512 536.94766998 C53.67731934 537.49227875 54.22270355 538.03688751 54.78461456 538.59799957 C60.82619806 544.61474113 66.94486996 550.48522316 73.44443512 556.01016998 C74.55133519 556.98250132 75.65684577 557.95641713 76.76084137 558.93204498 C84.43678901 565.64528234 92.39119604 571.78953981 100.67343903 577.73282623 C103.39005675 579.69220643 106.07441334 581.69178942 108.75693512 583.69766998 C109.72631012 584.42212311 110.69568512 585.14657623 111.69443512 585.89298248 C114.2816882 587.88487335 116.76392131 589.96508923 119.25693512 592.07266998 C123.28186795 595.29391252 127.46149981 597.98616439 131.94443512 600.51016998 C132.53716217 600.86087555 133.12988922 601.21158112 133.7405777 601.57291412 C138.94105515 604.37480113 143.623695 604.38246098 149.44443512 604.01016998 C157.22996056 619.71161883 163.94929655 635.73926652 170.44443512 652.01016998 C182.9320398 685.23551219 182.9320398 685.23551219 201.21396637 715.36856842 C203.48446681 718.39770432 205.52315243 721.57715405 207.56943512 724.76016998 C207.96018219 725.35781158 208.35092926 725.95545319 208.75351715 726.57120514 C211.44443512 730.76482764 211.44443512 730.76482764 211.44443512 733.01016998 C208.92041768 732.77988748 206.40218309 732.52662792 203.88193512 732.26016998 C203.17746246 732.19829498 202.47298981 732.13641998 201.74716949 732.07266998 C196.37118636 731.4780912 193.06027436 729.79276811 188.44443512 727.01016998 C185.80082419 726.19538373 185.80082419 726.19538373 183.13193512 725.88516998 C182.10841949 725.7369278 181.08490387 725.58868561 180.03037262 725.43595123 C177.34866846 725.11753538 174.67005264 724.82384591 171.98349762 724.55313873 C155.3805531 722.8769794 155.3805531 722.8769794 147.44052887 719.04239655 C141.85291331 716.36435428 136.59765375 715.10807029 130.50693512 714.13516998 C123.75592372 712.93164533 118.25537743 711.58990934 112.61240387 707.47501373 C110.29870661 705.91170478 107.91600315 704.93054591 105.34262848 703.86978912 C101.91690842 702.31841159 98.79717109 700.27921383 95.63193512 698.26016998 C94.92327301 697.81334869 94.2146109 697.3665274 93.48447418 696.90616608 C89.81404683 694.57630824 86.21726625 692.18466987 82.69443512 689.63516998 C77.87571781 686.17578678 72.79779173 683.21075671 67.69443512 680.19766998 C59.85289118 675.55371895 52.38526454 670.62542426 45.06699371 665.20157623 C42.92099712 663.62582189 40.74104364 662.09908171 38.56235504 660.56900787 C16.48463891 645.01549261 -4.35288153 627.90867764 -24.55556488 610.01016998 C-25.73699066 608.96796295 -25.73699066 608.96796295 -26.94228363 607.90470123 C-34.63975089 601.05595931 -41.98715045 593.98115741 -48.69228363 586.15079498 C-50.84443265 583.67830512 -53.07537207 581.28745641 -55.30556488 578.88516998 C-61.08494771 572.53046398 -66.37986267 565.86233843 -71.55556488 559.01016998 C-72.05427094 558.35194244 -72.55297699 557.6937149 -73.06679535 557.01554108 C-80.61888486 546.98024637 -87.45045825 536.59406343 -94.03237152 525.89981842 C-97.79617437 519.78868198 -101.68672503 513.8049621 -105.74306488 507.88516998 C-140.80728195 456.07064222 -157.60262039 396.49397673 -168.05023956 335.65579987 C-168.98834054 330.21247209 -169.96103945 324.7778337 -170.98348236 319.34972382 C-178.25991672 280.71556228 -180.9332151 241.66799018 -183.6623764 202.49539948 C-186.81067768 157.54456305 -190.74296683 112.49921939 -196.66487885 67.82389069 C-197.31294608 62.92882018 -197.92238569 58.03027333 -198.50917816 53.12747955 C-198.93569441 49.56594026 -199.3708643 46.00548294 -199.80696869 42.44510651 C-200.00917555 40.78119434 -200.20828275 39.11690153 -200.40377045 37.45218658 C-201.50523465 28.11241018 -203.05456914 19.26538397 -205.76625824 10.24893951 C-206.55235585 7.02333761 -206.61378623 4.31187722 -206.55556488 1.01016998 C-180.92443704 0.87803979 -155.29330107 0.74759512 -129.66215515 0.61901855 C-117.75422521 0.55924641 -105.84629829 0.4989642 -93.93837738 0.43741608 C-62.6256485 0.2758067 -31.31289979 0.12461106 0 0 Z " fill="#A5A5A5" transform="translate(743.5555648803711,348.98983001708984)"/>
<path d="M0 0 C7.71620262 0.59355405 14.53576097 1.25372575 22.01400757 2.57437134 C27.15635262 3.30737033 32.27170811 3.26521924 37.45703125 3.23046875 C38.6030632 3.23001053 39.74909515 3.22955231 40.92985535 3.2290802 C43.33744349 3.22607999 45.74503008 3.21826148 48.15258789 3.20581055 C51.79255234 3.1875998 55.4322604 3.18530111 59.07226562 3.18554688 C61.42968965 3.18062812 63.78711199 3.17479826 66.14453125 3.16796875 C67.2106514 3.16685593 68.27677155 3.1657431 69.37519836 3.16459656 C74.90499632 3.13071506 80.3774231 2.92265424 85.89163208 2.49900818 C93.99478434 1.92396186 102.08301949 1.85850204 110.20336914 1.87060547 C111.76232951 1.8692462 113.32128957 1.86746334 114.88024902 1.86529541 C119.06352269 1.86078693 123.24677134 1.86248224 127.43004537 1.8656745 C131.82742324 1.86822842 136.22479915 1.86585256 140.62217712 1.86428833 C147.99283224 1.86247715 155.36347728 1.86484704 162.73413086 1.86962891 C171.24637054 1.87508772 179.75858633 1.87329293 188.27082545 1.8678025 C195.6036471 1.86326303 202.93646158 1.86262437 210.26928419 1.86524117 C214.6388424 1.86679701 219.00838937 1.86701634 223.37794685 1.86370468 C227.47795101 1.86081322 231.57792429 1.8628251 235.67792511 1.86859894 C237.17993303 1.86991891 238.68194355 1.86954539 240.18395042 1.86733627 C242.23705346 1.8645952 244.29005811 1.86804172 246.34315491 1.87301636 C247.49066255 1.87339338 248.63817019 1.87377041 249.82045078 1.87415886 C252.96311161 1.99854002 255.9097311 2.43511125 259 3 C260.71570761 3.10449204 262.4338277 3.17524764 264.15234375 3.2109375 C265.09400391 3.23929687 266.03566406 3.26765625 267.00585938 3.296875 C268.95619015 3.34884917 270.9067408 3.393153 272.85742188 3.4296875 C279.660909 3.65290512 284.92238104 4.34982812 290.25 8.9375 C296.37688708 19.65955238 296.30552528 33.92937977 297.5625 45.9375 C297.77205086 47.87312665 297.98233332 49.80867425 298.19335938 51.74414062 C298.71436365 56.55203177 299.21611608 61.36166951 299.70843506 66.1725769 C299.99489913 68.95053482 300.29145826 71.72729362 300.58837891 74.50415039 C301.74086488 85.55089175 302.33469601 96.45730305 302.25 107.5625 C302.24656586 108.3151413 302.24313171 109.06778259 302.23959351 109.8432312 C302.16130894 124.57724115 301.30839156 138.75227235 298.39619446 153.21557617 C295.08938456 169.63935276 292.52096436 186.15864134 290.03295898 202.72216797 C289.55402565 205.90845932 289.06822974 209.09357903 288.57592773 212.27783203 C285.88870118 229.66459486 283.46495447 246.92582859 282.39111328 264.50317383 C281.02617887 286.10808416 275.81213235 307.18746576 270.625 328.125 C269.91422867 331.00508439 269.20441121 333.88540157 268.49513245 336.76585388 C268.02540855 338.67314221 267.554983 340.58025787 267.08384705 342.48719788 C265.68597874 348.15832943 264.32761987 353.83733951 262.99586487 359.52433777 C261.15369966 367.37622184 259.30057309 375.17335547 256.6875 382.8125 C256.3975415 383.67012939 256.10758301 384.52775879 255.80883789 385.41137695 C252.92344727 393.66861153 249.21665345 401.34978588 245 409 C244.17628906 410.51787109 244.17628906 410.51787109 243.3359375 412.06640625 C240.70229701 416.70566527 238.37929145 419.8371784 234 423 C232.05986564 425.7161881 231.95496165 427.46539633 231.625 430.875 C231.30275399 434.17650161 230.95483258 435.06432935 228.9375 437.9375 C226.39036881 441.96361059 226.27129976 445.33970776 227 450 C227.3403125 450.67804688 227.680625 451.35609375 228.03125 452.0546875 C230.30260834 456.61572158 227.93187383 462.67220478 226.5625 467.3125 C221.65570092 481.35732344 213.68058148 494.02428141 205 506 C203.21471357 508.57347871 201.45250141 511.16258304 199.6875 513.75 C194.36957606 521.50313035 188.95199044 529.18380728 183.51611328 536.85449219 C182.00340615 538.99517982 180.49861022 541.14121251 178.99609375 543.2890625 C167.39362077 559.85565543 155.19191439 575.75867559 142.08349609 591.16479492 C139.19072854 594.56962371 136.36174553 598.01739434 133.5625 601.5 C121.74654933 615.97192542 108.46630644 630.15942726 94 642 C93.42636719 642.47147461 92.85273437 642.94294922 92.26171875 643.42871094 C85.34732959 649.10546535 78.41806572 654.76629063 71.3125 660.203125 C69.47803274 661.62855564 67.67334948 663.07686379 65.875 664.546875 C37.36510623 687.69420316 3.55415691 696.22707634 -31.46484375 704.85351562 C-45.26223144 708.25817136 -58.76891425 712.150178 -72.25 716.625 C-82.06506883 719.87701521 -91.82561512 722.96505192 -101.9375 725.1875 C-102.81116211 725.38359863 -103.68482422 725.57969727 -104.58496094 725.78173828 C-110.75768572 727.0415517 -116.71275483 727.19519103 -123 727 C-118.2354663 719.27058913 -112.50930694 712.61085771 -106.55371094 705.79638672 C-105.06922926 704.08004225 -103.61152219 702.34527336 -102.1640625 700.59765625 C-97.84854862 695.39227433 -93.51266788 690.43961477 -88.625 685.75 C-76.60145054 673.8979705 -67.51289753 660.05220243 -60 645 C-59.65130859 644.30390625 -59.30261719 643.6078125 -58.94335938 642.890625 C-57.91255604 640.79354135 -56.91714699 638.6839391 -55.9375 636.5625 C-55.60363281 635.84980957 -55.26976562 635.13711914 -54.92578125 634.40283203 C-52.85704633 629.72503601 -51.531748 625.18245682 -50.453125 620.1796875 C-46.36251828 602.5214042 -46.36251828 602.5214042 -40.45849609 598.09423828 C-33.9387403 594.92132647 -26.96389625 593.46751534 -19.91162109 591.94287109 C-13.66469386 590.51903024 -7.68934361 588.24093814 -1.68292236 586.03955078 C0.24507109 585.33706835 2.1787011 584.65369941 4.11572266 583.9765625 C22.08223174 577.63460143 36.03037236 570.21881704 50 557 C50.75023437 556.30261719 51.50046875 555.60523438 52.2734375 554.88671875 C62.10966834 545.44738845 69.60443787 534.3864501 76.80078125 522.89501953 C78.06661788 520.89472964 79.35768534 518.91278218 80.65625 516.93359375 C87.08780437 507.12922848 93.21040494 497.19687981 99 487 C99.59474121 485.95263672 100.18948242 484.90527344 100.80224609 483.82617188 C110.20958419 467.18223954 118.9745315 450.36281844 127 433 C127.50515137 431.91025879 128.01030273 430.82051758 128.53076172 429.69775391 C130.60049045 425.2296549 132.66728851 420.76032363 134.71850586 416.28369141 C136.84363328 411.64686014 138.97055783 407.01625408 141.2265625 402.44140625 C149.09981922 386.44168623 155.5453548 369.81590251 162.10827637 353.24761963 C162.94780715 351.13155385 163.7919505 349.01739695 164.63769531 346.90380859 C174.85754129 321.31042105 181.57908162 295.53485147 186.38183594 268.45556641 C186.90697164 265.52003295 187.4670465 262.59457548 188.0390625 259.66796875 C192.99288855 232.56971917 190.03109835 203.92868151 187.93484497 176.67523193 C187.83367874 175.3587265 187.83367874 175.3587265 187.73046875 174.015625 C187.66407196 173.15197327 187.59767517 172.28832153 187.52926636 171.39849854 C186.88228885 162.79031209 186.52658545 154.18372259 186.29125977 145.55419922 C186.78640641 128.79053535 186.78640641 128.79053535 179.5625 114.625 C175.08732137 111.78708184 171.20397536 111.86842596 165.95123291 111.84178162 C165.24136065 111.83684364 164.53148839 111.83190566 163.80010486 111.82681805 C161.42175192 111.81146147 159.04342595 111.80308743 156.66503906 111.79467773 C154.96003482 111.78509776 153.25503295 111.77508761 151.55003357 111.76467896 C146.92026795 111.73763673 142.29049215 111.71662345 137.66069126 111.69667697 C132.82266444 111.67481323 127.98466899 111.64742643 123.14666748 111.62062073 C113.98470712 111.57069911 104.82272933 111.52575829 95.66073489 111.48259836 C83.28049011 111.42399095 70.90028659 111.3577069 58.52007866 111.29184818 C39.01341358 111.18828179 19.50671311 111.0949871 0 111 C0 74.37 0 37.74 0 0 Z " fill="#888888" transform="translate(1839,339)"/>
<path d="M0 0 C2.81615375 13.3558818 3.46971534 26.30856103 3.39111328 39.93896484 C3.37508823 43.23187103 3.39102022 46.52353793 3.41015625 49.81640625 C3.42242234 63.00577771 2.35268957 75.66105235 0.34106445 88.68585205 C-2.88173755 110.55280588 -2.20704113 133.08067263 -2.24542618 155.13305283 C-2.24994565 157.28660213 -2.25765797 159.44012076 -2.26596069 161.59365845 C-2.31421194 176.0359904 -2.15276016 190.31954937 -0.46337891 204.67895508 C0.44695983 212.57394082 0.39227067 220.52424761 0.47851562 228.46289062 C0.61974552 235.16269906 1.17832859 241.36085348 2.50927734 247.92805481 C4.14664463 256.64157833 4.38817547 265.04807696 4.29296875 273.8894043 C4.28719082 275.49791543 4.2828091 277.10643207 4.2796936 278.71495056 C4.27031521 282.13878997 4.25167443 285.56239904 4.22549438 288.98615074 C4.18448556 294.40373805 4.16715614 299.82125294 4.15307617 305.2389679 C4.119992 316.72191296 4.06126313 328.20467603 4 339.6875 C3.93379342 352.12679667 3.87219723 364.56602253 3.83974552 377.00546008 C3.82483105 382.38882545 3.79530901 387.77185002 3.75445557 393.15507829 C3.73206557 396.49754762 3.72212855 399.83997038 3.7155571 403.18250465 C3.70994728 404.72969485 3.69915661 406.2768764 3.68275833 407.82398987 C3.66105217 409.93847452 3.65799916 412.05221626 3.65942383 414.16679382 C3.65276199 415.34857554 3.64610016 416.53035727 3.63923645 417.74795055 C4.14181893 422.27840571 5.59185795 425.68270583 8.9375 428.8125 C13.45561475 431.41383879 18.16147393 431.15154883 23.25 431.125 C23.97574219 431.12886719 24.70148438 431.13273437 25.44921875 431.13671875 C26.17238281 431.13542969 26.89554688 431.13414062 27.640625 431.1328125 C28.28547852 431.13168457 28.93033203 431.13055664 29.59472656 431.12939453 C32.20969059 431.02232878 32.20969059 431.02232878 35.61503601 430.5 C39.94670246 429.95203558 44.2030011 429.8588621 48.56469727 429.87060547 C49.38057816 429.86885315 50.19645905 429.86710083 51.0370636 429.86529541 C53.71353331 429.86092302 56.38993595 429.86380051 59.06640625 429.8671875 C60.94717929 429.86651268 62.82795224 429.86554118 64.70872498 429.86428833 C68.64672681 429.8628172 72.5847059 429.86494541 76.52270508 429.86962891 C81.52965663 429.87529826 86.53655423 429.87206125 91.54350376 429.86605644 C95.42923882 429.8624114 99.31496148 429.86360783 103.20069695 429.86618423 C105.04437199 429.86684408 106.88804822 429.86605865 108.73172188 429.86370468 C139.77110558 429.83279071 139.77110558 429.83279071 150.875 433.8125 C151.73939697 434.11091797 152.60379395 434.40933594 153.49438477 434.71679688 C164.12512239 438.54239104 174.2156658 443.5911709 184.30078125 448.65185547 C186.54450562 449.7725 188.79620333 450.867496 191.0625 451.94140625 C206.1722343 459.19897539 220.17920509 468.56464963 234 478 C234.9590625 478.6496875 235.918125 479.299375 236.90625 479.96875 C239.2981642 481.61138987 241.65531397 483.29086989 244 485 C244.93199219 485.64582031 244.93199219 485.64582031 245.8828125 486.3046875 C252.57774761 491.37842756 257.92151775 499.23397995 259.7734375 507.41796875 C260.04523613 509.60517849 260.2934349 511.79547654 260.515625 513.98828125 C261.26581034 518.65274008 263.48710441 522.07860242 266 526 C267.01622658 527.99180409 268.01712992 529.99152635 269 532 C269.30607178 532.56557617 269.61214355 533.13115234 269.92749023 533.71386719 C272.59825277 538.74560713 274.17446592 543.66368926 275.5 549.1875 C276.86892002 554.68062193 278.30424022 560.07251317 280.125 565.4375 C282.66483689 573.3963411 283.60591813 581.65626116 284.67456055 589.91625977 C284.96322118 591.99130337 284.96322118 591.99130337 285.50708008 593.94799805 C286.08447586 596.35166897 286.30052997 598.67663585 286.5 601.140625 C286.5825 602.12933594 286.665 603.11804687 286.75 604.13671875 C286.8325 605.16410156 286.915 606.19148438 287 607.25 C287.16519032 609.27616257 287.33183046 611.30220752 287.5 613.328125 C287.5721875 614.2243457 287.644375 615.12056641 287.71875 616.04394531 C287.9296514 618.26060695 288.20467607 620.47132296 288.51147461 622.67675781 C289.15339519 627.72332011 289.22838977 632.76207799 289.31640625 637.84375 C289.33718735 638.85344849 289.35796844 639.86314697 289.37937927 640.90344238 C289.44432466 644.1022313 289.50350185 647.30109642 289.5625 650.5 C289.60573764 652.67969511 289.64935353 654.85938276 289.69335938 657.0390625 C289.79994898 662.35929642 289.90181348 667.67960472 290 673 C289.30273804 673.00808685 288.60547607 673.01617371 287.88708496 673.02450562 C255.56009419 673.40484236 223.23849592 673.87699854 190.92398071 674.87653351 C188.98223959 674.93612691 187.04043655 674.99369164 185.09863281 675.0512085 C172.55321343 675.42741577 160.0361597 675.90551175 147.51360893 676.75405312 C128.28066474 678.04216842 109.11971684 678.27018119 89.8497386 678.20278788 C85.54042738 678.18997313 81.23111078 678.18908657 76.92178345 678.18673706 C68.82325711 678.18060993 60.72478712 678.16432283 52.6262852 678.14403808 C43.38021513 678.12139973 34.13414184 678.1106167 24.88805079 678.10064721 C5.92533568 678.07994475 -13.03732758 678.0449467 -32 678 C-32.02556756 677.10612926 -32.05113512 676.21225851 -32.07747746 675.29130077 C-32.17562262 671.90084828 -32.2759629 668.51047424 -32.37767887 665.12012768 C-32.420861 663.66662962 -32.46322594 662.213107 -32.50468159 660.75955868 C-32.88219139 647.55681281 -33.6641657 634.41181605 -34.67456055 621.2409668 C-34.94057009 617.77246914 -35.1966536 614.30334259 -35.45117188 610.83398438 C-36.14168255 601.53616063 -36.85164591 592.24642235 -37.80239868 582.97119141 C-39.11943661 570.10214076 -39.62392201 557.23765135 -40.0625 544.3125 C-40.21745474 539.93349839 -40.37588572 535.55462779 -40.53515625 531.17578125 C-40.57331451 530.10828644 -40.61147278 529.04079163 -40.65078735 527.94094849 C-40.83721427 522.85611614 -41.04909653 517.77702297 -41.36390781 512.69847584 C-42.97507452 486.42577726 -43.15657328 460.09456783 -43.1343255 433.78146791 C-43.13171713 429.70012643 -43.13416189 425.61878669 -43.13571167 421.53744507 C-43.13750825 414.70220526 -43.13519307 407.86697641 -43.13037109 401.03173828 C-43.12492021 393.21652083 -43.12670743 385.40132945 -43.1321975 377.58611262 C-43.13678569 370.77230475 -43.13735209 363.95850456 -43.13475883 357.14469564 C-43.13322865 353.12012709 -43.13290971 349.09557065 -43.13629532 345.07100296 C-43.14784617 329.22718996 -43.01143535 313.42346969 -42.36293507 297.58978558 C-41.80708721 283.31146131 -41.83516907 269.03026616 -41.83274293 254.74339938 C-41.83201793 252.32668832 -41.82985716 249.9099825 -41.82724571 247.49327278 C-41.81805902 238.95994852 -41.81390134 230.42663959 -41.81469727 221.89331055 C-41.81522714 214.96392482 -41.80822576 208.0345959 -41.79418945 201.10522461 C-41.65869371 152.62271201 -41.65869371 152.62271201 -42.88671875 104.16015625 C-42.92566568 103.17925962 -42.96461262 102.198363 -43.00473976 101.18774223 C-43.45322945 90.30940525 -44.14553082 79.45775184 -44.99584961 68.60351562 C-45.07696078 67.56201386 -45.15807196 66.5205121 -45.24164104 65.44744968 C-45.68867897 59.97904821 -46.2906647 54.59762525 -47.1796875 49.18359375 C-48.48410582 40.11520613 -47.73170777 31.16225236 -47.125 22.0625 C-47.01821419 20.30020952 -46.9127377 18.5378392 -46.80859375 16.77539062 C-46.5540972 12.51585882 -46.282083 8.25779018 -46 4 C-40.41363452 3.4264919 -34.82688413 2.85694795 -29.23974609 2.29101562 C-27.34054752 2.09808528 -25.44145712 1.90408696 -23.54248047 1.70898438 C-20.8072463 1.42815363 -18.07164152 1.15121158 -15.3359375 0.875 C-14.49195404 0.78750488 -13.64797058 0.70000977 -12.77841187 0.60986328 C-8.49755843 0.18153555 -4.3094417 -0.09752626 0 0 Z " fill="#BCBCBC" transform="translate(1385,1240)"/>
<path d="M0 0 C9.57 0 19.14 0 29 0 C29 5 29 5 26.5 7.6875 C24.18131505 10.28943339 23.59127415 12.0144683 23.5 15.5 C23.75832914 19.57833641 24.4787904 23.3858214 25.40234375 27.36328125 C29.86536815 47.80792976 31.16985509 69.07075647 32.10668945 89.93725586 C32.16988182 91.30997141 32.16988182 91.30997141 32.2343508 92.71041858 C33.1630811 113.2699253 33.28068777 133.81053166 33.23571944 154.38750577 C33.2266866 159.42613622 33.22870086 164.4647658 33.2290802 169.50340271 C33.22815689 177.91398725 33.21964266 186.3245347 33.20581055 194.73510742 C33.18992902 204.42709819 33.18481898 214.11904907 33.1855461 223.81105191 C33.18622202 234.23391676 33.17929935 244.65676652 33.1700995 255.0796268 C33.16797926 258.05167178 33.16725996 261.0237143 33.16686058 263.99575996 C33.16585301 268.65427851 33.15972278 273.31276393 33.14969444 277.97127151 C33.14678953 279.67157857 33.14553997 281.37188943 33.14612198 283.07219887 C33.14918894 297.48987703 33.14918894 297.48987703 32.49900818 302.99475098 C31.61939211 310.46085569 31.86085675 318.01239445 31.87060547 325.51928711 C31.86924854 327.27941931 31.86746698 329.03955123 31.86529541 330.79968262 C31.86075808 335.55327965 31.86249473 340.30685484 31.8656745 345.06045222 C31.86821447 350.04116164 31.86585626 355.02186924 31.86428833 360.00257874 C31.8624726 368.35727269 31.86485853 376.71195778 31.86962891 385.06665039 C31.87508286 394.73025594 31.87329827 404.39384042 31.8678025 414.05744547 C31.86326924 422.36081178 31.86262149 430.66417174 31.86524117 438.96753889 C31.86680116 443.92449353 31.86700502 448.88143825 31.86370468 453.83839226 C31.86082247 458.49152238 31.86280812 463.14462521 31.86859894 467.79775238 C31.86992411 469.50742357 31.86953651 471.21709706 31.86733627 472.92676735 C31.86461561 475.2548747 31.86801705 477.5828938 31.87301636 479.91099548 C31.87339338 481.21524947 31.87377041 482.51950346 31.87415886 483.8632803 C31.85567479 487.03026475 31.85567479 487.03026475 33 490 C33.1841131 492.37095604 33.31413496 494.74621251 33.41723633 497.12207031 C33.45005361 497.8476778 33.48287088 498.57328529 33.51668262 499.32088089 C33.58787959 500.90449747 33.65715222 502.48820144 33.72475052 504.07197571 C33.8336117 506.61504529 33.94802231 509.15780966 34.0640564 511.70056152 C34.22965619 515.33168603 34.39378004 518.96287193 34.55673218 522.59411621 C35.90720764 552.56523206 37.38895541 582.48041097 40.3789978 612.34191895 C40.59890257 614.5602663 40.80170943 616.77961417 41 619 C41.08972076 619.95926392 41.17944153 620.91852783 41.2718811 621.90686035 C42.17644061 632.73039305 42.1126246 643.52160632 42.0625 654.375 C42.05747156 656.28645715 42.05291104 658.19791559 42.04882812 660.109375 C42.03793688 664.73961587 42.02074751 669.36979323 42 674 C22.58059715 674.02337862 3.16119716 674.04100356 -16.25821686 674.05181217 C-25.27533947 674.05696458 -34.29245332 674.06398718 -43.30957031 674.07543945 C-51.17049652 674.08541852 -59.0314164 674.09186111 -66.89234877 674.09408849 C-71.0531642 674.09539012 -75.2139615 674.0984413 -79.37477112 674.10573006 C-83.29482815 674.11254113 -87.21485964 674.11460663 -91.13492203 674.11310768 C-92.56996423 674.11338173 -94.00500733 674.11535657 -95.4400444 674.11920547 C-97.40781783 674.12422226 -99.37560511 674.12237924 -101.34338379 674.12025452 C-102.44216103 674.12117631 -103.54093826 674.1220981 -104.67301178 674.12304783 C-107.81685023 674.00677375 -110.86828111 673.64595756 -113.98429441 673.22875124 C-117.19174273 672.86475573 -120.37982064 672.85800378 -123.60571289 672.84178162 C-124.32716995 672.83684364 -125.04862701 672.83190566 -125.79194641 672.82681805 C-128.18551425 672.8115811 -130.57905557 672.80312031 -132.97265625 672.79467773 C-134.6979546 672.78508832 -136.42325065 672.77507763 -138.14854431 672.76467896 C-142.81526235 672.73773895 -147.4819904 672.71667063 -152.14874268 672.69667697 C-157.03212284 672.67474984 -161.91547256 672.64739418 -166.79882812 672.62062073 C-176.03857088 672.57078455 -185.27833062 672.52581219 -194.51810646 672.48259836 C-205.04048191 672.43314825 -215.56282679 672.37825904 -226.08517265 672.32291877 C-247.72341994 672.2092381 -269.36169643 672.10236896 -291 672 C-293.25875411 666.49631721 -294.35092409 661.01296667 -295.5 655.1875 C-295.71269531 654.15173828 -295.92539062 653.11597656 -296.14453125 652.04882812 C-299.26459049 636.40067824 -300.34958982 621.35069947 -300.31567383 605.42651367 C-300.31249417 602.30677931 -300.33613637 599.18797872 -300.36132812 596.06835938 C-300.40750197 581.87060669 -299.80846975 570.12681095 -292.4140625 557.6328125 C-290.60565806 554.26578324 -289.69750193 550.8832089 -288.70703125 547.2109375 C-287.69590961 544.04908752 -285.95268936 541.66275821 -284 539 C-282.6216127 536.69014279 -281.31446203 534.34725362 -280 532 C-279.02160156 532.06960938 -279.02160156 532.06960938 -278.0234375 532.140625 C-273.85001719 532.31297864 -270.71085324 532.29270428 -266.8125 530.6875 C-263.37376667 527.40159926 -261.36017412 523.75413155 -258.9375 519.6875 C-256.4276007 516.20602677 -253.66530024 514.41349927 -249.91796875 512.4140625 C-247.3577398 510.52648026 -246.87864089 509.04309771 -246 506 C-245.90332031 504.85789062 -245.80664062 503.71578125 -245.70703125 502.5390625 C-244.83926239 498.19542389 -242.87388286 496.21100441 -239.6875 493.375 C-236.13958602 490.06866628 -233.00456708 486.80118508 -230 483 C-228.82458008 481.8810413 -227.61607125 480.79566854 -226.375 479.75 C-224.15593566 477.86359247 -221.97228836 475.97380266 -219.85546875 473.97265625 C-214.76078731 469.17306709 -209.39177874 464.97422686 -203.6875 460.9375 C-202.69375366 460.23234253 -202.69375366 460.23234253 -201.67993164 459.51293945 C-190.23275737 451.5399942 -178.36672965 444.94736188 -165.8125 438.9375 C-165.09032288 438.58927185 -164.36814575 438.2410437 -163.62408447 437.88226318 C-128.61574603 421.01893343 -95.5299743 416.24368176 -57.00915527 416.36798096 C-50.62592452 416.38677343 -44.24299965 416.37602875 -37.85984421 416.34212112 C-35.66953363 416.33612362 -33.47995561 416.34910336 -31.28970337 416.36410522 C-21.39779675 416.37213903 -11.81348769 415.69727516 -4 409 C-0.52933376 403.74771376 1.07439178 398.96011566 2.21411133 392.79858398 C2.38254704 391.89136062 2.55098276 390.98413725 2.72452259 390.04942226 C4.77419892 377.84402558 4.58500108 365.56268614 4.57421875 353.22265625 C4.58672126 350.5603107 4.60084757 347.89802255 4.61714172 345.23570251 C4.65227649 338.96235971 4.66850378 332.68913124 4.6769169 326.41570133 C4.68779416 318.76079723 4.71862583 311.1060067 4.75195312 303.45117188 C4.75489765 302.77149691 4.75784218 302.09182195 4.76087594 301.39155078 C4.77571928 297.98057972 4.79088363 294.56961029 4.80630875 291.15864182 C4.81844308 288.4537522 4.8296591 285.74886112 4.84008408 283.04396439 C4.90836761 265.46199934 5.07174144 247.88664208 5.45703125 230.30859375 C5.4761878 229.40605425 5.49534435 228.50351475 5.51508141 227.57362556 C5.72175765 218.0845887 6.04656719 208.6106448 6.52563477 199.13134766 C6.93819914 190.94646461 7.1473915 182.7865427 7.1328125 174.58984375 C7.13376923 173.33200577 7.13472595 172.07416779 7.13571167 170.7782135 C7.13638354 168.14942372 7.13459979 165.52063217 7.13037109 162.8918457 C7.12504084 158.96757078 7.13033423 155.04341196 7.13671875 151.11914062 C7.14310379 129.08498609 6.67496612 107.04754578 5.125 85.0625 C5.05925781 83.96228516 4.99351562 82.86207031 4.92578125 81.72851562 C4.46263233 75.05995618 3.42063274 68.82683585 1.71435547 62.36108398 C-0.04819655 54.06817435 -0.14039273 45.75216689 -0.09765625 37.3046875 C-0.09553383 35.69450241 -0.09553383 35.69450241 -0.09336853 34.05178833 C-0.08781925 30.6594959 -0.07527647 27.26727212 -0.0625 23.875 C-0.05747844 21.55989679 -0.05291668 19.24479254 -0.04882812 16.9296875 C-0.03872197 11.2864113 -0.01913698 5.64328152 0 0 Z " fill="#D1D1D1" transform="translate(1287,1245)"/>
<path d="M0 0 C2.81615375 13.3558818 3.46971534 26.30856103 3.39111328 39.93896484 C3.37508823 43.23187103 3.39102022 46.52353793 3.41015625 49.81640625 C3.42242234 63.00577771 2.35268957 75.66105235 0.34106445 88.68585205 C-2.88173755 110.55280588 -2.20704113 133.08067263 -2.24542618 155.13305283 C-2.24994565 157.28660213 -2.25765797 159.44012076 -2.26596069 161.59365845 C-2.31421194 176.0359904 -2.15276016 190.31954937 -0.46337891 204.67895508 C0.44695983 212.57394082 0.39227067 220.52424761 0.47851562 228.46289062 C0.61781058 235.0709074 1.1337081 241.02966607 2.50708008 247.50219727 C4.61045258 258.5233151 4.39503211 269.52381221 4.328125 280.703125 C4.32505207 282.99241002 4.32318765 285.28169693 4.32244873 287.57098389 C4.31786816 292.36510432 4.30355734 297.15905474 4.28125 301.953125 C4.25341483 307.95050293 4.24215594 313.94774676 4.23744965 319.9451828 C4.21136196 349.9744408 3.81218713 379.98181208 3 410 C1.69497528 410.01231155 0.38995056 410.02462311 -0.95462036 410.03730774 C-1.79455976 410.0452621 -2.63449917 410.05321646 -3.49989128 410.06141186 C-5.33324903 410.07864602 -7.16660911 410.09563279 -8.99997139 410.11237812 C-12.78994851 410.14724133 -16.57975699 410.18359385 -20.36956787 410.23373413 C-22.93142474 410.26741686 -25.49264816 410.28309957 -28.0546875 410.29296875 C-29.33484741 410.3159906 -29.33484741 410.3159906 -30.64086914 410.33947754 C-33.10107422 410.34057617 -33.10107422 410.34057617 -37 410 C-39.14190155 406.78714767 -39.25448547 405.93348992 -39.2784729 402.23542786 C-39.28963638 401.25526199 -39.30079987 400.27509613 -39.31230164 399.26522827 C-39.31446182 398.19132843 -39.31662201 397.11742859 -39.31884766 396.01098633 C-39.33391609 394.31320793 -39.33391609 394.31320793 -39.34928894 392.58113098 C-39.38023607 388.83143635 -39.39718826 385.08181348 -39.4140625 381.33203125 C-39.43276485 378.73556394 -39.45233755 376.13910276 -39.4727478 373.54264832 C-39.51891423 367.40164564 -39.55628703 361.26064683 -39.58942068 355.11956185 C-39.62763197 348.1280323 -39.67704469 341.13659601 -39.72740483 334.14514506 C-39.830746 319.76350035 -39.91999927 305.38179252 -40 291 C-40.66 290.67 -41.32 290.34 -42 290 C-41.99815641 289.23787547 -41.99631283 288.47575094 -41.99441338 287.69053173 C-41.9496263 268.87091382 -41.91685542 250.05130696 -41.89637566 231.23164654 C-41.88620059 222.12942735 -41.87235485 213.02724479 -41.84912109 203.92504883 C-41.64896428 153.93079942 -41.64896428 153.93079942 -42.8828125 103.95703125 C-42.92187588 102.98191778 -42.96093925 102.00680431 -43.00118637 101.00214195 C-43.45169687 90.19015961 -44.15158788 79.40441606 -44.99609375 68.61621094 C-45.0771895 67.57390729 -45.15828526 66.53160364 -45.24183846 65.45771503 C-45.6885903 59.98576837 -46.28986939 54.60105585 -47.1796875 49.18359375 C-48.48410582 40.11520613 -47.73170777 31.16225236 -47.125 22.0625 C-47.01821419 20.30020952 -46.9127377 18.5378392 -46.80859375 16.77539062 C-46.5540972 12.51585882 -46.282083 8.25779018 -46 4 C-40.41363452 3.4264919 -34.82688413 2.85694795 -29.23974609 2.29101562 C-27.34054752 2.09808528 -25.44145712 1.90408696 -23.54248047 1.70898438 C-20.8072463 1.42815363 -18.07164152 1.15121158 -15.3359375 0.875 C-14.49195404 0.78750488 -13.64797058 0.70000977 -12.77841187 0.60986328 C-8.49755843 0.18153555 -4.3094417 -0.09752626 0 0 Z " fill="#A5A5A5" transform="translate(1385,1240)"/>
<path d="M0 0 C2.31 0 4.62 0 7 0 C7 41.25 7 82.5 7 125 C5.515 125.495 5.515 125.495 4 126 C3.97938507 125.45416763 3.95877014 124.90833527 3.93753052 124.34596252 C2.90544031 93.86792338 2.90544031 93.86792338 1 63.4375 C0.9292627 62.55843994 0.85852539 61.67937988 0.78564453 60.77368164 C0.45801452 57.06257279 0.0662407 53.4028191 -0.53857422 49.72485352 C-2.24853527 38.99394602 -1.84507267 28.86256437 -1.125 18.0625 C-1.01821419 16.30020952 -0.9127377 14.5378392 -0.80859375 12.77539062 C-0.5540972 8.51585882 -0.282083 4.25779018 0 0 Z " fill="#B6B6B6" transform="translate(1339,1244)"/>
</svg>
