<?xml version="1.0" standalone="no"?>
<!DOCTYPE svg PUBLIC "-//W3C//DTD SVG 20010904//EN"
 "http://www.w3.org/TR/2001/REC-SVG-20010904/DTD/svg10.dtd">
<svg version="1.0" xmlns="http://www.w3.org/2000/svg"
 width="2598.000000pt" height="2598.000000pt" viewBox="0 0 2598.000000 2598.000000"
 preserveAspectRatio="xMidYMid meet">

<g transform="translate(0.000000,2598.000000) scale(0.100000,-0.100000)"
fill="#000000" stroke="none">
<path d="M11391 25429 c-47 -11 -90 -23 -95 -28 -6 -5 -60 -25 -121 -46 -60
-20 -122 -43 -137 -51 -15 -8 -34 -14 -43 -14 -22 0 -306 -142 -348 -174 -19
-14 -38 -26 -42 -26 -5 0 -16 -6 -24 -14 -9 -8 -33 -23 -53 -33 -20 -11 -52
-33 -72 -49 -58 -47 -196 -184 -196 -194 0 -5 -8 -15 -17 -22 -24 -17 -106
-125 -127 -165 -9 -18 -21 -33 -25 -33 -5 0 -18 -15 -28 -34 -26 -49 -103
-160 -114 -164 -5 -2 -9 -10 -9 -18 0 -7 -13 -33 -28 -56 -81 -122 -102 -155
-102 -161 0 -4 -16 -30 -35 -57 -19 -27 -35 -54 -35 -59 0 -6 -11 -27 -25 -47
-14 -21 -28 -49 -32 -63 -3 -14 -19 -52 -34 -83 -16 -32 -29 -62 -29 -68 0 -6
-13 -38 -29 -73 -54 -113 -101 -224 -101 -236 0 -7 -12 -38 -26 -69 -15 -31
-36 -86 -49 -122 -12 -36 -29 -85 -38 -110 -33 -93 -87 -341 -113 -515 -24
-165 -27 -222 -35 -665 -9 -508 -21 -769 -38 -859 -12 -60 -14 -1312 -3 -1515
l7 -119 -25 -10 c-14 -6 -44 -24 -67 -39 -23 -15 -45 -28 -48 -28 -7 0 -42
-31 -153 -135 -55 -51 -154 -170 -187 -223 -5 -9 -21 -35 -35 -57 -26 -41 -79
-147 -123 -247 -30 -66 -80 -259 -97 -374 -6 -43 -24 -151 -40 -239 -16 -88
-31 -193 -34 -234 -4 -40 -11 -93 -17 -117 -10 -39 -16 -45 -48 -54 -52 -14
-95 -69 -148 -190 -25 -55 -31 -74 -78 -230 -20 -69 -50 -168 -66 -220 -69
-230 -148 -635 -160 -825 -5 -77 -14 -187 -21 -245 -9 -69 -13 -246 -13 -510
0 -458 14 -651 67 -920 17 -85 34 -181 38 -212 16 -123 83 -381 155 -599 19
-59 35 -112 35 -119 0 -6 13 -41 30 -77 16 -35 30 -67 30 -71 -1 -22 227 -498
278 -581 19 -31 43 -72 54 -91 61 -106 74 -128 94 -155 12 -16 30 -49 39 -72
10 -24 21 -43 25 -43 4 0 15 -19 25 -42 9 -24 29 -59 43 -78 15 -19 32 -42 37
-51 50 -79 253 -368 290 -412 17 -20 41 -50 55 -68 14 -17 41 -51 60 -75 19
-24 52 -65 73 -92 55 -71 281 -296 351 -350 34 -25 63 -50 64 -54 2 -4 9 -8
16 -8 7 0 21 -8 32 -19 30 -27 167 -95 259 -128 76 -27 88 -28 255 -28 171 0
176 1 240 29 98 44 220 179 220 244 0 10 4 22 9 27 5 6 19 40 31 77 21 63 22
80 18 265 -4 154 -10 216 -26 278 -11 44 -23 116 -26 160 -4 44 -20 125 -36
180 -73 254 -100 354 -100 377 0 13 -9 66 -20 117 -12 52 -19 95 -18 97 2 1
19 -10 37 -27 19 -16 37 -29 40 -29 4 0 16 -8 27 -19 17 -15 66 -45 154 -92 8
-5 56 -23 105 -40 84 -30 101 -32 255 -36 l165 -4 76 38 c42 21 89 54 106 73
32 37 113 208 113 238 0 9 9 66 21 125 11 60 23 142 27 183 l7 74 38 -48 c79
-97 430 -451 533 -538 60 -49 123 -104 140 -121 18 -18 37 -33 41 -33 5 0 22
-14 38 -30 16 -17 34 -30 41 -30 6 0 17 -7 24 -15 6 -8 37 -31 68 -51 32 -21
61 -44 65 -51 4 -7 13 -13 20 -13 7 0 26 -12 42 -26 17 -15 46 -37 65 -50 55
-38 96 -67 127 -92 15 -13 73 -59 128 -103 55 -45 110 -90 123 -100 12 -10 26
-19 30 -19 5 0 21 -14 37 -30 16 -16 33 -30 38 -30 5 0 32 -19 60 -43 61 -50
113 -87 123 -87 4 0 21 -11 39 -24 18 -14 54 -37 81 -52 27 -15 55 -33 62 -41
7 -7 19 -13 25 -13 7 0 36 -16 66 -35 29 -19 57 -35 61 -35 5 0 32 -14 60 -30
28 -16 55 -30 59 -30 4 0 38 -16 75 -35 37 -19 74 -35 83 -35 8 0 36 -11 62
-24 26 -12 65 -29 86 -36 22 -7 63 -23 90 -35 100 -46 181 -77 250 -97 38 -10
90 -27 115 -37 25 -10 70 -25 100 -35 30 -9 75 -25 100 -35 233 -96 499 -175
705 -211 66 -11 166 -32 223 -45 118 -28 181 -31 221 -11 23 12 62 13 257 3
367 -18 766 -15 912 6 67 10 143 24 170 32 26 8 55 15 66 15 19 0 171 70 216
100 14 9 52 34 85 55 66 43 207 181 230 225 8 15 26 58 40 95 14 38 34 82 44
99 10 17 24 49 31 71 6 22 19 56 28 75 14 28 18 74 20 243 3 195 2 211 -17
248 -12 22 -21 44 -21 50 0 6 -16 30 -35 53 -19 24 -35 47 -35 52 0 4 -30 38
-67 74 -38 37 -81 83 -98 103 -16 21 -42 49 -57 64 -16 14 -28 30 -28 35 0 5
-29 44 -65 86 -36 42 -80 95 -98 116 -17 22 -47 54 -64 71 -18 17 -33 36 -33
41 0 5 -13 22 -29 37 -17 15 -36 40 -44 55 -56 108 -145 250 -171 271 -9 8
-16 19 -16 26 0 6 -9 20 -21 31 -12 10 -43 50 -69 87 -26 37 -117 139 -201
225 -101 102 -161 172 -175 202 -12 27 -40 61 -65 81 -24 18 -45 37 -47 41 -2
5 -9 8 -16 8 -7 0 -31 16 -53 35 -23 19 -43 35 -46 35 -13 0 -102 87 -512 495
-243 242 -455 458 -471 480 -16 21 -53 64 -81 95 -29 30 -53 60 -53 66 0 5
-13 23 -30 39 -16 16 -30 35 -30 42 0 7 -4 13 -9 13 -4 0 -28 27 -52 60 -24
33 -49 62 -56 64 -7 3 -13 11 -13 19 0 7 -15 29 -32 49 -35 38 -57 63 -128
149 -25 30 -67 78 -95 108 -27 30 -57 63 -65 73 -8 11 -27 32 -42 48 -16 15
-28 32 -28 37 0 4 -16 23 -35 42 -19 19 -35 38 -35 43 0 5 -9 19 -20 31 -28
29 -110 151 -110 163 0 8 -61 103 -95 149 -9 11 -47 61 -85 112 -39 50 -70 94
-70 97 0 3 -16 30 -35 60 -19 30 -35 59 -35 64 0 7 -72 153 -117 237 -6 11
-30 58 -53 105 -23 47 -45 90 -50 95 -10 13 -81 147 -182 344 -44 85 -88 166
-99 179 -10 14 -19 29 -19 35 0 5 -13 39 -30 74 -16 34 -30 68 -30 74 0 5 -13
41 -29 78 -16 37 -32 92 -36 121 l-7 53 88 -6 c115 -8 307 -49 381 -80 102
-43 219 -87 230 -87 7 0 18 -6 25 -13 12 -12 36 -25 133 -74 33 -17 104 -55
180 -98 28 -16 64 -39 81 -52 17 -13 35 -23 40 -23 6 0 30 -13 55 -28 24 -16
57 -32 72 -36 15 -3 27 -10 27 -15 0 -5 14 -14 30 -21 17 -7 30 -16 30 -21 0
-5 8 -9 18 -9 9 0 29 -10 44 -23 15 -12 50 -35 79 -52 54 -31 70 -41 185 -113
38 -24 96 -59 129 -79 33 -20 62 -40 63 -45 2 -4 12 -8 22 -8 9 0 23 -7 30
-16 8 -8 43 -33 79 -55 103 -61 104 -62 142 -94 20 -16 60 -48 89 -70 29 -22
66 -51 82 -65 15 -14 48 -43 73 -65 71 -62 135 -126 195 -194 30 -34 63 -72
74 -83 10 -11 47 -58 81 -103 34 -46 72 -93 84 -106 11 -12 21 -28 21 -35 0
-7 6 -17 13 -21 7 -4 30 -33 51 -63 22 -30 45 -59 52 -63 8 -4 14 -14 14 -21
0 -7 12 -25 27 -40 15 -15 31 -35 37 -45 32 -54 86 -128 105 -145 11 -11 21
-25 21 -33 0 -7 8 -21 18 -31 9 -9 46 -58 82 -107 66 -91 229 -261 294 -305
25 -18 38 -37 47 -68 14 -50 67 -100 114 -106 291 -42 295 -42 435 -9 36 8 88
61 110 112 37 82 42 149 31 441 -11 302 -31 449 -81 619 -17 55 -30 112 -30
126 0 32 -55 204 -87 274 -14 30 -31 75 -39 100 -7 25 -25 68 -39 95 -14 27
-25 56 -25 64 0 31 -70 222 -99 269 -17 28 -31 56 -31 63 0 7 -13 37 -30 67
-17 29 -30 57 -30 62 0 14 -100 161 -110 161 -5 0 -12 10 -16 23 -4 12 -21 40
-39 62 -17 22 -47 67 -65 100 -18 33 -47 80 -64 105 -17 25 -35 52 -41 61 -5
9 -29 48 -53 85 -23 38 -48 78 -55 89 -6 11 -26 43 -44 72 -18 28 -33 56 -33
61 0 5 -9 21 -20 34 -11 14 -46 77 -79 139 -80 154 -99 187 -147 250 -47 62
-200 209 -217 209 -7 0 -44 29 -82 65 -39 35 -75 64 -82 65 -7 0 -17 9 -23 20
-6 11 -23 26 -38 34 -15 8 -41 29 -59 45 -18 17 -36 31 -41 31 -5 0 -22 13
-38 30 -16 16 -34 30 -40 30 -5 0 -23 14 -39 30 -16 17 -66 55 -111 85 -46 30
-86 59 -89 65 -3 5 -13 10 -21 10 -7 0 -36 16 -63 35 -26 19 -52 35 -56 35 -5
0 -67 29 -139 64 -72 35 -144 67 -161 71 -16 3 -48 15 -70 25 -53 24 -222 64
-365 85 -153 23 -280 12 -529 -46 -73 -17 -247 -78 -314 -110 -34 -16 -69 -29
-77 -29 -8 -1 -37 -11 -65 -24 -27 -13 -53 -21 -57 -18 -3 4 -11 30 -16 57 -6
28 -22 86 -37 130 -15 44 -38 116 -52 160 -14 44 -29 84 -34 90 -5 5 -9 16 -9
25 0 20 -36 97 -50 105 -5 3 -10 12 -10 20 0 39 -172 235 -206 235 -8 0 -47
14 -89 30 -75 30 -77 30 -268 30 -132 -1 -211 -5 -252 -15 -33 -8 -65 -15 -72
-15 -10 0 -13 184 -16 818 -3 769 -5 825 -25 962 -12 80 -26 213 -32 295 -6
83 -24 278 -41 435 -16 157 -29 308 -29 335 0 28 -10 124 -21 215 -11 91 -28
235 -38 320 -11 85 -28 190 -40 233 -12 42 -26 119 -31 170 -13 122 -64 296
-111 375 -10 18 -19 37 -19 43 0 12 -79 140 -95 154 -6 6 -19 21 -28 35 -24
35 -126 148 -162 179 -16 14 -51 47 -77 74 -27 26 -51 47 -55 47 -4 0 -18 10
-32 23 -49 45 -153 97 -231 117 -103 26 -262 26 -379 -1z m299 -293 c62 -20
102 -41 130 -71 13 -14 27 -25 32 -25 5 0 25 -17 46 -37 20 -21 55 -55 77 -75
48 -45 95 -98 95 -108 0 -4 12 -19 27 -34 15 -15 31 -35 37 -46 6 -10 23 -40
39 -66 15 -25 27 -52 27 -58 0 -7 12 -37 26 -67 15 -31 30 -84 35 -124 11 -96
24 -165 47 -265 31 -129 82 -506 82 -600 0 -27 15 -192 34 -367 19 -175 37
-365 41 -423 3 -58 18 -202 32 -320 26 -211 26 -232 34 -1100 4 -487 8 -889 8
-895 0 -5 -2 -29 -5 -52 -6 -41 12 -181 41 -318 46 -221 59 -286 68 -340 5
-33 25 -116 43 -183 19 -68 34 -131 34 -139 0 -9 13 -59 29 -112 16 -53 37
-123 46 -156 10 -33 26 -78 36 -99 11 -22 19 -45 19 -51 0 -7 -25 -34 -56 -61
-30 -27 -81 -75 -112 -108 -31 -32 -65 -65 -74 -74 -10 -9 -18 -21 -18 -28 0
-6 -8 -18 -18 -27 -10 -9 -45 -70 -77 -134 -32 -65 -69 -131 -82 -146 -13 -16
-23 -33 -23 -38 0 -5 -27 -46 -60 -91 -33 -45 -65 -100 -71 -122 -6 -23 -22
-62 -35 -88 -13 -26 -24 -54 -24 -61 0 -8 -9 -34 -19 -58 -11 -24 -25 -85 -32
-136 l-13 -91 -31 24 c-18 13 -35 24 -40 24 -4 0 -29 16 -55 35 -26 19 -51 35
-55 35 -3 0 -25 12 -48 28 -23 15 -58 35 -77 45 -19 10 -62 34 -95 54 -63 37
-125 72 -185 103 -19 9 -55 28 -80 41 -128 66 -198 96 -251 108 -24 6 -60 17
-79 25 -68 28 -340 78 -524 97 -162 16 -708 6 -816 -15 -47 -9 -91 -18 -98
-21 -7 -2 -17 5 -21 18 -14 33 -71 282 -71 306 0 11 -13 87 -29 168 -16 82
-39 252 -51 378 -12 127 -26 268 -32 315 -16 127 -17 1492 0 1640 23 214 42
643 42 957 0 319 14 484 55 644 8 31 15 67 15 80 0 36 58 244 89 324 16 39 31
82 35 97 3 15 20 56 36 91 17 36 30 71 30 79 0 7 13 40 29 73 55 113 101 217
101 229 0 17 38 93 50 101 5 3 10 13 10 21 0 8 16 38 35 67 19 28 35 57 35 63
0 6 7 17 15 24 8 7 29 39 47 71 17 33 34 59 38 59 4 0 13 15 21 33 7 17 16 34
20 37 3 3 24 32 45 65 20 33 46 69 56 79 10 11 18 26 18 33 0 7 4 13 8 13 4 0
25 27 45 59 21 32 47 67 58 76 10 10 19 23 19 29 0 5 11 22 25 36 15 14 50 50
80 80 73 73 89 87 133 112 20 11 49 29 64 39 14 11 30 19 35 19 5 0 19 9 31
20 11 11 40 30 64 42 24 12 54 29 68 38 14 10 36 21 50 25 14 4 57 21 95 38
39 16 84 34 100 38 17 4 82 26 145 49 63 22 131 45 150 49 55 14 151 12 200
-3z m1680 -4829 c39 -17 59 -37 84 -82 9 -16 20 -37 26 -45 21 -35 68 -148 75
-180 4 -19 20 -73 36 -119 16 -46 29 -91 29 -100 0 -9 14 -52 30 -94 17 -43
30 -80 30 -81 0 -3 -100 -66 -105 -66 -2 0 -36 -23 -77 -50 -40 -28 -111 -76
-158 -108 -47 -31 -116 -83 -154 -114 -74 -63 -96 -71 -96 -35 0 12 -12 54
-26 92 -14 39 -29 90 -34 115 -4 25 -21 97 -38 160 -17 63 -35 138 -40 165
-12 64 -48 246 -72 355 -10 47 -21 103 -25 125 l-6 40 58 14 c138 33 395 38
463 8z m1660 -648 c104 -16 305 -76 334 -101 6 -4 18 -8 28 -8 9 0 39 -13 65
-28 26 -16 63 -34 82 -40 19 -7 49 -23 67 -37 18 -14 36 -25 40 -25 13 0 174
-112 174 -121 0 -5 6 -9 14 -9 7 0 27 -14 44 -31 17 -17 40 -37 50 -43 19 -11
105 -76 150 -112 12 -11 40 -32 62 -49 22 -16 64 -52 93 -79 28 -27 72 -62 97
-79 61 -41 92 -71 148 -142 56 -72 69 -94 127 -217 9 -18 34 -62 55 -98 22
-36 47 -78 54 -95 8 -16 28 -49 45 -72 17 -24 31 -46 31 -49 0 -9 92 -156 107
-172 6 -6 15 -22 19 -34 3 -12 15 -31 26 -42 11 -12 29 -39 40 -61 12 -22 42
-71 67 -108 25 -38 51 -77 57 -88 6 -11 23 -33 38 -48 14 -15 26 -30 26 -34 0
-4 16 -29 35 -56 19 -26 35 -55 35 -62 0 -8 13 -37 29 -66 16 -28 31 -63 35
-77 3 -14 11 -26 16 -26 5 0 19 -33 30 -72 30 -107 41 -140 55 -173 8 -16 26
-61 41 -100 14 -38 32 -83 39 -100 7 -16 24 -58 39 -93 14 -35 28 -82 31 -105
3 -23 21 -98 40 -167 59 -218 76 -338 85 -593 4 -128 7 -233 6 -234 -1 -1 -21
7 -45 18 -24 10 -52 19 -63 19 -34 0 -187 110 -269 193 -43 44 -79 84 -79 89
0 5 -12 21 -26 36 -14 15 -37 45 -51 67 -15 22 -32 46 -40 53 -7 7 -13 17 -13
21 0 4 -13 23 -30 41 -16 18 -30 39 -30 46 0 7 -3 14 -8 16 -4 2 -25 28 -47
58 -22 30 -48 64 -57 74 -10 11 -20 28 -24 38 -3 10 -9 18 -13 18 -5 0 -21 19
-37 43 -15 23 -37 52 -47 64 -11 12 -25 31 -31 42 -30 53 -211 275 -300 368
-39 41 -59 60 -186 183 -63 61 -135 122 -186 159 -19 13 -34 28 -34 33 0 4 -6
8 -13 8 -7 0 -28 16 -47 35 -19 19 -37 35 -41 35 -4 0 -29 15 -57 33 -48 31
-88 56 -141 87 -40 24 -85 54 -91 60 -3 4 -20 12 -37 19 -18 8 -33 16 -33 20
0 4 -25 20 -55 36 -30 15 -62 37 -71 47 -10 10 -23 18 -31 18 -14 0 -85 48
-91 63 -2 4 -11 7 -19 7 -9 0 -30 10 -47 23 -30 23 -101 65 -161 95 -16 8 -49
28 -72 44 -23 15 -48 28 -57 28 -8 0 -21 6 -28 13 -7 8 -36 26 -63 41 -28 16
-57 34 -65 41 -8 7 -37 24 -65 37 -27 14 -66 33 -85 43 -19 10 -46 24 -60 31
-14 7 -68 34 -122 62 -53 27 -109 53 -125 56 -15 4 -56 21 -91 37 -35 16 -68
29 -73 29 -6 0 -45 12 -87 26 -176 59 -474 84 -550 45 -28 -14 -52 -17 -98
-14 -44 4 -69 1 -92 -11 -17 -9 -51 -16 -76 -16 -110 0 -260 -54 -396 -142
-53 -34 -280 -247 -280 -262 0 -4 -13 -19 -30 -33 -16 -13 -30 -29 -30 -33 0
-5 -10 -20 -22 -34 -36 -38 -48 -54 -48 -64 0 -4 -8 -17 -18 -28 -10 -10 -24
-28 -30 -39 -21 -37 -14 25 9 75 12 25 27 66 35 92 12 39 90 169 113 188 7 6
29 44 69 120 17 30 46 87 67 125 20 39 46 79 56 91 10 11 19 25 19 30 0 10 55
66 203 205 74 70 113 102 227 185 41 30 78 61 83 69 4 8 14 15 22 15 7 0 26
14 42 30 15 17 31 30 34 30 9 0 140 88 165 111 11 10 25 19 31 19 5 0 23 11
38 24 15 13 40 30 54 37 14 8 42 24 61 36 90 57 272 148 378 189 40 15 75 31
78 36 3 4 15 8 28 8 12 0 26 4 32 8 15 14 122 49 237 77 165 41 316 49 477 24z
m-5776 -744 c28 -197 37 -248 72 -405 42 -192 43 -200 7 -200 -30 0 -142 -45
-291 -118 -115 -56 -214 -120 -286 -184 -49 -44 -56 -38 -41 40 24 125 53 287
65 367 7 44 21 103 31 130 10 28 19 55 19 62 0 10 39 103 72 169 5 12 21 34
34 49 13 15 24 34 24 41 0 7 8 21 18 31 10 10 38 45 62 77 25 33 76 86 115
118 l70 59 6 -63 c4 -35 14 -112 23 -173z m4106 -765 c0 -12 16 -62 35 -111
19 -50 35 -96 35 -103 0 -6 14 -40 30 -74 17 -35 30 -71 30 -79 0 -8 16 -42
35 -74 19 -33 35 -65 35 -71 0 -6 6 -19 14 -27 8 -9 47 -79 87 -156 75 -146
96 -185 157 -298 20 -37 86 -165 146 -285 139 -278 147 -294 163 -310 7 -7 13
-18 13 -23 0 -8 136 -193 173 -233 9 -11 17 -23 17 -28 0 -4 16 -30 35 -57 19
-26 35 -53 35 -58 0 -20 165 -243 225 -303 14 -14 25 -29 25 -34 0 -4 15 -22
33 -41 56 -57 91 -97 178 -200 46 -55 92 -109 101 -119 10 -11 18 -24 18 -29
0 -5 10 -20 23 -32 12 -12 40 -46 62 -74 22 -29 55 -69 73 -90 17 -21 32 -42
32 -47 0 -4 13 -22 29 -38 17 -17 45 -48 63 -69 136 -155 222 -243 603 -620
484 -479 472 -468 502 -483 28 -15 93 -75 93 -86 0 -7 46 -55 286 -299 57 -58
104 -108 104 -112 0 -3 12 -19 26 -34 15 -15 37 -44 49 -63 12 -19 30 -41 39
-49 9 -7 16 -19 16 -27 0 -7 8 -19 18 -26 10 -7 27 -26 37 -43 10 -16 29 -47
43 -67 25 -39 49 -81 79 -138 9 -19 33 -53 53 -76 19 -22 49 -57 65 -78 17
-20 45 -50 63 -68 17 -17 32 -36 32 -41 0 -5 25 -36 55 -69 31 -33 63 -72 72
-87 9 -14 28 -38 42 -52 14 -15 40 -43 56 -64 17 -20 42 -49 56 -63 15 -15 32
-37 38 -49 6 -13 18 -23 25 -23 15 0 101 -118 93 -127 -3 -3 -25 -9 -49 -14
-48 -11 -111 -50 -146 -91 -13 -16 -28 -28 -33 -28 -6 0 -20 -12 -33 -27 l-23
-26 -44 20 c-24 11 -80 36 -124 56 -44 19 -91 40 -105 46 -14 6 -52 26 -85 45
-33 19 -91 52 -128 73 -110 61 -120 67 -169 101 -26 17 -50 32 -53 32 -4 0
-22 12 -40 28 -18 15 -69 54 -114 86 -44 32 -81 63 -81 67 0 5 -6 9 -13 9 -7
0 -29 15 -49 33 -20 17 -66 55 -104 82 -70 51 -83 62 -145 114 -20 17 -41 31
-47 31 -6 0 -15 6 -19 13 -4 8 -35 33 -68 57 -33 24 -62 47 -65 50 -3 4 -10 9
-16 11 -6 2 -24 14 -40 27 -16 12 -56 44 -90 70 -33 26 -93 73 -132 105 -39
31 -75 57 -81 57 -5 0 -16 8 -23 18 -7 10 -26 27 -42 38 -29 18 -54 39 -165
139 -31 27 -65 56 -75 65 -11 8 -29 25 -41 38 -12 12 -26 22 -31 22 -5 0 -22
14 -39 30 -51 52 -109 100 -122 100 -6 0 -13 4 -15 9 -1 4 -37 36 -78 70 -41
34 -87 73 -102 87 -14 13 -30 24 -35 24 -5 0 -24 16 -43 35 -19 19 -37 35 -41
35 -4 0 -27 20 -52 45 -25 25 -63 56 -84 70 -21 15 -67 52 -102 83 -35 31 -70
60 -77 65 -28 16 -177 161 -221 215 -20 23 -39 42 -43 42 -20 0 -480 461 -480
481 0 4 -13 17 -30 29 -16 12 -30 27 -30 33 0 7 -13 25 -30 40 -16 16 -30 35
-30 43 0 8 -4 14 -9 14 -9 0 -76 97 -112 160 -8 15 -29 45 -47 68 -18 22 -32
45 -32 50 0 6 -13 32 -28 59 -49 84 -44 75 -267 508 -108 210 -110 215 -131
265 -10 24 -29 63 -40 85 -12 22 -61 117 -108 210 -48 94 -111 217 -141 274
-30 57 -55 110 -55 118 0 7 -3 13 -7 13 -7 0 -44 68 -73 130 -7 16 -35 71 -69
138 l-23 42 21 43 c12 24 21 49 21 57 0 25 110 250 123 250 4 0 7 8 7 18 1 9
14 33 30 52 17 19 30 38 30 44 0 15 110 147 195 232 100 100 179 154 275 187
94 32 120 34 120 7z m-2555 -124 c66 -15 138 -29 160 -32 61 -9 223 -62 288
-95 32 -16 64 -29 70 -29 7 0 36 -16 64 -35 29 -19 58 -35 64 -35 7 0 20 -6
28 -14 9 -7 43 -28 76 -46 33 -18 67 -38 75 -46 8 -7 29 -18 45 -25 29 -12 28
-13 -40 -20 -89 -8 -263 -44 -335 -68 -30 -10 -104 -39 -164 -65 -60 -25 -113
-46 -118 -46 -5 0 -42 -19 -81 -41 -72 -42 -176 -127 -252 -206 -38 -39 -58
-61 -149 -164 -21 -24 -52 -64 -69 -89 -16 -25 -38 -54 -48 -65 -21 -24 -60
-91 -90 -155 -11 -25 -26 -52 -34 -60 -16 -18 -85 -173 -96 -215 -4 -16 -20
-61 -35 -100 -25 -67 -35 -118 -50 -265 -4 -36 -11 -70 -16 -77 -8 -10 -26
-56 -87 -223 -9 -25 -27 -60 -40 -79 -36 -50 -47 -184 -27 -321 24 -163 72
-702 96 -1064 6 -88 13 -163 16 -167 2 -4 8 -61 13 -126 12 -154 67 -410 107
-498 7 -16 18 -95 24 -175 6 -80 15 -179 20 -220 5 -41 9 -102 10 -134 0 -116
59 -393 127 -608 24 -76 35 -134 53 -273 5 -38 16 -97 25 -130 9 -34 19 -124
22 -208 6 -144 5 -149 -21 -217 -15 -38 -41 -84 -57 -101 l-29 -31 -118 4
c-103 5 -127 9 -197 38 -44 18 -96 45 -116 61 -20 16 -40 29 -43 29 -19 0
-137 102 -220 189 -22 24 -64 66 -92 95 -45 45 -86 96 -161 199 -13 17 -30 35
-38 40 -8 4 -15 14 -15 22 0 8 -9 20 -19 27 -19 14 -95 119 -215 298 -35 53
-71 102 -80 109 -9 7 -16 18 -16 23 0 5 -11 24 -23 41 -23 30 -80 129 -120
207 -10 19 -28 51 -40 71 -12 20 -35 58 -51 85 -16 27 -39 65 -51 84 -52 82
-103 188 -261 540 -37 83 -94 240 -94 259 0 6 -14 53 -31 104 -17 51 -34 112
-39 137 -4 25 -19 92 -33 150 -14 58 -30 134 -36 170 -5 36 -19 108 -31 160
-12 52 -25 133 -30 180 -5 47 -16 139 -25 205 -10 76 -18 237 -21 440 -5 280
-3 347 16 540 12 121 25 272 30 335 4 63 22 175 39 248 17 73 31 145 31 160 0
32 47 213 95 367 18 61 37 124 40 140 3 17 16 56 27 88 17 48 24 57 45 57 45
0 88 32 223 169 132 134 217 211 230 211 4 0 20 13 36 30 16 16 33 30 37 30 5
0 27 16 50 35 22 19 45 35 51 35 6 0 29 14 50 30 22 17 46 30 54 30 8 0 35 11
61 25 25 14 88 38 140 53 93 29 93 29 129 10 52 -26 77 -24 337 27 54 10 157
13 450 11 370 -3 383 -4 500 -30z m1135 -715 c47 -18 102 -46 122 -62 20 -16
40 -29 45 -29 4 0 19 -12 32 -25 13 -14 46 -35 73 -47 40 -17 55 -31 83 -80
19 -32 35 -65 35 -73 0 -7 7 -20 15 -29 9 -8 29 -43 45 -78 16 -35 38 -79 49
-98 10 -19 38 -75 62 -125 24 -49 46 -92 50 -95 3 -3 32 -59 64 -125 32 -66
61 -122 65 -125 4 -3 28 -50 55 -105 83 -174 203 -414 305 -610 55 -104 114
-222 133 -261 19 -39 40 -74 46 -78 6 -4 11 -16 11 -26 0 -10 3 -20 8 -22 11
-5 62 -76 62 -87 0 -5 14 -25 30 -43 17 -18 30 -38 30 -45 0 -7 8 -21 18 -31
27 -30 52 -62 52 -68 0 -8 119 -145 228 -263 91 -98 223 -228 423 -418 24 -22
64 -63 89 -90 25 -26 83 -81 130 -122 47 -40 110 -96 141 -123 31 -27 76 -63
99 -78 23 -15 61 -48 85 -74 24 -25 48 -46 54 -46 5 0 22 -13 38 -30 15 -16
33 -30 40 -30 7 0 16 -6 20 -14 4 -7 52 -48 106 -90 53 -43 97 -82 97 -87 0
-5 6 -9 13 -9 7 0 26 -13 42 -30 16 -16 34 -30 40 -30 6 0 20 -10 31 -22 11
-13 43 -41 70 -63 27 -22 74 -62 104 -90 102 -91 168 -147 181 -156 8 -4 25
-18 39 -29 14 -12 61 -49 105 -83 105 -81 102 -78 137 -109 17 -16 37 -28 44
-28 7 0 19 -8 26 -18 7 -10 50 -44 96 -76 46 -32 91 -66 100 -76 9 -9 27 -23
39 -29 13 -6 33 -21 45 -32 45 -41 198 -159 206 -159 4 0 23 -16 42 -35 19
-19 39 -35 46 -35 7 0 14 -4 16 -8 3 -9 116 -98 146 -117 10 -5 32 -22 50 -37
18 -16 37 -28 43 -28 5 0 19 -9 31 -20 11 -10 42 -29 67 -41 25 -12 48 -25 51
-29 5 -7 53 -35 180 -103 41 -22 81 -46 88 -54 7 -7 19 -13 25 -13 7 0 39 -13
72 -29 33 -15 94 -45 136 -64 l75 -36 -33 -98 c-34 -101 -43 -195 -23 -233 9
-16 7 -20 -12 -25 -13 -3 -43 -9 -68 -15 -25 -6 -133 -15 -240 -22 -156 -9
-296 -8 -705 5 -545 17 -582 20 -825 84 -52 13 -113 28 -135 33 -22 5 -96 29
-165 54 -69 24 -170 61 -225 80 -55 20 -116 43 -135 50 -19 8 -88 31 -153 51
-66 21 -140 49 -165 62 -26 14 -72 33 -102 43 -30 10 -104 39 -165 65 -60 26
-119 50 -130 53 -11 3 -41 18 -66 34 -25 15 -52 28 -59 28 -6 0 -32 14 -57 30
-24 17 -59 37 -76 45 -18 8 -59 33 -92 54 -33 22 -78 49 -100 60 -22 12 -52
32 -67 46 -15 14 -31 25 -36 25 -4 0 -21 14 -37 30 -16 17 -34 30 -41 30 -7 0
-19 8 -26 18 -7 10 -26 27 -43 38 -16 10 -37 24 -45 31 -8 6 -39 30 -67 53
-29 22 -53 45 -53 50 0 6 -6 10 -13 10 -7 0 -26 14 -42 30 -16 17 -32 30 -37
30 -5 0 -32 19 -61 43 -51 40 -165 125 -212 157 -13 8 -33 23 -46 33 -66 50
-114 83 -136 95 -13 7 -34 23 -47 35 -12 12 -39 36 -60 52 -161 130 -320 282
-558 532 -74 80 -112 139 -138 218 -7 22 -26 66 -41 97 -16 32 -29 66 -29 75
0 29 -57 91 -95 104 -19 7 -35 17 -35 21 0 5 -8 21 -19 36 -10 15 -54 81 -96
147 -75 116 -100 148 -205 265 -130 144 -177 201 -211 255 -15 23 -32 46 -38
49 -6 4 -11 13 -11 21 0 8 -13 34 -30 58 -16 25 -30 52 -30 60 0 9 -4 18 -9
21 -5 4 -26 36 -47 73 -21 37 -46 77 -56 87 -10 11 -18 28 -18 37 0 10 -3 19
-7 21 -12 5 -63 75 -63 85 0 5 -13 22 -30 38 -16 16 -30 32 -30 37 0 7 -28 43
-168 216 -15 19 -29 39 -32 45 -3 7 -17 30 -31 52 -14 22 -29 50 -33 61 -4 12
-15 32 -26 44 -10 12 -31 60 -46 107 -23 73 -26 94 -20 156 11 128 48 280 83
347 7 14 13 31 13 37 0 11 76 156 125 237 29 48 85 128 106 151 10 11 51 58
91 105 87 101 126 140 164 165 16 10 33 24 37 32 14 23 145 83 195 90 26 3 65
18 87 32 49 32 83 44 205 70 52 11 104 23 115 25 11 3 65 4 120 2 85 -2 112
-7 185 -35z m-1618 -1855 c17 -26 70 -96 143 -189 95 -120 103 -132 158 -218
16 -24 42 -63 58 -86 16 -23 29 -48 29 -57 0 -9 4 -16 9 -16 5 0 14 -13 21
-30 7 -16 16 -30 21 -30 5 0 12 -12 15 -27 4 -14 20 -46 36 -69 15 -23 28 -46
28 -50 0 -10 73 -117 113 -164 64 -77 144 -166 180 -201 20 -20 37 -40 37 -45
0 -5 14 -22 30 -38 17 -16 30 -33 30 -38 0 -4 8 -16 18 -26 34 -37 52 -62 52
-75 0 -7 9 -23 20 -35 18 -19 22 -41 27 -154 4 -73 7 -216 7 -318 0 -168 -3
-198 -32 -334 -18 -88 -38 -156 -48 -167 -14 -16 -32 -19 -98 -19 -45 0 -107
7 -139 15 -71 18 -174 65 -206 94 -13 11 -28 21 -33 21 -14 0 -158 136 -158
148 0 5 -16 23 -35 42 -19 19 -35 38 -35 42 0 5 -13 27 -30 50 -16 22 -30 45
-30 50 0 5 -13 38 -30 73 -16 35 -30 70 -30 78 0 7 -14 67 -31 133 -17 65 -34
166 -39 224 -4 58 -15 148 -23 200 -9 52 -20 190 -26 305 -13 252 -19 326 -31
425 -29 235 -40 349 -46 465 l-6 130 31 -45 c17 -25 37 -54 43 -64z"/>
<path d="M9774 3616 c-17 -8 -44 -31 -60 -52 l-29 -37 -3 -1701 c-2 -1675 -2
-1701 18 -1733 10 -18 38 -45 61 -60 l43 -28 315 0 316 0 48 28 c93 55 87 -33
87 1135 l0 1022 99 0 100 0 3 -218 3 -219 28 -36 c53 -70 61 -71 357 -75 375
-5 415 2 474 81 20 26 21 43 24 248 l3 219 100 0 99 0 0 -1022 c0 -1017 0
-1022 21 -1065 15 -30 35 -52 67 -71 l47 -27 305 0 c168 0 317 3 332 7 35 10
85 53 106 92 16 29 17 144 20 1671 2 902 0 1663 -3 1692 -7 57 -34 104 -78
137 -27 20 -42 21 -350 24 -177 2 -332 0 -344 -3 -33 -8 -94 -65 -109 -102
-10 -24 -14 -87 -14 -232 l0 -199 -207 -4 c-228 -4 -246 -8 -296 -68 -40 -47
-47 -90 -47 -292 l0 -188 -95 0 -95 0 0 198 c0 191 -1 200 -25 248 -18 36 -37
57 -67 75 -41 23 -52 24 -250 27 l-208 4 0 198 c0 211 -4 237 -48 283 -54 57
-54 57 -399 57 -245 -1 -325 -4 -349 -14z m624 -433 l2 -273 270 0 270 0 0
-270 0 -270 275 0 275 0 0 270 0 270 270 0 270 0 2 273 3 272 273 3 272 2 0
-1640 0 -1640 -275 0 -275 0 0 1090 0 1090 -270 0 -270 0 0 -270 0 -270 -275
0 -275 0 0 270 0 270 -270 0 -270 0 0 -1090 0 -1090 -275 0 -275 0 0 1640 0
1640 273 -2 272 -3 3 -272z"/>
<path d="M13324 3566 c-17 -8 -44 -31 -60 -52 l-29 -37 -3 -328 c-3 -367 -2
-375 64 -425 l37 -29 219 -3 218 -3 0 -200 c0 -248 11 -284 102 -330 33 -17
61 -19 243 -19 l205 0 0 -100 0 -100 -207 0 c-235 0 -252 -4 -307 -73 l-31
-39 -3 -214 -3 -214 -192 0 c-210 0 -246 -6 -290 -47 -59 -57 -57 -29 -57
-681 l0 -599 23 -34 23 -34 399 0 400 0 23 45 c22 44 22 46 22 522 l0 477 218
3 219 3 36 28 c68 51 72 67 75 300 l3 207 94 0 93 0 4 -207 c4 -233 8 -249 75
-300 l36 -28 219 -3 218 -3 0 -478 0 -478 23 -44 24 -44 398 0 399 0 22 33
c13 18 26 56 29 85 3 29 5 297 3 597 -3 599 0 571 -65 633 -44 41 -80 47 -290
47 l-192 0 -3 213 c-3 208 -4 214 -28 249 -47 69 -60 72 -300 78 l-215 5 -3
98 -3 97 208 0 c234 0 251 4 308 74 l30 38 3 218 3 219 218 3 218 3 36 28 c72
55 72 55 72 402 0 171 -3 322 -7 337 -11 38 -57 88 -95 104 -48 21 -652 20
-691 0 -36 -19 -78 -65 -91 -99 -7 -17 -11 -111 -11 -227 l0 -198 -207 -4
c-228 -4 -246 -8 -296 -68 -40 -47 -47 -90 -47 -292 l0 -188 -95 0 -95 0 0
198 c0 191 -1 200 -25 248 -18 36 -37 57 -67 75 -41 23 -52 24 -250 27 l-208
4 0 198 c0 211 -4 237 -48 283 -54 57 -54 57 -399 57 -245 -1 -325 -4 -349
-14z"/>
<path d="M8464 951 c-39 -18 -73 -54 -88 -96 -4 -10 -7 -163 -6 -339 1 -361
-1 -355 79 -411 l43 -30 321 0 322 0 46 32 c77 53 79 65 79 418 0 190 -4 314
-11 332 -5 15 -22 41 -37 57 -51 54 -65 56 -399 56 -279 0 -312 -2 -349 -19z"/>
</g>
</svg>
