<?xml version="1.0" encoding="UTF-8"?>
<svg version="1.1" xmlns="http://www.w3.org/2000/svg" width="225" height="225">
<path d="M0 0 C74.25 0 148.5 0 225 0 C225 74.25 225 148.5 225 225 C150.75 225 76.5 225 0 225 C0 150.75 0 76.5 0 0 Z " fill="#FED92D" transform="translate(0,0)"/>
<path d="M0 0 C21.12 0 42.24 0 64 0 C64 74.25 64 148.5 64 225 C44.86 225 25.72 225 6 225 C6 207.51 6 190.02 6 172 C0.06 172 -5.88 172 -12 172 C-12.2475 170.14375 -12.495 168.2875 -12.75 166.375 C-14.13985813 158.16132451 -17.49125328 153.88156004 -24 149 C-29.34885216 146.00694743 -29.34885216 146.00694743 -42 146 C-42 131.48 -42 116.96 -42 102 C-36.72 100.35 -31.44 98.7 -26 97 C-19.81013367 93.25723561 -19.81013367 93.25723561 -14.609375 88.37109375 C-12.27986417 86.38648622 -10.05454872 86.22062868 -7.0625 85.6875 C4.67346906 83.16236953 13.90854627 78.31137173 20.80078125 68.4140625 C31.93282456 50.63139802 33.11323754 31.39553648 34 11 C22.78 11 11.56 11 0 11 C0 7.37 0 3.74 0 0 Z " fill="#FEFEFE" transform="translate(161,0)"/>
<path d="M0 0 C21.12 0 42.24 0 64 0 C64 3.63 64 7.26 64 11 C52.78 11 41.56 11 30 11 C30.76857344 34.51834741 32.70943042 59.58191517 50.75 76.8125 C56.94533658 81.87381543 63.77696319 84.83413989 71.6875 85.875 C76.86952377 86.65083972 79.1728171 88.51786248 82.84375 92.12109375 C89.56419058 97.97712983 97.45263087 100.10058464 106 102 C106 116.52 106 131.04 106 146 C101.38 146.33 96.76 146.66 92 147 C85.74415474 149.86726241 81.09249182 153.74380768 78 160 C76.97189051 164.02840976 76.47159352 167.84997705 76 172 C70.06 172 64.12 172 58 172 C58 189.49 58 206.98 58 225 C38.86 225 19.72 225 0 225 C0 150.75 0 76.5 0 0 Z " fill="#FEFEFE" transform="translate(0,0)"/>
<path d="M0 0 C15.84 0 31.68 0 48 0 C48 3.63 48 7.26 48 11 C59.22 11 70.44 11 82 11 C82.52038056 34.41712521 80.13888864 57.34489603 63.9375 75.75 C57.58841244 81.67105919 48.69057463 85.89053142 40.125 87 C34.97912306 87.68361285 32.66899773 89.60938748 29.03125 93.1875 C22.91250626 98.6473021 14.15214654 102 6 102 C6 116.52 6 131.04 6 146 C10.62 146 15.24 146 20 146 C26.87066493 149.14905476 31.59090579 153.83883727 35.375 160.375 C36 163 36 163 36 172 C24.12 172 12.24 172 0 172 C0 115.24 0 58.48 0 0 Z " fill="#FCBF01" transform="translate(113,0)"/>
<path d="M0 0 C35.97 0 71.94 0 109 0 C109 17.49 109 34.98 109 53 C73.03 53 37.06 53 0 53 C0 35.51 0 18.02 0 0 Z " fill="#A07B54" transform="translate(58,172)"/>
<path d="M0 0 C17.49 0 34.98 0 53 0 C53 17.16 53 34.32 53 52 C35.51 52 18.02 52 0 52 C0 34.84 0 17.68 0 0 Z " fill="#705438" transform="translate(113,173)"/>
<path d="M0 0 C10.89 0 21.78 0 33 0 C33.52038056 23.41712521 31.13888864 46.34489603 14.9375 64.75 C7.48452441 71.69939616 -2.813283 76.16430189 -13 76 C-12.51789063 75.25234375 -12.03578125 74.5046875 -11.5390625 73.734375 C-10.90742188 72.74953125 -10.27578125 71.7646875 -9.625 70.75 C-8.99851563 69.77546875 -8.37203125 68.8009375 -7.7265625 67.796875 C-6.01001577 65.16838375 -6.01001577 65.16838375 -5.06640625 62.83203125 C-3.60645732 60.32391386 -1.78924894 59.42051506 0.6875 57.9375 C9.94711989 51.65752691 14.60611887 41.71833208 17 31 C17.92854896 25.01871417 18.45172182 19.03105999 19 13 C12.73 13 6.46 13 0 13 C0 8.71 0 4.42 0 0 Z " fill="#E47605" transform="translate(162,11)"/>
<path d="M0 0 C10.89 0 21.78 0 33 0 C33 3.96 33 7.92 33 12 C26.4 12 19.8 12 13 12 C15.9330406 35.36392693 15.9330406 35.36392693 28 55 C29.64424243 56.13729004 31.31279736 57.23997538 33 58.3125 C38.81479243 62.10437519 41.10558265 66.85914158 44 73 C44.99 74.485 44.99 74.485 46 76 C35.439342 76.17033319 25.25814825 71.45525701 17.5625 64.3125 C1.23854236 46.10500879 -0.2973935 23.19669331 0 0 Z " fill="#FE9804" transform="translate(30,11)"/>
<path d="M0 0 C0 14.52 0 29.04 0 44 C4.62 44 9.24 44 14 44 C20.87066493 47.14905476 25.59090579 51.83883727 29.375 58.375 C30 61 30 61 30 70 C18.12 70 6.24 70 -6 70 C-6 47.23 -6 24.46 -6 1 C-1 0 -1 0 0 0 Z " fill="#FDBF01" transform="translate(119,102)"/>
<path d="M0 0 C0 8.91 0 17.82 0 27 C-12.21 27 -24.42 27 -37 27 C-37 18.54623394 -36.78068684 13.93563302 -31.09375 8.015625 C-25.5287571 2.99051947 -21.78998655 0.81978253 -14.1875 0.375 C-13.00542969 0.30023438 -11.82335937 0.22546875 -10.60546875 0.1484375 C-7.07295875 0.00300372 -3.5355025 0 0 0 Z " fill="#FED92C" transform="translate(113,145)"/>
<path d="M0 0 C6.27 0 12.54 0 19 0 C19.04898438 2.26617188 19.09796875 4.53234375 19.1484375 6.8671875 C19.20265517 9.09478604 19.25988029 11.3222888 19.31738281 13.54980469 C19.35534878 15.08195677 19.3902541 16.61418821 19.421875 18.14648438 C19.64838803 29.67553864 19.64838803 29.67553864 21.58447266 41.02392578 C22 43 22 43 22 47 C13.32063726 44.02421849 9.17301715 37.81077794 5 30 C0.83365237 19.94071024 -0.13328818 10.79634298 0 0 Z " fill="#FFFDFB" transform="translate(44,24)"/>
<path d="M0 0 C6.27 0 12.54 0 19 0 C19.53341397 14.93559113 16.47812742 29.33302797 6.80859375 41.08203125 C4.38396256 43.6532924 2.11491406 45.33388318 -1 47 C-1.66 47 -2.32 47 -3 47 C-2.09651609 40.4174744 -2.09651609 40.4174744 -1.48461914 37.77075195 C-0.84928168 34.13828603 -0.76666457 30.5325853 -0.68359375 26.85546875 C-0.66281265 26.08568192 -0.64203156 25.31589508 -0.62062073 24.52278137 C-0.55553951 22.07777333 -0.49643409 19.63266317 -0.4375 17.1875 C-0.39427532 15.52407823 -0.35065979 13.86066656 -0.30664062 12.19726562 C-0.19916952 8.13161329 -0.09978915 4.06587711 0 0 Z " fill="#FEFDFC" transform="translate(162,24)"/>
<path d="M0 0 C2.31 0 4.62 0 7 0 C7 13.86 7 27.72 7 42 C4.69 42 2.38 42 0 42 C0 28.14 0 14.28 0 0 Z " fill="#FFB446" transform="translate(106,103)"/>
<path d="M0 0 C0 14.19 0 28.38 0 43 C-1.98 43 -3.96 43 -6 43 C-6 29.14 -6 15.28 -6 1 C-1 0 -1 0 0 0 Z " fill="#FE9600" transform="translate(119,102)"/>
</svg>
